<?xml version="1.0" standalone="no"?>
<!DOCTYPE svg PUBLIC "-//W3C//DTD SVG 1.1//EN" "http://www.w3.org/Graphics/SVG/1.1/DTD/svg11.dtd" >
<svg>
<metadata>
Created by FontForge 20090914 at Mon Aug 13 22:34:29 2012
 By www-data
2009 Albert-Jan Pool published by FSI FontShop International GmbH
</metadata>
<defs>
<font id="DINOffcPro-CondLight" horiz-adv-x="338" >
  <font-face 
    font-family="DIN Offc Pro Cond Light"
    font-weight="350"
    font-stretch="condensed"
    units-per-em="1000"
    panose-1="2 11 5 6 2 1 1 1 1 2"
    ascent="764"
    descent="-236"
    x-height="502"
    cap-height="712"
    bbox="-70 -230 886 1058"
    underline-thickness="32"
    underline-position="-79"
    unicode-range="U+0020-U+FEFF"
  />
<missing-glyph horiz-adv-x="357" 
d="M66 712h225v-712h-225v712zM259 32v648h-161v-648h161z" />
    <glyph glyph-name=".notdef" horiz-adv-x="357" 
d="M66 712h225v-712h-225v712zM259 32v648h-161v-648h161z" />
    <glyph glyph-name="space" unicode=" " horiz-adv-x="200" 
 />
    <glyph glyph-name="exclam" unicode="!" horiz-adv-x="216" 
d="M104 182v530h38v-530h-38zM94 0v58h58v-58h-58z" />
    <glyph glyph-name="quotedbl" unicode="&#x22;" horiz-adv-x="322" 
d="M212 536v176h52v-176h-52zM58 536v176h52v-176h-52z" />
    <glyph glyph-name="numbersign" unicode="#" horiz-adv-x="461" 
d="M325 449l-22 -176h74v-33h-78l-29 -240h-34l29 240h-100l-29 -240h-34l29 240h-73v33h77l22 176h-73v33h77l28 230h34l-28 -230h100l28 230h34l-28 -230h73v-33h-77zM191 449l-22 -176h100l22 176h-100z" />
    <glyph glyph-name="dollar" unicode="$" horiz-adv-x="388" 
d="M331 182c0 -38 -3.50098 -69.001 -10.501 -93.001s-18.167 -44 -33.5 -60c-18.667 -18.667 -44.667 -30 -78 -34v-109h-36v108c-18.667 1.33301 -35.334 4.66602 -50.001 9.99902s-27.667 13.666 -39 24.999c-8 8 -14.5 16.333 -19.5 25s-9.16699 18.5 -12.5 29.5
s-5.66602 23.667 -6.99902 38s-2 31.5 -2 51.5h40c0 -30.667 2.16699 -54.667 6.5 -72s12.5 -32 24.5 -44c14.667 -14.667 34.334 -23 59.001 -25v321l-33 14c-18 7.33301 -33 15.833 -45 25.5s-21.5 21.167 -28.5 34.5s-11.833 29.5 -14.5 48.5s-4 41.833 -4 68.5
c0 61.333 15 107 45 137c22 21.333 48.667 33.333 80 36v89h36v-89c33.333 -2.66699 60.666 -14.667 81.999 -36c17.333 -17.333 28.333 -36.166 33 -56.499s7 -45.5 7 -75.5h-40c0 24.667 -2.16699 45 -6.5 61s-12.166 30.667 -23.499 44c-13.333 14 -30.666 23 -51.999 27
v-299l35 -14c18.667 -7.33301 33.667 -16.666 45 -27.999s20.166 -24.666 26.499 -39.999s10.5 -32.833 12.5 -52.5s3 -41.5 3 -65.5zM290.999 180.999c0 23.333 -1.16699 43.334 -3.5 60.001s-6.33301 31 -12 43s-13.5 22.167 -23.5 30.5s-23 15.833 -39 22.5l-4 2v-306
c11.333 1.33301 21 4.16602 29 8.49902s15 9.5 21 15.5c13.333 13.333 22 29.5 26 48.5s6 44.167 6 75.5zM172.999 681c-21.333 -3.33301 -38 -11 -50 -23c-12.667 -12 -21.667 -27.833 -27 -47.5s-8 -41.5 -8 -65.5c0 -22.667 1 -41.667 3 -57s6 -28.5 12 -39.5
s14.333 -20.333 25 -28s25 -15.167 43 -22.5l2 -1v284z" />
    <glyph glyph-name="percent" unicode="%" horiz-adv-x="576" 
d="M234 438c0 -27.333 -8 -49.5 -24 -66.5s-37.333 -25.5 -64 -25.5s-48 8.5 -64 25.5s-24 39.167 -24 66.5v190c0 27.333 8 49.5 24 66.5s37.333 25.5 64 25.5s48 -8.5 64 -25.5s24 -39.167 24 -66.5v-190zM518 84c0 -27.333 -8 -49.5 -24 -66.5s-37.333 -25.5 -64 -25.5
s-48 8.5 -64 25.5s-24 39.167 -24 66.5v190c0 27.333 8 49.5 24 66.5s37.333 25.5 64 25.5s48 -8.5 64 -25.5s24 -39.167 24 -66.5v-190zM483 274c0 18.667 -4.5 33.5 -13.5 44.5s-22.167 16.5 -39.5 16.5s-30.5 -5.5 -39.5 -16.5s-13.5 -25.833 -13.5 -44.5v-190
c0 -18.667 4.5 -33.5 13.5 -44.5s22.167 -16.5 39.5 -16.5s30.5 5.5 39.5 16.5s13.5 25.833 13.5 44.5v190zM199 628c0 18.667 -4.5 33.5 -13.5 44.5s-22.167 16.5 -39.5 16.5s-30.5 -5.5 -39.5 -16.5s-13.5 -25.833 -13.5 -44.5v-190c0 -18.667 4.5 -33.5 13.5 -44.5
s22.167 -16.5 39.5 -16.5s30.5 5.5 39.5 16.5s13.5 25.833 13.5 44.5v190zM181 0h-34l248 712h34z" />
    <glyph glyph-name="ampersand" unicode="&#x26;" horiz-adv-x="481" 
d="M428 0l-61.001 92c-11.333 -14.667 -22.833 -28.167 -34.5 -40.5s-24.167 -22.833 -37.5 -31.5s-28.166 -15.5 -44.499 -20.5s-34.833 -7.5 -55.5 -7.5c-21.333 0 -41.333 3.83301 -60 11.5s-35 18.667 -49 33s-25.167 31.833 -33.5 52.5s-12.5 44.334 -12.5 71.001
c0 22 2.5 42.5 7.5 61.5s12.833 37.5 23.5 55.5s24.167 36 40.5 54s35.833 37 58.5 57c-19.333 26.667 -35 49.167 -47 67.5s-21.667 34.5 -29 48.5s-12.333 26.833 -15 38.5s-4 24.5 -4 38.5c0 16 2.5 32.167 7.5 48.5s12.833 31 23.5 44s24.167 23.667 40.5 32
s35.833 12.5 58.5 12.5c42.667 0 75 -12 97 -36s33 -55 33 -93c0 -21.333 -2 -40.333 -6 -57s-10.667 -32.834 -20 -48.501s-21.333 -31.5 -36 -47.5s-32.667 -33.667 -54 -53l149 -223c6.66699 10.667 13.167 23.334 19.5 38.001s11.833 30 16.5 46s8.5 32.333 11.5 49
s5.16699 32.667 6.5 48h40c-3.33301 -41.333 -11 -80.333 -23 -117s-28 -69.334 -48 -98.001l84 -126h-47zM189.999 358c-37.333 -36 -65 -68.833 -83 -98.5s-27 -61.167 -27 -94.5c0 -18 2.5 -35.333 7.5 -52s12.5 -31.167 22.5 -43.5s22.5 -22.333 37.5 -30
s32.167 -11.5 51.5 -11.5c30 0 56.5 9.16699 79.5 27.5s45.167 41.5 66.5 69.5zM294.999 587c0 28 -8.33105 50.999 -24.998 68.999s-38.334 27 -65.001 27c-16 0 -29.833 -3.16699 -41.5 -9.5s-21 -14.5 -28 -24.5s-12.167 -21 -15.5 -33s-5 -23.333 -5 -34
c0 -11.333 1.16699 -21.833 3.5 -31.5s6.5 -20.667 12.5 -33s14.5 -26.666 25.5 -42.999l42.5 -61.5c14.667 14 28 27.5 40 40.5s22.167 26.167 30.5 39.5s14.666 27.5 18.999 42.5s6.5 32.167 6.5 51.5z" />
    <glyph glyph-name="quotesingle" unicode="'" horiz-adv-x="168" 
d="M58 536v176h52v-176h-52z" />
    <glyph glyph-name="parenleft" unicode="(" horiz-adv-x="206" 
d="M140 -94c-12.667 12.667 -24.167 25.1709 -34.5 37.5039s-18.833 24.5 -25.5 36.5c-7.33301 15.333 -12.166 30.166 -14.499 44.499s-3.5 29.5 -3.5 45.5v572c0 16 1.16699 31.167 3.5 45.5s7.16602 29.166 14.499 44.499c7.33301 14.667 16 27.5 26 38.5
s21.333 22.833 34 35.5l26 -26l-28 -28.5c-9.33301 -9.66699 -17 -20.834 -23 -33.501c-5.33301 -11.333 -9.16602 -23.833 -11.499 -37.5s-3.5 -28.5 -3.5 -44.5v-560c0 -16 1.16699 -30.833 3.5 -44.5s6.16602 -26.167 11.499 -37.5c6 -12.667 13.667 -23.834 23 -33.501
l28 -28.5z" />
    <glyph glyph-name="parenright" unicode=")" horiz-adv-x="206" 
d="M144 70c0 -16 -1.16699 -31.1709 -3.5 -45.5039s-7.16602 -29.166 -14.499 -44.499c-6.66699 -12 -15.167 -24.167 -25.5 -36.5s-21.833 -24.833 -34.5 -37.5l-26 26l28 28.5c9.33301 9.66699 17 20.834 23 33.501c5.33301 11.333 9.16602 23.833 11.499 37.5
s3.5 28.5 3.5 44.5v560c0 16 -1.16699 30.833 -3.5 44.5s-6.16602 26.167 -11.499 37.5c-6 12.667 -13.667 23.834 -23 33.501l-28 28.5l26 26c12.667 -12.667 24 -24.5 34 -35.5s18.667 -23.833 26 -38.5c7.33301 -15.333 12.166 -30.166 14.499 -44.499
s3.5 -29.5 3.5 -45.5v-572z" />
    <glyph glyph-name="asterisk" unicode="*" horiz-adv-x="352" 
d="M281 484l-90 53l2 -127h-34l2 127l-90 -53l-17 30l91 50l-91 50l17 30l90 -53l-2 127h34l-2 -127l90 53l17 -30l-91 -50l91 -50z" />
    <glyph glyph-name="plus" unicode="+" horiz-adv-x="422" 
d="M229 255v-143h-36v143h-143v36h143v143h36v-143h143v-36h-143z" />
    <glyph glyph-name="comma" unicode="," horiz-adv-x="168" 
d="M58 -80v140h52v-102z" />
    <glyph glyph-name="hyphen" unicode="-" horiz-adv-x="303" 
d="M58 255v36h187v-36h-187z" />
    <glyph glyph-name="period" unicode="." horiz-adv-x="186" 
d="M64 0v58h58v-58h-58z" />
    <glyph glyph-name="slash" unicode="/" horiz-adv-x="227" 
d="M42 -74h-42l185 860h42z" />
    <glyph glyph-name="zero" unicode="0" horiz-adv-x="346" 
d="M288 119c0 -23.333 -3 -42.5 -9 -57.5s-14 -27.5 -24 -37.5c-9.33301 -9.33301 -21.333 -17 -36 -23s-30 -9 -46 -9s-31.333 3 -46 9s-26.667 13.667 -36 23c-10 10 -18 22.5 -24 37.5s-9 34.167 -9 57.5v474c0 23.333 3 42.5 9 57.5s14 27.5 24 37.5
c9.33301 9.33301 21.333 17 36 23s30 9 46 9s31.333 -3 46 -9s26.667 -13.667 36 -23c10 -10 18 -22.5 24 -37.5s9 -34.167 9 -57.5v-474zM250 595c0 30.667 -7.5 53.5 -22.5 68.5s-33.167 22.5 -54.5 22.5s-39.5 -7.5 -54.5 -22.5s-22.5 -37.833 -22.5 -68.5v-478
c0 -30.667 7.5 -53.5 22.5 -68.5s33.167 -22.5 54.5 -22.5s39.5 7.5 54.5 22.5s22.5 37.833 22.5 68.5v478z" />
    <glyph glyph-name="one" unicode="1" horiz-adv-x="346" 
d="M161 0v667l-100 -90v48l100 87h38v-712h-38z" />
    <glyph glyph-name="two" unicode="2" horiz-adv-x="346" 
d="M53 0l-0.000976562 31l166 407c8.66699 21.333 16.834 44.833 24.501 70.5s11.5 54.5 11.5 86.5c0 30.667 -7.5 53.5 -22.5 68.5s-33.167 22.5 -54.5 22.5s-39.5 -7.5 -54.5 -22.5s-22.5 -37.833 -22.5 -68.5v-52h-38v52c0 22 3 40.5 9 55.5s14 27.5 24 37.5
c9.33301 9.33301 21.333 17 36 23s30 9 46 9s31.333 -3 46 -9s26.667 -13.667 36 -23c10 -10 18 -22.5 24 -37.5s9 -34.167 9 -57.5c0 -28 -4.16699 -56.833 -12.5 -86.5s-17.833 -57.167 -28.5 -82.5l-159 -390h200v-34h-240z" />
    <glyph glyph-name="three" unicode="3" horiz-adv-x="346" 
d="M287 194c0 -26 -0.500977 -47.999 -1.50098 -65.999s-3 -33.333 -6 -46s-6.83301 -23.334 -11.5 -32.001s-10.667 -17 -18 -25c-9.33301 -9.33301 -21.333 -17.166 -36 -23.499s-30 -9.5 -46 -9.5s-31.333 2.83301 -46 8.5s-26.667 13.167 -36 22.5
c-10 10 -18.167 22.5 -24.5 37.5s-9.5 34.167 -9.5 57.5v51h38v-51c0 -30.667 7.66699 -53.667 23 -69s33.666 -23 54.999 -23c22.667 0 40.334 7.33301 53.001 22c4.66699 6 8.83398 12.5 12.501 19.5s6.66699 15.833 9 26.5s4 24 5 40s1.5 36 1.5 60
c0 26.667 -0.5 48.5 -1.5 65.5s-2.5 30.833 -4.5 41.5s-4.83301 19 -8.5 25s-8.16699 12 -13.5 18c-14 14.667 -31.667 22 -53 22h-43v34h43c20.667 0 37 6.33301 49 19c9.33301 10 16 23.667 20 41s6 45 6 83s-2 65.667 -6 83s-10.333 30.666 -19 39.999
c-13.333 13.333 -30 20 -50 20c-21.333 0 -38.833 -7.66699 -52.5 -23s-20.5 -38.333 -20.5 -69v-51h-38v51c0 23.333 2.83301 42.5 8.5 57.5s13.5 27.5 23.5 37.5c9.33301 9.33301 20.833 16.833 34.5 22.5s28.5 8.5 44.5 8.5c32.667 0 59 -10 79 -30
c6 -6 11.167 -12.833 15.5 -20.5s7.83301 -17.167 10.5 -28.5s4.66699 -24.833 6 -40.5s2 -34.834 2 -57.501c0 -19.333 -0.333008 -35.5 -1 -48.5s-1.83398 -24.167 -3.50098 -33.5s-3.83398 -17.166 -6.50098 -23.499s-5.66699 -12.5 -9 -18.5
c-9.33301 -15.333 -22.666 -27.333 -39.999 -36c16.667 -8.66699 29.667 -19 39 -31c4.66699 -6.66699 8.83398 -13.5 12.501 -20.5s6.5 -16 8.5 -27s3.5 -25.167 4.5 -42.5s1.5 -40 1.5 -68z" />
    <glyph glyph-name="four" unicode="4" horiz-adv-x="346" 
d="M260 128v-128h-38v128h-185v34l180 550h38l-180 -550h147v226h38v-226h50v-34h-50z" />
    <glyph glyph-name="five" unicode="5" horiz-adv-x="346" 
d="M292 222c0 -30 -0.501953 -55.167 -1.50195 -75.5s-3 -37.666 -6 -51.999s-6.83301 -26.5 -11.5 -36.5s-10.667 -19.333 -18 -28c-9.33301 -11.333 -21.333 -20.5 -36 -27.5s-30 -10.5 -46 -10.5s-31.333 2.66699 -46 8s-26.667 12.666 -36 21.999
c-10 10 -18.333 22.667 -25 38s-10 34.666 -10 57.999v51h38v-47c0 -34 7.66699 -58.5 23 -73.5s34 -22.5 56 -22.5c22.667 0 40.667 9 54 27c4.66699 6.66699 8.83398 14 12.501 22s6.5 18.333 8.5 31s3.5 28.167 4.5 46.5s1.5 41.5 1.5 69.5s-0.5 51.333 -1.5 70
s-2.66699 34.167 -5 46.5s-5.33301 22.666 -9 30.999s-7.83398 15.833 -12.501 22.5c-12.667 17.333 -30.334 26 -53.001 26c-22 0 -40.667 -8.16699 -56 -24.5s-23 -38.166 -23 -65.499v-40h-35v424h223v-34h-188v-274c6.66699 12 17.334 23 32.001 33
c8.66699 5.33301 17.334 9 26.001 11s18 3 28 3c16 0 30.333 -3.33301 43 -10s23.667 -15.667 33 -27c7.33301 -8.66699 13.333 -18 18 -28s8.33398 -22.167 11.001 -36.5s4.5 -31.666 5.5 -51.999s1.5 -45.5 1.5 -75.5z" />
    <glyph glyph-name="six" unicode="6" horiz-adv-x="346" 
d="M292 208c0 -28 -0.498047 -51.8311 -1.49805 -71.498s-2.83301 -36.334 -5.5 -50.001s-6.33398 -25.167 -11.001 -34.5s-11 -18.333 -19 -27c-9.33301 -10.667 -21.333 -18.834 -36 -24.501s-30 -8.5 -46 -8.5s-31.333 2.83301 -46 8.5s-26.667 13.834 -36 24.501
c-8 8.66699 -14.333 17.667 -19 27s-8.33398 20.833 -11.001 34.5s-4.5 30.334 -5.5 50.001s-1.5 43.5 -1.5 71.5c0 43.333 2.16699 80.166 6.5 110.499s11.833 59.833 22.5 88.5l111 305h37l-114 -313c9.33301 7.33301 19 13.166 29 17.499s21.667 6.5 35 6.5
c30.667 0 56 -10.667 76 -32c6.66699 -7.33301 12.167 -14.833 16.5 -22.5s7.83301 -18 10.5 -31s4.66699 -29.667 6 -50s2 -46.833 2 -79.5zM254.002 208.002c0 48 -1.66699 83.667 -5 107s-10.666 41 -21.999 53c-14 14.667 -32 22 -54 22s-40 -7.33301 -54 -22
c-11.333 -12 -18.666 -29.667 -21.999 -53s-5 -59 -5 -107s1.66699 -83.667 5 -107s10.666 -41 21.999 -53c14 -14.667 32 -22 54 -22s40 7.33301 54 22c11.333 12 18.666 29.667 21.999 53s5 59 5 107z" />
    <glyph glyph-name="seven" unicode="7" horiz-adv-x="346" 
d="M105 0h-42l192 678h-165v-123h-38v157h243v-30z" />
    <glyph glyph-name="eight" unicode="8" horiz-adv-x="346" 
d="M292 194c0 -26 -0.501953 -48 -1.50195 -66s-3 -33.333 -6 -46s-6.83301 -23.334 -11.5 -32.001s-10.667 -17 -18 -25c-9.33301 -9.33301 -21.333 -17.166 -36 -23.499s-30 -9.5 -46 -9.5s-31.333 3.16699 -46 9.5s-26.667 14.166 -36 23.499
c-7.33301 8 -13.333 16.333 -18 25s-8.5 19.334 -11.5 32.001s-5 28 -6 46s-1.5 40 -1.5 66c0 28 0.5 50.667 1.5 68s2.5 31.5 4.5 42.5s4.66699 20 8 27s7.66602 13.833 12.999 20.5c9.33301 12 22.333 22.333 39 31c-17.333 8.66699 -30.666 20.667 -39.999 36
c-3.33301 6 -6.33301 12.167 -9 18.5s-4.83398 14.166 -6.50098 23.499s-3 20.5 -4 33.5s-1.5 29.167 -1.5 48.5c0 22.667 0.666992 41.834 2 57.501s3.33301 29.167 6 40.5s6.33398 20.833 11.001 28.5s10 14.5 16 20.5c20 20 46.333 30 79 30s59 -10 79 -30
c6 -6 11.333 -12.833 16 -20.5s8.33398 -17.167 11.001 -28.5s4.66699 -24.833 6 -40.5s2 -34.834 2 -57.501c0 -19.333 -0.5 -35.5 -1.5 -48.5s-2.33301 -24.167 -4 -33.5s-3.83398 -17.166 -6.50098 -23.499s-5.66699 -12.5 -9 -18.5
c-9.33301 -15.333 -22.666 -27.333 -39.999 -36c16.667 -8.66699 29.667 -19 39 -31c4.66699 -6.66699 8.83398 -13.5 12.501 -20.5s6.5 -16 8.5 -27s3.5 -25.167 4.5 -42.5s1.5 -40 1.5 -68zM253.998 194c0 26.667 -0.500977 48.5 -1.50098 65.5s-2.5 30.833 -4.5 41.5
s-4.83301 19 -8.5 25s-8.16699 12 -13.5 18c-14 14.667 -31.667 22 -53 22s-39 -7.33301 -53 -22c-5.33301 -6 -9.83301 -12 -13.5 -18s-6.5 -14.333 -8.5 -25s-3.5 -24.5 -4.5 -41.5s-1.5 -38.833 -1.5 -65.5c0 -24 0.5 -44 1.5 -60s2.66699 -29.333 5 -40
s5.16602 -19.5 8.49902 -26.5s7.66602 -13.5 12.999 -19.5c12.667 -14.667 30.334 -22 53.001 -22s40.334 7.33301 53.001 22c4.66699 6 8.83398 12.5 12.501 19.5s6.66699 15.833 9 26.5s4 24 5 40s1.5 36 1.5 60zM248.997 543c0 38 -2.16504 65.667 -6.49805 83
s-10.833 30.666 -19.5 39.999c-13.333 13.333 -30 20 -50 20s-36.667 -6.66699 -50 -20c-8.66699 -9.33301 -15.167 -22.666 -19.5 -39.999s-6.5 -45 -6.5 -83s2.16699 -65.667 6.5 -83s11.166 -31 20.499 -41c12 -12.667 28.333 -19 49 -19s37 6.33301 49 19
c9.33301 10 16.166 23.667 20.499 41s6.5 45 6.5 83z" />
    <glyph glyph-name="nine" unicode="9" horiz-adv-x="346" 
d="M292 504c0 -43.333 -2.16895 -80.168 -6.50195 -110.501s-11.833 -59.833 -22.5 -88.5l-111 -305h-37l114 313c-9.33301 -7.33301 -19 -13.166 -29 -17.499s-21.667 -6.5 -35 -6.5c-30.667 0 -56 10.667 -76 32c-6.66699 6.66699 -12.167 14 -16.5 22
s-7.83301 18.5 -10.5 31.5s-4.66699 29.667 -6 50s-2 46.833 -2 79.5c0 28 0.5 51.833 1.5 71.5s2.83301 36.334 5.5 50.001s6.33398 25.167 11.001 34.5s11 18.333 19 27c9.33301 10.667 21.333 18.834 36 24.501s30 8.5 46 8.5s31.333 -2.83301 46 -8.5
s26.667 -13.834 36 -24.501c8 -8.66699 14.333 -17.667 19 -27s8.33398 -20.833 11.001 -34.5s4.5 -30.334 5.5 -50.001s1.5 -43.5 1.5 -71.5zM253.998 503.998c0 48 -1.66699 83.667 -5 107s-10.666 41 -21.999 53c-14 14.667 -32 22 -54 22s-40 -7.33301 -54 -22
c-11.333 -12 -18.666 -29.667 -21.999 -53s-5 -59 -5 -107s1.66699 -83.667 5 -107s10.666 -41 21.999 -53c14 -14.667 32 -22 54 -22s40 7.33301 54 22c11.333 12 18.666 29.667 21.999 53s5 59 5 107z" />
    <glyph glyph-name="colon" unicode=":" horiz-adv-x="216" 
d="M94 349v58h58v-58h-58zM94 0v58h58v-58h-58z" />
    <glyph glyph-name="semicolon" unicode=";" horiz-adv-x="216" 
d="M97 -80v140h52v-102zM94 349v58h58v-58h-58z" />
    <glyph glyph-name="less" unicode="&#x3c;" horiz-adv-x="346" 
d="M34 261v40l278 161v-44l-238 -137l238 -137v-44z" />
    <glyph glyph-name="equal" unicode="=" horiz-adv-x="422" 
d="M50 310v36h322v-36h-322zM50 180v36h322v-36h-322z" />
    <glyph glyph-name="greater" unicode="&#x3e;" horiz-adv-x="346" 
d="M34 100v44l238 137l-238 137v44l278 -161v-40z" />
    <glyph glyph-name="question" unicode="?" horiz-adv-x="356" 
d="M310 555c0 -22 -1.6709 -41.165 -5.00391 -57.498s-10.666 -34.5 -21.999 -54.5l-58 -98c-7.33301 -12.667 -12.666 -25.167 -15.999 -37.5s-5 -25.5 -5 -39.5v-86h-38v91c0 28.667 7.33301 55.667 22 81l58 98c11.333 18.667 18.5 35.334 21.5 50.001
s4.5 32.334 4.5 53.001c0 30.667 -2.83301 53.5 -8.5 68.5s-13.167 27.5 -22.5 37.5c-7.33301 7.33301 -15.666 13 -24.999 17s-20.666 6 -33.999 6s-24.5 -2 -33.5 -6s-17.167 -9.33301 -24.5 -16c-11.333 -11.333 -18.833 -25 -22.5 -41s-5.5 -31.667 -5.5 -47h-38
c0 23.333 2.5 44.166 7.5 62.499s14.5 34.166 28.5 47.499c22.667 22.667 52 34 88 34c18 0 34.5 -2.5 49.5 -7.5s28.5 -13.833 40.5 -26.5c6 -6 11.333 -12.667 16 -20s8.66699 -15.833 12 -25.5s5.83301 -21.334 7.5 -35.001s2.5 -29.834 2.5 -48.501zM155.996 0.00195312
v58h58v-58h-58z" />
    <glyph glyph-name="at" unicode="@" horiz-adv-x="667" 
d="M604 369c0 -40.667 -4.66309 -81.0039 -13.9961 -121.004s-23.333 -75.833 -42 -107.5s-41.834 -57.334 -69.501 -77.001s-59.834 -29.5 -96.501 -29.5h-26l11 52c-10.667 -16.667 -22.834 -30.5 -36.501 -41.5s-28.834 -16.5 -45.501 -16.5
c-29.333 0 -50.5 10.833 -63.5 32.5s-19.5 50.5 -19.5 86.5c0 13.333 1.16699 29.833 3.5 49.5s5.16602 38.167 8.49902 55.5c7.33301 38.667 16.833 74 28.5 106s23.834 55.667 36.501 71c13.333 16.667 26.833 28.334 40.5 35.001s27.167 10 40.5 10
c20 0 36.167 -6.16699 48.5 -18.5s19.5 -26.166 21.5 -41.499l11 55h36l-80 -402c22.667 0 44.334 8 65.001 24s39 37.833 55 65.5s28.667 59.667 38 96s14 75.166 14 116.499s-4.33301 79 -13 113s-21 63.167 -37 87.5s-35.167 43.166 -57.5 56.499s-47.166 20 -74.499 20
c-40.667 0 -78.167 -13.5 -112.5 -40.5s-63.833 -62.167 -88.5 -105.5s-44 -92.666 -58 -147.999s-21 -111.333 -21 -168c0 -49.333 5.16699 -94.666 15.5 -135.999s25.166 -77.166 44.499 -107.499s42.666 -54 69.999 -71s58.333 -25.5 93 -25.5h27l-6 -29h-26
c-38.667 0 -73.5 9.33301 -104.5 28s-57.5 44.5 -79.5 77.5s-39 72.5 -51 118.5s-18 96 -18 150c0 62 7.83301 122.333 23.5 181s37.5 110.834 65.5 156.501s61.167 82.334 99.5 110.001s80.5 41.5 126.5 41.5c33.333 0 63.333 -7.33301 90 -22s49.5 -35.5 68.5 -62.5
s33.5 -59.5 43.5 -97.5s15 -80.333 15 -127zM395.004 251.996c3.33301 16 6.50098 33.999 9.50098 53.999s4.5 37.667 4.5 53c0 30 -5 51 -15 63s-21.333 18 -34 18c-10 0 -19.833 -2.66699 -29.5 -8s-19.167 -15.333 -28.5 -30c-5.33301 -8 -10.333 -17.667 -15 -29
s-9 -23.833 -13 -37.5l-12 -42c-4 -14.333 -7.33301 -28.5 -10 -42.5c-3.33301 -16.667 -6.33301 -35.167 -9 -55.5s-4 -38.166 -4 -53.499c0 -30 4.66699 -50.833 14 -62.5s20.666 -17.5 33.999 -17.5c11.333 0 21.833 3.83301 31.5 11.5s18.5 17.5 26.5 29.5
c9.33301 14.667 18 33 26 55s16 53.333 24 94z" />
    <glyph glyph-name="A" unicode="A" horiz-adv-x="347" 
d="M299 0l-43 214h-166l-42 -214h-44l153 712h36l150 -712h-44zM173 630l-75 -380h151z" />
    <glyph glyph-name="B" unicode="B" horiz-adv-x="396" 
d="M342 193c0 -22.667 -0.831055 -42.001 -2.49805 -58.001s-4.33398 -29.667 -8.00098 -41s-8.16699 -21.333 -13.5 -30s-11.666 -16.667 -18.999 -24c-14 -14.667 -30.167 -25 -48.5 -31s-41.5 -9 -69.5 -9h-109v712h110c28 0 50.667 -2.83301 68 -8.5
s32.666 -16.167 45.999 -31.5c14.667 -16 24.667 -34.167 30 -54.5s8 -49.166 8 -86.499c0 -25.333 -2.5 -49 -7.5 -71s-17.167 -42.667 -36.5 -62c-14.667 -14.667 -30.334 -24.334 -47.001 -29.001c19.333 -4 37 -13.333 53 -28c20.667 -20.667 33.5 -43.667 38.5 -69
s7.5 -51.666 7.5 -78.999zM302.002 192.999c0 56.667 -10 97 -30 121s-48 36 -84 36h-76v-314h76c18 0 34 2.33301 48 7s25.833 12.834 35.5 24.501s17.167 27.667 22.5 48s8 46.166 8 77.499zM294.002 530.999c0 28.667 -2.5 52.333 -7.5 71s-12 33.5 -21 44.5
s-20 18.667 -33 23s-27.833 6.5 -44.5 6.5h-76v-290h76c33.333 0 59.333 11.167 78 33.5s28 59.5 28 111.5z" />
    <glyph glyph-name="C" unicode="C" horiz-adv-x="382" 
d="M338 154c0 -27.333 -3.66602 -52.502 -10.999 -75.502s-19.333 -41.833 -36 -56.5c-22 -20 -51.333 -30 -88 -30c-19.333 0 -37.166 3 -53.499 9s-30.166 14.667 -41.499 26c-10.667 10.667 -19.167 22.334 -25.5 35.001s-11.333 30.5 -15 53.5s-6.16699 53.5 -7.5 91.5
s-2 87.667 -2 149s0.666992 111 2 149s3.83301 68.5 7.5 91.5s8.66699 40.833 15 53.5s14.833 24.334 25.5 35.001c11.333 11.333 25.166 20 41.499 26s34.166 9 53.499 9c21.333 0 39.5 -3 54.5 -9s28.167 -14.667 39.5 -26c14.667 -15.333 25.167 -34 31.5 -56
s9.5 -45.667 9.5 -71h-40c0 19.333 -2.33301 38.333 -7 57s-13 34 -25 46c-15.333 15.333 -36.333 23 -63 23c-29.333 0 -51.666 -8.33301 -66.999 -25c-8 -8.66699 -14.5 -18.167 -19.5 -28.5s-8.83301 -26 -11.5 -47s-4.5 -49.333 -5.5 -85s-1.5 -83.167 -1.5 -142.5
s0.5 -106.833 1.5 -142.5s2.83301 -64 5.5 -85s6.5 -36.667 11.5 -47s11.5 -19.833 19.5 -28.5c15.333 -16.667 37.666 -25 66.999 -25c14 0 26.167 2 36.5 6s19.166 9.66699 26.499 17c12 12 20.333 27.333 25 46s7 37.667 7 57h40z" />
    <glyph glyph-name="D" unicode="D" horiz-adv-x="407" 
d="M349 356c0 -60.667 -0.666992 -109.5 -2 -146.5s-3.66602 -66.833 -6.99902 -89.5s-8.16602 -40 -14.499 -52s-14.833 -23.333 -25.5 -34c-22.667 -22.667 -54 -34 -94 -34h-134v712h134c40 0 71.333 -11.333 94 -34c10.667 -10.667 19.167 -22 25.5 -34
s11.166 -29.333 14.499 -52s5.66602 -52.5 6.99902 -89.5s2 -85.833 2 -146.5zM309 356c0 58 -0.5 104.501 -1.5 139.501s-2.83301 62.667 -5.5 83s-6.5 35.666 -11.5 45.999s-11.833 19.833 -20.5 28.5c-15.333 15.333 -37.666 23 -66.999 23h-91v-640h91
c29.333 0 51.666 7.66699 66.999 23c8.66699 8.66699 15.5 18 20.5 28s8.83301 25.333 11.5 46s4.5 48.5 5.5 83.5s1.5 81.5 1.5 139.5z" />
    <glyph glyph-name="E" unicode="E" horiz-adv-x="352" 
d="M72 0v712h230v-36h-190v-302h164v-36h-164v-302h190v-36h-230z" />
    <glyph glyph-name="F" unicode="F" horiz-adv-x="348" 
d="M112 676v-302h164v-36h-164v-338h-40v712h230v-36h-190z" />
    <glyph glyph-name="G" unicode="G" horiz-adv-x="396" 
d="M338 138c0 -24.667 -3.83398 -46.1709 -11.501 -64.5039s-17.667 -33.5 -30 -45.5s-26.666 -21 -42.999 -27s-33.166 -9 -50.499 -9c-19.333 0 -37.166 3 -53.499 9s-30.166 14.667 -41.499 26c-10.667 10.667 -19.167 22.334 -25.5 35.001s-11.333 30.5 -15 53.5
s-6.16699 53.5 -7.5 91.5s-2 87.667 -2 149s0.666992 111 2 149s3.83301 68.5 7.5 91.5s8.66699 40.833 15 53.5s14.833 24.334 25.5 35.001c11.333 11.333 25.166 20 41.499 26s34.166 9 53.499 9c21.333 0 39.666 -3.16699 54.999 -9.5s28.666 -15.166 39.999 -26.499
c14 -15.333 24.167 -33.666 30.5 -54.999s9.5 -45 9.5 -71h-40c0 16 -1.33301 31.5 -4 46.5s-7.66699 28.333 -15 40s-17.166 21.167 -29.499 28.5s-27.833 11 -46.5 11c-29.333 0 -51.666 -8.33301 -66.999 -25c-8 -8.66699 -14.5 -18.167 -19.5 -28.5
s-8.83301 -26 -11.5 -47s-4.5 -49.333 -5.5 -85s-1.5 -83.167 -1.5 -142.5s0.5 -106.833 1.5 -142.5s2.83301 -64 5.5 -85s6.5 -36.667 11.5 -47s11.5 -19.833 19.5 -28.5c15.333 -16.667 37.666 -25 66.999 -25c26 0 48.333 9.33301 67 28s28 46.667 28 84v198h-95v36h135
v-236z" />
    <glyph glyph-name="H" unicode="H" horiz-adv-x="414" 
d="M302 0v344h-190v-344h-40v712h40v-332h190v332h40v-712h-40z" />
    <glyph glyph-name="I" unicode="I" horiz-adv-x="184" 
d="M72 0v712h40v-712h-40z" />
    <glyph glyph-name="J" unicode="J" horiz-adv-x="312" 
d="M248 141c0 -48.667 -13.332 -86.3311 -39.999 -112.998c-12.667 -12.667 -27.334 -21.834 -44.001 -27.501s-33.667 -8.5 -51 -8.5c-22 0 -41.333 4.16699 -58 12.5s-31.667 20.166 -45 35.499l30 25c9.33301 -11.333 20 -20.333 32 -27s25.667 -10 41 -10
c26.667 0 49.167 9.33301 67.5 28s27.5 47 27.5 85v571h40v-571z" />
    <glyph glyph-name="K" unicode="K" horiz-adv-x="387" 
d="M333 0l-147 373l-74 -145v-228h-40v712h40v-406l202 406h44l-146 -293l165 -419h-44z" />
    <glyph glyph-name="L" unicode="L" horiz-adv-x="324" 
d="M72 0v712h40v-676h190v-36h-230z" />
    <glyph glyph-name="M" unicode="M" horiz-adv-x="542" 
d="M430 0v619l-142 -406h-36l-140 392v-605h-40v712h44l155 -435l155 435h44v-712h-40z" />
    <glyph glyph-name="N" unicode="N" horiz-adv-x="438" 
d="M322 0l-210 602v-602h-40v712h44l210 -602v602h40v-712h-44z" />
    <glyph glyph-name="O" unicode="O" horiz-adv-x="406" 
d="M348 356c0 -61.333 -0.666992 -111 -2 -149s-3.83301 -68.5 -7.5 -91.5s-8.66699 -40.833 -15 -53.5s-14.833 -24.334 -25.5 -35.001c-11.333 -11.333 -25.166 -20 -41.499 -26s-34.166 -9 -53.499 -9s-37.166 3 -53.499 9s-30.166 14.667 -41.499 26
c-10.667 10.667 -19.167 22.334 -25.5 35.001s-11.333 30.5 -15 53.5s-6.16699 53.5 -7.5 91.5s-2 87.667 -2 149s0.666992 111 2 149s3.83301 68.5 7.5 91.5s8.66699 40.833 15 53.5s14.833 24.334 25.5 35.001c11.333 11.333 25.166 20 41.499 26s34.166 9 53.499 9
s37.166 -3 53.499 -9s30.166 -14.667 41.499 -26c10.667 -10.667 19.167 -22.334 25.5 -35.001s11.333 -30.5 15 -53.5s6.16699 -53.5 7.5 -91.5s2 -87.667 2 -149zM308 356c0 59.333 -0.5 106.833 -1.5 142.5s-2.83301 64 -5.5 85s-6.5 36.667 -11.5 47
s-11.5 19.833 -19.5 28.5c-15.333 16.667 -37.666 25 -66.999 25s-51.666 -8.33301 -66.999 -25c-8 -8.66699 -14.5 -18.167 -19.5 -28.5s-8.83301 -26 -11.5 -47s-4.5 -49.333 -5.5 -85s-1.5 -83.167 -1.5 -142.5s0.5 -106.833 1.5 -142.5s2.83301 -64 5.5 -85
s6.5 -36.667 11.5 -47s11.5 -19.833 19.5 -28.5c15.333 -16.667 37.666 -25 66.999 -25s51.666 8.33301 66.999 25c8 8.66699 14.5 18.167 19.5 28.5s8.83301 26 11.5 47s4.5 49.333 5.5 85s1.5 83.167 1.5 142.5z" />
    <glyph glyph-name="P" unicode="P" horiz-adv-x="392" 
d="M342 520c0 -42.667 -4.33105 -76.6699 -12.998 -102.003s-19.834 -44.666 -33.501 -57.999s-29.167 -22 -46.5 -26s-34.333 -6 -51 -6h-86v-328h-40v712h126c17.333 0 34.666 -1.83301 51.999 -5.5s32.833 -12.167 46.5 -25.5s24.667 -32.666 33 -57.999
s12.5 -59.666 12.5 -102.999zM302.002 519.997c0 34 -2.83301 61.333 -8.5 82s-13.334 36.5 -23.001 47.5s-21 18.167 -34 21.5s-26.833 5 -41.5 5h-83v-312h83c14.667 0 28.5 1.66699 41.5 5s24.333 10.5 34 21.5s17.334 26.833 23.001 47.5s8.5 48 8.5 82z" />
    <glyph glyph-name="Q" unicode="Q" horiz-adv-x="406" 
d="M346 -26l-54.9971 45.999c-24 -18.667 -53.333 -28 -88 -28c-19.333 0 -37.166 3 -53.499 9s-30.166 14.667 -41.499 26c-10.667 10.667 -19.167 22.334 -25.5 35.001s-11.333 30.5 -15 53.5s-6.16699 53.5 -7.5 91.5s-2 87.667 -2 149s0.666992 111 2 149
s3.83301 68.5 7.5 91.5s8.66699 40.833 15 53.5s14.833 24.334 25.5 35.001c11.333 11.333 25.166 20 41.499 26s34.166 9 53.499 9s37.166 -3 53.499 -9s30.166 -14.667 41.499 -26c10.667 -10.667 19.167 -22.334 25.5 -35.001s11.333 -30.5 15 -53.5
s6.16699 -53.5 7.5 -91.5s2 -87.667 2 -149c0 -52.667 -0.5 -96.667 -1.5 -132s-2.66699 -64.5 -5 -87.5s-5.83301 -41.333 -10.5 -55s-10.334 -25.5 -17.001 -35.5l54 -46zM308.003 355.999c0 59.333 -0.50293 106.834 -1.50293 142.501s-2.83301 64 -5.5 85
s-6.5 36.667 -11.5 47s-11.5 20.166 -19.5 29.499c-15.333 16 -37.666 24 -66.999 24c-30 0 -52.333 -8 -67 -24c-8 -9.33301 -14.5 -19.166 -19.5 -29.499s-8.83301 -26 -11.5 -47s-4.5 -49.333 -5.5 -85s-1.5 -83.167 -1.5 -142.5s0.5 -106.833 1.5 -142.5
s2.83301 -64 5.5 -85s6.5 -36.833 11.5 -47.5s11.5 -20.334 19.5 -29.001c14.667 -16 37 -24 67 -24c24.667 0 44.334 5.33301 59.001 16l-63 53l22 26l63 -53c5.33301 8.66699 9.5 19.167 12.5 31.5s5.33301 29 7 50s2.83398 48 3.50098 81s1 74.167 1 123.5z" />
    <glyph glyph-name="R" unicode="R" horiz-adv-x="415" 
d="M321 0l-106.999 328.997h-102v-329h-40v712h126c17.333 0 34.666 -1.83301 51.999 -5.5s32.833 -12.167 46.5 -25.5s24.667 -32.666 33 -57.999s12.5 -59.666 12.5 -102.999c0 -29.333 -2 -54.666 -6 -75.999s-10 -39.333 -18 -54s-17.5 -26.5 -28.5 -35.5
s-23.5 -15.5 -37.5 -19.5l113 -335h-44zM302.001 519.997c0 52 -7.33301 91 -22 117s-41 39 -79 39h-89v-312h89c38 0 64.333 13 79 39s22 65 22 117z" />
    <glyph glyph-name="S" unicode="S" horiz-adv-x="380" 
d="M331 182c0 -38 -3.50293 -69.0039 -10.5029 -93.0039s-18.167 -44 -33.5 -60c-11.333 -11.333 -25.166 -20 -41.499 -26s-36.166 -9 -59.499 -9c-21.333 0 -40.5 2.66699 -57.5 8s-31.833 14.333 -44.5 27c-8 8 -14.5 16.333 -19.5 25s-9.16699 18.5 -12.5 29.5
s-5.66602 23.667 -6.99902 38s-2 31.5 -2 51.5h40c0 -30.667 2.16699 -54.667 6.5 -72s12.5 -32 24.5 -44c17.333 -17.333 41.333 -26 72 -26c17.333 0 32 2.33301 44 7s21.667 11 29 19c13.333 13.333 22 29.5 26 48.5s6 44.167 6 75.5c0 23.333 -1.16699 43.333 -3.5 60
s-6.33301 31 -12 43s-13.5 22.167 -23.5 30.5s-23 15.833 -39 22.5l-73 30c-18 7.33301 -33 15.833 -45 25.5s-21.5 21.167 -28.5 34.5s-11.833 29.5 -14.5 48.5s-4 41.833 -4 68.5c0 61.333 15 107 45 137c24.667 24.667 57.334 37 98.001 37c42 0 75.333 -12.333 100 -37
c17.333 -17.333 28.333 -36.166 33 -56.499s7 -45.5 7 -75.5h-40c0 24.667 -2.16699 45 -6.5 61s-12.166 30.667 -23.499 44c-16.667 18.667 -40.334 28 -71.001 28c-15.333 0 -28.333 -2.16699 -39 -6.5s-20 -10.166 -28 -17.499c-12.667 -12 -21.667 -27.833 -27 -47.5
s-8 -41.5 -8 -65.5c0 -22.667 1 -41.667 3 -57s6 -28.5 12 -39.5s14.333 -20.333 25 -28s25 -15.167 43 -22.5l73 -30c18.667 -7.33301 33.667 -16.666 45 -27.999s20.166 -24.666 26.499 -39.999s10.5 -32.833 12.5 -52.5s3 -41.5 3 -65.5z" />
    <glyph glyph-name="T" unicode="T" horiz-adv-x="322" 
d="M181 676v-676h-40v676h-119v36h278v-36h-119z" />
    <glyph glyph-name="U" unicode="U" horiz-adv-x="398" 
d="M334 138c0 -24.667 -3.49805 -46 -10.498 -64s-16.833 -33 -29.5 -45c-12.667 -12.667 -27.334 -22 -44.001 -28s-33.667 -9 -51 -9s-34.333 3 -51 9s-31.334 15.333 -44.001 28c-12.667 12 -22.5 27 -29.5 45s-10.5 39.333 -10.5 64v574h40v-578
c0 -32.667 9.16699 -58.5 27.5 -77.5s40.833 -28.5 67.5 -28.5s49.167 9.5 67.5 28.5s27.5 44.833 27.5 77.5v578h40v-574z" />
    <glyph glyph-name="V" unicode="V" horiz-adv-x="346" 
d="M192 0h-38l-150 712h44l125 -630l125 630h44z" />
    <glyph glyph-name="W" unicode="W" horiz-adv-x="542" 
d="M439 0h-42l-126 630l-124 -630h-42l-101 712h44l78 -630l122 630h46l124 -630l76 630h44z" />
    <glyph glyph-name="X" unicode="X" horiz-adv-x="351" 
d="M285 0l-110 327l-109 -327h-44l129 372l-118 340h44l98 -298l99 298h44l-121 -340l132 -372h-44z" />
    <glyph glyph-name="Y" unicode="Y" horiz-adv-x="289" 
d="M164 305v-305h-40v305l-120 407h44l96 -341l97 341h44z" />
    <glyph glyph-name="Z" unicode="Z" horiz-adv-x="307" 
d="M30 0v32l206 644h-191v36h232v-32l-205 -644h205v-36h-247z" />
    <glyph glyph-name="bracketleft" unicode="[" horiz-adv-x="220" 
d="M66 -74v860h124v-31h-86v-798h86v-31h-124z" />
    <glyph glyph-name="backslash" unicode="\" horiz-adv-x="227" 
d="M185 -74l-185 860h42l185 -860h-42z" />
    <glyph glyph-name="bracketright" unicode="]" horiz-adv-x="220" 
d="M30 -74v31h86v798h-86v31h124v-860h-124z" />
    <glyph glyph-name="asciicircum" unicode="^" horiz-adv-x="442" 
d="M323 440l-102 238l-102 -238h-41l124 278h38l124 -278h-41z" />
    <glyph glyph-name="underscore" unicode="_" horiz-adv-x="422" 
d="M0 -127v32h422v-32h-422z" />
    <glyph glyph-name="grave" unicode="`" 
d="M150 586l-70 126h47l63 -126h-40z" />
    <glyph glyph-name="a" unicode="a" horiz-adv-x="335" 
d="M236 0v47.002c-3.33301 -7.33301 -7.66602 -14 -12.999 -20s-9.66602 -10.667 -12.999 -14c-8 -6.66699 -16.833 -11.834 -26.5 -15.501s-21.5 -5.5 -35.5 -5.5c-29.333 0 -54 10 -74 30c-9.33301 9.33301 -17.333 23.666 -24 42.999s-10 43 -10 71
c0 24 3.5 45.833 10.5 65.5s17.167 35.834 30.5 48.501c12.667 11.333 26.167 19.666 40.5 24.999s31.833 8 52.5 8h62v98c0 31.333 -6.33301 55.166 -19 71.499s-32 24.5 -58 24.5c-20 0 -36.667 -6.66699 -50 -20c-9.33301 -9.33301 -15.833 -20 -19.5 -32
s-5.5 -27.667 -5.5 -47h-38c0 18.667 2.33301 36.834 7 54.501s13.667 33.167 27 46.5c10 10 21.333 17.667 34 23s27.667 8 45 8c19.333 0 35.666 -2.5 48.999 -7.5s24.666 -12.167 33.999 -21.5c11.333 -11.333 19.5 -24.833 24.5 -40.5s7.5 -35.167 7.5 -58.5v-382h-38z
M236 251.002h-64c-26 0 -47.333 -8 -64 -24c-9.33301 -9.33301 -16.666 -22 -21.999 -38s-8 -33.667 -8 -53c0 -33.333 6 -60 18 -80s31.667 -30 59 -30c25.333 0 45.166 9.66699 59.499 29s21.5 43 21.5 71v125z" />
    <glyph glyph-name="b" unicode="b" horiz-adv-x="350" 
d="M264 251c0 30 -0.333008 56 -1 78s-2 41 -4 57s-4.83301 29.333 -8.5 40s-8.83398 19.667 -15.501 27c-6 6.66699 -13.333 12.167 -22 16.5s-18.667 6.5 -30 6.5c-20.667 0 -38.334 -6.66699 -53.001 -20c-8.66699 -8.66699 -15.167 -19.167 -19.5 -31.5
s-6.5 -27.833 -6.5 -46.5v-254c0 -18.667 2.16699 -34.167 6.5 -46.5s10.833 -22.833 19.5 -31.5c14.667 -13.333 32.334 -20 53.001 -20c11.333 0 21.333 2.16699 30 6.5s16 9.83301 22 16.5c6.66699 7.33301 11.834 16.333 15.501 27s6.5 24 8.5 40s3.33301 35 4 57
s1 48 1 78zM104 0l-38 0.00390625v712h38v-250c3.33301 5.33301 7.33301 10.833 12 16.5s9.33398 10.167 14.001 13.5c16 12 35.667 18 59 18c29.333 0 54.333 -11.333 75 -34c8 -8.66699 14.333 -18.834 19 -30.501s8.5 -26.334 11.5 -44.001s5 -38.667 6 -63
s1.5 -53.5 1.5 -87.5s-0.5 -63.167 -1.5 -87.5s-3 -45.333 -6 -63s-6.83301 -32.334 -11.5 -44.001s-11 -21.834 -19 -30.501c-20.667 -22.667 -45.667 -34 -75 -34c-23.333 0 -43 6 -59 18c-4.66699 3.33301 -9.33398 7.83301 -14.001 13.5s-8.66699 11.167 -12 16.5v-40z
" />
    <glyph glyph-name="c" unicode="c" horiz-adv-x="324" 
d="M284 127c0 -24 -2.33301 -44.168 -7 -60.501s-13 -30.833 -25 -43.5c-20.667 -20.667 -48.334 -31 -83.001 -31c-17.333 0 -33.166 3.16699 -47.499 9.5s-26.166 14.833 -35.499 25.5c-7.33301 8 -13.5 18.167 -18.5 30.5s-9 27.333 -12 45s-5 38.667 -6 63
s-1.5 52.833 -1.5 85.5s0.5 61.167 1.5 85.5s3 45.333 6 63s7 32.667 12 45s11.167 22.5 18.5 30.5c9.33301 10.667 21.166 19.167 35.499 25.5s30.166 9.5 47.499 9.5c36 0 63.667 -9.66699 83 -29c14.667 -14.667 23.667 -31.167 27 -49.5s5 -37.166 5 -56.499h-37
c0 14.667 -1 28.834 -3 42.501s-8.33301 26.167 -19 37.5c-13.333 14 -31.666 21 -54.999 21c-12 0 -22.667 -2.16699 -32 -6.5s-17 -9.83301 -23 -16.5c-6.66699 -7.33301 -11.834 -16.333 -15.501 -27s-6.5 -24 -8.5 -40s-3.33301 -35 -4 -57s-1 -48 -1 -78
s0.333008 -56 1 -78s2 -41 4 -57s4.83301 -29.333 8.5 -40s8.83398 -19.667 15.501 -27c6 -6.66699 13.667 -12.167 23 -16.5s20 -6.5 32 -6.5c10 0 19.5 1.5 28.5 4.5s17.167 8.16699 24.5 15.5c10 10 16.5 21.667 19.5 35s4.5 28.666 4.5 45.999h37z" />
    <glyph glyph-name="d" unicode="d" horiz-adv-x="350" 
d="M246 0v41c-2.66699 -5.33301 -6.66699 -10.833 -12 -16.5s-10 -10.167 -14 -13.5c-16.667 -12.667 -36.667 -19 -60 -19c-28.667 0 -53.334 11.333 -74.001 34c-7.33301 8 -13.5 18.167 -18.5 30.5s-9 27.5 -12 45.5s-5 39.167 -6 63.5s-1.5 52.833 -1.5 85.5
s0.5 61.167 1.5 85.5s3 45.5 6 63.5s7 33.167 12 45.5s11.167 22.5 18.5 30.5c8.66699 9.33301 19 17.333 31 24s26.333 10 43 10c24 0 44 -5.66699 60 -17c4.66699 -3.33301 9.33398 -7.83301 14.001 -13.5s8.66699 -11.167 12 -16.5v249h38v-712h-38zM246 378
c0 18.667 -2.16699 34.167 -6.5 46.5s-10.833 22.833 -19.5 31.5c-14.667 13.333 -32.334 20 -53.001 20c-11.333 0 -21.333 -2.16699 -30 -6.5s-16 -9.83301 -22 -16.5c-6.66699 -7.33301 -11.834 -16.333 -15.501 -27s-6.5 -24 -8.5 -40s-3.33301 -35 -4 -57
s-1 -48 -1 -78s0.333008 -56 1 -78s2 -41 4 -57s4.83301 -29.333 8.5 -40s8.83398 -19.667 15.501 -27c6 -6.66699 13.333 -12.167 22 -16.5s18.667 -6.5 30 -6.5c20.667 0 38.334 6.66699 53.001 20c8.66699 8.66699 15.167 19.167 19.5 31.5s6.5 27.833 6.5 46.5v254z" />
    <glyph glyph-name="e" unicode="e" horiz-adv-x="333" 
d="M86 251c0 -30 0.331055 -56.001 0.998047 -78.001s2 -41 4 -57s5 -29.333 9 -40s9.33301 -19.667 16 -27c6 -6.66699 13.667 -12.167 23 -16.5s20 -6.5 32 -6.5c10 0 19.833 1.5 29.5 4.5s18.167 8.16699 25.5 15.5c17.333 16.667 26 43.667 26 81h37
c0 -25.333 -2.83301 -45.666 -8.5 -60.999s-14.5 -29.333 -26.5 -42c-10.667 -10.667 -23.167 -18.667 -37.5 -24s-29.5 -8 -45.5 -8c-18.667 0 -35 3.16699 -49 9.5s-25.667 14.833 -35 25.5c-7.33301 8 -13.5 18.167 -18.5 30.5s-9 27.333 -12 45s-5.16699 38.667 -6.5 63
s-2 52.833 -2 85.5s0.5 61.167 1.5 85.5s3 45.333 6 63s7 32.667 12 45s11.167 22.5 18.5 30.5c9.33301 10.667 20.833 19.167 34.5 25.5s29.834 9.5 48.501 9.5s34.834 -3.16699 48.501 -9.5s25.167 -14.833 34.5 -25.5c7.33301 -8 13.5 -18.167 18.5 -30.5
s9 -27.333 12 -45s5 -38.667 6 -63s1.5 -52.833 1.5 -85.5h-204zM251.998 282.999c0 24.667 -0.5 46.167 -1.5 64.5s-2.5 34.166 -4.5 47.499s-4.83301 24.666 -8.5 33.999s-8.5 17.333 -14.5 24s-13.5 12.167 -22.5 16.5s-19.5 6.5 -31.5 6.5s-22.5 -2.16699 -31.5 -6.5
s-16.5 -9.83301 -22.5 -16.5s-10.833 -14.667 -14.5 -24s-6.5 -20.666 -8.5 -33.999s-3.5 -29.166 -4.5 -47.499s-1.5 -39.833 -1.5 -64.5h166z" />
    <glyph glyph-name="f" unicode="f" horiz-adv-x="225" 
d="M118 471v-471h-38v471h-65v31h65v83c0 41.333 11 73 33 95c13.333 13.333 28.333 22 45 26s34 6 52 6v-34c-61.333 0 -92 -30.333 -92 -91v-85h92v-31h-92z" />
    <glyph glyph-name="g" unicode="g" horiz-adv-x="350" 
d="M246 378c0 18.667 -2.16699 34.167 -6.5 46.5s-10.833 22.833 -19.5 31.5c-14.667 13.333 -32.334 20 -53.001 20c-11.333 0 -21.333 -2.16699 -30 -6.5s-16 -9.83301 -22 -16.5c-6.66699 -7.33301 -11.834 -16.333 -15.501 -27s-6.5 -24 -8.5 -40s-3.33301 -35 -4 -57
s-1 -48 -1 -78s0.333008 -56 1 -78s2 -41 4 -57s4.83301 -29.333 8.5 -40s8.83398 -19.667 15.501 -27c6 -6.66699 13.333 -12.167 22 -16.5s18.667 -6.5 30 -6.5c20.667 0 38.334 6.66699 53.001 20c8.66699 8.66699 15.167 19.167 19.5 31.5s6.5 27.833 6.5 46.5v254z
M284 -17c0 -22.667 -0.499023 -42.1719 -1.49902 -58.5049s-2.83301 -30.5 -5.5 -42.5s-6.33398 -22.5 -11.001 -31.5s-10.667 -17.5 -18 -25.5c-9.33301 -10.667 -21 -19.167 -35 -25.5s-29.667 -9.5 -47 -9.5c-35.333 0 -63.333 10.333 -84 31
c-12 12.667 -20.333 27.167 -25 43.5s-7 36.5 -7 60.5h37c0 -17.333 1.5 -32.666 4.5 -45.999s9.5 -25 19.5 -35c7.33301 -7.33301 15.666 -12.5 24.999 -15.5s19 -4.5 29 -4.5c12 0 22.5 2.16699 31.5 6.5s16.5 9.83301 22.5 16.5c10.667 11.333 17.834 27.5 21.501 48.5
s5.5 50.5 5.5 88.5v56c-3.33301 -5.33301 -7.33301 -10.833 -12 -16.5s-9.33398 -10.167 -14.001 -13.5c-16 -12 -35.667 -18 -59 -18c-29.333 0 -54.333 11.333 -75 34c-8 8.66699 -14.333 18.834 -19 30.501s-8.5 26.334 -11.5 44.001s-5 38.667 -6 63
s-1.5 53.5 -1.5 87.5s0.5 63.167 1.5 87.5s3 45.333 6 63s6.83301 32.334 11.5 44.001s11 21.834 19 30.501c20.667 22.667 45.667 34 75 34c23.333 0 43 -6 59 -18c4.66699 -3.33301 9.33398 -7.83301 14.001 -13.5s8.66699 -11.167 12 -16.5v40h38v-519z" />
    <glyph glyph-name="h" unicode="h" horiz-adv-x="357" 
d="M258 0v384c0 30.667 -7.5 53.5 -22.5 68.5s-33.167 22.5 -54.5 22.5s-39.5 -7.5 -54.5 -22.5s-22.5 -37.833 -22.5 -68.5v-384h-38v712h38v-251c2.66699 5.33301 6.66699 10.833 12 16.5s10 10.167 14 13.5c16.667 12.667 36.667 19 60 19c30 0 55 -10.667 75 -32
c10 -10 17.667 -22.5 23 -37.5s8 -34.167 8 -57.5v-383h-38z" />
    <glyph glyph-name="i" unicode="i" horiz-adv-x="170" 
d="M66 0v502h38v-502h-38zM57 637v56h56v-56h-56z" />
    <glyph glyph-name="j" unicode="j" horiz-adv-x="170" 
d="M104 -83c0 -23.333 -3 -42.5 -9 -57.5s-14 -27.5 -24 -37.5c-12.667 -12.667 -26.834 -21.167 -42.501 -25.5s-32.167 -6.5 -49.5 -6.5v34c26.667 0 47.834 6.66699 63.501 20s23.5 37 23.5 71v587h38v-585zM57 637v56h56v-56h-56z" />
    <glyph glyph-name="k" unicode="k" horiz-adv-x="358" 
d="M296 0l-118 281l-74 -119v-162h-38v712h38v-492l171 282h43l-116 -190l136 -312h-42z" />
    <glyph glyph-name="l" unicode="l" horiz-adv-x="200" 
d="M185 0c-17.333 0 -33.832 2.16699 -49.499 6.5s-29.834 12.833 -42.501 25.5c-10 10 -18 22.5 -24 37.5s-9 34.167 -9 57.5v585h38v-587c0 -60.667 29 -91 87 -91v-34z" />
    <glyph glyph-name="m" unicode="m" horiz-adv-x="549" 
d="M450 0v384c0 30.667 -7.5 53.5 -22.5 68.5s-33.167 22.5 -54.5 22.5s-39.5 -7.5 -54.5 -22.5s-22.5 -37.833 -22.5 -68.5v-384h-38v384c0 30.667 -7.5 53.5 -22.5 68.5s-33.167 22.5 -54.5 22.5s-39.5 -7.5 -54.5 -22.5s-22.5 -37.833 -22.5 -68.5v-384h-38v502h38v-41
c2.66699 5.33301 6.66699 10.833 12 16.5s10 10.167 14 13.5c8.66699 6 17.667 10.667 27 14s20.333 5 33 5c18 0 35.5 -5 52.5 -15s30.167 -22.667 39.5 -38c3.33301 6 8 12.167 14 18.5s11.667 11.5 17 15.5c18 12.667 39 19 63 19c19.333 0 35.333 -2.83301 48 -8.5
s23.667 -13.5 33 -23.5c10 -10 17.667 -22.5 23 -37.5s8 -34.167 8 -57.5v-383h-38z" />
    <glyph glyph-name="n" unicode="n" horiz-adv-x="357" 
d="M258 0v384c0 30.667 -7.5 53.5 -22.5 68.5s-33.167 22.5 -54.5 22.5s-39.5 -7.5 -54.5 -22.5s-22.5 -37.833 -22.5 -68.5v-384h-38v502h38v-41c2.66699 5.33301 6.66699 10.833 12 16.5s10 10.167 14 13.5c16.667 12.667 36.667 19 60 19c30 0 55 -10.667 75 -32
c10 -10 17.667 -22.5 23 -37.5s8 -34.167 8 -57.5v-383h-38z" />
    <glyph glyph-name="o" unicode="o" 
d="M290 251c0 -32.667 -0.5 -61.167 -1.5 -85.5s-3 -45.333 -6 -63s-7 -32.667 -12 -45s-11.167 -22.5 -18.5 -30.5c-9.33301 -10.667 -20.833 -19.167 -34.5 -25.5s-29.834 -9.5 -48.501 -9.5s-34.834 3.16699 -48.501 9.5s-25.167 14.833 -34.5 25.5
c-7.33301 8 -13.5 18.167 -18.5 30.5s-9 27.333 -12 45s-5 38.667 -6 63s-1.5 52.833 -1.5 85.5s0.5 61.167 1.5 85.5s3 45.333 6 63s7 32.667 12 45s11.167 22.5 18.5 30.5c9.33301 10.667 20.833 19.167 34.5 25.5s29.834 9.5 48.501 9.5s34.834 -3.16699 48.501 -9.5
s25.167 -14.833 34.5 -25.5c7.33301 -8 13.5 -18.167 18.5 -30.5s9 -27.333 12 -45s5 -38.667 6 -63s1.5 -52.833 1.5 -85.5zM252 251c0 30 -0.333008 56 -1 78s-2 41 -4 57s-4.83301 29.333 -8.5 40s-8.83398 19.667 -15.501 27c-6 6.66699 -13.5 12.167 -22.5 16.5
s-19.5 6.5 -31.5 6.5s-22.5 -2.16699 -31.5 -6.5s-16.5 -9.83301 -22.5 -16.5c-6.66699 -7.33301 -11.834 -16.333 -15.501 -27s-6.5 -24 -8.5 -40s-3.33301 -35 -4 -57s-1 -48 -1 -78s0.333008 -56 1 -78s2 -41 4 -57s4.83301 -29.333 8.5 -40s8.83398 -19.667 15.501 -27
c6 -6.66699 13.5 -12.167 22.5 -16.5s19.5 -6.5 31.5 -6.5s22.5 2.16699 31.5 6.5s16.5 9.83301 22.5 16.5c6.66699 7.33301 11.834 16.333 15.501 27s6.5 24 8.5 40s3.33301 35 4 57s1 48 1 78z" />
    <glyph glyph-name="p" unicode="p" horiz-adv-x="350" 
d="M302 251c0 -32.667 -0.5 -61.167 -1.5 -85.5s-3 -45.5 -6 -63.5s-7 -33.167 -12 -45.5s-11.167 -22.5 -18.5 -30.5c-8.66699 -9.33301 -19 -17.333 -31 -24s-26.333 -10 -43 -10c-24 0 -44 5.66699 -60 17c-4.66699 3.33301 -9.33398 7.83301 -14.001 13.5
s-8.66699 11.167 -12 16.5v-249h-38v712h38v-41c2.66699 5.33301 6.66699 10.833 12 16.5s10 10.167 14 13.5c16.667 12.667 36.667 19 60 19c28.667 0 53.334 -11.333 74.001 -34c7.33301 -8 13.5 -18.167 18.5 -30.5s9 -27.5 12 -45.5s5 -39.167 6 -63.5
s1.5 -52.833 1.5 -85.5zM264 251c0 30 -0.333008 56 -1 78s-2 41 -4 57s-4.83301 29.333 -8.5 40s-8.83398 19.667 -15.501 27c-6 6.66699 -13.333 12.167 -22 16.5s-18.667 6.5 -30 6.5c-20.667 0 -38.334 -6.66699 -53.001 -20
c-8.66699 -8.66699 -15.167 -19.167 -19.5 -31.5s-6.5 -27.833 -6.5 -46.5v-254c0 -18.667 2.16699 -34.167 6.5 -46.5s10.833 -22.833 19.5 -31.5c14.667 -13.333 32.334 -20 53.001 -20c11.333 0 21.333 2.16699 30 6.5s16 9.83301 22 16.5
c6.66699 7.33301 11.834 16.333 15.501 27s6.5 24 8.5 40s3.33301 35 4 57s1 48 1 78z" />
    <glyph glyph-name="q" unicode="q" horiz-adv-x="350" 
d="M246 -210v249c-3.33301 -5.33301 -7.33301 -10.833 -12 -16.5s-9.33398 -10.167 -14.001 -13.5c-16 -11.333 -36 -17 -60 -17c-16.667 0 -31 3.33301 -43 10s-22.333 14.667 -31 24c-7.33301 8 -13.5 18.167 -18.5 30.5s-9 27.5 -12 45.5s-5 39.167 -6 63.5
s-1.5 52.833 -1.5 85.5s0.5 61.167 1.5 85.5s3 45.5 6 63.5s7 33.167 12 45.5s11.167 22.5 18.5 30.5c20.667 22.667 45.334 34 74.001 34c23.333 0 43.333 -6.33301 60 -19c4 -3.33301 8.66699 -7.83301 14 -13.5s9.33301 -11.167 12 -16.5v41h38v-712h-38zM246 378
c0 18.667 -2.16699 34.167 -6.5 46.5s-10.833 22.833 -19.5 31.5c-14.667 13.333 -32.334 20 -53.001 20c-11.333 0 -21.333 -2.16699 -30 -6.5s-16 -9.83301 -22 -16.5c-6.66699 -7.33301 -11.834 -16.333 -15.501 -27s-6.5 -24 -8.5 -40s-3.33301 -35 -4 -57
s-1 -48 -1 -78s0.333008 -56 1 -78s2 -41 4 -57s4.83301 -29.333 8.5 -40s8.83398 -19.667 15.501 -27c6 -6.66699 13.333 -12.167 22 -16.5s18.667 -6.5 30 -6.5c20.667 0 38.334 6.66699 53.001 20c8.66699 8.66699 15.167 19.167 19.5 31.5s6.5 27.833 6.5 46.5v254z" />
    <glyph glyph-name="r" unicode="r" horiz-adv-x="225" 
d="M206 476c-32 0 -57.001 -9.00195 -75.001 -27.002s-27 -43 -27 -75v-374h-38v502h38v-53c1.33301 4.66699 3.83301 9.83398 7.5 15.501s6.83398 9.83398 9.50098 12.501c11.333 12 24.5 20.5 39.5 25.5s31.5 7.5 49.5 7.5v-34h-4z" />
    <glyph glyph-name="s" unicode="s" horiz-adv-x="320" 
d="M285 122c0 -18 -3.33301 -35.166 -10 -51.499s-15.667 -30.166 -27 -41.499s-24.666 -20.333 -39.999 -27s-32.333 -10 -51 -10c-18 0 -34 3 -48 9s-26.333 14.333 -37 25c-14.667 14.667 -24.5 31 -29.5 49s-7.5 37.333 -7.5 58h38c0 -18 2 -33.833 6 -47.5
s11.667 -26.167 23 -37.5c7.33301 -7.33301 15.833 -12.833 25.5 -16.5s19.5 -5.5 29.5 -5.5c26 0 47.333 8.33301 64 25c8 8.66699 14.333 18.834 19 30.501s7 25.167 7 40.5c0 24 -5 44.333 -15 61c-5.33301 9.33301 -12.666 17.833 -21.999 25.5s-20.333 15.167 -33 22.5
l-61 37c-15.333 9.33301 -28.333 19.333 -39 30s-18.334 20.334 -23.001 29.001c-5.33301 9.33301 -8.83301 19 -10.5 29s-2.5 21 -2.5 33c0 17.333 3.33301 33.666 10 48.999s15.667 28.666 27 39.999c10.667 10 23 17.833 37 23.5s29.333 8.5 46 8.5
c34.667 0 62.667 -10.667 84 -32c12.667 -12.667 21.5 -27.667 26.5 -45s7.5 -38 7.5 -62h-38c0 21.333 -1.83301 38.166 -5.5 50.499s-10.167 23.166 -19.5 32.499c-7.33301 8 -15.833 13.667 -25.5 17s-19.5 5 -29.5 5c-24 0 -43 -7 -57 -21
c-9.33301 -8.66699 -15.833 -19 -19.5 -31s-5.5 -23.667 -5.5 -35c0 -20 3.66699 -36.333 11 -49c7.33301 -12 23.666 -26 48.999 -42l61 -37c15.333 -9.33301 28.5 -19 39.5 -29s19.833 -20.667 26.5 -32c7.33301 -11.333 12.333 -23.833 15 -37.5s4 -27.167 4 -40.5z" />
    <glyph glyph-name="t" unicode="t" horiz-adv-x="235" 
d="M215 0c-19.333 0 -37.667 1.83301 -55 5.5s-33 12.5 -47 26.5c-22 22 -33 53.667 -33 95v344h-65v31h65v154h38v-154h92v-31h-92v-346c0 -32.667 8.33301 -56 25 -70s40.667 -21 72 -21v-34z" />
    <glyph glyph-name="u" unicode="u" horiz-adv-x="357" 
d="M253 0v41c-2.66699 -5.33301 -6.66699 -10.833 -12 -16.5s-10 -10.167 -14 -13.5c-16.667 -12.667 -36.667 -19 -60 -19c-30 0 -55 10.667 -75 32c-10 10 -17.667 22.5 -23 37.5s-8 34.167 -8 57.5v383h38v-384c0 -30.667 7.5 -53.5 22.5 -68.5s33.167 -22.5 54.5 -22.5
s39.5 7.5 54.5 22.5s22.5 37.833 22.5 68.5v384h38v-502h-38z" />
    <glyph glyph-name="v" unicode="v" horiz-adv-x="278" 
d="M159 0h-40l-115 502h42l93 -443l93 443h42z" />
    <glyph glyph-name="w" unicode="w" horiz-adv-x="437" 
d="M341 0h-44l-82 443l-77 -443h-44l-90 502h46l66 -443l77 443h44l82 -443l68 443h46z" />
    <glyph glyph-name="x" unicode="x" horiz-adv-x="296" 
d="M234 0l-86 226l-86 -226h-42l108 256l-102 246h42l80 -217l80 217h42l-104 -246l110 -256h-42z" />
    <glyph glyph-name="y" unicode="y" horiz-adv-x="281" 
d="M131 -110c-8 -34.667 -22.833 -60.001 -44.5 -76.001s-50.167 -24 -85.5 -24v34c29.333 0 50.833 6.33301 64.5 19s23.167 29.334 28.5 50.001l27 109l-117 500h42l93 -442l93 442h42z" />
    <glyph glyph-name="z" unicode="z" horiz-adv-x="259" 
d="M20 0v31l179 437h-169v34h209v-31l-179 -437h179v-34h-219z" />
    <glyph glyph-name="braceleft" unicode="{" horiz-adv-x="270" 
d="M230 -74c-16 0 -31.3359 3 -46.0029 9s-26.667 13.667 -36 23c-10 10 -18 22.5 -24 37.5s-9 34.167 -9 57.5v195c0 30.667 -7.16699 53.5 -21.5 68.5s-32.166 22.5 -53.499 22.5h-10v34h10c21.333 0 39.166 7.5 53.499 22.5s21.5 37.833 21.5 68.5v195
c0 23.333 3 42.5 9 57.5s14 27.5 24 37.5c9.33301 9.33301 21.333 17 36 23s30 9 46 9h10v-34h-10c-21.333 0 -39.5 -7.5 -54.5 -22.5s-22.5 -37.833 -22.5 -68.5v-195c0 -23.333 -2.66699 -42.5 -8 -57.5s-13 -27.5 -23 -37.5
c-5.33301 -5.33301 -12.666 -10.333 -21.999 -15c4.66699 -1.33301 8.83398 -3.5 12.501 -6.5s6.83398 -5.83301 9.50098 -8.5c10 -10 17.667 -22.5 23 -37.5s8 -34.167 8 -57.5v-195c0 -30.667 7.5 -53.5 22.5 -68.5s33.167 -22.5 54.5 -22.5h10v-34h-10z" />
    <glyph glyph-name="bar" unicode="|" horiz-adv-x="222" 
d="M92 -74v860h38v-860h-38z" />
    <glyph glyph-name="braceright" unicode="}" horiz-adv-x="270" 
d="M230 339c-21.333 0 -39.1631 -7.5 -53.4961 -22.5s-21.5 -37.833 -21.5 -68.5v-195c0 -23.333 -3 -42.5 -9 -57.5s-14 -27.5 -24 -37.5c-9.33301 -9.33301 -21.333 -17 -36 -23s-30 -9 -46 -9h-10v34h10c21.333 0 39.5 7.5 54.5 22.5s22.5 37.833 22.5 68.5v195
c0 23.333 2.66699 42.5 8 57.5s13 27.5 23 37.5c5.33301 5.33301 12.666 10.333 21.999 15c-4.66699 1.33301 -8.83398 3.5 -12.501 6.5s-6.83398 5.83301 -9.50098 8.5c-10 10 -17.667 22.5 -23 37.5s-8 34.167 -8 57.5v195c0 30.667 -7.5 53.5 -22.5 68.5
s-33.167 22.5 -54.5 22.5h-10v34h10c16 0 31.333 -3 46 -9s26.667 -13.667 36 -23c10 -10 18 -22.5 24 -37.5s9 -34.167 9 -57.5v-195c0 -30.667 7.16699 -53.5 21.5 -68.5s32.166 -22.5 53.499 -22.5h10v-34h-10z" />
    <glyph glyph-name="asciitilde" unicode="~" horiz-adv-x="422" 
d="M367 282c-10 -10 -19.001 -18.3311 -27.001 -24.998s-15.333 -11.667 -22 -15s-13.167 -5.66602 -19.5 -6.99902s-13.166 -2 -20.499 -2c-11.333 0 -23.166 2.16699 -35.499 6.5s-26.5 10.166 -42.5 17.499s-27.833 12.166 -35.5 14.499s-15.167 3.5 -22.5 3.5
c-10.667 0 -20.167 -2 -28.5 -6s-20.166 -13.667 -35.499 -29l-23 23c10 10 19 18.333 27 25s15.333 11.667 22 15s13.167 5.66602 19.5 6.99902s13.166 2 20.499 2c11.333 0 22.5 -2 33.5 -6s25.833 -10 44.5 -18l30 -12.5c8.66699 -3.66699 18 -5.5 28 -5.5
c10.667 0 20.167 2 28.5 6s20.166 13.667 35.499 29z" />
    <glyph glyph-name="uni00A0" unicode="&#xa0;" horiz-adv-x="200" 
 />
    <glyph glyph-name="exclamdown" unicode="&#xa1;" horiz-adv-x="216" 
d="M74 -210v530h38v-530h-38zM64 444v58h58v-58h-58z" />
    <glyph glyph-name="cent" unicode="&#xa2;" horiz-adv-x="324" 
d="M284 236c0 -23.333 -2.33203 -42.8311 -6.99902 -58.498s-13 -29.167 -25 -40.5c-16 -16 -38.333 -25.667 -67 -29v-108h-32v108c-28 4 -50.333 15 -67 33c-7.33301 8 -13.5 17.667 -18.5 29s-9 25.5 -12 42.5s-5 37.167 -6 60.5s-1.5 50.666 -1.5 81.999
s0.5 58.666 1.5 81.999s3 43.5 6 60.5s7 31.167 12 42.5s11.167 21 18.5 29c16.667 18 39 29 67 33v110h32v-110c27.333 -2 49.666 -11 66.999 -27c14.667 -14 23.667 -29.5 27 -46.5s5 -35.167 5 -54.5h-37c0 13.333 -1 26.666 -3 39.999s-8.33301 25.333 -19 36
s-24 17 -40 19v-428c15.333 2 28 8 38 18c10 9.33301 16.5 20.333 19.5 33s4.5 27.334 4.5 44.001h37zM153.001 568.002c-16 -3.33301 -28.667 -10.001 -38 -20.001c-6.66699 -7.33301 -11.834 -16 -15.501 -26s-6.5 -22.667 -8.5 -38s-3.33301 -33.5 -4 -54.5
s-1 -45.833 -1 -74.5s0.333008 -53.5 1 -74.5s2 -39.167 4 -54.5s4.83301 -28.166 8.5 -38.499s8.83398 -18.833 15.501 -25.5c9.33301 -10 22 -16.667 38 -20v426z" />
    <glyph glyph-name="sterling" unicode="&#xa3;" horiz-adv-x="369" 
d="M101 0l0.00195312 361h-65v31h65v182c0 24.667 3.83301 46.167 11.5 64.5s17.667 33.5 30 45.5s26.666 21 42.999 27s33.166 9 50.499 9c19.333 0 38 -4 56 -12s33.667 -19.667 47 -35l-30 -25c-18 24 -42.333 36 -73 36c-26.667 0 -49.167 -9.5 -67.5 -28.5
s-27.5 -44.833 -27.5 -77.5v-186h94v-31h-94v-325h198v-36h-238z" />
    <glyph glyph-name="currency" unicode="&#xa4;" horiz-adv-x="468" 
d="M396 79l-57 57c-14 -11.333 -30 -20.333 -48 -27s-37 -10 -57 -10s-39 3.33301 -57 10s-34 15.667 -48 27l-57 -57l-24 24l57 57c-11.333 14 -20.333 30 -27 48s-10 37 -10 57s3.33301 39.167 10 57.5s15.667 34.5 27 48.5l-57 56l24 24l57 -56
c29.333 24 64.333 36 105 36s75.667 -12 105 -36l57 56l24 -24l-57 -56c11.333 -14 20.333 -30.167 27 -48.5s10 -37.5 10 -57.5s-3.33301 -39 -10 -57s-15.667 -34 -27 -48l57 -57zM363 265c0 18 -3.33301 34.833 -10 50.5s-15.834 29.334 -27.501 41.001
s-25.334 20.834 -41.001 27.501s-32.5 10 -50.5 10s-34.833 -3.33301 -50.5 -10s-29.334 -15.834 -41.001 -27.501s-20.834 -25.334 -27.501 -41.001s-10 -32.5 -10 -50.5s3.33301 -34.833 10 -50.5s15.834 -29.334 27.501 -41.001s25.334 -20.834 41.001 -27.501
s32.5 -10 50.5 -10s34.833 3.33301 50.5 10s29.334 15.834 41.001 27.501s20.834 25.334 27.501 41.001s10 32.5 10 50.5z" />
    <glyph glyph-name="yen" unicode="&#xa5;" horiz-adv-x="289" 
d="M193 402h49v-31h-58l-20 -66v-40h78v-31h-78v-234h-40v234h-78v31h78v40l-19 66h-59v31h49l-91 310h44l96 -341l97 341h44z" />
    <glyph glyph-name="brokenbar" unicode="&#xa6;" horiz-adv-x="222" 
d="M92 436v350h38v-350h-38zM92 -74v350h38v-350h-38z" />
    <glyph glyph-name="section" unicode="&#xa7;" horiz-adv-x="374" 
d="M310 272c0 -24 -0.663086 -44.5039 -1.99609 -61.5039s-3.5 -31.5 -6.5 -43.5s-6.83301 -22 -11.5 -30s-10.334 -15.333 -17.001 -22c-16 -16 -37.333 -26.333 -64 -31c15.333 -9.33301 29 -18.166 41 -26.499s22.667 -20.166 32 -35.499
c6 -9.33301 10.667 -21.166 14 -35.499s5 -28.166 5 -41.499c0 -17.333 -2.5 -33.833 -7.5 -49.5s-13.167 -29.167 -24.5 -40.5c-22.667 -23.333 -51 -35 -85 -35c-16.667 0 -32 3 -46 9s-26 14 -36 24c-12 12 -20.5 26.5 -25.5 43.5s-7.5 33.167 -7.5 48.5h38
c0 -12.667 1.83301 -25 5.5 -37s10.167 -23 19.5 -33c6.66699 -7.33301 14.667 -12.666 24 -15.999s18.666 -5 27.999 -5c23.333 0 42.333 7.66699 57 23c7.33301 8 12.833 17.833 16.5 29.5s5.5 24.5 5.5 38.5c0 11.333 -1.16699 22.5 -3.5 33.5
s-5.83301 20.167 -10.5 27.5c-6.66699 10.667 -14.334 19.334 -23.001 26.001s-18.334 13.334 -29.001 20.001l-63 38c-6 3.33301 -11.833 7 -17.5 11s-10.834 8.33301 -15.501 13c-8 8 -14.333 16.5 -19 25.5s-8.33398 19.5 -11.001 31.5s-4.5 26.167 -5.5 42.5
s-1.5 35.833 -1.5 58.5c0 24 0.666992 44.333 2 61s3.33301 30.834 6 42.501s6.33398 21.667 11.001 30s10.667 16.166 18 23.499c14.667 15.333 36 25.666 64 30.999c-15.333 8.66699 -29.833 18.5 -43.5 29.5s-24.167 23.167 -31.5 36.5
c-4.66699 9.33301 -8.33398 19.5 -11.001 30.5s-4 24.167 -4 39.5c0 34.667 11.667 63 35 85c20.667 20.667 47.334 31 80.001 31c17.333 0 32.166 -2.33301 44.499 -7s23.833 -12.334 34.5 -23.001c11.333 -11.333 19.833 -25.333 25.5 -42s8.5 -33.667 8.5 -51h-38
c0 12 -1.66699 23.833 -5 35.5s-9.66602 22.5 -18.999 32.5c-7.33301 7.33301 -15.333 12.666 -24 15.999s-17.667 5 -27 5c-22 0 -39.667 -6.66699 -53 -20c-8.66699 -8 -14.834 -17.5 -18.501 -28.5s-5.5 -22.167 -5.5 -33.5c0 -13.333 1.16699 -24.666 3.5 -33.999
s5.16602 -17 8.49902 -23c4 -7.33301 10.167 -14.833 18.5 -22.5s17.5 -14.5 27.5 -20.5l64 -38c6.66699 -4 13.5 -8.5 20.5 -13.5s12.833 -9.83301 17.5 -14.5c8.66699 -8.66699 15.334 -17.334 20.001 -26.001s8.33398 -19 11.001 -31s4.33398 -26.167 5.00098 -42.5
s1 -35.833 1 -58.5zM272.004 271.996c0 20.667 -0.334961 38.167 -1.00195 52.5s-2 26.5 -4 36.5s-4.66699 18.667 -8 26s-8 14 -14 20c-15.333 16 -34.666 24 -57.999 24c-22.667 0 -41.667 -7.66699 -57 -23c-5.33301 -5.33301 -9.66602 -11.166 -12.999 -17.499
s-6.16602 -14.5 -8.49902 -24.5s-4 -22.5 -5 -37.5s-1.5 -33.833 -1.5 -56.5c0 -20.667 0.5 -38.167 1.5 -52.5s2.5 -26.833 4.5 -37.5s4.83301 -19.5 8.5 -26.5s8.16699 -13.5 13.5 -19.5c15.333 -15.333 34.333 -23 57 -23c23.333 0 42.666 8 57.999 24
c5.33301 6 9.83301 12.5 13.5 19.5s6.5 15.667 8.5 26s3.33301 22.666 4 36.999s1 31.833 1 52.5z" />
    <glyph glyph-name="dieresis" unicode="&#xa8;" 
d="M206 609v50h50v-50h-50zM82 609v50h50v-50h-50z" />
    <glyph glyph-name="copyright" unicode="&#xa9;" horiz-adv-x="868" 
d="M796 356c0 -50 -9.5 -97 -28.5 -141s-44.833 -82.333 -77.5 -115s-71 -58.5 -115 -77.5s-91 -28.5 -141 -28.5s-97 9.5 -141 28.5s-82.333 44.833 -115 77.5s-58.5 71 -77.5 115s-28.5 91 -28.5 141s9.5 97 28.5 141s44.833 82.333 77.5 115s71 58.5 115 77.5
s91 28.5 141 28.5s97 -9.5 141 -28.5s82.333 -44.833 115 -77.5s58.5 -71 77.5 -115s28.5 -91 28.5 -141zM760 356c0 44.667 -8.66699 87 -26 127s-40.666 75 -69.999 105s-63.833 53.833 -103.5 71.5s-81.834 26.5 -126.501 26.5s-86.834 -8.83301 -126.501 -26.5
s-74.167 -41.5 -103.5 -71.5s-52.666 -65 -69.999 -105s-26 -82.333 -26 -127s8.66699 -87 26 -127s40.666 -75 69.999 -105s63.833 -53.833 103.5 -71.5s81.834 -26.5 126.501 -26.5s86.834 8.83301 126.501 26.5s74.167 41.5 103.5 71.5s52.666 65 69.999 105
s26 82.333 26 127zM525 260c0 -20 -2 -36.6729 -6 -50.0059s-10.667 -25 -20 -35c-16 -16.667 -37.667 -25 -65 -25c-13.333 0 -25.833 2.5 -37.5 7.5s-21.167 11.833 -28.5 20.5c-6 6.66699 -11 14.834 -15 24.501s-7 21.5 -9 35.5s-3.5 30.667 -4.5 50s-1.5 42 -1.5 68
s0.5 48.667 1.5 68s2.5 36 4.5 50s5 25.833 9 35.5s9 17.834 15 24.501c7.33301 8.66699 16.833 15.5 28.5 20.5s24.167 7.5 37.5 7.5c27.333 0 49 -8.33301 65 -25c9.33301 -10 16 -21.667 20 -35s6 -30 6 -50h-35c0 13.333 -1 25.333 -3 36s-6.66699 19.667 -14 27
c-10 10.667 -23 16 -39 16c-9.33301 0 -17.166 -1.66699 -23.499 -5s-11.833 -7.66602 -16.5 -12.999c-9.33301 -11.333 -15.166 -28.666 -17.499 -51.999s-3.5 -58.333 -3.5 -105s1.16699 -81.667 3.5 -105s8.16602 -40.666 17.499 -51.999
c4.66699 -5.33301 10.167 -9.66602 16.5 -12.999s14.166 -5 23.499 -5c16 0 29 5.33301 39 16c7.33301 7.33301 12 16.333 14 27s3 22.667 3 36h35z" />
    <glyph glyph-name="ordfeminine" unicode="&#xaa;" horiz-adv-x="284" 
d="M199 329l-0.00292969 33.001c-3.33301 -5.33301 -7.16602 -10.166 -11.499 -14.499s-7.83301 -7.5 -10.5 -9.5c-6 -4.66699 -13.167 -8.33398 -21.5 -11.001s-18.166 -4 -29.499 -4c-22.667 0 -43 8.33301 -61 25c-7.33301 7.33301 -14 17.833 -20 31.5s-9 31.5 -9 53.5
c0 19.333 3.5 36.166 10.5 50.499s16.167 26.833 27.5 37.5c18 16 42.667 24 74 24h49v70c0 20 -5 37 -15 51s-25.667 21 -47 21c-16.667 0 -30.667 -5.66699 -42 -17c-8.66699 -9.33301 -14 -19.166 -16 -29.499s-3 -21.166 -3 -32.499h-33
c0 15.333 1.83301 30.166 5.5 44.499s11.167 27.166 22.5 38.499c16.667 16.667 38.667 25 66 25c28 0 50.667 -8.66699 68 -26c8.66699 -8.66699 15.334 -19.167 20.001 -31.5s7 -27.5 7 -45.5v-284h-31zM196.997 517.001h-52c-11.333 0 -21 -1.5 -29 -4.5
s-14.667 -7.16699 -20 -12.5c-8 -7.33301 -14.5 -16.5 -19.5 -27.5s-7.5 -23.833 -7.5 -38.5c0 -10 1 -19.833 3 -29.5s5.5 -18.5 10.5 -26.5s11.667 -14.333 20 -19s18.5 -7 30.5 -7c19.333 0 34.833 8 46.5 24s17.5 35.667 17.5 59v82z" />
    <glyph glyph-name="guillemotleft" unicode="&#xab;" horiz-adv-x="355" 
d="M170 265l127 196v-73l-81 -123l81 -123v-73zM30 265l127 196v-73l-81 -123l81 -123v-73z" />
    <glyph glyph-name="logicalnot" unicode="&#xac;" horiz-adv-x="422" 
d="M336 154v101h-286v36h322v-137h-36z" />
    <glyph glyph-name="uni00AD" unicode="&#xad;" horiz-adv-x="303" 
d="M58 255v36h187v-36h-187z" />
    <glyph glyph-name="registered" unicode="&#xae;" horiz-adv-x="868" 
d="M796 356c0 -50 -9.5 -97 -28.5 -141s-44.833 -82.333 -77.5 -115s-71 -58.5 -115 -77.5s-91 -28.5 -141 -28.5s-97 9.5 -141 28.5s-82.333 44.833 -115 77.5s-58.5 71 -77.5 115s-28.5 91 -28.5 141s9.5 97 28.5 141s44.833 82.333 77.5 115s71 58.5 115 77.5
s91 28.5 141 28.5s97 -9.5 141 -28.5s82.333 -44.833 115 -77.5s58.5 -71 77.5 -115s28.5 -91 28.5 -141zM760 356c0 44.667 -8.66699 87 -26 127s-40.666 75 -69.999 105s-63.833 53.833 -103.5 71.5s-81.834 26.5 -126.501 26.5s-86.834 -8.83301 -126.501 -26.5
s-74.167 -41.5 -103.5 -71.5s-52.666 -65 -69.999 -105s-26 -82.333 -26 -127s8.66699 -87 26 -127s40.666 -75 69.999 -105s63.833 -53.833 103.5 -71.5s81.834 -26.5 126.501 -26.5s86.834 8.83301 126.501 26.5s74.167 41.5 103.5 71.5s52.666 65 69.999 105
s26 82.333 26 127zM506 156l-55.999 180.001h-67v-180h-35v401h96c12 0 23.333 -1.83301 34 -5.5s19.667 -9.16699 27 -16.5c11.333 -10.667 18.5 -22.667 21.5 -36s4.5 -31 4.5 -53c0 -25.333 -1.83301 -44 -5.5 -56s-10.834 -23 -21.501 -33
c-6.66699 -6.66699 -13.667 -11.334 -21 -14.001l60 -187h-37zM496.001 446.001c0 17.333 -0.833008 30.6699 -2.5 40.0029s-6.16699 17.666 -13.5 24.999c-9.33301 9.33301 -21 14 -35 14h-62v-158h62c14 0 25.667 4.66699 35 14
c7.33301 7.33301 11.833 15.666 13.5 24.999s2.5 22.666 2.5 39.999z" />
    <glyph glyph-name="macron" unicode="&#xaf;" 
d="M69 614v35h200v-35h-200z" />
    <glyph glyph-name="degree" unicode="&#xb0;" horiz-adv-x="372" 
d="M312 592c0 -17.333 -3.33301 -33.666 -10 -48.999s-15.667 -28.666 -27 -39.999s-24.666 -20.333 -39.999 -27s-31.666 -10 -48.999 -10s-33.666 3.33301 -48.999 10s-28.666 15.667 -39.999 27s-20.333 24.666 -27 39.999s-10 31.666 -10 48.999
s3.33301 33.666 10 48.999s15.667 28.666 27 39.999s24.666 20.333 39.999 27s31.666 10 48.999 10s33.666 -3.33301 48.999 -10s28.666 -15.667 39.999 -27s20.333 -24.666 27 -39.999s10 -31.666 10 -48.999zM278 592c0 26.667 -8.66699 49 -26 67s-39.333 27 -66 27
s-48.667 -8.83301 -66 -26.5s-26 -40.167 -26 -67.5s8.66699 -49.833 26 -67.5s39.333 -26.5 66 -26.5s48.667 8.83301 66 26.5s26 40.167 26 67.5z" />
    <glyph glyph-name="plusminus" unicode="&#xb1;" horiz-adv-x="422" 
d="M229 275v-143h-36v143h-143v36h143v143h36v-143h143v-36h-143zM50 44v36h322v-36h-322z" />
    <glyph glyph-name="twosuperior" unicode="&#xb2;" horiz-adv-x="261" 
d="M35 285v25.999l138 227c8.66699 14 14.834 26.833 18.501 38.5s5.5 26.167 5.5 43.5c0 19.333 -5.83301 35.333 -17.5 48s-27.834 19 -48.501 19c-23.333 0 -39.833 -7 -49.5 -21s-14.5 -33.333 -14.5 -58v-13h-32v13c0 19.333 1.83301 35.5 5.5 48.5
s10.167 24.167 19.5 33.5c18 18 41.667 27 71 27c16.667 0 30.167 -2 40.5 -6s20.166 -10 29.499 -18c18.667 -16 28 -40.333 28 -73c0 -17.333 -2.16699 -33.666 -6.5 -48.999s-12.166 -32 -23.499 -50l-126 -209h156v-27h-194z" />
    <glyph glyph-name="threesuperior" unicode="&#xb3;" horiz-adv-x="261" 
d="M231 397c0 -25.333 -2.16406 -44.335 -6.49707 -57.002s-11.5 -24 -21.5 -34c-7.33301 -8 -17.333 -14.333 -30 -19s-26.334 -7 -41.001 -7c-31.333 0 -56 9 -74 27c-7.33301 8 -13 18 -17 30s-6 31 -6 57v10h33v-10c0 -20 1.16699 -34.667 3.5 -44
s7.16602 -17.333 14.499 -24c12 -10.667 27.333 -16 46 -16c9.33301 0 18 1.33301 26 4s14.667 6.66699 20 12c6.66699 6.66699 11.834 15.334 15.501 26.001s5.5 25.667 5.5 45c0 21.333 -1.5 36.833 -4.5 46.5s-7.5 18.167 -13.5 25.5c-12 14 -28.333 21 -49 21h-30v30h30
c9.33301 0 17.5 1.5 24.5 4.5s13.5 7.16699 19.5 12.5c10.667 9.33301 16.834 20.333 18.501 33s2.5 25.334 2.5 38.001c0 13.333 -1.5 25.5 -4.5 36.5s-8.5 20.167 -16.5 27.5c-10 10 -24.667 15 -44 15c-20 0 -35.667 -5.66699 -47 -17
c-6.66699 -6.66699 -11.167 -15.334 -13.5 -26.001s-3.5 -22.667 -3.5 -36v-10h-33v10c0 22 2 39.167 6 51.5s10 22.5 18 30.5c8.66699 8.66699 18.667 15.334 30 20.001s25.666 7 42.999 7s31.666 -2.5 42.999 -7.5s20.666 -11.167 27.999 -18.5
c17.333 -18 26 -45.667 26 -83c0 -18.667 -1.5 -33.5 -4.5 -44.5s-8.16699 -20.833 -15.5 -29.5c-12 -14 -25.667 -23.667 -41 -29c18 -4 33 -14.667 45 -32c6 -8 10.5 -17.833 13.5 -29.5s4.5 -27.167 4.5 -46.5z" />
    <glyph glyph-name="acute" unicode="&#xb4;" 
d="M188 586h-40l63 126h47z" />
    <glyph glyph-name="mu" unicode="&#xb5;" horiz-adv-x="362" 
d="M258 0l0.000976562 41c-2.66699 -5.33301 -6.66699 -10.833 -12 -16.5s-10 -10.167 -14 -13.5c-8.66699 -6 -17.667 -10.667 -27 -14s-20.333 -5 -33 -5c-15.333 0 -29.333 2.83301 -42 8.5s-21.334 11.5 -26.001 17.5v-229h-38v713h38v-385
c0 -30.667 7.5 -53.5 22.5 -68.5s33.167 -22.5 54.5 -22.5s39.5 7.5 54.5 22.5s22.5 37.833 22.5 68.5v385h38v-502h-38z" />
    <glyph glyph-name="paragraph" unicode="&#xb6;" horiz-adv-x="515" 
d="M411 -211v889h-128v-889h-38v525h-57c-43.333 0 -77.166 15.333 -101.499 46s-36.5 81.667 -36.5 153s12.167 122.333 36.5 153s58.166 46 101.499 46h261v-923h-38z" />
    <glyph glyph-name="periodcentered" unicode="&#xb7;" horiz-adv-x="254" 
d="M72 253v110h110v-110h-110z" />
    <glyph glyph-name="cedilla" unicode="&#xb8;" 
d="M153 -162h-45l50 126h38z" />
    <glyph glyph-name="onesuperior" unicode="&#xb9;" horiz-adv-x="261" 
d="M125 285v389l-66 -47v37l67 48h31v-427h-32z" />
    <glyph glyph-name="ordmasculine" unicode="&#xba;" horiz-adv-x="284" 
d="M239 519c0 -49.333 -2.16699 -86.833 -6.5 -112.5s-12.5 -44.834 -24.5 -57.501c-7.33301 -8 -16.333 -14.333 -27 -19s-23.667 -7 -39 -7s-28.333 2.33301 -39 7s-19.667 11 -27 19c-12 12.667 -20.167 31.834 -24.5 57.501s-6.5 63.167 -6.5 112.5
s2.16699 86.833 6.5 112.5s12.5 44.834 24.5 57.501c7.33301 8 16.333 14.333 27 19s23.667 7 39 7s28.333 -2.33301 39 -7s19.667 -11 27 -19c12 -12.667 20.167 -31.834 24.5 -57.501s6.5 -63.167 6.5 -112.5zM206 519c0 44.667 -1.33301 78 -4 100s-9 38.667 -19 50
s-23.667 17 -41 17s-31 -5.66699 -41 -17s-16.333 -28 -19 -50s-4 -55.333 -4 -100s1.33301 -78 4 -100s9 -38.667 19 -50s23.667 -17 41 -17s31 5.66699 41 17s16.333 28 19 50s4 55.333 4 100z" />
    <glyph glyph-name="guillemotright" unicode="&#xbb;" horiz-adv-x="355" 
d="M198 69v73l81 123l-81 123v73l127 -196zM58 69v73l81 123l-81 123v73l127 -196z" />
    <glyph glyph-name="onequarter" unicode="&#xbc;" horiz-adv-x="664" 
d="M125 285v389l-66 -47v37l67 48h31v-427h-32zM225 0h-34l248 712h34zM612 64v-64h-32v64h-149v30l131 333h32l-131 -333h117v115h32v-115h30v-30h-30z" />
    <glyph glyph-name="onehalf" unicode="&#xbd;" horiz-adv-x="664" 
d="M125 285v389l-66 -47v37l67 48h31v-427h-32zM225 0h-34l248 712h34zM438 0v25.999l138 227c8.66699 14 14.834 26.833 18.501 38.5s5.5 26.167 5.5 43.5c0 19.333 -5.83301 35.333 -17.5 48s-27.834 19 -48.501 19c-23.333 0 -39.833 -7 -49.5 -21
s-14.5 -33.333 -14.5 -58v-13h-32v13c0 19.333 1.83301 35.5 5.5 48.5s10.167 24.167 19.5 33.5c18 18 41.667 27 71 27c16.667 0 30.167 -2 40.5 -6s20.166 -10 29.499 -18c18.667 -16 28 -40.333 28 -73c0 -17.333 -2.16699 -33.666 -6.5 -48.999s-12.166 -32 -23.499 -50
l-126 -209h156v-27h-194z" />
    <glyph glyph-name="threequarters" unicode="&#xbe;" horiz-adv-x="664" 
d="M231 397c0 -25.333 -2.16406 -44.335 -6.49707 -57.002s-11.5 -24 -21.5 -34c-7.33301 -8 -17.333 -14.333 -30 -19s-26.334 -7 -41.001 -7c-31.333 0 -56 9 -74 27c-7.33301 8 -13 18 -17 30s-6 31 -6 57v10h33v-10c0 -20 1.16699 -34.667 3.5 -44
s7.16602 -17.333 14.499 -24c12 -10.667 27.333 -16 46 -16c9.33301 0 18 1.33301 26 4s14.667 6.66699 20 12c6.66699 6.66699 11.834 15.334 15.501 26.001s5.5 25.667 5.5 45c0 21.333 -1.5 36.833 -4.5 46.5s-7.5 18.167 -13.5 25.5c-12 14 -28.333 21 -49 21h-30v30h30
c9.33301 0 17.5 1.5 24.5 4.5s13.5 7.16699 19.5 12.5c10.667 9.33301 16.834 20.333 18.501 33s2.5 25.334 2.5 38.001c0 13.333 -1.5 25.5 -4.5 36.5s-8.5 20.167 -16.5 27.5c-10 10 -24.667 15 -44 15c-20 0 -35.667 -5.66699 -47 -17
c-6.66699 -6.66699 -11.167 -15.334 -13.5 -26.001s-3.5 -22.667 -3.5 -36v-10h-33v10c0 22 2 39.167 6 51.5s10 22.5 18 30.5c8.66699 8.66699 18.667 15.334 30 20.001s25.666 7 42.999 7s31.666 -2.5 42.999 -7.5s20.666 -11.167 27.999 -18.5
c17.333 -18 26 -45.667 26 -83c0 -18.667 -1.5 -33.5 -4.5 -44.5s-8.16699 -20.833 -15.5 -29.5c-12 -14 -25.667 -23.667 -41 -29c18 -4 33 -14.667 45 -32c6 -8 10.5 -17.833 13.5 -29.5s4.5 -27.167 4.5 -46.5zM225.003 -0.00195312h-34l248 712h34zM612.003 63.998v-64
h-32v64h-149v30l131 333h32l-131 -333h117v115h32v-115h30v-30h-30z" />
    <glyph glyph-name="questiondown" unicode="&#xbf;" horiz-adv-x="356" 
d="M298 -72c0 -23.333 -2.49609 -44.165 -7.49609 -62.498s-14.5 -34.166 -28.5 -47.499c-22.667 -22.667 -52 -34 -88 -34c-18 0 -34.5 2.5 -49.5 7.5s-28.5 13.833 -40.5 26.5c-6 6 -11.333 12.667 -16 20s-8.66699 15.833 -12 25.5s-5.83301 21.167 -7.5 34.5
s-2.5 29.666 -2.5 48.999c0 22 1.66699 41.167 5 57.5s10.666 34.5 21.999 54.5l58 98c7.33301 12.667 12.666 25.167 15.999 37.5s5 25.5 5 39.5v86h38v-91c0 -28.667 -7.33301 -55.667 -22 -81l-58 -98c-11.333 -18.667 -18.5 -35.334 -21.5 -50.001
s-4.5 -32.334 -4.5 -53.001c0 -30.667 2.83301 -53.5 8.5 -68.5s13.167 -27.5 22.5 -37.5c7.33301 -7.33301 15.666 -13 24.999 -17s20.666 -6 33.999 -6s24.5 2 33.5 6s17.167 9.33301 24.5 16c11.333 11.333 18.833 25 22.5 41s5.5 31.667 5.5 47h38zM142.004 444.001v58
h58v-58h-58z" />
    <glyph glyph-name="Agrave" unicode="&#xc0;" horiz-adv-x="347" 
d="M299 0l-43 214h-166l-42 -214h-44l153 712h36l150 -712h-44zM173 630l-75 -380h151zM157 766l-70 126h47l63 -126h-40z" />
    <glyph glyph-name="Aacute" unicode="&#xc1;" horiz-adv-x="347" 
d="M299 0l-43 214h-166l-42 -214h-44l153 712h36l150 -712h-44zM173 630l-75 -380h151zM195 766h-40l63 126h47z" />
    <glyph glyph-name="Acircumflex" unicode="&#xc2;" horiz-adv-x="347" 
d="M299 0l-43 214h-166l-42 -214h-44l153 712h36l150 -712h-44zM173 630l-75 -380h151zM236 766l-60 95l-60 -95h-41l82 126h38l82 -126h-41z" />
    <glyph glyph-name="Atilde" unicode="&#xc3;" horiz-adv-x="347" 
d="M299 0l-43 214h-166l-42 -214h-44l153 712h36l150 -712h-44zM173 630l-75 -380h151zM285 813c-16.667 -16.667 -29.833 -26.667 -39.5 -30s-17.834 -5 -24.501 -5c-10 0 -19 1.66699 -27 5s-16 7.33301 -24 12l-20.5 11c-6.33301 3.33301 -13.166 5 -20.499 5
c-6 0 -11.667 -1.16699 -17 -3.5s-13.666 -9.16602 -24.999 -20.499l-22 22c16.667 16.667 29.667 26.667 39 30s17.666 5 24.999 5c10.667 0 19.667 -1.5 27 -4.5s15.333 -7.16699 24 -12.5c9.33301 -6 17 -10.167 23 -12.5s12 -3.5 18 -3.5
c5.33301 0 10.833 1.16699 16.5 3.5s14.167 9.16602 25.5 20.499l22 -22v0z" />
    <glyph glyph-name="Adieresis" unicode="&#xc4;" horiz-adv-x="347" 
d="M299 0l-43 214h-166l-42 -214h-44l153 712h36l150 -712h-44zM173 630l-75 -380h151zM213 789v50h50v-50h-50zM89 789v50h50v-50h-50z" />
    <glyph glyph-name="Aring" unicode="&#xc5;" horiz-adv-x="347" 
d="M299 0l-43 214h-166l-42 -214h-44l153 712h36l150 -712h-44zM173 630l-75 -380h151zM262 836c0 -12 -2.33301 -23.167 -7 -33.5s-10.834 -19.333 -18.501 -27s-16.667 -13.834 -27 -18.501s-21.5 -7 -33.5 -7s-23.167 2.33301 -33.5 7s-19.333 10.834 -27 18.501
s-13.834 16.667 -18.501 27s-7 21.5 -7 33.5s2.33301 23.167 7 33.5s10.834 19.333 18.501 27s16.667 13.834 27 18.501s21.5 7 33.5 7s23.167 -2.33301 33.5 -7s19.333 -10.834 27 -18.501s13.834 -16.667 18.501 -27s7 -21.5 7 -33.5zM231 836
c0 15.333 -5.33301 28.333 -16 39s-23.667 16 -39 16s-28.333 -5.33301 -39 -16s-16 -23.667 -16 -39s5.33301 -28.333 16 -39s23.667 -16 39 -16s28.333 5.33301 39 16s16 23.667 16 39z" />
    <glyph glyph-name="AE" unicode="&#xc6;" horiz-adv-x="579" 
d="M299 0v214h-172l-79 -214h-43l266 712h258v-36h-190v-302h164v-36h-164v-302h190v-36h-230zM299 677l-158 -427h158v427z" />
    <glyph glyph-name="Ccedilla" unicode="&#xc7;" horiz-adv-x="382" 
d="M338 154c0 -27.333 -3.66602 -52.502 -10.999 -75.502s-19.333 -41.833 -36 -56.5c-22 -20 -51.333 -30 -88 -30c-19.333 0 -37.166 3 -53.499 9s-30.166 14.667 -41.499 26c-10.667 10.667 -19.167 22.334 -25.5 35.001s-11.333 30.5 -15 53.5s-6.16699 53.5 -7.5 91.5
s-2 87.667 -2 149s0.666992 111 2 149s3.83301 68.5 7.5 91.5s8.66699 40.833 15 53.5s14.833 24.334 25.5 35.001c11.333 11.333 25.166 20 41.499 26s34.166 9 53.499 9c21.333 0 39.5 -3 54.5 -9s28.167 -14.667 39.5 -26c14.667 -15.333 25.167 -34 31.5 -56
s9.5 -45.667 9.5 -71h-40c0 19.333 -2.33301 38.333 -7 57s-13 34 -25 46c-15.333 15.333 -36.333 23 -63 23c-29.333 0 -51.666 -8.33301 -66.999 -25c-8 -8.66699 -14.5 -18.167 -19.5 -28.5s-8.83301 -26 -11.5 -47s-4.5 -49.333 -5.5 -85s-1.5 -83.167 -1.5 -142.5
s0.5 -106.833 1.5 -142.5s2.83301 -64 5.5 -85s6.5 -36.667 11.5 -47s11.5 -19.833 19.5 -28.5c15.333 -16.667 37.666 -25 66.999 -25c14 0 26.167 2 36.5 6s19.166 9.66699 26.499 17c12 12 20.333 27.333 25 46s7 37.667 7 57h40zM182.001 -162.002h-45l50 126h38z" />
    <glyph glyph-name="Egrave" unicode="&#xc8;" horiz-adv-x="352" 
d="M72 0v712h230v-36h-190v-302h164v-36h-164v-302h190v-36h-230zM173 766l-70 126h47l63 -126h-40z" />
    <glyph glyph-name="Eacute" unicode="&#xc9;" horiz-adv-x="352" 
d="M72 0v712h230v-36h-190v-302h164v-36h-164v-302h190v-36h-230zM211 766h-40l63 126h47z" />
    <glyph glyph-name="Ecircumflex" unicode="&#xca;" horiz-adv-x="352" 
d="M72 0v712h230v-36h-190v-302h164v-36h-164v-302h190v-36h-230zM252 766l-60 95l-60 -95h-41l82 126h38l82 -126h-41z" />
    <glyph glyph-name="Edieresis" unicode="&#xcb;" horiz-adv-x="352" 
d="M72 0v712h230v-36h-190v-302h164v-36h-164v-302h190v-36h-230zM229 789v50h50v-50h-50zM105 789v50h50v-50h-50z" />
    <glyph glyph-name="Igrave" unicode="&#xcc;" horiz-adv-x="184" 
d="M72 0v712h40v-712h-40zM74 766l-70 126h47l63 -126h-40z" />
    <glyph glyph-name="Iacute" unicode="&#xcd;" horiz-adv-x="184" 
d="M72 0v712h40v-712h-40zM112 766h-40l63 126h47z" />
    <glyph glyph-name="Icircumflex" unicode="&#xce;" horiz-adv-x="184" 
d="M72 0v712h40v-712h-40zM153 766l-60 95l-60 -95h-41l82 126h38l82 -126h-41z" />
    <glyph glyph-name="Idieresis" unicode="&#xcf;" horiz-adv-x="184" 
d="M72 0v712h40v-712h-40zM130 789v50h50v-50h-50zM6 789v50h50v-50h-50z" />
    <glyph glyph-name="Eth" unicode="&#xd0;" horiz-adv-x="432" 
d="M374 356c0 -60.667 -0.666992 -109.5 -2 -146.5s-3.66602 -66.833 -6.99902 -89.5s-8.16602 -40 -14.499 -52s-14.833 -23.333 -25.5 -34c-22.667 -22.667 -54 -34 -94 -34h-134v338h-54v36h54v338h134c40 0 71.333 -11.333 94 -34c10.667 -10.667 19.167 -22 25.5 -34
s11.166 -29.333 14.499 -52s5.66602 -52.5 6.99902 -89.5s2 -85.833 2 -146.5zM334 356c0 58 -0.5 104.501 -1.5 139.501s-2.83301 62.667 -5.5 83s-6.5 35.666 -11.5 45.999s-11.833 19.833 -20.5 28.5c-15.333 15.333 -37.666 23 -66.999 23h-91v-302h98v-36h-98v-302h91
c29.333 0 51.666 7.66699 66.999 23c8.66699 8.66699 15.5 18 20.5 28s8.83301 25.333 11.5 46s4.5 48.5 5.5 83.5s1.5 81.5 1.5 139.5z" />
    <glyph glyph-name="Ntilde" unicode="&#xd1;" horiz-adv-x="438" 
d="M322 0l-210 602v-602h-40v712h44l210 -602v602h40v-712h-44zM328 813c-16.667 -16.667 -29.833 -26.667 -39.5 -30s-17.834 -5 -24.501 -5c-10 0 -19 1.66699 -27 5s-16 7.33301 -24 12l-20.5 11c-6.33301 3.33301 -13.166 5 -20.499 5c-6 0 -11.667 -1.16699 -17 -3.5
s-13.666 -9.16602 -24.999 -20.499l-22 22c16.667 16.667 29.667 26.667 39 30s17.666 5 24.999 5c10.667 0 19.667 -1.5 27 -4.5s15.333 -7.16699 24 -12.5c9.33301 -6 17 -10.167 23 -12.5s12 -3.5 18 -3.5c5.33301 0 10.833 1.16699 16.5 3.5s14.167 9.16602 25.5 20.499
l22 -22v0z" />
    <glyph glyph-name="Ograve" unicode="&#xd2;" horiz-adv-x="406" 
d="M348 356c0 -61.333 -0.666992 -111 -2 -149s-3.83301 -68.5 -7.5 -91.5s-8.66699 -40.833 -15 -53.5s-14.833 -24.334 -25.5 -35.001c-11.333 -11.333 -25.166 -20 -41.499 -26s-34.166 -9 -53.499 -9s-37.166 3 -53.499 9s-30.166 14.667 -41.499 26
c-10.667 10.667 -19.167 22.334 -25.5 35.001s-11.333 30.5 -15 53.5s-6.16699 53.5 -7.5 91.5s-2 87.667 -2 149s0.666992 111 2 149s3.83301 68.5 7.5 91.5s8.66699 40.833 15 53.5s14.833 24.334 25.5 35.001c11.333 11.333 25.166 20 41.499 26s34.166 9 53.499 9
s37.166 -3 53.499 -9s30.166 -14.667 41.499 -26c10.667 -10.667 19.167 -22.334 25.5 -35.001s11.333 -30.5 15 -53.5s6.16699 -53.5 7.5 -91.5s2 -87.667 2 -149zM308 356c0 59.333 -0.5 106.833 -1.5 142.5s-2.83301 64 -5.5 85s-6.5 36.667 -11.5 47
s-11.5 19.833 -19.5 28.5c-15.333 16.667 -37.666 25 -66.999 25s-51.666 -8.33301 -66.999 -25c-8 -8.66699 -14.5 -18.167 -19.5 -28.5s-8.83301 -26 -11.5 -47s-4.5 -49.333 -5.5 -85s-1.5 -83.167 -1.5 -142.5s0.5 -106.833 1.5 -142.5s2.83301 -64 5.5 -85
s6.5 -36.667 11.5 -47s11.5 -19.833 19.5 -28.5c15.333 -16.667 37.666 -25 66.999 -25s51.666 8.33301 66.999 25c8 8.66699 14.5 18.167 19.5 28.5s8.83301 26 11.5 47s4.5 49.333 5.5 85s1.5 83.167 1.5 142.5zM184 766l-70 126h47l63 -126h-40z" />
    <glyph glyph-name="Oacute" unicode="&#xd3;" horiz-adv-x="406" 
d="M348 356c0 -61.333 -0.666992 -111 -2 -149s-3.83301 -68.5 -7.5 -91.5s-8.66699 -40.833 -15 -53.5s-14.833 -24.334 -25.5 -35.001c-11.333 -11.333 -25.166 -20 -41.499 -26s-34.166 -9 -53.499 -9s-37.166 3 -53.499 9s-30.166 14.667 -41.499 26
c-10.667 10.667 -19.167 22.334 -25.5 35.001s-11.333 30.5 -15 53.5s-6.16699 53.5 -7.5 91.5s-2 87.667 -2 149s0.666992 111 2 149s3.83301 68.5 7.5 91.5s8.66699 40.833 15 53.5s14.833 24.334 25.5 35.001c11.333 11.333 25.166 20 41.499 26s34.166 9 53.499 9
s37.166 -3 53.499 -9s30.166 -14.667 41.499 -26c10.667 -10.667 19.167 -22.334 25.5 -35.001s11.333 -30.5 15 -53.5s6.16699 -53.5 7.5 -91.5s2 -87.667 2 -149zM308 356c0 59.333 -0.5 106.833 -1.5 142.5s-2.83301 64 -5.5 85s-6.5 36.667 -11.5 47
s-11.5 19.833 -19.5 28.5c-15.333 16.667 -37.666 25 -66.999 25s-51.666 -8.33301 -66.999 -25c-8 -8.66699 -14.5 -18.167 -19.5 -28.5s-8.83301 -26 -11.5 -47s-4.5 -49.333 -5.5 -85s-1.5 -83.167 -1.5 -142.5s0.5 -106.833 1.5 -142.5s2.83301 -64 5.5 -85
s6.5 -36.667 11.5 -47s11.5 -19.833 19.5 -28.5c15.333 -16.667 37.666 -25 66.999 -25s51.666 8.33301 66.999 25c8 8.66699 14.5 18.167 19.5 28.5s8.83301 26 11.5 47s4.5 49.333 5.5 85s1.5 83.167 1.5 142.5zM222 766h-40l63 126h47z" />
    <glyph glyph-name="Ocircumflex" unicode="&#xd4;" horiz-adv-x="406" 
d="M348 356c0 -61.333 -0.666992 -111 -2 -149s-3.83301 -68.5 -7.5 -91.5s-8.66699 -40.833 -15 -53.5s-14.833 -24.334 -25.5 -35.001c-11.333 -11.333 -25.166 -20 -41.499 -26s-34.166 -9 -53.499 -9s-37.166 3 -53.499 9s-30.166 14.667 -41.499 26
c-10.667 10.667 -19.167 22.334 -25.5 35.001s-11.333 30.5 -15 53.5s-6.16699 53.5 -7.5 91.5s-2 87.667 -2 149s0.666992 111 2 149s3.83301 68.5 7.5 91.5s8.66699 40.833 15 53.5s14.833 24.334 25.5 35.001c11.333 11.333 25.166 20 41.499 26s34.166 9 53.499 9
s37.166 -3 53.499 -9s30.166 -14.667 41.499 -26c10.667 -10.667 19.167 -22.334 25.5 -35.001s11.333 -30.5 15 -53.5s6.16699 -53.5 7.5 -91.5s2 -87.667 2 -149zM308 356c0 59.333 -0.5 106.833 -1.5 142.5s-2.83301 64 -5.5 85s-6.5 36.667 -11.5 47
s-11.5 19.833 -19.5 28.5c-15.333 16.667 -37.666 25 -66.999 25s-51.666 -8.33301 -66.999 -25c-8 -8.66699 -14.5 -18.167 -19.5 -28.5s-8.83301 -26 -11.5 -47s-4.5 -49.333 -5.5 -85s-1.5 -83.167 -1.5 -142.5s0.5 -106.833 1.5 -142.5s2.83301 -64 5.5 -85
s6.5 -36.667 11.5 -47s11.5 -19.833 19.5 -28.5c15.333 -16.667 37.666 -25 66.999 -25s51.666 8.33301 66.999 25c8 8.66699 14.5 18.167 19.5 28.5s8.83301 26 11.5 47s4.5 49.333 5.5 85s1.5 83.167 1.5 142.5zM263 766l-60 95l-60 -95h-41l82 126h38l82 -126h-41z" />
    <glyph glyph-name="Otilde" unicode="&#xd5;" horiz-adv-x="406" 
d="M348 356c0 -61.333 -0.666992 -111 -2 -149s-3.83301 -68.5 -7.5 -91.5s-8.66699 -40.833 -15 -53.5s-14.833 -24.334 -25.5 -35.001c-11.333 -11.333 -25.166 -20 -41.499 -26s-34.166 -9 -53.499 -9s-37.166 3 -53.499 9s-30.166 14.667 -41.499 26
c-10.667 10.667 -19.167 22.334 -25.5 35.001s-11.333 30.5 -15 53.5s-6.16699 53.5 -7.5 91.5s-2 87.667 -2 149s0.666992 111 2 149s3.83301 68.5 7.5 91.5s8.66699 40.833 15 53.5s14.833 24.334 25.5 35.001c11.333 11.333 25.166 20 41.499 26s34.166 9 53.499 9
s37.166 -3 53.499 -9s30.166 -14.667 41.499 -26c10.667 -10.667 19.167 -22.334 25.5 -35.001s11.333 -30.5 15 -53.5s6.16699 -53.5 7.5 -91.5s2 -87.667 2 -149zM308 356c0 59.333 -0.5 106.833 -1.5 142.5s-2.83301 64 -5.5 85s-6.5 36.667 -11.5 47
s-11.5 19.833 -19.5 28.5c-15.333 16.667 -37.666 25 -66.999 25s-51.666 -8.33301 -66.999 -25c-8 -8.66699 -14.5 -18.167 -19.5 -28.5s-8.83301 -26 -11.5 -47s-4.5 -49.333 -5.5 -85s-1.5 -83.167 -1.5 -142.5s0.5 -106.833 1.5 -142.5s2.83301 -64 5.5 -85
s6.5 -36.667 11.5 -47s11.5 -19.833 19.5 -28.5c15.333 -16.667 37.666 -25 66.999 -25s51.666 8.33301 66.999 25c8 8.66699 14.5 18.167 19.5 28.5s8.83301 26 11.5 47s4.5 49.333 5.5 85s1.5 83.167 1.5 142.5zM312 813c-16.667 -16.667 -29.833 -26.667 -39.5 -30
s-17.834 -5 -24.501 -5c-10 0 -19 1.66699 -27 5s-16 7.33301 -24 12l-20.5 11c-6.33301 3.33301 -13.166 5 -20.499 5c-6 0 -11.667 -1.16699 -17 -3.5s-13.666 -9.16602 -24.999 -20.499l-22 22c16.667 16.667 29.667 26.667 39 30s17.666 5 24.999 5
c10.667 0 19.667 -1.5 27 -4.5s15.333 -7.16699 24 -12.5c9.33301 -6 17 -10.167 23 -12.5s12 -3.5 18 -3.5c5.33301 0 10.833 1.16699 16.5 3.5s14.167 9.16602 25.5 20.499l22 -22v0z" />
    <glyph glyph-name="Odieresis" unicode="&#xd6;" horiz-adv-x="406" 
d="M348 356c0 -61.333 -0.666992 -111 -2 -149s-3.83301 -68.5 -7.5 -91.5s-8.66699 -40.833 -15 -53.5s-14.833 -24.334 -25.5 -35.001c-11.333 -11.333 -25.166 -20 -41.499 -26s-34.166 -9 -53.499 -9s-37.166 3 -53.499 9s-30.166 14.667 -41.499 26
c-10.667 10.667 -19.167 22.334 -25.5 35.001s-11.333 30.5 -15 53.5s-6.16699 53.5 -7.5 91.5s-2 87.667 -2 149s0.666992 111 2 149s3.83301 68.5 7.5 91.5s8.66699 40.833 15 53.5s14.833 24.334 25.5 35.001c11.333 11.333 25.166 20 41.499 26s34.166 9 53.499 9
s37.166 -3 53.499 -9s30.166 -14.667 41.499 -26c10.667 -10.667 19.167 -22.334 25.5 -35.001s11.333 -30.5 15 -53.5s6.16699 -53.5 7.5 -91.5s2 -87.667 2 -149zM308 356c0 59.333 -0.5 106.833 -1.5 142.5s-2.83301 64 -5.5 85s-6.5 36.667 -11.5 47
s-11.5 19.833 -19.5 28.5c-15.333 16.667 -37.666 25 -66.999 25s-51.666 -8.33301 -66.999 -25c-8 -8.66699 -14.5 -18.167 -19.5 -28.5s-8.83301 -26 -11.5 -47s-4.5 -49.333 -5.5 -85s-1.5 -83.167 -1.5 -142.5s0.5 -106.833 1.5 -142.5s2.83301 -64 5.5 -85
s6.5 -36.667 11.5 -47s11.5 -19.833 19.5 -28.5c15.333 -16.667 37.666 -25 66.999 -25s51.666 8.33301 66.999 25c8 8.66699 14.5 18.167 19.5 28.5s8.83301 26 11.5 47s4.5 49.333 5.5 85s1.5 83.167 1.5 142.5zM240 789v50h50v-50h-50zM116 789v50h50v-50h-50z" />
    <glyph glyph-name="multiply" unicode="&#xd7;" horiz-adv-x="422" 
d="M329 120l-118 118l-118 -118l-25 25l118 118l-118 118l25 25l118 -118l118 118l25 -25l-118 -118l118 -118z" />
    <glyph glyph-name="Oslash" unicode="&#xd8;" horiz-adv-x="386" 
d="M348 356c0 -61.333 -0.666016 -111.001 -1.99902 -149.001s-3.83301 -68.5 -7.5 -91.5s-8.66699 -40.833 -15 -53.5s-14.833 -24.334 -25.5 -35.001c-11.333 -11.333 -25.166 -20 -41.499 -26s-34.166 -9 -53.499 -9c-30.667 0 -56.334 7 -77.001 21l-16 -57h-41l26 86
c-8 10 -14.333 21.833 -19 35.5s-8.33398 32 -11.001 55s-4.5 52.333 -5.5 88s-1.5 80.834 -1.5 135.501c0 61.333 0.666992 111 2 149s3.83301 68.5 7.5 91.5s8.66699 40.833 15 53.5s14.833 24.334 25.5 35.001c11.333 11.333 25.166 20 41.499 26s34.166 9 53.499 9
c30 0 55.667 -7 77 -21l16 57h41l-25 -87c7.33301 -10 13.333 -21.833 18 -35.5s8.33398 -32 11.001 -55s4.5 -52.333 5.5 -88s1.5 -80.5 1.5 -134.5zM269.001 659.999c-15.333 16 -37.334 24 -66.001 24c-29.333 0 -51.666 -8.33301 -66.999 -25
c-8 -8.66699 -14.5 -18.167 -19.5 -28.5s-8.83301 -26 -11.5 -47s-4.5 -49.333 -5.5 -85s-1.5 -83.167 -1.5 -142.5c0 -40 0.166992 -74.333 0.5 -103s1 -53.334 2 -74.001s2.5 -37.667 4.5 -51s4.33301 -24.666 7 -33.999zM308 355.999
c0 38.667 -0.165039 72.166 -0.498047 100.499s-1 52.833 -2 73.5s-2.33301 37.834 -4 51.501s-3.83398 25.167 -6.50098 34.5l-158 -564c14.667 -16 36.667 -24 66 -24s51.666 8.33301 66.999 25c8 8.66699 14.5 18.167 19.5 28.5s8.83301 26 11.5 47s4.5 49.333 5.5 85
s1.5 83.167 1.5 142.5z" />
    <glyph glyph-name="Ugrave" unicode="&#xd9;" horiz-adv-x="398" 
d="M334 138c0 -24.667 -3.49805 -46 -10.498 -64s-16.833 -33 -29.5 -45c-12.667 -12.667 -27.334 -22 -44.001 -28s-33.667 -9 -51 -9s-34.333 3 -51 9s-31.334 15.333 -44.001 28c-12.667 12 -22.5 27 -29.5 45s-10.5 39.333 -10.5 64v574h40v-578
c0 -32.667 9.16699 -58.5 27.5 -77.5s40.833 -28.5 67.5 -28.5s49.167 9.5 67.5 28.5s27.5 44.833 27.5 77.5v578h40v-574zM181.002 766l-70 126h47l63 -126h-40z" />
    <glyph glyph-name="Uacute" unicode="&#xda;" horiz-adv-x="398" 
d="M334 138c0 -24.667 -3.49805 -46 -10.498 -64s-16.833 -33 -29.5 -45c-12.667 -12.667 -27.334 -22 -44.001 -28s-33.667 -9 -51 -9s-34.333 3 -51 9s-31.334 15.333 -44.001 28c-12.667 12 -22.5 27 -29.5 45s-10.5 39.333 -10.5 64v574h40v-578
c0 -32.667 9.16699 -58.5 27.5 -77.5s40.833 -28.5 67.5 -28.5s49.167 9.5 67.5 28.5s27.5 44.833 27.5 77.5v578h40v-574zM219.002 766h-40l63 126h47z" />
    <glyph glyph-name="Ucircumflex" unicode="&#xdb;" horiz-adv-x="398" 
d="M334 138c0 -24.667 -3.49805 -46 -10.498 -64s-16.833 -33 -29.5 -45c-12.667 -12.667 -27.334 -22 -44.001 -28s-33.667 -9 -51 -9s-34.333 3 -51 9s-31.334 15.333 -44.001 28c-12.667 12 -22.5 27 -29.5 45s-10.5 39.333 -10.5 64v574h40v-578
c0 -32.667 9.16699 -58.5 27.5 -77.5s40.833 -28.5 67.5 -28.5s49.167 9.5 67.5 28.5s27.5 44.833 27.5 77.5v578h40v-574zM260.002 766l-60 95l-60 -95h-41l82 126h38l82 -126h-41z" />
    <glyph glyph-name="Udieresis" unicode="&#xdc;" horiz-adv-x="398" 
d="M334 138c0 -24.667 -3.49805 -46 -10.498 -64s-16.833 -33 -29.5 -45c-12.667 -12.667 -27.334 -22 -44.001 -28s-33.667 -9 -51 -9s-34.333 3 -51 9s-31.334 15.333 -44.001 28c-12.667 12 -22.5 27 -29.5 45s-10.5 39.333 -10.5 64v574h40v-578
c0 -32.667 9.16699 -58.5 27.5 -77.5s40.833 -28.5 67.5 -28.5s49.167 9.5 67.5 28.5s27.5 44.833 27.5 77.5v578h40v-574zM237.002 789v50h50v-50h-50zM113.002 789v50h50v-50h-50z" />
    <glyph glyph-name="Yacute" unicode="&#xdd;" horiz-adv-x="289" 
d="M164 305v-305h-40v305l-120 407h44l96 -341l97 341h44zM167 766h-40l63 126h47z" />
    <glyph glyph-name="Thorn" unicode="&#xde;" horiz-adv-x="391" 
d="M342 359c0 -42.667 -4.33105 -76.6699 -12.998 -102.003s-19.834 -44.666 -33.501 -57.999s-29.167 -22 -46.5 -26s-34.333 -6 -51 -6h-86v-167h-40v712h40v-161h86c17.333 0 34.666 -1.83301 51.999 -5.5s32.833 -12.167 46.5 -25.5s24.667 -32.666 33 -57.999
s12.5 -59.666 12.5 -102.999zM302.002 358.997c0 34 -2.83301 61.333 -8.5 82s-13.334 36.5 -23.001 47.5s-21 18.167 -34 21.5s-26.833 5 -41.5 5h-83v-312h83c14.667 0 28.5 1.66699 41.5 5s24.333 10.5 34 21.5s17.334 26.833 23.001 47.5s8.5 48 8.5 82z" />
    <glyph glyph-name="germandbls" unicode="&#xdf;" horiz-adv-x="357" 
d="M309 228c0 -26.667 -0.333008 -50.165 -1 -70.498s-2.16699 -38.333 -4.5 -54s-6 -29.334 -11 -41.001s-11.833 -21.834 -20.5 -30.501c-12.667 -12.667 -26.667 -21.167 -42 -25.5s-31.666 -6.5 -48.999 -6.5v34c28 0 49 7.66699 63 23
c5.33301 5.33301 9.66602 12 12.999 20s6 18.5 8 31.5s3.5 29.167 4.5 48.5s1.5 43 1.5 71c0 50.667 -1.83301 89 -5.5 115s-10.834 44.667 -21.501 56c-14 14.667 -32 22 -54 22h-9v34h7c18 0 33 6.66699 45 20c12.667 13.333 20.334 28.833 23.001 46.5s4 35.167 4 52.5
c0 23.333 -1.83301 41.666 -5.5 54.999s-10.167 25 -19.5 35c-14 14.667 -32 22 -54 22c-21.333 0 -39.5 -7.5 -54.5 -22.5s-22.5 -37.833 -22.5 -68.5v-595h-38v593c0 23.333 3 42.5 9 57.5s14 27.5 24 37.5c9.33301 9.33301 21.333 17 36 23s30 9 46 9s31.333 -3 46 -9
s26.667 -13.667 36 -23c14 -14 23.333 -29.167 28 -45.5s7 -39.166 7 -68.499c0 -16.667 -1.16699 -33.667 -3.5 -51s-7.83301 -33.333 -16.5 -48c-8 -13.333 -19 -24.333 -33 -33c10 -4.66699 19 -11 27 -19c6.66699 -7.33301 12.5 -15.333 17.5 -24
s8.83301 -20.167 11.5 -34.5s4.66699 -32.5 6 -54.5s2 -49.333 2 -82z" />
    <glyph glyph-name="agrave" unicode="&#xe0;" horiz-adv-x="335" 
d="M236 0v47.002c-3.33301 -7.33301 -7.66602 -14 -12.999 -20s-9.66602 -10.667 -12.999 -14c-8 -6.66699 -16.833 -11.834 -26.5 -15.501s-21.5 -5.5 -35.5 -5.5c-29.333 0 -54 10 -74 30c-9.33301 9.33301 -17.333 23.666 -24 42.999s-10 43 -10 71
c0 24 3.5 45.833 10.5 65.5s17.167 35.834 30.5 48.501c12.667 11.333 26.167 19.666 40.5 24.999s31.833 8 52.5 8h62v98c0 31.333 -6.33301 55.166 -19 71.499s-32 24.5 -58 24.5c-20 0 -36.667 -6.66699 -50 -20c-9.33301 -9.33301 -15.833 -20 -19.5 -32
s-5.5 -27.667 -5.5 -47h-38c0 18.667 2.33301 36.834 7 54.501s13.667 33.167 27 46.5c10 10 21.333 17.667 34 23s27.667 8 45 8c19.333 0 35.666 -2.5 48.999 -7.5s24.666 -12.167 33.999 -21.5c11.333 -11.333 19.5 -24.833 24.5 -40.5s7.5 -35.167 7.5 -58.5v-382h-38z
M236 251.002h-64c-26 0 -47.333 -8 -64 -24c-9.33301 -9.33301 -16.666 -22 -21.999 -38s-8 -33.667 -8 -53c0 -33.333 6 -60 18 -80s31.667 -30 59 -30c25.333 0 45.166 9.66699 59.499 29s21.5 43 21.5 71v125zM148 586.002l-70 126h47l63 -126h-40z" />
    <glyph glyph-name="aacute" unicode="&#xe1;" horiz-adv-x="335" 
d="M236 0v47.002c-3.33301 -7.33301 -7.66602 -14 -12.999 -20s-9.66602 -10.667 -12.999 -14c-8 -6.66699 -16.833 -11.834 -26.5 -15.501s-21.5 -5.5 -35.5 -5.5c-29.333 0 -54 10 -74 30c-9.33301 9.33301 -17.333 23.666 -24 42.999s-10 43 -10 71
c0 24 3.5 45.833 10.5 65.5s17.167 35.834 30.5 48.501c12.667 11.333 26.167 19.666 40.5 24.999s31.833 8 52.5 8h62v98c0 31.333 -6.33301 55.166 -19 71.499s-32 24.5 -58 24.5c-20 0 -36.667 -6.66699 -50 -20c-9.33301 -9.33301 -15.833 -20 -19.5 -32
s-5.5 -27.667 -5.5 -47h-38c0 18.667 2.33301 36.834 7 54.501s13.667 33.167 27 46.5c10 10 21.333 17.667 34 23s27.667 8 45 8c19.333 0 35.666 -2.5 48.999 -7.5s24.666 -12.167 33.999 -21.5c11.333 -11.333 19.5 -24.833 24.5 -40.5s7.5 -35.167 7.5 -58.5v-382h-38z
M236 251.002h-64c-26 0 -47.333 -8 -64 -24c-9.33301 -9.33301 -16.666 -22 -21.999 -38s-8 -33.667 -8 -53c0 -33.333 6 -60 18 -80s31.667 -30 59 -30c25.333 0 45.166 9.66699 59.499 29s21.5 43 21.5 71v125zM183 586.002h-40l63 126h47z" />
    <glyph glyph-name="acircumflex" unicode="&#xe2;" horiz-adv-x="335" 
d="M236 0v47.002c-3.33301 -7.33301 -7.66602 -14 -12.999 -20s-9.66602 -10.667 -12.999 -14c-8 -6.66699 -16.833 -11.834 -26.5 -15.501s-21.5 -5.5 -35.5 -5.5c-29.333 0 -54 10 -74 30c-9.33301 9.33301 -17.333 23.666 -24 42.999s-10 43 -10 71
c0 24 3.5 45.833 10.5 65.5s17.167 35.834 30.5 48.501c12.667 11.333 26.167 19.666 40.5 24.999s31.833 8 52.5 8h62v98c0 31.333 -6.33301 55.166 -19 71.499s-32 24.5 -58 24.5c-20 0 -36.667 -6.66699 -50 -20c-9.33301 -9.33301 -15.833 -20 -19.5 -32
s-5.5 -27.667 -5.5 -47h-38c0 18.667 2.33301 36.834 7 54.501s13.667 33.167 27 46.5c10 10 21.333 17.667 34 23s27.667 8 45 8c19.333 0 35.666 -2.5 48.999 -7.5s24.666 -12.167 33.999 -21.5c11.333 -11.333 19.5 -24.833 24.5 -40.5s7.5 -35.167 7.5 -58.5v-382h-38z
M236 251.002h-64c-26 0 -47.333 -8 -64 -24c-9.33301 -9.33301 -16.666 -22 -21.999 -38s-8 -33.667 -8 -53c0 -33.333 6 -60 18 -80s31.667 -30 59 -30c25.333 0 45.166 9.66699 59.499 29s21.5 43 21.5 71v125zM224 586.002l-60 95l-60 -95h-41l82 126h38l82 -126h-41z
" />
    <glyph glyph-name="atilde" unicode="&#xe3;" horiz-adv-x="335" 
d="M236 0v47.002c-3.33301 -7.33301 -7.66602 -14 -12.999 -20s-9.66602 -10.667 -12.999 -14c-8 -6.66699 -16.833 -11.834 -26.5 -15.501s-21.5 -5.5 -35.5 -5.5c-29.333 0 -54 10 -74 30c-9.33301 9.33301 -17.333 23.666 -24 42.999s-10 43 -10 71
c0 24 3.5 45.833 10.5 65.5s17.167 35.834 30.5 48.501c12.667 11.333 26.167 19.666 40.5 24.999s31.833 8 52.5 8h62v98c0 31.333 -6.33301 55.166 -19 71.499s-32 24.5 -58 24.5c-20 0 -36.667 -6.66699 -50 -20c-9.33301 -9.33301 -15.833 -20 -19.5 -32
s-5.5 -27.667 -5.5 -47h-38c0 18.667 2.33301 36.834 7 54.501s13.667 33.167 27 46.5c10 10 21.333 17.667 34 23s27.667 8 45 8c19.333 0 35.666 -2.5 48.999 -7.5s24.666 -12.167 33.999 -21.5c11.333 -11.333 19.5 -24.833 24.5 -40.5s7.5 -35.167 7.5 -58.5v-382h-38z
M236 251.002h-64c-26 0 -47.333 -8 -64 -24c-9.33301 -9.33301 -16.666 -22 -21.999 -38s-8 -33.667 -8 -53c0 -33.333 6 -60 18 -80s31.667 -30 59 -30c25.333 0 45.166 9.66699 59.499 29s21.5 43 21.5 71v125zM274 633.002c-16.667 -16.667 -29.833 -26.667 -39.5 -30
s-17.834 -5 -24.501 -5c-10 0 -19 1.66699 -27 5s-16 7.33301 -24 12l-20.5 11c-6.33301 3.33301 -13.166 5 -20.499 5c-6 0 -11.667 -1.16699 -17 -3.5s-13.666 -9.16602 -24.999 -20.499l-22 22c16.667 16.667 29.667 26.667 39 30s17.666 5 24.999 5
c10.667 0 19.667 -1.5 27 -4.5s15.333 -7.16699 24 -12.5c9.33301 -6 17 -10.167 23 -12.5s12 -3.5 18 -3.5c5.33301 0 10.833 1.16699 16.5 3.5s14.167 9.16602 25.5 20.499l22 -22v0z" />
    <glyph glyph-name="adieresis" unicode="&#xe4;" horiz-adv-x="335" 
d="M236 0v47.002c-3.33301 -7.33301 -7.66602 -14 -12.999 -20s-9.66602 -10.667 -12.999 -14c-8 -6.66699 -16.833 -11.834 -26.5 -15.501s-21.5 -5.5 -35.5 -5.5c-29.333 0 -54 10 -74 30c-9.33301 9.33301 -17.333 23.666 -24 42.999s-10 43 -10 71
c0 24 3.5 45.833 10.5 65.5s17.167 35.834 30.5 48.501c12.667 11.333 26.167 19.666 40.5 24.999s31.833 8 52.5 8h62v98c0 31.333 -6.33301 55.166 -19 71.499s-32 24.5 -58 24.5c-20 0 -36.667 -6.66699 -50 -20c-9.33301 -9.33301 -15.833 -20 -19.5 -32
s-5.5 -27.667 -5.5 -47h-38c0 18.667 2.33301 36.834 7 54.501s13.667 33.167 27 46.5c10 10 21.333 17.667 34 23s27.667 8 45 8c19.333 0 35.666 -2.5 48.999 -7.5s24.666 -12.167 33.999 -21.5c11.333 -11.333 19.5 -24.833 24.5 -40.5s7.5 -35.167 7.5 -58.5v-382h-38z
M236 251.002h-64c-26 0 -47.333 -8 -64 -24c-9.33301 -9.33301 -16.666 -22 -21.999 -38s-8 -33.667 -8 -53c0 -33.333 6 -60 18 -80s31.667 -30 59 -30c25.333 0 45.166 9.66699 59.499 29s21.5 43 21.5 71v125zM201 609.002v50h50v-50h-50zM77 609.002v50h50v-50h-50z" />
    <glyph glyph-name="aring" unicode="&#xe5;" horiz-adv-x="335" 
d="M236 0v47.002c-3.33301 -7.33301 -7.66602 -14 -12.999 -20s-9.66602 -10.667 -12.999 -14c-8 -6.66699 -16.833 -11.834 -26.5 -15.501s-21.5 -5.5 -35.5 -5.5c-29.333 0 -54 10 -74 30c-9.33301 9.33301 -17.333 23.666 -24 42.999s-10 43 -10 71
c0 24 3.5 45.833 10.5 65.5s17.167 35.834 30.5 48.501c12.667 11.333 26.167 19.666 40.5 24.999s31.833 8 52.5 8h62v98c0 31.333 -6.33301 55.166 -19 71.499s-32 24.5 -58 24.5c-20 0 -36.667 -6.66699 -50 -20c-9.33301 -9.33301 -15.833 -20 -19.5 -32
s-5.5 -27.667 -5.5 -47h-38c0 18.667 2.33301 36.834 7 54.501s13.667 33.167 27 46.5c10 10 21.333 17.667 34 23s27.667 8 45 8c19.333 0 35.666 -2.5 48.999 -7.5s24.666 -12.167 33.999 -21.5c11.333 -11.333 19.5 -24.833 24.5 -40.5s7.5 -35.167 7.5 -58.5v-382h-38z
M236 251.002h-64c-26 0 -47.333 -8 -64 -24c-9.33301 -9.33301 -16.666 -22 -21.999 -38s-8 -33.667 -8 -53c0 -33.333 6 -60 18 -80s31.667 -30 59 -30c25.333 0 45.166 9.66699 59.499 29s21.5 43 21.5 71v125zM250 666.002c0 -12 -2.33301 -23.167 -7 -33.5
s-10.834 -19.333 -18.501 -27s-16.667 -13.834 -27 -18.501s-21.5 -7 -33.5 -7s-23.167 2.33301 -33.5 7s-19.333 10.834 -27 18.501s-13.834 16.667 -18.501 27s-7 21.5 -7 33.5s2.33301 23.167 7 33.5s10.834 19.333 18.501 27s16.667 13.834 27 18.501s21.5 7 33.5 7
s23.167 -2.33301 33.5 -7s19.333 -10.834 27 -18.501s13.834 -16.667 18.501 -27s7 -21.5 7 -33.5zM219 666.002c0 15.333 -5.33301 28.333 -16 39s-23.667 16 -39 16s-28.333 -5.33301 -39 -16s-16 -23.667 -16 -39s5.33301 -28.333 16 -39s23.667 -16 39 -16
s28.333 5.33301 39 16s16 23.667 16 39z" />
    <glyph glyph-name="ae" unicode="&#xe6;" horiz-adv-x="523" 
d="M274 251c0 -30 0.329102 -55.9971 0.996094 -77.9971s2 -41 4 -57s5 -29.333 9 -40s9.33301 -19.667 16 -27c6 -6.66699 13.667 -12.167 23 -16.5s20 -6.5 32 -6.5c10 0 19.833 1.5 29.5 4.5s18.167 8.16699 25.5 15.5c17.333 16.667 26 43.667 26 81h37
c0 -25.333 -2.83301 -45.666 -8.5 -60.999s-14.5 -29.333 -26.5 -42c-10.667 -10.667 -23.167 -18.667 -37.5 -24s-29.5 -8 -45.5 -8c-17.333 0 -32.666 2.83301 -45.999 8.5s-24.666 13.167 -33.999 22.5c-5.33301 6 -10.5 13.167 -15.5 21.5s-8.83301 16.166 -11.5 23.499
c-7.33301 -22.667 -18.666 -40 -33.999 -52c-8.66699 -6.66699 -18.667 -12.334 -30 -17.001s-24.666 -7 -39.999 -7c-29.333 0 -54 10 -74 30c-9.33301 9.33301 -17.333 23.666 -24 42.999s-10 43 -10 71c0 24 3.5 45.833 10.5 65.5s17.167 35.834 30.5 48.501
c12.667 11.333 26.167 19.666 40.5 24.999s31.833 8 52.5 8h62v98c0 31.333 -6.33301 55.166 -19 71.499s-32 24.5 -58 24.5c-20 0 -36.667 -6.66699 -50 -20c-9.33301 -9.33301 -15.833 -20 -19.5 -32s-5.5 -27.667 -5.5 -47h-38c0 18.667 2.33301 36.834 7 54.501
s13.667 33.167 27 46.5c10 10 21.333 17.667 34 23s27.667 8 45 8c19.333 0 35.666 -2.5 48.999 -7.5s24.666 -12.167 33.999 -21.5c8 -8.66699 14 -17.334 18 -26.001c2 4 4.16699 7.5 6.5 10.5l7.5 9.5c9.33301 10.667 20.833 19.167 34.5 25.5s29.834 9.5 48.501 9.5
s34.834 -3.16699 48.501 -9.5s25.167 -14.833 34.5 -25.5c7.33301 -8 13.5 -18.167 18.5 -30.5s9 -27.333 12 -45s5 -38.667 6 -63s1.5 -52.833 1.5 -85.5h-204zM235.996 251.003h-64c-26 0 -47.333 -8 -64 -24c-9.33301 -9.33301 -16.666 -22 -21.999 -38
s-8 -33.667 -8 -53c0 -33.333 6 -60 18 -80s31.667 -30 59 -30c25.333 0 45.166 9.66699 59.499 29s21.5 43 21.5 71v125zM439.996 283.003c0 24.667 -0.5 46.167 -1.5 64.5s-2.5 34.166 -4.5 47.499s-4.83301 24.666 -8.5 33.999s-8.5 17.333 -14.5 24
s-13.5 12.167 -22.5 16.5s-19.5 6.5 -31.5 6.5s-22.5 -2.16699 -31.5 -6.5s-16.5 -9.83301 -22.5 -16.5s-10.833 -14.667 -14.5 -24s-6.5 -20.666 -8.5 -33.999s-3.5 -29.166 -4.5 -47.499s-1.5 -39.833 -1.5 -64.5h166z" />
    <glyph glyph-name="ccedilla" unicode="&#xe7;" horiz-adv-x="324" 
d="M284 127c0 -24 -2.33301 -44.168 -7 -60.501s-13 -30.833 -25 -43.5c-20.667 -20.667 -48.334 -31 -83.001 -31c-17.333 0 -33.166 3.16699 -47.499 9.5s-26.166 14.833 -35.499 25.5c-7.33301 8 -13.5 18.167 -18.5 30.5s-9 27.333 -12 45s-5 38.667 -6 63
s-1.5 52.833 -1.5 85.5s0.5 61.167 1.5 85.5s3 45.333 6 63s7 32.667 12 45s11.167 22.5 18.5 30.5c9.33301 10.667 21.166 19.167 35.499 25.5s30.166 9.5 47.499 9.5c36 0 63.667 -9.66699 83 -29c14.667 -14.667 23.667 -31.167 27 -49.5s5 -37.166 5 -56.499h-37
c0 14.667 -1 28.834 -3 42.501s-8.33301 26.167 -19 37.5c-13.333 14 -31.666 21 -54.999 21c-12 0 -22.667 -2.16699 -32 -6.5s-17 -9.83301 -23 -16.5c-6.66699 -7.33301 -11.834 -16.333 -15.501 -27s-6.5 -24 -8.5 -40s-3.33301 -35 -4 -57s-1 -48 -1 -78
s0.333008 -56 1 -78s2 -41 4 -57s4.83301 -29.333 8.5 -40s8.83398 -19.667 15.501 -27c6 -6.66699 13.667 -12.167 23 -16.5s20 -6.5 32 -6.5c10 0 19.5 1.5 28.5 4.5s17.167 8.16699 24.5 15.5c10 10 16.5 21.667 19.5 35s4.5 28.666 4.5 45.999h37zM153 -162.001h-45
l50 126h38z" />
    <glyph glyph-name="egrave" unicode="&#xe8;" horiz-adv-x="333" 
d="M86 251c0 -30 0.331055 -56.001 0.998047 -78.001s2 -41 4 -57s5 -29.333 9 -40s9.33301 -19.667 16 -27c6 -6.66699 13.667 -12.167 23 -16.5s20 -6.5 32 -6.5c10 0 19.833 1.5 29.5 4.5s18.167 8.16699 25.5 15.5c17.333 16.667 26 43.667 26 81h37
c0 -25.333 -2.83301 -45.666 -8.5 -60.999s-14.5 -29.333 -26.5 -42c-10.667 -10.667 -23.167 -18.667 -37.5 -24s-29.5 -8 -45.5 -8c-18.667 0 -35 3.16699 -49 9.5s-25.667 14.833 -35 25.5c-7.33301 8 -13.5 18.167 -18.5 30.5s-9 27.333 -12 45s-5.16699 38.667 -6.5 63
s-2 52.833 -2 85.5s0.5 61.167 1.5 85.5s3 45.333 6 63s7 32.667 12 45s11.167 22.5 18.5 30.5c9.33301 10.667 20.833 19.167 34.5 25.5s29.834 9.5 48.501 9.5s34.834 -3.16699 48.501 -9.5s25.167 -14.833 34.5 -25.5c7.33301 -8 13.5 -18.167 18.5 -30.5
s9 -27.333 12 -45s5 -38.667 6 -63s1.5 -52.833 1.5 -85.5h-204zM251.998 282.999c0 24.667 -0.5 46.167 -1.5 64.5s-2.5 34.166 -4.5 47.499s-4.83301 24.666 -8.5 33.999s-8.5 17.333 -14.5 24s-13.5 12.167 -22.5 16.5s-19.5 6.5 -31.5 6.5s-22.5 -2.16699 -31.5 -6.5
s-16.5 -9.83301 -22.5 -16.5s-10.833 -14.667 -14.5 -24s-6.5 -20.666 -8.5 -33.999s-3.5 -29.166 -4.5 -47.499s-1.5 -39.833 -1.5 -64.5h166zM152.998 585.999l-70 126h47l63 -126h-40z" />
    <glyph glyph-name="eacute" unicode="&#xe9;" horiz-adv-x="333" 
d="M86 251c0 -30 0.331055 -56.001 0.998047 -78.001s2 -41 4 -57s5 -29.333 9 -40s9.33301 -19.667 16 -27c6 -6.66699 13.667 -12.167 23 -16.5s20 -6.5 32 -6.5c10 0 19.833 1.5 29.5 4.5s18.167 8.16699 25.5 15.5c17.333 16.667 26 43.667 26 81h37
c0 -25.333 -2.83301 -45.666 -8.5 -60.999s-14.5 -29.333 -26.5 -42c-10.667 -10.667 -23.167 -18.667 -37.5 -24s-29.5 -8 -45.5 -8c-18.667 0 -35 3.16699 -49 9.5s-25.667 14.833 -35 25.5c-7.33301 8 -13.5 18.167 -18.5 30.5s-9 27.333 -12 45s-5.16699 38.667 -6.5 63
s-2 52.833 -2 85.5s0.5 61.167 1.5 85.5s3 45.333 6 63s7 32.667 12 45s11.167 22.5 18.5 30.5c9.33301 10.667 20.833 19.167 34.5 25.5s29.834 9.5 48.501 9.5s34.834 -3.16699 48.501 -9.5s25.167 -14.833 34.5 -25.5c7.33301 -8 13.5 -18.167 18.5 -30.5
s9 -27.333 12 -45s5 -38.667 6 -63s1.5 -52.833 1.5 -85.5h-204zM251.998 282.999c0 24.667 -0.5 46.167 -1.5 64.5s-2.5 34.166 -4.5 47.499s-4.83301 24.666 -8.5 33.999s-8.5 17.333 -14.5 24s-13.5 12.167 -22.5 16.5s-19.5 6.5 -31.5 6.5s-22.5 -2.16699 -31.5 -6.5
s-16.5 -9.83301 -22.5 -16.5s-10.833 -14.667 -14.5 -24s-6.5 -20.666 -8.5 -33.999s-3.5 -29.166 -4.5 -47.499s-1.5 -39.833 -1.5 -64.5h166zM187.998 585.999h-40l63 126h47z" />
    <glyph glyph-name="ecircumflex" unicode="&#xea;" horiz-adv-x="333" 
d="M86 251c0 -30 0.331055 -56.001 0.998047 -78.001s2 -41 4 -57s5 -29.333 9 -40s9.33301 -19.667 16 -27c6 -6.66699 13.667 -12.167 23 -16.5s20 -6.5 32 -6.5c10 0 19.833 1.5 29.5 4.5s18.167 8.16699 25.5 15.5c17.333 16.667 26 43.667 26 81h37
c0 -25.333 -2.83301 -45.666 -8.5 -60.999s-14.5 -29.333 -26.5 -42c-10.667 -10.667 -23.167 -18.667 -37.5 -24s-29.5 -8 -45.5 -8c-18.667 0 -35 3.16699 -49 9.5s-25.667 14.833 -35 25.5c-7.33301 8 -13.5 18.167 -18.5 30.5s-9 27.333 -12 45s-5.16699 38.667 -6.5 63
s-2 52.833 -2 85.5s0.5 61.167 1.5 85.5s3 45.333 6 63s7 32.667 12 45s11.167 22.5 18.5 30.5c9.33301 10.667 20.833 19.167 34.5 25.5s29.834 9.5 48.501 9.5s34.834 -3.16699 48.501 -9.5s25.167 -14.833 34.5 -25.5c7.33301 -8 13.5 -18.167 18.5 -30.5
s9 -27.333 12 -45s5 -38.667 6 -63s1.5 -52.833 1.5 -85.5h-204zM251.998 282.999c0 24.667 -0.5 46.167 -1.5 64.5s-2.5 34.166 -4.5 47.499s-4.83301 24.666 -8.5 33.999s-8.5 17.333 -14.5 24s-13.5 12.167 -22.5 16.5s-19.5 6.5 -31.5 6.5s-22.5 -2.16699 -31.5 -6.5
s-16.5 -9.83301 -22.5 -16.5s-10.833 -14.667 -14.5 -24s-6.5 -20.666 -8.5 -33.999s-3.5 -29.166 -4.5 -47.499s-1.5 -39.833 -1.5 -64.5h166zM228.998 585.999l-60 95l-60 -95h-41l82 126h38l82 -126h-41z" />
    <glyph glyph-name="edieresis" unicode="&#xeb;" horiz-adv-x="333" 
d="M86 251c0 -30 0.331055 -56.001 0.998047 -78.001s2 -41 4 -57s5 -29.333 9 -40s9.33301 -19.667 16 -27c6 -6.66699 13.667 -12.167 23 -16.5s20 -6.5 32 -6.5c10 0 19.833 1.5 29.5 4.5s18.167 8.16699 25.5 15.5c17.333 16.667 26 43.667 26 81h37
c0 -25.333 -2.83301 -45.666 -8.5 -60.999s-14.5 -29.333 -26.5 -42c-10.667 -10.667 -23.167 -18.667 -37.5 -24s-29.5 -8 -45.5 -8c-18.667 0 -35 3.16699 -49 9.5s-25.667 14.833 -35 25.5c-7.33301 8 -13.5 18.167 -18.5 30.5s-9 27.333 -12 45s-5.16699 38.667 -6.5 63
s-2 52.833 -2 85.5s0.5 61.167 1.5 85.5s3 45.333 6 63s7 32.667 12 45s11.167 22.5 18.5 30.5c9.33301 10.667 20.833 19.167 34.5 25.5s29.834 9.5 48.501 9.5s34.834 -3.16699 48.501 -9.5s25.167 -14.833 34.5 -25.5c7.33301 -8 13.5 -18.167 18.5 -30.5
s9 -27.333 12 -45s5 -38.667 6 -63s1.5 -52.833 1.5 -85.5h-204zM251.998 282.999c0 24.667 -0.5 46.167 -1.5 64.5s-2.5 34.166 -4.5 47.499s-4.83301 24.666 -8.5 33.999s-8.5 17.333 -14.5 24s-13.5 12.167 -22.5 16.5s-19.5 6.5 -31.5 6.5s-22.5 -2.16699 -31.5 -6.5
s-16.5 -9.83301 -22.5 -16.5s-10.833 -14.667 -14.5 -24s-6.5 -20.666 -8.5 -33.999s-3.5 -29.166 -4.5 -47.499s-1.5 -39.833 -1.5 -64.5h166zM205.998 608.999v50h50v-50h-50zM81.998 608.999v50h50v-50h-50z" />
    <glyph glyph-name="igrave" unicode="&#xec;" horiz-adv-x="170" 
d="M66 0v502h38v-502h-38zM67 586l-70 126h47l63 -126h-40z" />
    <glyph glyph-name="iacute" unicode="&#xed;" horiz-adv-x="170" 
d="M66 0v502h38v-502h-38zM105 586h-40l63 126h47z" />
    <glyph glyph-name="icircumflex" unicode="&#xee;" horiz-adv-x="170" 
d="M66 0v502h38v-502h-38zM146 586l-60 95l-60 -95h-41l82 126h38l82 -126h-41z" />
    <glyph glyph-name="idieresis" unicode="&#xef;" horiz-adv-x="170" 
d="M66 0v502h38v-502h-38zM123 609v50h50v-50h-50zM-1 609v50h50v-50h-50z" />
    <glyph glyph-name="eth" unicode="&#xf0;" 
d="M290 251c0 -32.667 -0.499023 -61.1689 -1.49902 -85.502s-3 -45.333 -6 -63s-7 -32.667 -12 -45s-11.167 -22.5 -18.5 -30.5c-9.33301 -10.667 -20.833 -19.167 -34.5 -25.5s-29.834 -9.5 -48.501 -9.5s-34.834 3.16699 -48.501 9.5s-25.167 14.833 -34.5 25.5
c-7.33301 8 -13.5 18.167 -18.5 30.5s-9 27.333 -12 45s-5 38.667 -6 63s-1.5 52.833 -1.5 85.5s0.5 61.167 1.5 85.5s3 45.333 6 63s7 32.667 12 45s11.167 22.5 18.5 30.5c9.33301 10 20.833 18.167 34.5 24.5s29.167 9.5 46.5 9.5c20.667 0 38.667 -4.33301 54 -13
l-33 90h-84v32h72l-37 94h40l36 -94h72v-32h-60l41 -120c4 -11.333 7.33301 -23.166 10 -35.499s4.83398 -26.666 6.50098 -42.999s3 -35.5 4 -57.5s1.5 -48.333 1.5 -79zM252.001 250.998c0 30 -0.333008 56 -1 78s-2 41 -4 57s-4.83301 29.333 -8.5 40
s-8.83398 19.667 -15.501 27c-6 6.66699 -13.5 12.167 -22.5 16.5s-19.5 6.5 -31.5 6.5s-22.5 -2.16699 -31.5 -6.5s-16.5 -9.83301 -22.5 -16.5c-6.66699 -7.33301 -11.834 -16.333 -15.501 -27s-6.5 -24 -8.5 -40s-3.33301 -35 -4 -57s-1 -48 -1 -78s0.333008 -56 1 -78
s2 -41 4 -57s4.83301 -29.333 8.5 -40s8.83398 -19.667 15.501 -27c6 -6.66699 13.5 -12.167 22.5 -16.5s19.5 -6.5 31.5 -6.5s22.5 2.16699 31.5 6.5s16.5 9.83301 22.5 16.5c6.66699 7.33301 11.834 16.333 15.501 27s6.5 24 8.5 40s3.33301 35 4 57s1 48 1 78z" />
    <glyph glyph-name="ntilde" unicode="&#xf1;" horiz-adv-x="357" 
d="M258 0v384c0 30.667 -7.5 53.5 -22.5 68.5s-33.167 22.5 -54.5 22.5s-39.5 -7.5 -54.5 -22.5s-22.5 -37.833 -22.5 -68.5v-384h-38v502h38v-41c2.66699 5.33301 6.66699 10.833 12 16.5s10 10.167 14 13.5c16.667 12.667 36.667 19 60 19c30 0 55 -10.667 75 -32
c10 -10 17.667 -22.5 23 -37.5s8 -34.167 8 -57.5v-383h-38zM292 633c-16.667 -16.667 -29.833 -26.667 -39.5 -30s-17.834 -5 -24.501 -5c-10 0 -19 1.66699 -27 5s-16 7.33301 -24 12l-20.5 11c-6.33301 3.33301 -13.166 5 -20.499 5c-6 0 -11.667 -1.16699 -17 -3.5
s-13.666 -9.16602 -24.999 -20.499l-22 22c16.667 16.667 29.667 26.667 39 30s17.666 5 24.999 5c10.667 0 19.667 -1.5 27 -4.5s15.333 -7.16699 24 -12.5c9.33301 -6 17 -10.167 23 -12.5s12 -3.5 18 -3.5c5.33301 0 10.833 1.16699 16.5 3.5s14.167 9.16602 25.5 20.499
l22 -22v0z" />
    <glyph glyph-name="ograve" unicode="&#xf2;" 
d="M290 251c0 -32.667 -0.5 -61.167 -1.5 -85.5s-3 -45.333 -6 -63s-7 -32.667 -12 -45s-11.167 -22.5 -18.5 -30.5c-9.33301 -10.667 -20.833 -19.167 -34.5 -25.5s-29.834 -9.5 -48.501 -9.5s-34.834 3.16699 -48.501 9.5s-25.167 14.833 -34.5 25.5
c-7.33301 8 -13.5 18.167 -18.5 30.5s-9 27.333 -12 45s-5 38.667 -6 63s-1.5 52.833 -1.5 85.5s0.5 61.167 1.5 85.5s3 45.333 6 63s7 32.667 12 45s11.167 22.5 18.5 30.5c9.33301 10.667 20.833 19.167 34.5 25.5s29.834 9.5 48.501 9.5s34.834 -3.16699 48.501 -9.5
s25.167 -14.833 34.5 -25.5c7.33301 -8 13.5 -18.167 18.5 -30.5s9 -27.333 12 -45s5 -38.667 6 -63s1.5 -52.833 1.5 -85.5zM252 251c0 30 -0.333008 56 -1 78s-2 41 -4 57s-4.83301 29.333 -8.5 40s-8.83398 19.667 -15.501 27c-6 6.66699 -13.5 12.167 -22.5 16.5
s-19.5 6.5 -31.5 6.5s-22.5 -2.16699 -31.5 -6.5s-16.5 -9.83301 -22.5 -16.5c-6.66699 -7.33301 -11.834 -16.333 -15.501 -27s-6.5 -24 -8.5 -40s-3.33301 -35 -4 -57s-1 -48 -1 -78s0.333008 -56 1 -78s2 -41 4 -57s4.83301 -29.333 8.5 -40s8.83398 -19.667 15.501 -27
c6 -6.66699 13.5 -12.167 22.5 -16.5s19.5 -6.5 31.5 -6.5s22.5 2.16699 31.5 6.5s16.5 9.83301 22.5 16.5c6.66699 7.33301 11.834 16.333 15.501 27s6.5 24 8.5 40s3.33301 35 4 57s1 48 1 78zM153 586l-70 126h47l63 -126h-40z" />
    <glyph glyph-name="oacute" unicode="&#xf3;" 
d="M290 251c0 -32.667 -0.5 -61.167 -1.5 -85.5s-3 -45.333 -6 -63s-7 -32.667 -12 -45s-11.167 -22.5 -18.5 -30.5c-9.33301 -10.667 -20.833 -19.167 -34.5 -25.5s-29.834 -9.5 -48.501 -9.5s-34.834 3.16699 -48.501 9.5s-25.167 14.833 -34.5 25.5
c-7.33301 8 -13.5 18.167 -18.5 30.5s-9 27.333 -12 45s-5 38.667 -6 63s-1.5 52.833 -1.5 85.5s0.5 61.167 1.5 85.5s3 45.333 6 63s7 32.667 12 45s11.167 22.5 18.5 30.5c9.33301 10.667 20.833 19.167 34.5 25.5s29.834 9.5 48.501 9.5s34.834 -3.16699 48.501 -9.5
s25.167 -14.833 34.5 -25.5c7.33301 -8 13.5 -18.167 18.5 -30.5s9 -27.333 12 -45s5 -38.667 6 -63s1.5 -52.833 1.5 -85.5zM252 251c0 30 -0.333008 56 -1 78s-2 41 -4 57s-4.83301 29.333 -8.5 40s-8.83398 19.667 -15.501 27c-6 6.66699 -13.5 12.167 -22.5 16.5
s-19.5 6.5 -31.5 6.5s-22.5 -2.16699 -31.5 -6.5s-16.5 -9.83301 -22.5 -16.5c-6.66699 -7.33301 -11.834 -16.333 -15.501 -27s-6.5 -24 -8.5 -40s-3.33301 -35 -4 -57s-1 -48 -1 -78s0.333008 -56 1 -78s2 -41 4 -57s4.83301 -29.333 8.5 -40s8.83398 -19.667 15.501 -27
c6 -6.66699 13.5 -12.167 22.5 -16.5s19.5 -6.5 31.5 -6.5s22.5 2.16699 31.5 6.5s16.5 9.83301 22.5 16.5c6.66699 7.33301 11.834 16.333 15.501 27s6.5 24 8.5 40s3.33301 35 4 57s1 48 1 78zM188 586h-40l63 126h47z" />
    <glyph glyph-name="ocircumflex" unicode="&#xf4;" 
d="M290 251c0 -32.667 -0.5 -61.167 -1.5 -85.5s-3 -45.333 -6 -63s-7 -32.667 -12 -45s-11.167 -22.5 -18.5 -30.5c-9.33301 -10.667 -20.833 -19.167 -34.5 -25.5s-29.834 -9.5 -48.501 -9.5s-34.834 3.16699 -48.501 9.5s-25.167 14.833 -34.5 25.5
c-7.33301 8 -13.5 18.167 -18.5 30.5s-9 27.333 -12 45s-5 38.667 -6 63s-1.5 52.833 -1.5 85.5s0.5 61.167 1.5 85.5s3 45.333 6 63s7 32.667 12 45s11.167 22.5 18.5 30.5c9.33301 10.667 20.833 19.167 34.5 25.5s29.834 9.5 48.501 9.5s34.834 -3.16699 48.501 -9.5
s25.167 -14.833 34.5 -25.5c7.33301 -8 13.5 -18.167 18.5 -30.5s9 -27.333 12 -45s5 -38.667 6 -63s1.5 -52.833 1.5 -85.5zM252 251c0 30 -0.333008 56 -1 78s-2 41 -4 57s-4.83301 29.333 -8.5 40s-8.83398 19.667 -15.501 27c-6 6.66699 -13.5 12.167 -22.5 16.5
s-19.5 6.5 -31.5 6.5s-22.5 -2.16699 -31.5 -6.5s-16.5 -9.83301 -22.5 -16.5c-6.66699 -7.33301 -11.834 -16.333 -15.501 -27s-6.5 -24 -8.5 -40s-3.33301 -35 -4 -57s-1 -48 -1 -78s0.333008 -56 1 -78s2 -41 4 -57s4.83301 -29.333 8.5 -40s8.83398 -19.667 15.501 -27
c6 -6.66699 13.5 -12.167 22.5 -16.5s19.5 -6.5 31.5 -6.5s22.5 2.16699 31.5 6.5s16.5 9.83301 22.5 16.5c6.66699 7.33301 11.834 16.333 15.501 27s6.5 24 8.5 40s3.33301 35 4 57s1 48 1 78zM229 586l-60 95l-60 -95h-41l82 126h38l82 -126h-41z" />
    <glyph glyph-name="otilde" unicode="&#xf5;" 
d="M290 251c0 -32.667 -0.5 -61.167 -1.5 -85.5s-3 -45.333 -6 -63s-7 -32.667 -12 -45s-11.167 -22.5 -18.5 -30.5c-9.33301 -10.667 -20.833 -19.167 -34.5 -25.5s-29.834 -9.5 -48.501 -9.5s-34.834 3.16699 -48.501 9.5s-25.167 14.833 -34.5 25.5
c-7.33301 8 -13.5 18.167 -18.5 30.5s-9 27.333 -12 45s-5 38.667 -6 63s-1.5 52.833 -1.5 85.5s0.5 61.167 1.5 85.5s3 45.333 6 63s7 32.667 12 45s11.167 22.5 18.5 30.5c9.33301 10.667 20.833 19.167 34.5 25.5s29.834 9.5 48.501 9.5s34.834 -3.16699 48.501 -9.5
s25.167 -14.833 34.5 -25.5c7.33301 -8 13.5 -18.167 18.5 -30.5s9 -27.333 12 -45s5 -38.667 6 -63s1.5 -52.833 1.5 -85.5zM252 251c0 30 -0.333008 56 -1 78s-2 41 -4 57s-4.83301 29.333 -8.5 40s-8.83398 19.667 -15.501 27c-6 6.66699 -13.5 12.167 -22.5 16.5
s-19.5 6.5 -31.5 6.5s-22.5 -2.16699 -31.5 -6.5s-16.5 -9.83301 -22.5 -16.5c-6.66699 -7.33301 -11.834 -16.333 -15.501 -27s-6.5 -24 -8.5 -40s-3.33301 -35 -4 -57s-1 -48 -1 -78s0.333008 -56 1 -78s2 -41 4 -57s4.83301 -29.333 8.5 -40s8.83398 -19.667 15.501 -27
c6 -6.66699 13.5 -12.167 22.5 -16.5s19.5 -6.5 31.5 -6.5s22.5 2.16699 31.5 6.5s16.5 9.83301 22.5 16.5c6.66699 7.33301 11.834 16.333 15.501 27s6.5 24 8.5 40s3.33301 35 4 57s1 48 1 78zM279 633c-16.667 -16.667 -29.833 -26.667 -39.5 -30s-17.834 -5 -24.501 -5
c-10 0 -19 1.66699 -27 5s-16 7.33301 -24 12l-20.5 11c-6.33301 3.33301 -13.166 5 -20.499 5c-6 0 -11.667 -1.16699 -17 -3.5s-13.666 -9.16602 -24.999 -20.499l-22 22c16.667 16.667 29.667 26.667 39 30s17.666 5 24.999 5c10.667 0 19.667 -1.5 27 -4.5
s15.333 -7.16699 24 -12.5c9.33301 -6 17 -10.167 23 -12.5s12 -3.5 18 -3.5c5.33301 0 10.833 1.16699 16.5 3.5s14.167 9.16602 25.5 20.499l22 -22v0z" />
    <glyph glyph-name="odieresis" unicode="&#xf6;" 
d="M290 251c0 -32.667 -0.5 -61.167 -1.5 -85.5s-3 -45.333 -6 -63s-7 -32.667 -12 -45s-11.167 -22.5 -18.5 -30.5c-9.33301 -10.667 -20.833 -19.167 -34.5 -25.5s-29.834 -9.5 -48.501 -9.5s-34.834 3.16699 -48.501 9.5s-25.167 14.833 -34.5 25.5
c-7.33301 8 -13.5 18.167 -18.5 30.5s-9 27.333 -12 45s-5 38.667 -6 63s-1.5 52.833 -1.5 85.5s0.5 61.167 1.5 85.5s3 45.333 6 63s7 32.667 12 45s11.167 22.5 18.5 30.5c9.33301 10.667 20.833 19.167 34.5 25.5s29.834 9.5 48.501 9.5s34.834 -3.16699 48.501 -9.5
s25.167 -14.833 34.5 -25.5c7.33301 -8 13.5 -18.167 18.5 -30.5s9 -27.333 12 -45s5 -38.667 6 -63s1.5 -52.833 1.5 -85.5zM252 251c0 30 -0.333008 56 -1 78s-2 41 -4 57s-4.83301 29.333 -8.5 40s-8.83398 19.667 -15.501 27c-6 6.66699 -13.5 12.167 -22.5 16.5
s-19.5 6.5 -31.5 6.5s-22.5 -2.16699 -31.5 -6.5s-16.5 -9.83301 -22.5 -16.5c-6.66699 -7.33301 -11.834 -16.333 -15.501 -27s-6.5 -24 -8.5 -40s-3.33301 -35 -4 -57s-1 -48 -1 -78s0.333008 -56 1 -78s2 -41 4 -57s4.83301 -29.333 8.5 -40s8.83398 -19.667 15.501 -27
c6 -6.66699 13.5 -12.167 22.5 -16.5s19.5 -6.5 31.5 -6.5s22.5 2.16699 31.5 6.5s16.5 9.83301 22.5 16.5c6.66699 7.33301 11.834 16.333 15.501 27s6.5 24 8.5 40s3.33301 35 4 57s1 48 1 78zM206 609v50h50v-50h-50zM82 609v50h50v-50h-50z" />
    <glyph glyph-name="divide" unicode="&#xf7;" horiz-adv-x="422" 
d="M50 255v36h322v-36h-322zM183 110v58h58v-58h-58zM183 377v58h58v-58h-58z" />
    <glyph glyph-name="oslash" unicode="&#xf8;" horiz-adv-x="330" 
d="M262 462c10.667 -17.333 18 -42.333 22 -75s6 -78 6 -136c0 -32.667 -0.5 -61.167 -1.5 -85.5s-3 -45.333 -6 -63s-7 -32.667 -12 -45s-11.167 -22.5 -18.5 -30.5c-9.33301 -10.667 -20.833 -19.167 -34.5 -25.5s-29.834 -9.5 -48.501 -9.5
c-26.667 0 -48.667 6.66699 -66 20l-19 -56h-37l29 84c-11.333 18 -18.833 43.167 -22.5 75.5s-5.5 77.5 -5.5 135.5c0 32.667 0.5 61.167 1.5 85.5s3 45.333 6 63s7 32.667 12 45s11.167 22.5 18.5 30.5c9.33301 10.667 20.833 19.167 34.5 25.5s29.834 9.5 48.501 9.5
c26.667 0 48.667 -6.66699 66 -20l19 56h37zM252 251c0 40 -0.500977 73 -1.50098 99s-3.83301 47.667 -8.5 65l-126 -367c6 -6.66699 13.333 -12 22 -16s19 -6 31 -6s22.5 2.16699 31.5 6.5s16.5 9.83301 22.5 16.5c6.66699 7.33301 11.834 16.333 15.501 27s6.5 24 8.5 40
s3.33301 35 4 57s1 48 1 78zM221.999 454c-6 6.66699 -13.332 12 -21.999 16s-19 6 -31 6s-22.5 -2.16699 -31.5 -6.5s-16.5 -9.83301 -22.5 -16.5c-6.66699 -7.33301 -11.834 -16.333 -15.501 -27s-6.5 -24 -8.5 -40s-3.33301 -35 -4 -57s-1 -48 -1 -78
c0 -40 0.5 -73 1.5 -99s3.83301 -47.333 8.5 -64z" />
    <glyph glyph-name="ugrave" unicode="&#xf9;" horiz-adv-x="357" 
d="M253 0v41c-2.66699 -5.33301 -6.66699 -10.833 -12 -16.5s-10 -10.167 -14 -13.5c-16.667 -12.667 -36.667 -19 -60 -19c-30 0 -55 10.667 -75 32c-10 10 -17.667 22.5 -23 37.5s-8 34.167 -8 57.5v383h38v-384c0 -30.667 7.5 -53.5 22.5 -68.5s33.167 -22.5 54.5 -22.5
s39.5 7.5 54.5 22.5s22.5 37.833 22.5 68.5v384h38v-502h-38zM160 586l-70 126h47l63 -126h-40z" />
    <glyph glyph-name="uacute" unicode="&#xfa;" horiz-adv-x="357" 
d="M253 0v41c-2.66699 -5.33301 -6.66699 -10.833 -12 -16.5s-10 -10.167 -14 -13.5c-16.667 -12.667 -36.667 -19 -60 -19c-30 0 -55 10.667 -75 32c-10 10 -17.667 22.5 -23 37.5s-8 34.167 -8 57.5v383h38v-384c0 -30.667 7.5 -53.5 22.5 -68.5s33.167 -22.5 54.5 -22.5
s39.5 7.5 54.5 22.5s22.5 37.833 22.5 68.5v384h38v-502h-38zM195 586h-40l63 126h47z" />
    <glyph glyph-name="ucircumflex" unicode="&#xfb;" horiz-adv-x="357" 
d="M253 0v41c-2.66699 -5.33301 -6.66699 -10.833 -12 -16.5s-10 -10.167 -14 -13.5c-16.667 -12.667 -36.667 -19 -60 -19c-30 0 -55 10.667 -75 32c-10 10 -17.667 22.5 -23 37.5s-8 34.167 -8 57.5v383h38v-384c0 -30.667 7.5 -53.5 22.5 -68.5s33.167 -22.5 54.5 -22.5
s39.5 7.5 54.5 22.5s22.5 37.833 22.5 68.5v384h38v-502h-38zM236 586l-60 95l-60 -95h-41l82 126h38l82 -126h-41z" />
    <glyph glyph-name="udieresis" unicode="&#xfc;" horiz-adv-x="357" 
d="M253 0v41c-2.66699 -5.33301 -6.66699 -10.833 -12 -16.5s-10 -10.167 -14 -13.5c-16.667 -12.667 -36.667 -19 -60 -19c-30 0 -55 10.667 -75 32c-10 10 -17.667 22.5 -23 37.5s-8 34.167 -8 57.5v383h38v-384c0 -30.667 7.5 -53.5 22.5 -68.5s33.167 -22.5 54.5 -22.5
s39.5 7.5 54.5 22.5s22.5 37.833 22.5 68.5v384h38v-502h-38zM213 609v50h50v-50h-50zM89 609v50h50v-50h-50z" />
    <glyph glyph-name="yacute" unicode="&#xfd;" horiz-adv-x="281" 
d="M131 -110c-8 -34.667 -22.833 -60.001 -44.5 -76.001s-50.167 -24 -85.5 -24v34c29.333 0 50.833 6.33301 64.5 19s23.167 29.334 28.5 50.001l27 109l-117 500h42l93 -442l93 442h42zM165 585.999h-40l63 126h47z" />
    <glyph glyph-name="thorn" unicode="&#xfe;" horiz-adv-x="350" 
d="M302 251c0 -32.667 -0.5 -61.167 -1.5 -85.5s-3 -45.5 -6 -63.5s-7 -33.167 -12 -45.5s-11.167 -22.5 -18.5 -30.5c-8.66699 -9.33301 -19 -17.333 -31 -24s-26.333 -10 -43 -10c-24 0 -44 5.66699 -60 17c-4.66699 3.33301 -9.33398 7.83301 -14.001 13.5
s-8.66699 11.167 -12 16.5v-249h-38v922h38v-251c2.66699 5.33301 6.66699 10.833 12 16.5s10 10.167 14 13.5c16.667 12.667 36.667 19 60 19c28.667 0 53.334 -11.333 74.001 -34c7.33301 -8 13.5 -18.167 18.5 -30.5s9 -27.5 12 -45.5s5 -39.167 6 -63.5
s1.5 -52.833 1.5 -85.5zM264 251c0 30 -0.333008 56 -1 78s-2 41 -4 57s-4.83301 29.333 -8.5 40s-8.83398 19.667 -15.501 27c-6 6.66699 -13.333 12.167 -22 16.5s-18.667 6.5 -30 6.5c-20.667 0 -38.334 -6.66699 -53.001 -20
c-8.66699 -8.66699 -15.167 -19.167 -19.5 -31.5s-6.5 -27.833 -6.5 -46.5v-254c0 -18.667 2.16699 -34.167 6.5 -46.5s10.833 -22.833 19.5 -31.5c14.667 -13.333 32.334 -20 53.001 -20c11.333 0 21.333 2.16699 30 6.5s16 9.83301 22 16.5
c6.66699 7.33301 11.834 16.333 15.501 27s6.5 24 8.5 40s3.33301 35 4 57s1 48 1 78z" />
    <glyph glyph-name="ydieresis" unicode="&#xff;" horiz-adv-x="281" 
d="M131 -110c-8 -34.667 -22.833 -60.001 -44.5 -76.001s-50.167 -24 -85.5 -24v34c29.333 0 50.833 6.33301 64.5 19s23.167 29.334 28.5 50.001l27 109l-117 500h42l93 -442l93 442h42zM183 608.999v50h50v-50h-50zM59 608.999v50h50v-50h-50z" />
    <glyph glyph-name="Amacron" unicode="&#x100;" horiz-adv-x="347" 
d="M299 0l-43 214h-166l-42 -214h-44l153 712h36l150 -712h-44zM173 630l-75 -380h151zM76 789v35h200v-35h-200z" />
    <glyph glyph-name="amacron" unicode="&#x101;" horiz-adv-x="335" 
d="M236 0v47.002c-3.33301 -7.33301 -7.66602 -14 -12.999 -20s-9.66602 -10.667 -12.999 -14c-8 -6.66699 -16.833 -11.834 -26.5 -15.501s-21.5 -5.5 -35.5 -5.5c-29.333 0 -54 10 -74 30c-9.33301 9.33301 -17.333 23.666 -24 42.999s-10 43 -10 71
c0 24 3.5 45.833 10.5 65.5s17.167 35.834 30.5 48.501c12.667 11.333 26.167 19.666 40.5 24.999s31.833 8 52.5 8h62v98c0 31.333 -6.33301 55.166 -19 71.499s-32 24.5 -58 24.5c-20 0 -36.667 -6.66699 -50 -20c-9.33301 -9.33301 -15.833 -20 -19.5 -32
s-5.5 -27.667 -5.5 -47h-38c0 18.667 2.33301 36.834 7 54.501s13.667 33.167 27 46.5c10 10 21.333 17.667 34 23s27.667 8 45 8c19.333 0 35.666 -2.5 48.999 -7.5s24.666 -12.167 33.999 -21.5c11.333 -11.333 19.5 -24.833 24.5 -40.5s7.5 -35.167 7.5 -58.5v-382h-38z
M236 251.002h-64c-26 0 -47.333 -8 -64 -24c-9.33301 -9.33301 -16.666 -22 -21.999 -38s-8 -33.667 -8 -53c0 -33.333 6 -60 18 -80s31.667 -30 59 -30c25.333 0 45.166 9.66699 59.499 29s21.5 43 21.5 71v125zM64 614.002v35h200v-35h-200z" />
    <glyph glyph-name="Abreve" unicode="&#x102;" horiz-adv-x="347" 
d="M299 0l-43 214h-166l-42 -214h-44l153 712h36l150 -712h-44zM173 630l-75 -380h151zM281 852c-3.33301 -32 -13 -56.5 -29 -73.5s-41.333 -25.5 -76 -25.5s-60 8.5 -76 25.5s-25.667 41.5 -29 73.5h36c3.33301 -21.333 10.333 -37.5 21 -48.5s26.667 -16.5 48 -16.5
s37.333 5.5 48 16.5s17.667 27.167 21 48.5h36v0z" />
    <glyph glyph-name="abreve" unicode="&#x103;" horiz-adv-x="335" 
d="M236 0v47.002c-3.33301 -7.33301 -7.66602 -14 -12.999 -20s-9.66602 -10.667 -12.999 -14c-8 -6.66699 -16.833 -11.834 -26.5 -15.501s-21.5 -5.5 -35.5 -5.5c-29.333 0 -54 10 -74 30c-9.33301 9.33301 -17.333 23.666 -24 42.999s-10 43 -10 71
c0 24 3.5 45.833 10.5 65.5s17.167 35.834 30.5 48.501c12.667 11.333 26.167 19.666 40.5 24.999s31.833 8 52.5 8h62v98c0 31.333 -6.33301 55.166 -19 71.499s-32 24.5 -58 24.5c-20 0 -36.667 -6.66699 -50 -20c-9.33301 -9.33301 -15.833 -20 -19.5 -32
s-5.5 -27.667 -5.5 -47h-38c0 18.667 2.33301 36.834 7 54.501s13.667 33.167 27 46.5c10 10 21.333 17.667 34 23s27.667 8 45 8c19.333 0 35.666 -2.5 48.999 -7.5s24.666 -12.167 33.999 -21.5c11.333 -11.333 19.5 -24.833 24.5 -40.5s7.5 -35.167 7.5 -58.5v-382h-38z
M236 251.002h-64c-26 0 -47.333 -8 -64 -24c-9.33301 -9.33301 -16.666 -22 -21.999 -38s-8 -33.667 -8 -53c0 -33.333 6 -60 18 -80s31.667 -30 59 -30c25.333 0 45.166 9.66699 59.499 29s21.5 43 21.5 71v125zM269 677.002c-3.33301 -32 -13 -56.5 -29 -73.5
s-41.333 -25.5 -76 -25.5s-60 8.5 -76 25.5s-25.667 41.5 -29 73.5h36c3.33301 -21.333 10.333 -37.5 21 -48.5s26.667 -16.5 48 -16.5s37.333 5.5 48 16.5s17.667 27.167 21 48.5h36v0z" />
    <glyph glyph-name="Aogonek" unicode="&#x104;" horiz-adv-x="347" 
d="M299 0l-43 214h-166l-42 -214h-44l153 712h36l150 -712h-44zM173 630l-75 -380h151zM291 -162h-45l50 126h38z" />
    <glyph glyph-name="aogonek" unicode="&#x105;" horiz-adv-x="335" 
d="M236 0v47.002c-3.33301 -7.33301 -7.66602 -14 -12.999 -20s-9.66602 -10.667 -12.999 -14c-8 -6.66699 -16.833 -11.834 -26.5 -15.501s-21.5 -5.5 -35.5 -5.5c-29.333 0 -54 10 -74 30c-9.33301 9.33301 -17.333 23.666 -24 42.999s-10 43 -10 71
c0 24 3.5 45.833 10.5 65.5s17.167 35.834 30.5 48.501c12.667 11.333 26.167 19.666 40.5 24.999s31.833 8 52.5 8h62v98c0 31.333 -6.33301 55.166 -19 71.499s-32 24.5 -58 24.5c-20 0 -36.667 -6.66699 -50 -20c-9.33301 -9.33301 -15.833 -20 -19.5 -32
s-5.5 -27.667 -5.5 -47h-38c0 18.667 2.33301 36.834 7 54.501s13.667 33.167 27 46.5c10 10 21.333 17.667 34 23s27.667 8 45 8c19.333 0 35.666 -2.5 48.999 -7.5s24.666 -12.167 33.999 -21.5c11.333 -11.333 19.5 -24.833 24.5 -40.5s7.5 -35.167 7.5 -58.5v-382h-38z
M236 251.002h-64c-26 0 -47.333 -8 -64 -24c-9.33301 -9.33301 -16.666 -22 -21.999 -38s-8 -33.667 -8 -53c0 -33.333 6 -60 18 -80s31.667 -30 59 -30c25.333 0 45.166 9.66699 59.499 29s21.5 43 21.5 71v125zM233 -161.998h-45l50 126h38z" />
    <glyph glyph-name="Cacute" unicode="&#x106;" horiz-adv-x="382" 
d="M338 154c0 -27.333 -3.66602 -52.502 -10.999 -75.502s-19.333 -41.833 -36 -56.5c-22 -20 -51.333 -30 -88 -30c-19.333 0 -37.166 3 -53.499 9s-30.166 14.667 -41.499 26c-10.667 10.667 -19.167 22.334 -25.5 35.001s-11.333 30.5 -15 53.5s-6.16699 53.5 -7.5 91.5
s-2 87.667 -2 149s0.666992 111 2 149s3.83301 68.5 7.5 91.5s8.66699 40.833 15 53.5s14.833 24.334 25.5 35.001c11.333 11.333 25.166 20 41.499 26s34.166 9 53.499 9c21.333 0 39.5 -3 54.5 -9s28.167 -14.667 39.5 -26c14.667 -15.333 25.167 -34 31.5 -56
s9.5 -45.667 9.5 -71h-40c0 19.333 -2.33301 38.333 -7 57s-13 34 -25 46c-15.333 15.333 -36.333 23 -63 23c-29.333 0 -51.666 -8.33301 -66.999 -25c-8 -8.66699 -14.5 -18.167 -19.5 -28.5s-8.83301 -26 -11.5 -47s-4.5 -49.333 -5.5 -85s-1.5 -83.167 -1.5 -142.5
s0.5 -106.833 1.5 -142.5s2.83301 -64 5.5 -85s6.5 -36.667 11.5 -47s11.5 -19.833 19.5 -28.5c15.333 -16.667 37.666 -25 66.999 -25c14 0 26.167 2 36.5 6s19.166 9.66699 26.499 17c12 12 20.333 27.333 25 46s7 37.667 7 57h40zM222.001 765.998h-40l63 126h47z" />
    <glyph glyph-name="cacute" unicode="&#x107;" horiz-adv-x="324" 
d="M284 127c0 -24 -2.33301 -44.168 -7 -60.501s-13 -30.833 -25 -43.5c-20.667 -20.667 -48.334 -31 -83.001 -31c-17.333 0 -33.166 3.16699 -47.499 9.5s-26.166 14.833 -35.499 25.5c-7.33301 8 -13.5 18.167 -18.5 30.5s-9 27.333 -12 45s-5 38.667 -6 63
s-1.5 52.833 -1.5 85.5s0.5 61.167 1.5 85.5s3 45.333 6 63s7 32.667 12 45s11.167 22.5 18.5 30.5c9.33301 10.667 21.166 19.167 35.499 25.5s30.166 9.5 47.499 9.5c36 0 63.667 -9.66699 83 -29c14.667 -14.667 23.667 -31.167 27 -49.5s5 -37.166 5 -56.499h-37
c0 14.667 -1 28.834 -3 42.501s-8.33301 26.167 -19 37.5c-13.333 14 -31.666 21 -54.999 21c-12 0 -22.667 -2.16699 -32 -6.5s-17 -9.83301 -23 -16.5c-6.66699 -7.33301 -11.834 -16.333 -15.501 -27s-6.5 -24 -8.5 -40s-3.33301 -35 -4 -57s-1 -48 -1 -78
s0.333008 -56 1 -78s2 -41 4 -57s4.83301 -29.333 8.5 -40s8.83398 -19.667 15.501 -27c6 -6.66699 13.667 -12.167 23 -16.5s20 -6.5 32 -6.5c10 0 19.5 1.5 28.5 4.5s17.167 8.16699 24.5 15.5c10 10 16.5 21.667 19.5 35s4.5 28.666 4.5 45.999h37zM188 585.999h-40
l63 126h47z" />
    <glyph glyph-name="Ccircumflex" unicode="&#x108;" horiz-adv-x="382" 
d="M338 154c0 -27.333 -3.66602 -52.502 -10.999 -75.502s-19.333 -41.833 -36 -56.5c-22 -20 -51.333 -30 -88 -30c-19.333 0 -37.166 3 -53.499 9s-30.166 14.667 -41.499 26c-10.667 10.667 -19.167 22.334 -25.5 35.001s-11.333 30.5 -15 53.5s-6.16699 53.5 -7.5 91.5
s-2 87.667 -2 149s0.666992 111 2 149s3.83301 68.5 7.5 91.5s8.66699 40.833 15 53.5s14.833 24.334 25.5 35.001c11.333 11.333 25.166 20 41.499 26s34.166 9 53.499 9c21.333 0 39.5 -3 54.5 -9s28.167 -14.667 39.5 -26c14.667 -15.333 25.167 -34 31.5 -56
s9.5 -45.667 9.5 -71h-40c0 19.333 -2.33301 38.333 -7 57s-13 34 -25 46c-15.333 15.333 -36.333 23 -63 23c-29.333 0 -51.666 -8.33301 -66.999 -25c-8 -8.66699 -14.5 -18.167 -19.5 -28.5s-8.83301 -26 -11.5 -47s-4.5 -49.333 -5.5 -85s-1.5 -83.167 -1.5 -142.5
s0.5 -106.833 1.5 -142.5s2.83301 -64 5.5 -85s6.5 -36.667 11.5 -47s11.5 -19.833 19.5 -28.5c15.333 -16.667 37.666 -25 66.999 -25c14 0 26.167 2 36.5 6s19.166 9.66699 26.499 17c12 12 20.333 27.333 25 46s7 37.667 7 57h40zM263.001 765.998l-60 95l-60 -95h-41
l82 126h38l82 -126h-41z" />
    <glyph glyph-name="ccircumflex" unicode="&#x109;" horiz-adv-x="324" 
d="M284 127c0 -24 -2.33301 -44.168 -7 -60.501s-13 -30.833 -25 -43.5c-20.667 -20.667 -48.334 -31 -83.001 -31c-17.333 0 -33.166 3.16699 -47.499 9.5s-26.166 14.833 -35.499 25.5c-7.33301 8 -13.5 18.167 -18.5 30.5s-9 27.333 -12 45s-5 38.667 -6 63
s-1.5 52.833 -1.5 85.5s0.5 61.167 1.5 85.5s3 45.333 6 63s7 32.667 12 45s11.167 22.5 18.5 30.5c9.33301 10.667 21.166 19.167 35.499 25.5s30.166 9.5 47.499 9.5c36 0 63.667 -9.66699 83 -29c14.667 -14.667 23.667 -31.167 27 -49.5s5 -37.166 5 -56.499h-37
c0 14.667 -1 28.834 -3 42.501s-8.33301 26.167 -19 37.5c-13.333 14 -31.666 21 -54.999 21c-12 0 -22.667 -2.16699 -32 -6.5s-17 -9.83301 -23 -16.5c-6.66699 -7.33301 -11.834 -16.333 -15.501 -27s-6.5 -24 -8.5 -40s-3.33301 -35 -4 -57s-1 -48 -1 -78
s0.333008 -56 1 -78s2 -41 4 -57s4.83301 -29.333 8.5 -40s8.83398 -19.667 15.501 -27c6 -6.66699 13.667 -12.167 23 -16.5s20 -6.5 32 -6.5c10 0 19.5 1.5 28.5 4.5s17.167 8.16699 24.5 15.5c10 10 16.5 21.667 19.5 35s4.5 28.666 4.5 45.999h37zM229 585.999l-60 95
l-60 -95h-41l82 126h38l82 -126h-41z" />
    <glyph glyph-name="Cdotaccent" unicode="&#x10a;" horiz-adv-x="382" 
d="M338 154c0 -27.333 -3.66602 -52.502 -10.999 -75.502s-19.333 -41.833 -36 -56.5c-22 -20 -51.333 -30 -88 -30c-19.333 0 -37.166 3 -53.499 9s-30.166 14.667 -41.499 26c-10.667 10.667 -19.167 22.334 -25.5 35.001s-11.333 30.5 -15 53.5s-6.16699 53.5 -7.5 91.5
s-2 87.667 -2 149s0.666992 111 2 149s3.83301 68.5 7.5 91.5s8.66699 40.833 15 53.5s14.833 24.334 25.5 35.001c11.333 11.333 25.166 20 41.499 26s34.166 9 53.499 9c21.333 0 39.5 -3 54.5 -9s28.167 -14.667 39.5 -26c14.667 -15.333 25.167 -34 31.5 -56
s9.5 -45.667 9.5 -71h-40c0 19.333 -2.33301 38.333 -7 57s-13 34 -25 46c-15.333 15.333 -36.333 23 -63 23c-29.333 0 -51.666 -8.33301 -66.999 -25c-8 -8.66699 -14.5 -18.167 -19.5 -28.5s-8.83301 -26 -11.5 -47s-4.5 -49.333 -5.5 -85s-1.5 -83.167 -1.5 -142.5
s0.5 -106.833 1.5 -142.5s2.83301 -64 5.5 -85s6.5 -36.667 11.5 -47s11.5 -19.833 19.5 -28.5c15.333 -16.667 37.666 -25 66.999 -25c14 0 26.167 2 36.5 6s19.166 9.66699 26.499 17c12 12 20.333 27.333 25 46s7 37.667 7 57h40zM178.001 788.998v50h50v-50h-50z" />
    <glyph glyph-name="cdotaccent" unicode="&#x10b;" horiz-adv-x="324" 
d="M284 127c0 -24 -2.33301 -44.168 -7 -60.501s-13 -30.833 -25 -43.5c-20.667 -20.667 -48.334 -31 -83.001 -31c-17.333 0 -33.166 3.16699 -47.499 9.5s-26.166 14.833 -35.499 25.5c-7.33301 8 -13.5 18.167 -18.5 30.5s-9 27.333 -12 45s-5 38.667 -6 63
s-1.5 52.833 -1.5 85.5s0.5 61.167 1.5 85.5s3 45.333 6 63s7 32.667 12 45s11.167 22.5 18.5 30.5c9.33301 10.667 21.166 19.167 35.499 25.5s30.166 9.5 47.499 9.5c36 0 63.667 -9.66699 83 -29c14.667 -14.667 23.667 -31.167 27 -49.5s5 -37.166 5 -56.499h-37
c0 14.667 -1 28.834 -3 42.501s-8.33301 26.167 -19 37.5c-13.333 14 -31.666 21 -54.999 21c-12 0 -22.667 -2.16699 -32 -6.5s-17 -9.83301 -23 -16.5c-6.66699 -7.33301 -11.834 -16.333 -15.501 -27s-6.5 -24 -8.5 -40s-3.33301 -35 -4 -57s-1 -48 -1 -78
s0.333008 -56 1 -78s2 -41 4 -57s4.83301 -29.333 8.5 -40s8.83398 -19.667 15.501 -27c6 -6.66699 13.667 -12.167 23 -16.5s20 -6.5 32 -6.5c10 0 19.5 1.5 28.5 4.5s17.167 8.16699 24.5 15.5c10 10 16.5 21.667 19.5 35s4.5 28.666 4.5 45.999h37zM144 613.999v50h50
v-50h-50z" />
    <glyph glyph-name="Ccaron" unicode="&#x10c;" horiz-adv-x="382" 
d="M338 154c0 -27.333 -3.66602 -52.502 -10.999 -75.502s-19.333 -41.833 -36 -56.5c-22 -20 -51.333 -30 -88 -30c-19.333 0 -37.166 3 -53.499 9s-30.166 14.667 -41.499 26c-10.667 10.667 -19.167 22.334 -25.5 35.001s-11.333 30.5 -15 53.5s-6.16699 53.5 -7.5 91.5
s-2 87.667 -2 149s0.666992 111 2 149s3.83301 68.5 7.5 91.5s8.66699 40.833 15 53.5s14.833 24.334 25.5 35.001c11.333 11.333 25.166 20 41.499 26s34.166 9 53.499 9c21.333 0 39.5 -3 54.5 -9s28.167 -14.667 39.5 -26c14.667 -15.333 25.167 -34 31.5 -56
s9.5 -45.667 9.5 -71h-40c0 19.333 -2.33301 38.333 -7 57s-13 34 -25 46c-15.333 15.333 -36.333 23 -63 23c-29.333 0 -51.666 -8.33301 -66.999 -25c-8 -8.66699 -14.5 -18.167 -19.5 -28.5s-8.83301 -26 -11.5 -47s-4.5 -49.333 -5.5 -85s-1.5 -83.167 -1.5 -142.5
s0.5 -106.833 1.5 -142.5s2.83301 -64 5.5 -85s6.5 -36.667 11.5 -47s11.5 -19.833 19.5 -28.5c15.333 -16.667 37.666 -25 66.999 -25c14 0 26.167 2 36.5 6s19.166 9.66699 26.499 17c12 12 20.333 27.333 25 46s7 37.667 7 57h40zM222.001 757.998h-38l-82 126h41l60 -95
l60 95h41z" />
    <glyph glyph-name="ccaron" unicode="&#x10d;" horiz-adv-x="324" 
d="M284 127c0 -24 -2.33301 -44.168 -7 -60.501s-13 -30.833 -25 -43.5c-20.667 -20.667 -48.334 -31 -83.001 -31c-17.333 0 -33.166 3.16699 -47.499 9.5s-26.166 14.833 -35.499 25.5c-7.33301 8 -13.5 18.167 -18.5 30.5s-9 27.333 -12 45s-5 38.667 -6 63
s-1.5 52.833 -1.5 85.5s0.5 61.167 1.5 85.5s3 45.333 6 63s7 32.667 12 45s11.167 22.5 18.5 30.5c9.33301 10.667 21.166 19.167 35.499 25.5s30.166 9.5 47.499 9.5c36 0 63.667 -9.66699 83 -29c14.667 -14.667 23.667 -31.167 27 -49.5s5 -37.166 5 -56.499h-37
c0 14.667 -1 28.834 -3 42.501s-8.33301 26.167 -19 37.5c-13.333 14 -31.666 21 -54.999 21c-12 0 -22.667 -2.16699 -32 -6.5s-17 -9.83301 -23 -16.5c-6.66699 -7.33301 -11.834 -16.333 -15.501 -27s-6.5 -24 -8.5 -40s-3.33301 -35 -4 -57s-1 -48 -1 -78
s0.333008 -56 1 -78s2 -41 4 -57s4.83301 -29.333 8.5 -40s8.83398 -19.667 15.501 -27c6 -6.66699 13.667 -12.167 23 -16.5s20 -6.5 32 -6.5c10 0 19.5 1.5 28.5 4.5s17.167 8.16699 24.5 15.5c10 10 16.5 21.667 19.5 35s4.5 28.666 4.5 45.999h37zM188 577.999h-38
l-82 126h41l60 -95l60 95h41z" />
    <glyph glyph-name="Dcaron" unicode="&#x10e;" horiz-adv-x="407" 
d="M349 356c0 -60.667 -0.666992 -109.5 -2 -146.5s-3.66602 -66.833 -6.99902 -89.5s-8.16602 -40 -14.499 -52s-14.833 -23.333 -25.5 -34c-22.667 -22.667 -54 -34 -94 -34h-134v712h134c40 0 71.333 -11.333 94 -34c10.667 -10.667 19.167 -22 25.5 -34
s11.166 -29.333 14.499 -52s5.66602 -52.5 6.99902 -89.5s2 -85.833 2 -146.5zM309 356c0 58 -0.5 104.501 -1.5 139.501s-2.83301 62.667 -5.5 83s-6.5 35.666 -11.5 45.999s-11.833 19.833 -20.5 28.5c-15.333 15.333 -37.666 23 -66.999 23h-91v-640h91
c29.333 0 51.666 7.66699 66.999 23c8.66699 8.66699 15.5 18 20.5 28s8.83301 25.333 11.5 46s4.5 48.5 5.5 83.5s1.5 81.5 1.5 139.5zM220 758.001h-38l-82 126h41l60 -95l60 95h41z" />
    <glyph glyph-name="dcaron" unicode="&#x10f;" horiz-adv-x="350" 
d="M367 586h-35l20 126h43zM246 0v41c-2.66699 -5.33301 -6.66699 -10.833 -12 -16.5s-10 -10.167 -14 -13.5c-16.667 -12.667 -36.667 -19 -60 -19c-28.667 0 -53.334 11.333 -74.001 34c-7.33301 8 -13.5 18.167 -18.5 30.5s-9 27.5 -12 45.5s-5 39.167 -6 63.5
s-1.5 52.833 -1.5 85.5s0.5 61.167 1.5 85.5s3 45.5 6 63.5s7 33.167 12 45.5s11.167 22.5 18.5 30.5c8.66699 9.33301 19 17.333 31 24s26.333 10 43 10c24 0 44 -5.66699 60 -17c4.66699 -3.33301 9.33398 -7.83301 14.001 -13.5s8.66699 -11.167 12 -16.5v249h38v-712
h-38zM246 378c0 18.667 -2.16699 34.167 -6.5 46.5s-10.833 22.833 -19.5 31.5c-14.667 13.333 -32.334 20 -53.001 20c-11.333 0 -21.333 -2.16699 -30 -6.5s-16 -9.83301 -22 -16.5c-6.66699 -7.33301 -11.834 -16.333 -15.501 -27s-6.5 -24 -8.5 -40s-3.33301 -35 -4 -57
s-1 -48 -1 -78s0.333008 -56 1 -78s2 -41 4 -57s4.83301 -29.333 8.5 -40s8.83398 -19.667 15.501 -27c6 -6.66699 13.333 -12.167 22 -16.5s18.667 -6.5 30 -6.5c20.667 0 38.334 6.66699 53.001 20c8.66699 8.66699 15.167 19.167 19.5 31.5s6.5 27.833 6.5 46.5v254z" />
    <glyph glyph-name="Dcroat" unicode="&#x110;" horiz-adv-x="432" 
d="M374 356c0 -60.667 -0.666992 -109.5 -2 -146.5s-3.66602 -66.833 -6.99902 -89.5s-8.16602 -40 -14.499 -52s-14.833 -23.333 -25.5 -34c-22.667 -22.667 -54 -34 -94 -34h-134v338h-54v36h54v338h134c40 0 71.333 -11.333 94 -34c10.667 -10.667 19.167 -22 25.5 -34
s11.166 -29.333 14.499 -52s5.66602 -52.5 6.99902 -89.5s2 -85.833 2 -146.5zM334 356c0 58 -0.5 104.501 -1.5 139.501s-2.83301 62.667 -5.5 83s-6.5 35.666 -11.5 45.999s-11.833 19.833 -20.5 28.5c-15.333 15.333 -37.666 23 -66.999 23h-91v-302h98v-36h-98v-302h91
c29.333 0 51.666 7.66699 66.999 23c8.66699 8.66699 15.5 18 20.5 28s8.83301 25.333 11.5 46s4.5 48.5 5.5 83.5s1.5 81.5 1.5 139.5z" />
    <glyph glyph-name="dcroat" unicode="&#x111;" horiz-adv-x="368" 
d="M284 586v-586h-38v41c-2.66699 -5.33301 -6.66699 -10.833 -12 -16.5s-10 -10.167 -14 -13.5c-16.667 -12.667 -36.667 -19 -60 -19c-28.667 0 -53.334 11.333 -74.001 34c-7.33301 8 -13.5 18.167 -18.5 30.5s-9 27.5 -12 45.5s-5 39.167 -6 63.5s-1.5 52.833 -1.5 85.5
s0.5 61.167 1.5 85.5s3 45.5 6 63.5s7 33.167 12 45.5s11.167 22.5 18.5 30.5c8.66699 9.33301 19 17.333 31 24s26.333 10 43 10c24 0 44 -5.66699 60 -17c4.66699 -3.33301 9.33398 -7.83301 14.001 -13.5s8.66699 -11.167 12 -16.5v123h-91v32h91v94h38v-94h61v-32h-61z
M246 378c0 18.667 -2.16699 34.167 -6.5 46.5s-10.833 22.833 -19.5 31.5c-14.667 13.333 -32.334 20 -53.001 20c-11.333 0 -21.333 -2.16699 -30 -6.5s-16 -9.83301 -22 -16.5c-6.66699 -7.33301 -11.834 -16.333 -15.501 -27s-6.5 -24 -8.5 -40s-3.33301 -35 -4 -57
s-1 -48 -1 -78s0.333008 -56 1 -78s2 -41 4 -57s4.83301 -29.333 8.5 -40s8.83398 -19.667 15.501 -27c6 -6.66699 13.333 -12.167 22 -16.5s18.667 -6.5 30 -6.5c20.667 0 38.334 6.66699 53.001 20c8.66699 8.66699 15.167 19.167 19.5 31.5s6.5 27.833 6.5 46.5v254z" />
    <glyph glyph-name="Emacron" unicode="&#x112;" horiz-adv-x="352" 
d="M72 0v712h230v-36h-190v-302h164v-36h-164v-302h190v-36h-230zM92 789v35h200v-35h-200z" />
    <glyph glyph-name="emacron" unicode="&#x113;" horiz-adv-x="333" 
d="M86 251c0 -30 0.331055 -56.001 0.998047 -78.001s2 -41 4 -57s5 -29.333 9 -40s9.33301 -19.667 16 -27c6 -6.66699 13.667 -12.167 23 -16.5s20 -6.5 32 -6.5c10 0 19.833 1.5 29.5 4.5s18.167 8.16699 25.5 15.5c17.333 16.667 26 43.667 26 81h37
c0 -25.333 -2.83301 -45.666 -8.5 -60.999s-14.5 -29.333 -26.5 -42c-10.667 -10.667 -23.167 -18.667 -37.5 -24s-29.5 -8 -45.5 -8c-18.667 0 -35 3.16699 -49 9.5s-25.667 14.833 -35 25.5c-7.33301 8 -13.5 18.167 -18.5 30.5s-9 27.333 -12 45s-5.16699 38.667 -6.5 63
s-2 52.833 -2 85.5s0.5 61.167 1.5 85.5s3 45.333 6 63s7 32.667 12 45s11.167 22.5 18.5 30.5c9.33301 10.667 20.833 19.167 34.5 25.5s29.834 9.5 48.501 9.5s34.834 -3.16699 48.501 -9.5s25.167 -14.833 34.5 -25.5c7.33301 -8 13.5 -18.167 18.5 -30.5
s9 -27.333 12 -45s5 -38.667 6 -63s1.5 -52.833 1.5 -85.5h-204zM251.998 282.999c0 24.667 -0.5 46.167 -1.5 64.5s-2.5 34.166 -4.5 47.499s-4.83301 24.666 -8.5 33.999s-8.5 17.333 -14.5 24s-13.5 12.167 -22.5 16.5s-19.5 6.5 -31.5 6.5s-22.5 -2.16699 -31.5 -6.5
s-16.5 -9.83301 -22.5 -16.5s-10.833 -14.667 -14.5 -24s-6.5 -20.666 -8.5 -33.999s-3.5 -29.166 -4.5 -47.499s-1.5 -39.833 -1.5 -64.5h166zM68.998 613.999v35h200v-35h-200z" />
    <glyph glyph-name="Ebreve" unicode="&#x114;" horiz-adv-x="352" 
d="M72 0v712h230v-36h-190v-302h164v-36h-164v-302h190v-36h-230zM296 852c-3.33301 -32 -13 -56.5 -29 -73.5s-41.333 -25.5 -76 -25.5s-60 8.5 -76 25.5s-25.667 41.5 -29 73.5h36c3.33301 -21.333 10.333 -37.5 21 -48.5s26.667 -16.5 48 -16.5s37.333 5.5 48 16.5
s17.667 27.167 21 48.5h36v0z" />
    <glyph glyph-name="ebreve" unicode="&#x115;" horiz-adv-x="333" 
d="M86 251c0 -30 0.331055 -56.001 0.998047 -78.001s2 -41 4 -57s5 -29.333 9 -40s9.33301 -19.667 16 -27c6 -6.66699 13.667 -12.167 23 -16.5s20 -6.5 32 -6.5c10 0 19.833 1.5 29.5 4.5s18.167 8.16699 25.5 15.5c17.333 16.667 26 43.667 26 81h37
c0 -25.333 -2.83301 -45.666 -8.5 -60.999s-14.5 -29.333 -26.5 -42c-10.667 -10.667 -23.167 -18.667 -37.5 -24s-29.5 -8 -45.5 -8c-18.667 0 -35 3.16699 -49 9.5s-25.667 14.833 -35 25.5c-7.33301 8 -13.5 18.167 -18.5 30.5s-9 27.333 -12 45s-5.16699 38.667 -6.5 63
s-2 52.833 -2 85.5s0.5 61.167 1.5 85.5s3 45.333 6 63s7 32.667 12 45s11.167 22.5 18.5 30.5c9.33301 10.667 20.833 19.167 34.5 25.5s29.834 9.5 48.501 9.5s34.834 -3.16699 48.501 -9.5s25.167 -14.833 34.5 -25.5c7.33301 -8 13.5 -18.167 18.5 -30.5
s9 -27.333 12 -45s5 -38.667 6 -63s1.5 -52.833 1.5 -85.5h-204zM251.998 282.999c0 24.667 -0.5 46.167 -1.5 64.5s-2.5 34.166 -4.5 47.499s-4.83301 24.666 -8.5 33.999s-8.5 17.333 -14.5 24s-13.5 12.167 -22.5 16.5s-19.5 6.5 -31.5 6.5s-22.5 -2.16699 -31.5 -6.5
s-16.5 -9.83301 -22.5 -16.5s-10.833 -14.667 -14.5 -24s-6.5 -20.666 -8.5 -33.999s-3.5 -29.166 -4.5 -47.499s-1.5 -39.833 -1.5 -64.5h166zM273.998 676.999c-3.33301 -32 -13 -56.5 -29 -73.5s-41.333 -25.5 -76 -25.5s-60 8.5 -76 25.5s-25.667 41.5 -29 73.5h36
c3.33301 -21.333 10.333 -37.5 21 -48.5s26.667 -16.5 48 -16.5s37.333 5.5 48 16.5s17.667 27.167 21 48.5h36v0z" />
    <glyph glyph-name="Edotaccent" unicode="&#x116;" horiz-adv-x="352" 
d="M72 0v712h230v-36h-190v-302h164v-36h-164v-302h190v-36h-230zM167 789v50h50v-50h-50z" />
    <glyph glyph-name="edotaccent" unicode="&#x117;" horiz-adv-x="333" 
d="M86 251c0 -30 0.331055 -56.001 0.998047 -78.001s2 -41 4 -57s5 -29.333 9 -40s9.33301 -19.667 16 -27c6 -6.66699 13.667 -12.167 23 -16.5s20 -6.5 32 -6.5c10 0 19.833 1.5 29.5 4.5s18.167 8.16699 25.5 15.5c17.333 16.667 26 43.667 26 81h37
c0 -25.333 -2.83301 -45.666 -8.5 -60.999s-14.5 -29.333 -26.5 -42c-10.667 -10.667 -23.167 -18.667 -37.5 -24s-29.5 -8 -45.5 -8c-18.667 0 -35 3.16699 -49 9.5s-25.667 14.833 -35 25.5c-7.33301 8 -13.5 18.167 -18.5 30.5s-9 27.333 -12 45s-5.16699 38.667 -6.5 63
s-2 52.833 -2 85.5s0.5 61.167 1.5 85.5s3 45.333 6 63s7 32.667 12 45s11.167 22.5 18.5 30.5c9.33301 10.667 20.833 19.167 34.5 25.5s29.834 9.5 48.501 9.5s34.834 -3.16699 48.501 -9.5s25.167 -14.833 34.5 -25.5c7.33301 -8 13.5 -18.167 18.5 -30.5
s9 -27.333 12 -45s5 -38.667 6 -63s1.5 -52.833 1.5 -85.5h-204zM251.998 282.999c0 24.667 -0.5 46.167 -1.5 64.5s-2.5 34.166 -4.5 47.499s-4.83301 24.666 -8.5 33.999s-8.5 17.333 -14.5 24s-13.5 12.167 -22.5 16.5s-19.5 6.5 -31.5 6.5s-22.5 -2.16699 -31.5 -6.5
s-16.5 -9.83301 -22.5 -16.5s-10.833 -14.667 -14.5 -24s-6.5 -20.666 -8.5 -33.999s-3.5 -29.166 -4.5 -47.499s-1.5 -39.833 -1.5 -64.5h166zM143.998 613.999v50h50v-50h-50z" />
    <glyph glyph-name="Eogonek" unicode="&#x118;" horiz-adv-x="352" 
d="M72 0v712h230v-36h-190v-302h164v-36h-164v-302h190v-36h-230zM238 -162h-45l50 126h38z" />
    <glyph glyph-name="eogonek" unicode="&#x119;" horiz-adv-x="333" 
d="M86 251c0 -30 0.331055 -56.001 0.998047 -78.001s2 -41 4 -57s5 -29.333 9 -40s9.33301 -19.667 16 -27c6 -6.66699 13.667 -12.167 23 -16.5s20 -6.5 32 -6.5c10 0 19.833 1.5 29.5 4.5s18.167 8.16699 25.5 15.5c17.333 16.667 26 43.667 26 81h37
c0 -25.333 -2.83301 -45.666 -8.5 -60.999s-14.5 -29.333 -26.5 -42c-10.667 -10.667 -23.167 -18.667 -37.5 -24s-29.5 -8 -45.5 -8c-18.667 0 -35 3.16699 -49 9.5s-25.667 14.833 -35 25.5c-7.33301 8 -13.5 18.167 -18.5 30.5s-9 27.333 -12 45s-5.16699 38.667 -6.5 63
s-2 52.833 -2 85.5s0.5 61.167 1.5 85.5s3 45.333 6 63s7 32.667 12 45s11.167 22.5 18.5 30.5c9.33301 10.667 20.833 19.167 34.5 25.5s29.834 9.5 48.501 9.5s34.834 -3.16699 48.501 -9.5s25.167 -14.833 34.5 -25.5c7.33301 -8 13.5 -18.167 18.5 -30.5
s9 -27.333 12 -45s5 -38.667 6 -63s1.5 -52.833 1.5 -85.5h-204zM251.998 282.999c0 24.667 -0.5 46.167 -1.5 64.5s-2.5 34.166 -4.5 47.499s-4.83301 24.666 -8.5 33.999s-8.5 17.333 -14.5 24s-13.5 12.167 -22.5 16.5s-19.5 6.5 -31.5 6.5s-22.5 -2.16699 -31.5 -6.5
s-16.5 -9.83301 -22.5 -16.5s-10.833 -14.667 -14.5 -24s-6.5 -20.666 -8.5 -33.999s-3.5 -29.166 -4.5 -47.499s-1.5 -39.833 -1.5 -64.5h166zM192.998 -162.001h-45l50 126h38z" />
    <glyph glyph-name="Ecaron" unicode="&#x11a;" horiz-adv-x="352" 
d="M72 0v712h230v-36h-190v-302h164v-36h-164v-302h190v-36h-230zM211 758h-38l-82 126h41l60 -95l60 95h41z" />
    <glyph glyph-name="ecaron" unicode="&#x11b;" horiz-adv-x="333" 
d="M86 251c0 -30 0.331055 -56.001 0.998047 -78.001s2 -41 4 -57s5 -29.333 9 -40s9.33301 -19.667 16 -27c6 -6.66699 13.667 -12.167 23 -16.5s20 -6.5 32 -6.5c10 0 19.833 1.5 29.5 4.5s18.167 8.16699 25.5 15.5c17.333 16.667 26 43.667 26 81h37
c0 -25.333 -2.83301 -45.666 -8.5 -60.999s-14.5 -29.333 -26.5 -42c-10.667 -10.667 -23.167 -18.667 -37.5 -24s-29.5 -8 -45.5 -8c-18.667 0 -35 3.16699 -49 9.5s-25.667 14.833 -35 25.5c-7.33301 8 -13.5 18.167 -18.5 30.5s-9 27.333 -12 45s-5.16699 38.667 -6.5 63
s-2 52.833 -2 85.5s0.5 61.167 1.5 85.5s3 45.333 6 63s7 32.667 12 45s11.167 22.5 18.5 30.5c9.33301 10.667 20.833 19.167 34.5 25.5s29.834 9.5 48.501 9.5s34.834 -3.16699 48.501 -9.5s25.167 -14.833 34.5 -25.5c7.33301 -8 13.5 -18.167 18.5 -30.5
s9 -27.333 12 -45s5 -38.667 6 -63s1.5 -52.833 1.5 -85.5h-204zM251.998 282.999c0 24.667 -0.5 46.167 -1.5 64.5s-2.5 34.166 -4.5 47.499s-4.83301 24.666 -8.5 33.999s-8.5 17.333 -14.5 24s-13.5 12.167 -22.5 16.5s-19.5 6.5 -31.5 6.5s-22.5 -2.16699 -31.5 -6.5
s-16.5 -9.83301 -22.5 -16.5s-10.833 -14.667 -14.5 -24s-6.5 -20.666 -8.5 -33.999s-3.5 -29.166 -4.5 -47.499s-1.5 -39.833 -1.5 -64.5h166zM187.998 577.999h-38l-82 126h41l60 -95l60 95h41z" />
    <glyph glyph-name="Gcircumflex" unicode="&#x11c;" horiz-adv-x="396" 
d="M338 138c0 -24.667 -3.83398 -46.1709 -11.501 -64.5039s-17.667 -33.5 -30 -45.5s-26.666 -21 -42.999 -27s-33.166 -9 -50.499 -9c-19.333 0 -37.166 3 -53.499 9s-30.166 14.667 -41.499 26c-10.667 10.667 -19.167 22.334 -25.5 35.001s-11.333 30.5 -15 53.5
s-6.16699 53.5 -7.5 91.5s-2 87.667 -2 149s0.666992 111 2 149s3.83301 68.5 7.5 91.5s8.66699 40.833 15 53.5s14.833 24.334 25.5 35.001c11.333 11.333 25.166 20 41.499 26s34.166 9 53.499 9c21.333 0 39.666 -3.16699 54.999 -9.5s28.666 -15.166 39.999 -26.499
c14 -15.333 24.167 -33.666 30.5 -54.999s9.5 -45 9.5 -71h-40c0 16 -1.33301 31.5 -4 46.5s-7.66699 28.333 -15 40s-17.166 21.167 -29.499 28.5s-27.833 11 -46.5 11c-29.333 0 -51.666 -8.33301 -66.999 -25c-8 -8.66699 -14.5 -18.167 -19.5 -28.5
s-8.83301 -26 -11.5 -47s-4.5 -49.333 -5.5 -85s-1.5 -83.167 -1.5 -142.5s0.5 -106.833 1.5 -142.5s2.83301 -64 5.5 -85s6.5 -36.667 11.5 -47s11.5 -19.833 19.5 -28.5c15.333 -16.667 37.666 -25 66.999 -25c26 0 48.333 9.33301 67 28s28 46.667 28 84v198h-95v36h135
v-236zM262.999 765.996l-60 95l-60 -95h-41l82 126h38l82 -126h-41z" />
    <glyph glyph-name="gcircumflex" unicode="&#x11d;" horiz-adv-x="350" 
d="M246 378c0 18.667 -2.16699 34.167 -6.5 46.5s-10.833 22.833 -19.5 31.5c-14.667 13.333 -32.334 20 -53.001 20c-11.333 0 -21.333 -2.16699 -30 -6.5s-16 -9.83301 -22 -16.5c-6.66699 -7.33301 -11.834 -16.333 -15.501 -27s-6.5 -24 -8.5 -40s-3.33301 -35 -4 -57
s-1 -48 -1 -78s0.333008 -56 1 -78s2 -41 4 -57s4.83301 -29.333 8.5 -40s8.83398 -19.667 15.501 -27c6 -6.66699 13.333 -12.167 22 -16.5s18.667 -6.5 30 -6.5c20.667 0 38.334 6.66699 53.001 20c8.66699 8.66699 15.167 19.167 19.5 31.5s6.5 27.833 6.5 46.5v254z
M284 -17c0 -22.667 -0.499023 -42.1719 -1.49902 -58.5049s-2.83301 -30.5 -5.5 -42.5s-6.33398 -22.5 -11.001 -31.5s-10.667 -17.5 -18 -25.5c-9.33301 -10.667 -21 -19.167 -35 -25.5s-29.667 -9.5 -47 -9.5c-35.333 0 -63.333 10.333 -84 31
c-12 12.667 -20.333 27.167 -25 43.5s-7 36.5 -7 60.5h37c0 -17.333 1.5 -32.666 4.5 -45.999s9.5 -25 19.5 -35c7.33301 -7.33301 15.666 -12.5 24.999 -15.5s19 -4.5 29 -4.5c12 0 22.5 2.16699 31.5 6.5s16.5 9.83301 22.5 16.5c10.667 11.333 17.834 27.5 21.501 48.5
s5.5 50.5 5.5 88.5v56c-3.33301 -5.33301 -7.33301 -10.833 -12 -16.5s-9.33398 -10.167 -14.001 -13.5c-16 -12 -35.667 -18 -59 -18c-29.333 0 -54.333 11.333 -75 34c-8 8.66699 -14.333 18.834 -19 30.501s-8.5 26.334 -11.5 44.001s-5 38.667 -6 63
s-1.5 53.5 -1.5 87.5s0.5 63.167 1.5 87.5s3 45.333 6 63s6.83301 32.334 11.5 44.001s11 21.834 19 30.501c20.667 22.667 45.667 34 75 34c23.333 0 43 -6 59 -18c4.66699 -3.33301 9.33398 -7.83301 14.001 -13.5s8.66699 -11.167 12 -16.5v40h38v-519zM228.001 585.995
l-60 95l-60 -95h-41l82 126h38l82 -126h-41z" />
    <glyph glyph-name="Gbreve" unicode="&#x11e;" horiz-adv-x="396" 
d="M338 138c0 -24.667 -3.83398 -46.1709 -11.501 -64.5039s-17.667 -33.5 -30 -45.5s-26.666 -21 -42.999 -27s-33.166 -9 -50.499 -9c-19.333 0 -37.166 3 -53.499 9s-30.166 14.667 -41.499 26c-10.667 10.667 -19.167 22.334 -25.5 35.001s-11.333 30.5 -15 53.5
s-6.16699 53.5 -7.5 91.5s-2 87.667 -2 149s0.666992 111 2 149s3.83301 68.5 7.5 91.5s8.66699 40.833 15 53.5s14.833 24.334 25.5 35.001c11.333 11.333 25.166 20 41.499 26s34.166 9 53.499 9c21.333 0 39.666 -3.16699 54.999 -9.5s28.666 -15.166 39.999 -26.499
c14 -15.333 24.167 -33.666 30.5 -54.999s9.5 -45 9.5 -71h-40c0 16 -1.33301 31.5 -4 46.5s-7.66699 28.333 -15 40s-17.166 21.167 -29.499 28.5s-27.833 11 -46.5 11c-29.333 0 -51.666 -8.33301 -66.999 -25c-8 -8.66699 -14.5 -18.167 -19.5 -28.5
s-8.83301 -26 -11.5 -47s-4.5 -49.333 -5.5 -85s-1.5 -83.167 -1.5 -142.5s0.5 -106.833 1.5 -142.5s2.83301 -64 5.5 -85s6.5 -36.667 11.5 -47s11.5 -19.833 19.5 -28.5c15.333 -16.667 37.666 -25 66.999 -25c26 0 48.333 9.33301 67 28s28 46.667 28 84v198h-95v36h135
v-236zM307.999 851.996c-3.33301 -32 -13 -56.5 -29 -73.5s-41.333 -25.5 -76 -25.5s-60 8.5 -76 25.5s-25.667 41.5 -29 73.5h36c3.33301 -21.333 10.333 -37.5 21 -48.5s26.667 -16.5 48 -16.5s37.333 5.5 48 16.5s17.667 27.167 21 48.5h36v0z" />
    <glyph glyph-name="gbreve" unicode="&#x11f;" horiz-adv-x="350" 
d="M246 378c0 18.667 -2.16699 34.167 -6.5 46.5s-10.833 22.833 -19.5 31.5c-14.667 13.333 -32.334 20 -53.001 20c-11.333 0 -21.333 -2.16699 -30 -6.5s-16 -9.83301 -22 -16.5c-6.66699 -7.33301 -11.834 -16.333 -15.501 -27s-6.5 -24 -8.5 -40s-3.33301 -35 -4 -57
s-1 -48 -1 -78s0.333008 -56 1 -78s2 -41 4 -57s4.83301 -29.333 8.5 -40s8.83398 -19.667 15.501 -27c6 -6.66699 13.333 -12.167 22 -16.5s18.667 -6.5 30 -6.5c20.667 0 38.334 6.66699 53.001 20c8.66699 8.66699 15.167 19.167 19.5 31.5s6.5 27.833 6.5 46.5v254z
M284 -17c0 -22.667 -0.499023 -42.1719 -1.49902 -58.5049s-2.83301 -30.5 -5.5 -42.5s-6.33398 -22.5 -11.001 -31.5s-10.667 -17.5 -18 -25.5c-9.33301 -10.667 -21 -19.167 -35 -25.5s-29.667 -9.5 -47 -9.5c-35.333 0 -63.333 10.333 -84 31
c-12 12.667 -20.333 27.167 -25 43.5s-7 36.5 -7 60.5h37c0 -17.333 1.5 -32.666 4.5 -45.999s9.5 -25 19.5 -35c7.33301 -7.33301 15.666 -12.5 24.999 -15.5s19 -4.5 29 -4.5c12 0 22.5 2.16699 31.5 6.5s16.5 9.83301 22.5 16.5c10.667 11.333 17.834 27.5 21.501 48.5
s5.5 50.5 5.5 88.5v56c-3.33301 -5.33301 -7.33301 -10.833 -12 -16.5s-9.33398 -10.167 -14.001 -13.5c-16 -12 -35.667 -18 -59 -18c-29.333 0 -54.333 11.333 -75 34c-8 8.66699 -14.333 18.834 -19 30.501s-8.5 26.334 -11.5 44.001s-5 38.667 -6 63
s-1.5 53.5 -1.5 87.5s0.5 63.167 1.5 87.5s3 45.333 6 63s6.83301 32.334 11.5 44.001s11 21.834 19 30.501c20.667 22.667 45.667 34 75 34c23.333 0 43 -6 59 -18c4.66699 -3.33301 9.33398 -7.83301 14.001 -13.5s8.66699 -11.167 12 -16.5v40h38v-519zM273.001 676.995
c-3.33301 -32 -13 -56.5 -29 -73.5s-41.333 -25.5 -76 -25.5s-60 8.5 -76 25.5s-25.667 41.5 -29 73.5h36c3.33301 -21.333 10.333 -37.5 21 -48.5s26.667 -16.5 48 -16.5s37.333 5.5 48 16.5s17.667 27.167 21 48.5h36v0z" />
    <glyph glyph-name="Gdotaccent" unicode="&#x120;" horiz-adv-x="396" 
d="M338 138c0 -24.667 -3.83398 -46.1709 -11.501 -64.5039s-17.667 -33.5 -30 -45.5s-26.666 -21 -42.999 -27s-33.166 -9 -50.499 -9c-19.333 0 -37.166 3 -53.499 9s-30.166 14.667 -41.499 26c-10.667 10.667 -19.167 22.334 -25.5 35.001s-11.333 30.5 -15 53.5
s-6.16699 53.5 -7.5 91.5s-2 87.667 -2 149s0.666992 111 2 149s3.83301 68.5 7.5 91.5s8.66699 40.833 15 53.5s14.833 24.334 25.5 35.001c11.333 11.333 25.166 20 41.499 26s34.166 9 53.499 9c21.333 0 39.666 -3.16699 54.999 -9.5s28.666 -15.166 39.999 -26.499
c14 -15.333 24.167 -33.666 30.5 -54.999s9.5 -45 9.5 -71h-40c0 16 -1.33301 31.5 -4 46.5s-7.66699 28.333 -15 40s-17.166 21.167 -29.499 28.5s-27.833 11 -46.5 11c-29.333 0 -51.666 -8.33301 -66.999 -25c-8 -8.66699 -14.5 -18.167 -19.5 -28.5
s-8.83301 -26 -11.5 -47s-4.5 -49.333 -5.5 -85s-1.5 -83.167 -1.5 -142.5s0.5 -106.833 1.5 -142.5s2.83301 -64 5.5 -85s6.5 -36.667 11.5 -47s11.5 -19.833 19.5 -28.5c15.333 -16.667 37.666 -25 66.999 -25c26 0 48.333 9.33301 67 28s28 46.667 28 84v198h-95v36h135
v-236zM177.999 788.996v50h50v-50h-50z" />
    <glyph glyph-name="gdotaccent" unicode="&#x121;" horiz-adv-x="350" 
d="M246 378c0 18.667 -2.16699 34.167 -6.5 46.5s-10.833 22.833 -19.5 31.5c-14.667 13.333 -32.334 20 -53.001 20c-11.333 0 -21.333 -2.16699 -30 -6.5s-16 -9.83301 -22 -16.5c-6.66699 -7.33301 -11.834 -16.333 -15.501 -27s-6.5 -24 -8.5 -40s-3.33301 -35 -4 -57
s-1 -48 -1 -78s0.333008 -56 1 -78s2 -41 4 -57s4.83301 -29.333 8.5 -40s8.83398 -19.667 15.501 -27c6 -6.66699 13.333 -12.167 22 -16.5s18.667 -6.5 30 -6.5c20.667 0 38.334 6.66699 53.001 20c8.66699 8.66699 15.167 19.167 19.5 31.5s6.5 27.833 6.5 46.5v254z
M284 -17c0 -22.667 -0.499023 -42.1719 -1.49902 -58.5049s-2.83301 -30.5 -5.5 -42.5s-6.33398 -22.5 -11.001 -31.5s-10.667 -17.5 -18 -25.5c-9.33301 -10.667 -21 -19.167 -35 -25.5s-29.667 -9.5 -47 -9.5c-35.333 0 -63.333 10.333 -84 31
c-12 12.667 -20.333 27.167 -25 43.5s-7 36.5 -7 60.5h37c0 -17.333 1.5 -32.666 4.5 -45.999s9.5 -25 19.5 -35c7.33301 -7.33301 15.666 -12.5 24.999 -15.5s19 -4.5 29 -4.5c12 0 22.5 2.16699 31.5 6.5s16.5 9.83301 22.5 16.5c10.667 11.333 17.834 27.5 21.501 48.5
s5.5 50.5 5.5 88.5v56c-3.33301 -5.33301 -7.33301 -10.833 -12 -16.5s-9.33398 -10.167 -14.001 -13.5c-16 -12 -35.667 -18 -59 -18c-29.333 0 -54.333 11.333 -75 34c-8 8.66699 -14.333 18.834 -19 30.501s-8.5 26.334 -11.5 44.001s-5 38.667 -6 63
s-1.5 53.5 -1.5 87.5s0.5 63.167 1.5 87.5s3 45.333 6 63s6.83301 32.334 11.5 44.001s11 21.834 19 30.501c20.667 22.667 45.667 34 75 34c23.333 0 43 -6 59 -18c4.66699 -3.33301 9.33398 -7.83301 14.001 -13.5s8.66699 -11.167 12 -16.5v40h38v-519zM143.001 613.995
v50h50v-50h-50z" />
    <glyph glyph-name="Gcommaaccent" unicode="&#x122;" horiz-adv-x="396" 
d="M338 138c0 -24.667 -3.83398 -46.1709 -11.501 -64.5039s-17.667 -33.5 -30 -45.5s-26.666 -21 -42.999 -27s-33.166 -9 -50.499 -9c-19.333 0 -37.166 3 -53.499 9s-30.166 14.667 -41.499 26c-10.667 10.667 -19.167 22.334 -25.5 35.001s-11.333 30.5 -15 53.5
s-6.16699 53.5 -7.5 91.5s-2 87.667 -2 149s0.666992 111 2 149s3.83301 68.5 7.5 91.5s8.66699 40.833 15 53.5s14.833 24.334 25.5 35.001c11.333 11.333 25.166 20 41.499 26s34.166 9 53.499 9c21.333 0 39.666 -3.16699 54.999 -9.5s28.666 -15.166 39.999 -26.499
c14 -15.333 24.167 -33.666 30.5 -54.999s9.5 -45 9.5 -71h-40c0 16 -1.33301 31.5 -4 46.5s-7.66699 28.333 -15 40s-17.166 21.167 -29.499 28.5s-27.833 11 -46.5 11c-29.333 0 -51.666 -8.33301 -66.999 -25c-8 -8.66699 -14.5 -18.167 -19.5 -28.5
s-8.83301 -26 -11.5 -47s-4.5 -49.333 -5.5 -85s-1.5 -83.167 -1.5 -142.5s0.5 -106.833 1.5 -142.5s2.83301 -64 5.5 -85s6.5 -36.667 11.5 -47s11.5 -19.833 19.5 -28.5c15.333 -16.667 37.666 -25 66.999 -25c26 0 48.333 9.33301 67 28s28 46.667 28 84v198h-95v36h135
v-236zM181.999 -162.004h-45l50 126h38z" />
    <glyph glyph-name="gcommaaccent" unicode="&#x123;" horiz-adv-x="350" 
d="M246 378c0 18.667 -2.16699 34.167 -6.5 46.5s-10.833 22.833 -19.5 31.5c-14.667 13.333 -32.334 20 -53.001 20c-11.333 0 -21.333 -2.16699 -30 -6.5s-16 -9.83301 -22 -16.5c-6.66699 -7.33301 -11.834 -16.333 -15.501 -27s-6.5 -24 -8.5 -40s-3.33301 -35 -4 -57
s-1 -48 -1 -78s0.333008 -56 1 -78s2 -41 4 -57s4.83301 -29.333 8.5 -40s8.83398 -19.667 15.501 -27c6 -6.66699 13.333 -12.167 22 -16.5s18.667 -6.5 30 -6.5c20.667 0 38.334 6.66699 53.001 20c8.66699 8.66699 15.167 19.167 19.5 31.5s6.5 27.833 6.5 46.5v254z
M284 -17c0 -22.667 -0.499023 -42.1719 -1.49902 -58.5049s-2.83301 -30.5 -5.5 -42.5s-6.33398 -22.5 -11.001 -31.5s-10.667 -17.5 -18 -25.5c-9.33301 -10.667 -21 -19.167 -35 -25.5s-29.667 -9.5 -47 -9.5c-35.333 0 -63.333 10.333 -84 31
c-12 12.667 -20.333 27.167 -25 43.5s-7 36.5 -7 60.5h37c0 -17.333 1.5 -32.666 4.5 -45.999s9.5 -25 19.5 -35c7.33301 -7.33301 15.666 -12.5 24.999 -15.5s19 -4.5 29 -4.5c12 0 22.5 2.16699 31.5 6.5s16.5 9.83301 22.5 16.5c10.667 11.333 17.834 27.5 21.501 48.5
s5.5 50.5 5.5 88.5v56c-3.33301 -5.33301 -7.33301 -10.833 -12 -16.5s-9.33398 -10.167 -14.001 -13.5c-16 -12 -35.667 -18 -59 -18c-29.333 0 -54.333 11.333 -75 34c-8 8.66699 -14.333 18.834 -19 30.501s-8.5 26.334 -11.5 44.001s-5 38.667 -6 63
s-1.5 53.5 -1.5 87.5s0.5 63.167 1.5 87.5s3 45.333 6 63s6.83301 32.334 11.5 44.001s11 21.834 19 30.501c20.667 22.667 45.667 34 75 34c23.333 0 43 -6 59 -18c4.66699 -3.33301 9.33398 -7.83301 14.001 -13.5s8.66699 -11.167 12 -16.5v40h38v-519zM190.001 711.995
h45l-50 -126h-38z" />
    <glyph glyph-name="Hcircumflex" unicode="&#x124;" horiz-adv-x="414" 
d="M302 0v344h-190v-344h-40v712h40v-332h190v332h40v-712h-40zM267 766l-60 95l-60 -95h-41l82 126h38l82 -126h-41z" />
    <glyph glyph-name="hcircumflex" unicode="&#x125;" horiz-adv-x="357" 
d="M258 0v384c0 30.667 -7.5 53.5 -22.5 68.5s-33.167 22.5 -54.5 22.5s-39.5 -7.5 -54.5 -22.5s-22.5 -37.833 -22.5 -68.5v-384h-38v712h38v-251c2.66699 5.33301 6.66699 10.833 12 16.5s10 10.167 14 13.5c16.667 12.667 36.667 19 60 19c30 0 55 -10.667 75 -32
c10 -10 17.667 -22.5 23 -37.5s8 -34.167 8 -57.5v-383h-38zM146 766l-60 95l-60 -95h-41l82 126h38l82 -126h-41z" />
    <glyph glyph-name="Hbar" unicode="&#x126;" horiz-adv-x="414" 
d="M342 521v-521h-40v344h-190v-344h-40v521h-51v34h51v157h40v-157h190v157h40v-157h51v-34h-51zM302 521h-190v-141h190v141z" />
    <glyph glyph-name="hbar" unicode="&#x127;" horiz-adv-x="379" 
d="M280 0v384c0 30.667 -7.5 53.5 -22.5 68.5s-33.167 22.5 -54.5 22.5s-39.5 -7.5 -54.5 -22.5s-22.5 -37.833 -22.5 -68.5v-384h-38v586h-65v32h65v94h38v-94h87v-32h-87v-125c2.66699 5.33301 6.66699 10.833 12 16.5s10 10.167 14 13.5c16.667 12.667 36.667 19 60 19
c30 0 55 -10.667 75 -32c10 -10 17.667 -22.5 23 -37.5s8 -34.167 8 -57.5v-383h-38z" />
    <glyph glyph-name="Itilde" unicode="&#x128;" horiz-adv-x="184" 
d="M72 0v712h40v-712h-40zM203 813c-16.667 -16.667 -29.833 -26.667 -39.5 -30s-17.834 -5 -24.501 -5c-10 0 -19 1.66699 -27 5s-16 7.33301 -24 12l-20.5 11c-6.33301 3.33301 -13.166 5 -20.499 5c-6 0 -11.667 -1.16699 -17 -3.5s-13.666 -9.16602 -24.999 -20.499
l-22 22c16.667 16.667 29.667 26.667 39 30s17.666 5 24.999 5c10.667 0 19.667 -1.5 27 -4.5s15.333 -7.16699 24 -12.5c9.33301 -6 17 -10.167 23 -12.5s12 -3.5 18 -3.5c5.33301 0 10.833 1.16699 16.5 3.5s14.167 9.16602 25.5 20.499l22 -22v0z" />
    <glyph glyph-name="itilde" unicode="&#x129;" horiz-adv-x="170" 
d="M66 0v502h38v-502h-38zM196 633c-16.667 -16.667 -29.833 -26.667 -39.5 -30s-17.834 -5 -24.501 -5c-10 0 -19 1.66699 -27 5s-16 7.33301 -24 12l-20.5 11c-6.33301 3.33301 -13.166 5 -20.499 5c-6 0 -11.667 -1.16699 -17 -3.5s-13.666 -9.16602 -24.999 -20.499
l-22 22c16.667 16.667 29.667 26.667 39 30s17.666 5 24.999 5c10.667 0 19.667 -1.5 27 -4.5s15.333 -7.16699 24 -12.5c9.33301 -6 17 -10.167 23 -12.5s12 -3.5 18 -3.5c5.33301 0 10.833 1.16699 16.5 3.5s14.167 9.16602 25.5 20.499l22 -22v0z" />
    <glyph glyph-name="Imacron" unicode="&#x12a;" horiz-adv-x="184" 
d="M72 0v712h40v-712h-40zM-7 789v35h200v-35h-200z" />
    <glyph glyph-name="imacron" unicode="&#x12b;" horiz-adv-x="170" 
d="M66 0v502h38v-502h-38zM-14 614v35h200v-35h-200z" />
    <glyph glyph-name="Ibreve" unicode="&#x12c;" horiz-adv-x="184" 
d="M72 0v712h40v-712h-40zM198 852c-3.33301 -32 -13 -56.5 -29 -73.5s-41.333 -25.5 -76 -25.5s-60 8.5 -76 25.5s-25.667 41.5 -29 73.5h36c3.33301 -21.333 10.333 -37.5 21 -48.5s26.667 -16.5 48 -16.5s37.333 5.5 48 16.5s17.667 27.167 21 48.5h36v0z" />
    <glyph glyph-name="ibreve" unicode="&#x12d;" horiz-adv-x="170" 
d="M66 0v502h38v-502h-38zM191 677c-3.33301 -32 -13 -56.5 -29 -73.5s-41.333 -25.5 -76 -25.5s-60 8.5 -76 25.5s-25.667 41.5 -29 73.5h36c3.33301 -21.333 10.333 -37.5 21 -48.5s26.667 -16.5 48 -16.5s37.333 5.5 48 16.5s17.667 27.167 21 48.5h36v0z" />
    <glyph glyph-name="Iogonek" unicode="&#x12e;" horiz-adv-x="184" 
d="M72 0v712h40v-712h-40zM72 -162h-45l50 126h38z" />
    <glyph glyph-name="iogonek" unicode="&#x12f;" horiz-adv-x="170" 
d="M66 0v502h38v-502h-38zM57 637v56h56v-56h-56zM64 -162h-45l50 126h38z" />
    <glyph glyph-name="Idotaccent" unicode="&#x130;" horiz-adv-x="184" 
d="M72 0v712h40v-712h-40zM68 789v50h50v-50h-50z" />
    <glyph glyph-name="dotlessi" unicode="&#x131;" horiz-adv-x="170" 
d="M66 0v502h38v-502h-38z" />
    <glyph glyph-name="IJ" unicode="&#x132;" horiz-adv-x="496" 
d="M72 0v712h40v-712h-40zM432 141c0 -48.667 -13.332 -86.3311 -39.999 -112.998c-12.667 -12.667 -27.334 -21.834 -44.001 -27.501s-33.667 -8.5 -51 -8.5c-22 0 -41.333 4.16699 -58 12.5s-31.667 20.166 -45 35.499l30 25c9.33301 -11.333 20 -20.333 32 -27
s25.667 -10 41 -10c26.667 0 49.167 9.33301 67.5 28s27.5 47 27.5 85v571h40v-571z" />
    <glyph glyph-name="ij" unicode="&#x133;" horiz-adv-x="340" 
d="M66 0v502h38v-502h-38zM57 637v56h56v-56h-56zM274 -83c0 -23.333 -3 -42.5 -9 -57.5s-14 -27.5 -24 -37.5c-12.667 -12.667 -26.834 -21.167 -42.501 -25.5s-32.167 -6.5 -49.5 -6.5v34c26.667 0 47.834 6.66699 63.501 20s23.5 37 23.5 71v587h38v-585zM227 637v56h56
v-56h-56z" />
    <glyph glyph-name="Jcircumflex" unicode="&#x134;" horiz-adv-x="312" 
d="M248 141c0 -48.667 -13.332 -86.3311 -39.999 -112.998c-12.667 -12.667 -27.334 -21.834 -44.001 -27.501s-33.667 -8.5 -51 -8.5c-22 0 -41.333 4.16699 -58 12.5s-31.667 20.166 -45 35.499l30 25c9.33301 -11.333 20 -20.333 32 -27s25.667 -10 41 -10
c26.667 0 49.167 9.33301 67.5 28s27.5 47 27.5 85v571h40v-571zM288.001 766.003l-60 95l-60 -95h-41l82 126h38l82 -126h-41z" />
    <glyph glyph-name="jcircumflex" unicode="&#x135;" horiz-adv-x="170" 
d="M104 -83c0 -23.333 -3 -42.5 -9 -57.5s-14 -27.5 -24 -37.5c-12.667 -12.667 -26.834 -21.167 -42.501 -25.5s-32.167 -6.5 -49.5 -6.5v34c26.667 0 47.834 6.66699 63.501 20s23.5 37 23.5 71v587h38v-585zM146 586l-60 95l-60 -95h-41l82 126h38l82 -126h-41z" />
    <glyph glyph-name="Kcommaaccent" unicode="&#x136;" horiz-adv-x="387" 
d="M333 0l-147 373l-74 -145v-228h-40v712h40v-406l202 406h44l-146 -293l165 -419h-44zM191 -162h-45l50 126h38z" />
    <glyph glyph-name="kcommaaccent" unicode="&#x137;" horiz-adv-x="358" 
d="M296 0l-118 281l-74 -119v-162h-38v712h38v-492l171 282h43l-116 -190l136 -312h-42zM174 -162h-45l50 126h38z" />
    <glyph glyph-name="kgreenlandic" unicode="&#x138;" horiz-adv-x="358" 
d="M296 0l-118 281l-74 -119v-162h-38v502h38v-282l171 282h43l-116 -190l136 -312h-42z" />
    <glyph glyph-name="Lacute" unicode="&#x139;" horiz-adv-x="324" 
d="M72 0v712h40v-676h190v-36h-230zM112 766h-40l63 126h47z" />
    <glyph glyph-name="lacute" unicode="&#x13a;" horiz-adv-x="200" 
d="M185 0c-17.333 0 -33.832 2.16699 -49.499 6.5s-29.834 12.833 -42.501 25.5c-10 10 -18 22.5 -24 37.5s-9 34.167 -9 57.5v585h38v-587c0 -60.667 29 -91 87 -91v-34zM99.001 761h-40l63 126h47z" />
    <glyph glyph-name="Lcommaaccent" unicode="&#x13b;" horiz-adv-x="324" 
d="M72 0v712h40v-676h190v-36h-230zM175 -162h-45l50 126h38z" />
    <glyph glyph-name="lcommaaccent" unicode="&#x13c;" horiz-adv-x="200" 
d="M185 0c-17.333 0 -33.832 2.16699 -49.499 6.5s-29.834 12.833 -42.501 25.5c-10 10 -18 22.5 -24 37.5s-9 34.167 -9 57.5v585h38v-587c0 -60.667 29 -91 87 -91v-34zM110.001 -162h-45l50 126h38z" />
    <glyph glyph-name="Lcaron" unicode="&#x13d;" horiz-adv-x="324" 
d="M214 586h-35l20 126h43zM72 0v712h40v-676h190v-36h-230z" />
    <glyph glyph-name="lcaron" unicode="&#x13e;" horiz-adv-x="200" 
d="M182 586h-35l20 126h43zM185 0c-17.333 0 -33.832 2.16699 -49.499 6.5s-29.834 12.833 -42.501 25.5c-10 10 -18 22.5 -24 37.5s-9 34.167 -9 57.5v585h38v-587c0 -60.667 29 -91 87 -91v-34z" />
    <glyph glyph-name="Ldot" unicode="&#x13f;" horiz-adv-x="324" 
d="M72 0v712h40v-676h190v-36h-230zM230 332v50h50v-50h-50z" />
    <glyph glyph-name="ldot" unicode="&#x140;" horiz-adv-x="200" 
d="M185 0c-17.333 0 -33.832 2.16699 -49.499 6.5s-29.834 12.833 -42.501 25.5c-10 10 -18 22.5 -24 37.5s-9 34.167 -9 57.5v585h38v-587c0 -60.667 29 -91 87 -91v-34zM157.001 284v50h50v-50h-50z" />
    <glyph glyph-name="Lslash" unicode="&#x141;" horiz-adv-x="324" 
d="M72 0v308l-51 -51v50l51 51v354h40v-314l95 94v-50l-95 -94v-312h190v-36h-230z" />
    <glyph glyph-name="lslash" unicode="&#x142;" horiz-adv-x="225" 
d="M205 0c-17.333 0 -33.832 2.16699 -49.499 6.5s-29.834 12.833 -42.501 25.5c-10 10 -18 22.5 -24 37.5s-9 34.167 -9 57.5v201l-65 -71v50l65 71v334h38v-293l67 73v-50l-67 -73v-244c0 -60.667 29 -91 87 -91v-34z" />
    <glyph glyph-name="Nacute" unicode="&#x143;" horiz-adv-x="438" 
d="M322 0l-210 602v-602h-40v712h44l210 -602v602h40v-712h-44zM238 766h-40l63 126h47z" />
    <glyph glyph-name="nacute" unicode="&#x144;" horiz-adv-x="357" 
d="M258 0v384c0 30.667 -7.5 53.5 -22.5 68.5s-33.167 22.5 -54.5 22.5s-39.5 -7.5 -54.5 -22.5s-22.5 -37.833 -22.5 -68.5v-384h-38v502h38v-41c2.66699 5.33301 6.66699 10.833 12 16.5s10 10.167 14 13.5c16.667 12.667 36.667 19 60 19c30 0 55 -10.667 75 -32
c10 -10 17.667 -22.5 23 -37.5s8 -34.167 8 -57.5v-383h-38zM201 586h-40l63 126h47z" />
    <glyph glyph-name="Ncommaaccent" unicode="&#x145;" horiz-adv-x="438" 
d="M322 0l-210 602v-602h-40v712h44l210 -602v602h40v-712h-44zM191 -162h-45l50 126h38z" />
    <glyph glyph-name="ncommaaccent" unicode="&#x146;" horiz-adv-x="357" 
d="M258 0v384c0 30.667 -7.5 53.5 -22.5 68.5s-33.167 22.5 -54.5 22.5s-39.5 -7.5 -54.5 -22.5s-22.5 -37.833 -22.5 -68.5v-384h-38v502h38v-41c2.66699 5.33301 6.66699 10.833 12 16.5s10 10.167 14 13.5c16.667 12.667 36.667 19 60 19c30 0 55 -10.667 75 -32
c10 -10 17.667 -22.5 23 -37.5s8 -34.167 8 -57.5v-383h-38zM166 -162h-45l50 126h38z" />
    <glyph glyph-name="Ncaron" unicode="&#x147;" horiz-adv-x="438" 
d="M322 0l-210 602v-602h-40v712h44l210 -602v602h40v-712h-44zM238 758h-38l-82 126h41l60 -95l60 95h41z" />
    <glyph glyph-name="ncaron" unicode="&#x148;" horiz-adv-x="357" 
d="M258 0v384c0 30.667 -7.5 53.5 -22.5 68.5s-33.167 22.5 -54.5 22.5s-39.5 -7.5 -54.5 -22.5s-22.5 -37.833 -22.5 -68.5v-384h-38v502h38v-41c2.66699 5.33301 6.66699 10.833 12 16.5s10 10.167 14 13.5c16.667 12.667 36.667 19 60 19c30 0 55 -10.667 75 -32
c10 -10 17.667 -22.5 23 -37.5s8 -34.167 8 -57.5v-383h-38zM201 578h-38l-82 126h41l60 -95l60 95h41z" />
    <glyph glyph-name="napostrophe" unicode="&#x149;" horiz-adv-x="357" 
d="M258 0v384c0 30.667 -7.5 53.5 -22.5 68.5s-33.167 22.5 -54.5 22.5s-39.5 -7.5 -54.5 -22.5s-22.5 -37.833 -22.5 -68.5v-384h-38v502h38v-41c2.66699 5.33301 6.66699 10.833 12 16.5s10 10.167 14 13.5c16.667 12.667 36.667 19 60 19c30 0 55 -10.667 75 -32
c10 -10 17.667 -22.5 23 -37.5s8 -34.167 8 -57.5v-383h-38zM13 576v136h42v-102z" />
    <glyph glyph-name="Eng" unicode="&#x14a;" horiz-adv-x="438" 
d="M366 -35c0 -23.333 -2.99902 -42.5 -8.99902 -57.5s-14 -27.5 -24 -37.5c-12.667 -12.667 -26.834 -21.167 -42.501 -25.5s-32.167 -6.5 -49.5 -6.5v34c25.333 0 45.833 6.66699 61.5 20s23.5 37 23.5 71v41l-214 598v-602h-40v712h44l210 -585v585h40v-747z" />
    <glyph glyph-name="eng" unicode="&#x14b;" horiz-adv-x="357" 
d="M258 384c0 30.667 -7.5 53.5 -22.5 68.5s-33.167 22.5 -54.5 22.5s-39.5 -7.5 -54.5 -22.5s-22.5 -37.833 -22.5 -68.5v-384h-38v502h38v-41c2.66699 5.33301 6.66699 10.833 12 16.5s10 10.167 14 13.5c16.667 12.667 36.667 19 60 19c30 0 55 -10.667 75 -32
c10 -10 17.667 -22.5 23 -37.5s8 -34.167 8 -57.5v-418c0 -23.333 -3 -42.5 -9 -57.5s-14 -27.5 -24 -37.5c-12.667 -12.667 -26.834 -21.167 -42.501 -25.5s-32.167 -6.5 -49.5 -6.5v34c26.667 0 47.834 6.66699 63.501 20s23.5 37 23.5 71v421z" />
    <glyph glyph-name="Omacron" unicode="&#x14c;" horiz-adv-x="406" 
d="M348 356c0 -61.333 -0.666992 -111 -2 -149s-3.83301 -68.5 -7.5 -91.5s-8.66699 -40.833 -15 -53.5s-14.833 -24.334 -25.5 -35.001c-11.333 -11.333 -25.166 -20 -41.499 -26s-34.166 -9 -53.499 -9s-37.166 3 -53.499 9s-30.166 14.667 -41.499 26
c-10.667 10.667 -19.167 22.334 -25.5 35.001s-11.333 30.5 -15 53.5s-6.16699 53.5 -7.5 91.5s-2 87.667 -2 149s0.666992 111 2 149s3.83301 68.5 7.5 91.5s8.66699 40.833 15 53.5s14.833 24.334 25.5 35.001c11.333 11.333 25.166 20 41.499 26s34.166 9 53.499 9
s37.166 -3 53.499 -9s30.166 -14.667 41.499 -26c10.667 -10.667 19.167 -22.334 25.5 -35.001s11.333 -30.5 15 -53.5s6.16699 -53.5 7.5 -91.5s2 -87.667 2 -149zM308 356c0 59.333 -0.5 106.833 -1.5 142.5s-2.83301 64 -5.5 85s-6.5 36.667 -11.5 47
s-11.5 19.833 -19.5 28.5c-15.333 16.667 -37.666 25 -66.999 25s-51.666 -8.33301 -66.999 -25c-8 -8.66699 -14.5 -18.167 -19.5 -28.5s-8.83301 -26 -11.5 -47s-4.5 -49.333 -5.5 -85s-1.5 -83.167 -1.5 -142.5s0.5 -106.833 1.5 -142.5s2.83301 -64 5.5 -85
s6.5 -36.667 11.5 -47s11.5 -19.833 19.5 -28.5c15.333 -16.667 37.666 -25 66.999 -25s51.666 8.33301 66.999 25c8 8.66699 14.5 18.167 19.5 28.5s8.83301 26 11.5 47s4.5 49.333 5.5 85s1.5 83.167 1.5 142.5zM103 789v35h200v-35h-200z" />
    <glyph glyph-name="omacron" unicode="&#x14d;" 
d="M290 251c0 -32.667 -0.5 -61.167 -1.5 -85.5s-3 -45.333 -6 -63s-7 -32.667 -12 -45s-11.167 -22.5 -18.5 -30.5c-9.33301 -10.667 -20.833 -19.167 -34.5 -25.5s-29.834 -9.5 -48.501 -9.5s-34.834 3.16699 -48.501 9.5s-25.167 14.833 -34.5 25.5
c-7.33301 8 -13.5 18.167 -18.5 30.5s-9 27.333 -12 45s-5 38.667 -6 63s-1.5 52.833 -1.5 85.5s0.5 61.167 1.5 85.5s3 45.333 6 63s7 32.667 12 45s11.167 22.5 18.5 30.5c9.33301 10.667 20.833 19.167 34.5 25.5s29.834 9.5 48.501 9.5s34.834 -3.16699 48.501 -9.5
s25.167 -14.833 34.5 -25.5c7.33301 -8 13.5 -18.167 18.5 -30.5s9 -27.333 12 -45s5 -38.667 6 -63s1.5 -52.833 1.5 -85.5zM252 251c0 30 -0.333008 56 -1 78s-2 41 -4 57s-4.83301 29.333 -8.5 40s-8.83398 19.667 -15.501 27c-6 6.66699 -13.5 12.167 -22.5 16.5
s-19.5 6.5 -31.5 6.5s-22.5 -2.16699 -31.5 -6.5s-16.5 -9.83301 -22.5 -16.5c-6.66699 -7.33301 -11.834 -16.333 -15.501 -27s-6.5 -24 -8.5 -40s-3.33301 -35 -4 -57s-1 -48 -1 -78s0.333008 -56 1 -78s2 -41 4 -57s4.83301 -29.333 8.5 -40s8.83398 -19.667 15.501 -27
c6 -6.66699 13.5 -12.167 22.5 -16.5s19.5 -6.5 31.5 -6.5s22.5 2.16699 31.5 6.5s16.5 9.83301 22.5 16.5c6.66699 7.33301 11.834 16.333 15.501 27s6.5 24 8.5 40s3.33301 35 4 57s1 48 1 78zM69 614v35h200v-35h-200z" />
    <glyph glyph-name="Obreve" unicode="&#x14e;" horiz-adv-x="406" 
d="M348 356c0 -61.333 -0.666992 -111 -2 -149s-3.83301 -68.5 -7.5 -91.5s-8.66699 -40.833 -15 -53.5s-14.833 -24.334 -25.5 -35.001c-11.333 -11.333 -25.166 -20 -41.499 -26s-34.166 -9 -53.499 -9s-37.166 3 -53.499 9s-30.166 14.667 -41.499 26
c-10.667 10.667 -19.167 22.334 -25.5 35.001s-11.333 30.5 -15 53.5s-6.16699 53.5 -7.5 91.5s-2 87.667 -2 149s0.666992 111 2 149s3.83301 68.5 7.5 91.5s8.66699 40.833 15 53.5s14.833 24.334 25.5 35.001c11.333 11.333 25.166 20 41.499 26s34.166 9 53.499 9
s37.166 -3 53.499 -9s30.166 -14.667 41.499 -26c10.667 -10.667 19.167 -22.334 25.5 -35.001s11.333 -30.5 15 -53.5s6.16699 -53.5 7.5 -91.5s2 -87.667 2 -149zM308 356c0 59.333 -0.5 106.833 -1.5 142.5s-2.83301 64 -5.5 85s-6.5 36.667 -11.5 47
s-11.5 19.833 -19.5 28.5c-15.333 16.667 -37.666 25 -66.999 25s-51.666 -8.33301 -66.999 -25c-8 -8.66699 -14.5 -18.167 -19.5 -28.5s-8.83301 -26 -11.5 -47s-4.5 -49.333 -5.5 -85s-1.5 -83.167 -1.5 -142.5s0.5 -106.833 1.5 -142.5s2.83301 -64 5.5 -85
s6.5 -36.667 11.5 -47s11.5 -19.833 19.5 -28.5c15.333 -16.667 37.666 -25 66.999 -25s51.666 8.33301 66.999 25c8 8.66699 14.5 18.167 19.5 28.5s8.83301 26 11.5 47s4.5 49.333 5.5 85s1.5 83.167 1.5 142.5zM308 852c-3.33301 -32 -13 -56.5 -29 -73.5
s-41.333 -25.5 -76 -25.5s-60 8.5 -76 25.5s-25.667 41.5 -29 73.5h36c3.33301 -21.333 10.333 -37.5 21 -48.5s26.667 -16.5 48 -16.5s37.333 5.5 48 16.5s17.667 27.167 21 48.5h36v0z" />
    <glyph glyph-name="obreve" unicode="&#x14f;" 
d="M290 251c0 -32.667 -0.5 -61.167 -1.5 -85.5s-3 -45.333 -6 -63s-7 -32.667 -12 -45s-11.167 -22.5 -18.5 -30.5c-9.33301 -10.667 -20.833 -19.167 -34.5 -25.5s-29.834 -9.5 -48.501 -9.5s-34.834 3.16699 -48.501 9.5s-25.167 14.833 -34.5 25.5
c-7.33301 8 -13.5 18.167 -18.5 30.5s-9 27.333 -12 45s-5 38.667 -6 63s-1.5 52.833 -1.5 85.5s0.5 61.167 1.5 85.5s3 45.333 6 63s7 32.667 12 45s11.167 22.5 18.5 30.5c9.33301 10.667 20.833 19.167 34.5 25.5s29.834 9.5 48.501 9.5s34.834 -3.16699 48.501 -9.5
s25.167 -14.833 34.5 -25.5c7.33301 -8 13.5 -18.167 18.5 -30.5s9 -27.333 12 -45s5 -38.667 6 -63s1.5 -52.833 1.5 -85.5zM252 251c0 30 -0.333008 56 -1 78s-2 41 -4 57s-4.83301 29.333 -8.5 40s-8.83398 19.667 -15.501 27c-6 6.66699 -13.5 12.167 -22.5 16.5
s-19.5 6.5 -31.5 6.5s-22.5 -2.16699 -31.5 -6.5s-16.5 -9.83301 -22.5 -16.5c-6.66699 -7.33301 -11.834 -16.333 -15.501 -27s-6.5 -24 -8.5 -40s-3.33301 -35 -4 -57s-1 -48 -1 -78s0.333008 -56 1 -78s2 -41 4 -57s4.83301 -29.333 8.5 -40s8.83398 -19.667 15.501 -27
c6 -6.66699 13.5 -12.167 22.5 -16.5s19.5 -6.5 31.5 -6.5s22.5 2.16699 31.5 6.5s16.5 9.83301 22.5 16.5c6.66699 7.33301 11.834 16.333 15.501 27s6.5 24 8.5 40s3.33301 35 4 57s1 48 1 78zM274 677c-3.33301 -32 -13 -56.5 -29 -73.5s-41.333 -25.5 -76 -25.5
s-60 8.5 -76 25.5s-25.667 41.5 -29 73.5h36c3.33301 -21.333 10.333 -37.5 21 -48.5s26.667 -16.5 48 -16.5s37.333 5.5 48 16.5s17.667 27.167 21 48.5h36v0z" />
    <glyph glyph-name="Ohungarumlaut" unicode="&#x150;" horiz-adv-x="406" 
d="M348 356c0 -61.333 -0.666992 -111 -2 -149s-3.83301 -68.5 -7.5 -91.5s-8.66699 -40.833 -15 -53.5s-14.833 -24.334 -25.5 -35.001c-11.333 -11.333 -25.166 -20 -41.499 -26s-34.166 -9 -53.499 -9s-37.166 3 -53.499 9s-30.166 14.667 -41.499 26
c-10.667 10.667 -19.167 22.334 -25.5 35.001s-11.333 30.5 -15 53.5s-6.16699 53.5 -7.5 91.5s-2 87.667 -2 149s0.666992 111 2 149s3.83301 68.5 7.5 91.5s8.66699 40.833 15 53.5s14.833 24.334 25.5 35.001c11.333 11.333 25.166 20 41.499 26s34.166 9 53.499 9
s37.166 -3 53.499 -9s30.166 -14.667 41.499 -26c10.667 -10.667 19.167 -22.334 25.5 -35.001s11.333 -30.5 15 -53.5s6.16699 -53.5 7.5 -91.5s2 -87.667 2 -149zM308 356c0 59.333 -0.5 106.833 -1.5 142.5s-2.83301 64 -5.5 85s-6.5 36.667 -11.5 47
s-11.5 19.833 -19.5 28.5c-15.333 16.667 -37.666 25 -66.999 25s-51.666 -8.33301 -66.999 -25c-8 -8.66699 -14.5 -18.167 -19.5 -28.5s-8.83301 -26 -11.5 -47s-4.5 -49.333 -5.5 -85s-1.5 -83.167 -1.5 -142.5s0.5 -106.833 1.5 -142.5s2.83301 -64 5.5 -85
s6.5 -36.667 11.5 -47s11.5 -19.833 19.5 -28.5c15.333 -16.667 37.666 -25 66.999 -25s51.666 8.33301 66.999 25c8 8.66699 14.5 18.167 19.5 28.5s8.83301 26 11.5 47s4.5 49.333 5.5 85s1.5 83.167 1.5 142.5zM283 766h-40l63 126h47zM165 766h-40l63 126h47z" />
    <glyph glyph-name="ohungarumlaut" unicode="&#x151;" 
d="M290 251c0 -32.667 -0.5 -61.167 -1.5 -85.5s-3 -45.333 -6 -63s-7 -32.667 -12 -45s-11.167 -22.5 -18.5 -30.5c-9.33301 -10.667 -20.833 -19.167 -34.5 -25.5s-29.834 -9.5 -48.501 -9.5s-34.834 3.16699 -48.501 9.5s-25.167 14.833 -34.5 25.5
c-7.33301 8 -13.5 18.167 -18.5 30.5s-9 27.333 -12 45s-5 38.667 -6 63s-1.5 52.833 -1.5 85.5s0.5 61.167 1.5 85.5s3 45.333 6 63s7 32.667 12 45s11.167 22.5 18.5 30.5c9.33301 10.667 20.833 19.167 34.5 25.5s29.834 9.5 48.501 9.5s34.834 -3.16699 48.501 -9.5
s25.167 -14.833 34.5 -25.5c7.33301 -8 13.5 -18.167 18.5 -30.5s9 -27.333 12 -45s5 -38.667 6 -63s1.5 -52.833 1.5 -85.5zM252 251c0 30 -0.333008 56 -1 78s-2 41 -4 57s-4.83301 29.333 -8.5 40s-8.83398 19.667 -15.501 27c-6 6.66699 -13.5 12.167 -22.5 16.5
s-19.5 6.5 -31.5 6.5s-22.5 -2.16699 -31.5 -6.5s-16.5 -9.83301 -22.5 -16.5c-6.66699 -7.33301 -11.834 -16.333 -15.501 -27s-6.5 -24 -8.5 -40s-3.33301 -35 -4 -57s-1 -48 -1 -78s0.333008 -56 1 -78s2 -41 4 -57s4.83301 -29.333 8.5 -40s8.83398 -19.667 15.501 -27
c6 -6.66699 13.5 -12.167 22.5 -16.5s19.5 -6.5 31.5 -6.5s22.5 2.16699 31.5 6.5s16.5 9.83301 22.5 16.5c6.66699 7.33301 11.834 16.333 15.501 27s6.5 24 8.5 40s3.33301 35 4 57s1 48 1 78zM247 586h-40l63 126h47zM129 586h-40l63 126h47z" />
    <glyph glyph-name="OE" unicode="&#x152;" horiz-adv-x="588" 
d="M308 0v43.998c-22 -34.667 -57 -52 -105 -52c-19.333 0 -37.166 3 -53.499 9s-30.166 14.667 -41.499 26c-10.667 10.667 -19.167 22.334 -25.5 35.001s-11.333 30.5 -15 53.5s-6.16699 53.5 -7.5 91.5s-2 87.667 -2 149s0.666992 111 2 149s3.83301 68.5 7.5 91.5
s8.66699 40.833 15 53.5s14.833 24.334 25.5 35.001c11.333 11.333 25.166 20 41.499 26s34.166 9 53.499 9c48 0 83 -17.333 105 -52v44h230v-36h-190v-302h164v-36h-164v-302h190v-36h-230zM308 355.998c0 59.333 -0.5 106.833 -1.5 142.5s-2.83301 64 -5.5 85
s-6.5 36.667 -11.5 47s-11.5 19.833 -19.5 28.5c-15.333 16.667 -37.666 25 -66.999 25s-51.666 -8.33301 -66.999 -25c-8 -8.66699 -14.5 -18.167 -19.5 -28.5s-8.83301 -26 -11.5 -47s-4.5 -49.333 -5.5 -85s-1.5 -83.167 -1.5 -142.5s0.5 -106.833 1.5 -142.5
s2.83301 -64 5.5 -85s6.5 -36.667 11.5 -47s11.5 -19.833 19.5 -28.5c15.333 -16.667 37.666 -25 66.999 -25s51.666 8.33301 66.999 25c8 8.66699 14.5 18.167 19.5 28.5s8.83301 26 11.5 47s4.5 49.333 5.5 85s1.5 83.167 1.5 142.5z" />
    <glyph glyph-name="oe" unicode="&#x153;" horiz-adv-x="539" 
d="M290 251c0 -30 0.331055 -56.001 0.998047 -78.001s2 -41 4 -57s5 -29.333 9 -40s9.33301 -19.667 16 -27c6 -6.66699 13.667 -12.167 23 -16.5s20 -6.5 32 -6.5c10 0 19.833 1.5 29.5 4.5s18.167 8.16699 25.5 15.5c17.333 16.667 26 43.667 26 81h37
c0 -25.333 -2.83301 -45.666 -8.5 -60.999s-14.5 -29.333 -26.5 -42c-10.667 -10.667 -23.167 -18.667 -37.5 -24s-29.5 -8 -45.5 -8c-18.667 0 -35 3.16699 -49 9.5s-25.667 14.833 -35 25.5c-7.33301 8.66699 -14 19.667 -20 33c-4.66699 -12.667 -11 -23.667 -19 -33
c-9.33301 -10.667 -20.833 -19.167 -34.5 -25.5s-29.834 -9.5 -48.501 -9.5s-34.834 3.16699 -48.501 9.5s-25.167 14.833 -34.5 25.5c-7.33301 8 -13.5 18.167 -18.5 30.5s-9 27.333 -12 45s-5 38.667 -6 63s-1.5 52.833 -1.5 85.5s0.5 61.167 1.5 85.5s3 45.333 6 63
s7 32.667 12 45s11.167 22.5 18.5 30.5c9.33301 10.667 20.833 19.167 34.5 25.5s29.834 9.5 48.501 9.5s34.834 -3.16699 48.501 -9.5s25.167 -14.833 34.5 -25.5c8 -8.66699 14.333 -19.334 19 -32.001c4.66699 12.667 11 23.334 19 32.001
c9.33301 10.667 20.833 19.167 34.5 25.5s29.834 9.5 48.501 9.5s34.834 -3.16699 48.501 -9.5s25.167 -14.833 34.5 -25.5c7.33301 -8 13.5 -18.167 18.5 -30.5s9 -27.333 12 -45s5 -38.667 6 -63s1.5 -52.833 1.5 -85.5h-204zM251.998 250.999c0 30 -0.333008 56 -1 78
s-2 41 -4 57s-4.83301 29.333 -8.5 40s-8.83398 19.667 -15.501 27c-6 6.66699 -13.5 12.167 -22.5 16.5s-19.5 6.5 -31.5 6.5s-22.5 -2.16699 -31.5 -6.5s-16.5 -9.83301 -22.5 -16.5c-6.66699 -7.33301 -11.834 -16.333 -15.501 -27s-6.5 -24 -8.5 -40
s-3.33301 -35 -4 -57s-1 -48 -1 -78s0.333008 -56 1 -78s2 -41 4 -57s4.83301 -29.333 8.5 -40s8.83398 -19.667 15.501 -27c6 -6.66699 13.5 -12.167 22.5 -16.5s19.5 -6.5 31.5 -6.5s22.5 2.16699 31.5 6.5s16.5 9.83301 22.5 16.5
c6.66699 7.33301 11.834 16.333 15.501 27s6.5 24 8.5 40s3.33301 35 4 57s1 48 1 78zM455.998 282.999c0 24.667 -0.5 46.167 -1.5 64.5s-2.5 34.166 -4.5 47.499s-4.83301 24.666 -8.5 33.999s-8.5 17.333 -14.5 24s-13.5 12.167 -22.5 16.5s-19.5 6.5 -31.5 6.5
s-22.5 -2.16699 -31.5 -6.5s-16.5 -9.83301 -22.5 -16.5s-10.833 -14.667 -14.5 -24s-6.5 -20.666 -8.5 -33.999s-3.5 -29.166 -4.5 -47.499s-1.5 -39.833 -1.5 -64.5h166z" />
    <glyph glyph-name="Racute" unicode="&#x154;" horiz-adv-x="415" 
d="M321 0l-106.999 328.997h-102v-329h-40v712h126c17.333 0 34.666 -1.83301 51.999 -5.5s32.833 -12.167 46.5 -25.5s24.667 -32.666 33 -57.999s12.5 -59.666 12.5 -102.999c0 -29.333 -2 -54.666 -6 -75.999s-10 -39.333 -18 -54s-17.5 -26.5 -28.5 -35.5
s-23.5 -15.5 -37.5 -19.5l113 -335h-44zM302.001 519.997c0 52 -7.33301 91 -22 117s-41 39 -79 39h-89v-312h89c38 0 64.333 13 79 39s22 65 22 117zM211.001 765.997h-40l63 126h47z" />
    <glyph glyph-name="racute" unicode="&#x155;" horiz-adv-x="225" 
d="M206 476c-32 0 -57.001 -9.00195 -75.001 -27.002s-27 -43 -27 -75v-374h-38v502h38v-53c1.33301 4.66699 3.83301 9.83398 7.5 15.501s6.83398 9.83398 9.50098 12.501c11.333 12 24.5 20.5 39.5 25.5s31.5 7.5 49.5 7.5v-34h-4zM140.999 585.998h-40l63 126h47z" />
    <glyph glyph-name="Rcommaaccent" unicode="&#x156;" horiz-adv-x="415" 
d="M321 0l-106.999 328.997h-102v-329h-40v712h126c17.333 0 34.666 -1.83301 51.999 -5.5s32.833 -12.167 46.5 -25.5s24.667 -32.666 33 -57.999s12.5 -59.666 12.5 -102.999c0 -29.333 -2 -54.666 -6 -75.999s-10 -39.333 -18 -54s-17.5 -26.5 -28.5 -35.5
s-23.5 -15.5 -37.5 -19.5l113 -335h-44zM302.001 519.997c0 52 -7.33301 91 -22 117s-41 39 -79 39h-89v-312h89c38 0 64.333 13 79 39s22 65 22 117zM187.001 -162.003h-45l50 126h38z" />
    <glyph glyph-name="rcommaaccent" unicode="&#x157;" horiz-adv-x="225" 
d="M206 476c-32 0 -57.001 -9.00195 -75.001 -27.002s-27 -43 -27 -75v-374h-38v502h38v-53c1.33301 4.66699 3.83301 9.83398 7.5 15.501s6.83398 9.83398 9.50098 12.501c11.333 12 24.5 20.5 39.5 25.5s31.5 7.5 49.5 7.5v-34h-4zM61.999 -162.002h-45l50 126h38z" />
    <glyph glyph-name="Rcaron" unicode="&#x158;" horiz-adv-x="415" 
d="M321 0l-106.999 328.997h-102v-329h-40v712h126c17.333 0 34.666 -1.83301 51.999 -5.5s32.833 -12.167 46.5 -25.5s24.667 -32.666 33 -57.999s12.5 -59.666 12.5 -102.999c0 -29.333 -2 -54.666 -6 -75.999s-10 -39.333 -18 -54s-17.5 -26.5 -28.5 -35.5
s-23.5 -15.5 -37.5 -19.5l113 -335h-44zM302.001 519.997c0 52 -7.33301 91 -22 117s-41 39 -79 39h-89v-312h89c38 0 64.333 13 79 39s22 65 22 117zM211.001 757.997h-38l-82 126h41l60 -95l60 95h41z" />
    <glyph glyph-name="rcaron" unicode="&#x159;" horiz-adv-x="225" 
d="M206 476c-32 0 -57.001 -9.00195 -75.001 -27.002s-27 -43 -27 -75v-374h-38v502h38v-53c1.33301 4.66699 3.83301 9.83398 7.5 15.501s6.83398 9.83398 9.50098 12.501c11.333 12 24.5 20.5 39.5 25.5s31.5 7.5 49.5 7.5v-34h-4zM140.999 577.998h-38l-82 126h41l60 -95
l60 95h41z" />
    <glyph glyph-name="Sacute" unicode="&#x15a;" horiz-adv-x="380" 
d="M331 182c0 -38 -3.50293 -69.0039 -10.5029 -93.0039s-18.167 -44 -33.5 -60c-11.333 -11.333 -25.166 -20 -41.499 -26s-36.166 -9 -59.499 -9c-21.333 0 -40.5 2.66699 -57.5 8s-31.833 14.333 -44.5 27c-8 8 -14.5 16.333 -19.5 25s-9.16699 18.5 -12.5 29.5
s-5.66602 23.667 -6.99902 38s-2 31.5 -2 51.5h40c0 -30.667 2.16699 -54.667 6.5 -72s12.5 -32 24.5 -44c17.333 -17.333 41.333 -26 72 -26c17.333 0 32 2.33301 44 7s21.667 11 29 19c13.333 13.333 22 29.5 26 48.5s6 44.167 6 75.5c0 23.333 -1.16699 43.333 -3.5 60
s-6.33301 31 -12 43s-13.5 22.167 -23.5 30.5s-23 15.833 -39 22.5l-73 30c-18 7.33301 -33 15.833 -45 25.5s-21.5 21.167 -28.5 34.5s-11.833 29.5 -14.5 48.5s-4 41.833 -4 68.5c0 61.333 15 107 45 137c24.667 24.667 57.334 37 98.001 37c42 0 75.333 -12.333 100 -37
c17.333 -17.333 28.333 -36.166 33 -56.499s7 -45.5 7 -75.5h-40c0 24.667 -2.16699 45 -6.5 61s-12.166 30.667 -23.499 44c-16.667 18.667 -40.334 28 -71.001 28c-15.333 0 -28.333 -2.16699 -39 -6.5s-20 -10.166 -28 -17.499c-12.667 -12 -21.667 -27.833 -27 -47.5
s-8 -41.5 -8 -65.5c0 -22.667 1 -41.667 3 -57s6 -28.5 12 -39.5s14.333 -20.333 25 -28s25 -15.167 43 -22.5l73 -30c18.667 -7.33301 33.667 -16.666 45 -27.999s20.166 -24.666 26.499 -39.999s10.5 -32.833 12.5 -52.5s3 -41.5 3 -65.5zM210.997 765.996h-40l63 126h47z
" />
    <glyph glyph-name="sacute" unicode="&#x15b;" horiz-adv-x="320" 
d="M285 122c0 -18 -3.33301 -35.166 -10 -51.499s-15.667 -30.166 -27 -41.499s-24.666 -20.333 -39.999 -27s-32.333 -10 -51 -10c-18 0 -34 3 -48 9s-26.333 14.333 -37 25c-14.667 14.667 -24.5 31 -29.5 49s-7.5 37.333 -7.5 58h38c0 -18 2 -33.833 6 -47.5
s11.667 -26.167 23 -37.5c7.33301 -7.33301 15.833 -12.833 25.5 -16.5s19.5 -5.5 29.5 -5.5c26 0 47.333 8.33301 64 25c8 8.66699 14.333 18.834 19 30.501s7 25.167 7 40.5c0 24 -5 44.333 -15 61c-5.33301 9.33301 -12.666 17.833 -21.999 25.5s-20.333 15.167 -33 22.5
l-61 37c-15.333 9.33301 -28.333 19.333 -39 30s-18.334 20.334 -23.001 29.001c-5.33301 9.33301 -8.83301 19 -10.5 29s-2.5 21 -2.5 33c0 17.333 3.33301 33.666 10 48.999s15.667 28.666 27 39.999c10.667 10 23 17.833 37 23.5s29.333 8.5 46 8.5
c34.667 0 62.667 -10.667 84 -32c12.667 -12.667 21.5 -27.667 26.5 -45s7.5 -38 7.5 -62h-38c0 21.333 -1.83301 38.166 -5.5 50.499s-10.167 23.166 -19.5 32.499c-7.33301 8 -15.833 13.667 -25.5 17s-19.5 5 -29.5 5c-24 0 -43 -7 -57 -21
c-9.33301 -8.66699 -15.833 -19 -19.5 -31s-5.5 -23.667 -5.5 -35c0 -20 3.66699 -36.333 11 -49c7.33301 -12 23.666 -26 48.999 -42l61 -37c15.333 -9.33301 28.5 -19 39.5 -29s19.833 -20.667 26.5 -32c7.33301 -11.333 12.333 -23.833 15 -37.5s4 -27.167 4 -40.5z
M185 586.001h-40l63 126h47z" />
    <glyph glyph-name="Scircumflex" unicode="&#x15c;" horiz-adv-x="380" 
d="M331 182c0 -38 -3.50293 -69.0039 -10.5029 -93.0039s-18.167 -44 -33.5 -60c-11.333 -11.333 -25.166 -20 -41.499 -26s-36.166 -9 -59.499 -9c-21.333 0 -40.5 2.66699 -57.5 8s-31.833 14.333 -44.5 27c-8 8 -14.5 16.333 -19.5 25s-9.16699 18.5 -12.5 29.5
s-5.66602 23.667 -6.99902 38s-2 31.5 -2 51.5h40c0 -30.667 2.16699 -54.667 6.5 -72s12.5 -32 24.5 -44c17.333 -17.333 41.333 -26 72 -26c17.333 0 32 2.33301 44 7s21.667 11 29 19c13.333 13.333 22 29.5 26 48.5s6 44.167 6 75.5c0 23.333 -1.16699 43.333 -3.5 60
s-6.33301 31 -12 43s-13.5 22.167 -23.5 30.5s-23 15.833 -39 22.5l-73 30c-18 7.33301 -33 15.833 -45 25.5s-21.5 21.167 -28.5 34.5s-11.833 29.5 -14.5 48.5s-4 41.833 -4 68.5c0 61.333 15 107 45 137c24.667 24.667 57.334 37 98.001 37c42 0 75.333 -12.333 100 -37
c17.333 -17.333 28.333 -36.166 33 -56.499s7 -45.5 7 -75.5h-40c0 24.667 -2.16699 45 -6.5 61s-12.166 30.667 -23.499 44c-16.667 18.667 -40.334 28 -71.001 28c-15.333 0 -28.333 -2.16699 -39 -6.5s-20 -10.166 -28 -17.499c-12.667 -12 -21.667 -27.833 -27 -47.5
s-8 -41.5 -8 -65.5c0 -22.667 1 -41.667 3 -57s6 -28.5 12 -39.5s14.333 -20.333 25 -28s25 -15.167 43 -22.5l73 -30c18.667 -7.33301 33.667 -16.666 45 -27.999s20.166 -24.666 26.499 -39.999s10.5 -32.833 12.5 -52.5s3 -41.5 3 -65.5zM252.997 765.996l-60 95l-60 -95
h-41l82 126h38l82 -126h-41z" />
    <glyph glyph-name="scircumflex" unicode="&#x15d;" horiz-adv-x="320" 
d="M285 122c0 -18 -3.33301 -35.166 -10 -51.499s-15.667 -30.166 -27 -41.499s-24.666 -20.333 -39.999 -27s-32.333 -10 -51 -10c-18 0 -34 3 -48 9s-26.333 14.333 -37 25c-14.667 14.667 -24.5 31 -29.5 49s-7.5 37.333 -7.5 58h38c0 -18 2 -33.833 6 -47.5
s11.667 -26.167 23 -37.5c7.33301 -7.33301 15.833 -12.833 25.5 -16.5s19.5 -5.5 29.5 -5.5c26 0 47.333 8.33301 64 25c8 8.66699 14.333 18.834 19 30.501s7 25.167 7 40.5c0 24 -5 44.333 -15 61c-5.33301 9.33301 -12.666 17.833 -21.999 25.5s-20.333 15.167 -33 22.5
l-61 37c-15.333 9.33301 -28.333 19.333 -39 30s-18.334 20.334 -23.001 29.001c-5.33301 9.33301 -8.83301 19 -10.5 29s-2.5 21 -2.5 33c0 17.333 3.33301 33.666 10 48.999s15.667 28.666 27 39.999c10.667 10 23 17.833 37 23.5s29.333 8.5 46 8.5
c34.667 0 62.667 -10.667 84 -32c12.667 -12.667 21.5 -27.667 26.5 -45s7.5 -38 7.5 -62h-38c0 21.333 -1.83301 38.166 -5.5 50.499s-10.167 23.166 -19.5 32.499c-7.33301 8 -15.833 13.667 -25.5 17s-19.5 5 -29.5 5c-24 0 -43 -7 -57 -21
c-9.33301 -8.66699 -15.833 -19 -19.5 -31s-5.5 -23.667 -5.5 -35c0 -20 3.66699 -36.333 11 -49c7.33301 -12 23.666 -26 48.999 -42l61 -37c15.333 -9.33301 28.5 -19 39.5 -29s19.833 -20.667 26.5 -32c7.33301 -11.333 12.333 -23.833 15 -37.5s4 -27.167 4 -40.5z
M226 586.001l-60 95l-60 -95h-41l82 126h38l82 -126h-41z" />
    <glyph glyph-name="Scedilla" unicode="&#x15e;" horiz-adv-x="380" 
d="M331 182c0 -38 -3.50293 -69.0039 -10.5029 -93.0039s-18.167 -44 -33.5 -60c-11.333 -11.333 -25.166 -20 -41.499 -26s-36.166 -9 -59.499 -9c-21.333 0 -40.5 2.66699 -57.5 8s-31.833 14.333 -44.5 27c-8 8 -14.5 16.333 -19.5 25s-9.16699 18.5 -12.5 29.5
s-5.66602 23.667 -6.99902 38s-2 31.5 -2 51.5h40c0 -30.667 2.16699 -54.667 6.5 -72s12.5 -32 24.5 -44c17.333 -17.333 41.333 -26 72 -26c17.333 0 32 2.33301 44 7s21.667 11 29 19c13.333 13.333 22 29.5 26 48.5s6 44.167 6 75.5c0 23.333 -1.16699 43.333 -3.5 60
s-6.33301 31 -12 43s-13.5 22.167 -23.5 30.5s-23 15.833 -39 22.5l-73 30c-18 7.33301 -33 15.833 -45 25.5s-21.5 21.167 -28.5 34.5s-11.833 29.5 -14.5 48.5s-4 41.833 -4 68.5c0 61.333 15 107 45 137c24.667 24.667 57.334 37 98.001 37c42 0 75.333 -12.333 100 -37
c17.333 -17.333 28.333 -36.166 33 -56.499s7 -45.5 7 -75.5h-40c0 24.667 -2.16699 45 -6.5 61s-12.166 30.667 -23.499 44c-16.667 18.667 -40.334 28 -71.001 28c-15.333 0 -28.333 -2.16699 -39 -6.5s-20 -10.166 -28 -17.499c-12.667 -12 -21.667 -27.833 -27 -47.5
s-8 -41.5 -8 -65.5c0 -22.667 1 -41.667 3 -57s6 -28.5 12 -39.5s14.333 -20.333 25 -28s25 -15.167 43 -22.5l73 -30c18.667 -7.33301 33.667 -16.666 45 -27.999s20.166 -24.666 26.499 -39.999s10.5 -32.833 12.5 -52.5s3 -41.5 3 -65.5zM161.997 -162.004h-45l50 126h38
z" />
    <glyph glyph-name="scedilla" unicode="&#x15f;" horiz-adv-x="320" 
d="M285 122c0 -18 -3.33301 -35.166 -10 -51.499s-15.667 -30.166 -27 -41.499s-24.666 -20.333 -39.999 -27s-32.333 -10 -51 -10c-18 0 -34 3 -48 9s-26.333 14.333 -37 25c-14.667 14.667 -24.5 31 -29.5 49s-7.5 37.333 -7.5 58h38c0 -18 2 -33.833 6 -47.5
s11.667 -26.167 23 -37.5c7.33301 -7.33301 15.833 -12.833 25.5 -16.5s19.5 -5.5 29.5 -5.5c26 0 47.333 8.33301 64 25c8 8.66699 14.333 18.834 19 30.501s7 25.167 7 40.5c0 24 -5 44.333 -15 61c-5.33301 9.33301 -12.666 17.833 -21.999 25.5s-20.333 15.167 -33 22.5
l-61 37c-15.333 9.33301 -28.333 19.333 -39 30s-18.334 20.334 -23.001 29.001c-5.33301 9.33301 -8.83301 19 -10.5 29s-2.5 21 -2.5 33c0 17.333 3.33301 33.666 10 48.999s15.667 28.666 27 39.999c10.667 10 23 17.833 37 23.5s29.333 8.5 46 8.5
c34.667 0 62.667 -10.667 84 -32c12.667 -12.667 21.5 -27.667 26.5 -45s7.5 -38 7.5 -62h-38c0 21.333 -1.83301 38.166 -5.5 50.499s-10.167 23.166 -19.5 32.499c-7.33301 8 -15.833 13.667 -25.5 17s-19.5 5 -29.5 5c-24 0 -43 -7 -57 -21
c-9.33301 -8.66699 -15.833 -19 -19.5 -31s-5.5 -23.667 -5.5 -35c0 -20 3.66699 -36.333 11 -49c7.33301 -12 23.666 -26 48.999 -42l61 -37c15.333 -9.33301 28.5 -19 39.5 -29s19.833 -20.667 26.5 -32c7.33301 -11.333 12.333 -23.833 15 -37.5s4 -27.167 4 -40.5z
M134 -161.999h-45l50 126h38z" />
    <glyph glyph-name="Scaron" unicode="&#x160;" horiz-adv-x="380" 
d="M331 182c0 -38 -3.50293 -69.0039 -10.5029 -93.0039s-18.167 -44 -33.5 -60c-11.333 -11.333 -25.166 -20 -41.499 -26s-36.166 -9 -59.499 -9c-21.333 0 -40.5 2.66699 -57.5 8s-31.833 14.333 -44.5 27c-8 8 -14.5 16.333 -19.5 25s-9.16699 18.5 -12.5 29.5
s-5.66602 23.667 -6.99902 38s-2 31.5 -2 51.5h40c0 -30.667 2.16699 -54.667 6.5 -72s12.5 -32 24.5 -44c17.333 -17.333 41.333 -26 72 -26c17.333 0 32 2.33301 44 7s21.667 11 29 19c13.333 13.333 22 29.5 26 48.5s6 44.167 6 75.5c0 23.333 -1.16699 43.333 -3.5 60
s-6.33301 31 -12 43s-13.5 22.167 -23.5 30.5s-23 15.833 -39 22.5l-73 30c-18 7.33301 -33 15.833 -45 25.5s-21.5 21.167 -28.5 34.5s-11.833 29.5 -14.5 48.5s-4 41.833 -4 68.5c0 61.333 15 107 45 137c24.667 24.667 57.334 37 98.001 37c42 0 75.333 -12.333 100 -37
c17.333 -17.333 28.333 -36.166 33 -56.499s7 -45.5 7 -75.5h-40c0 24.667 -2.16699 45 -6.5 61s-12.166 30.667 -23.499 44c-16.667 18.667 -40.334 28 -71.001 28c-15.333 0 -28.333 -2.16699 -39 -6.5s-20 -10.166 -28 -17.499c-12.667 -12 -21.667 -27.833 -27 -47.5
s-8 -41.5 -8 -65.5c0 -22.667 1 -41.667 3 -57s6 -28.5 12 -39.5s14.333 -20.333 25 -28s25 -15.167 43 -22.5l73 -30c18.667 -7.33301 33.667 -16.666 45 -27.999s20.166 -24.666 26.499 -39.999s10.5 -32.833 12.5 -52.5s3 -41.5 3 -65.5zM216.997 757.996h-38l-82 126h41
l60 -95l60 95h41z" />
    <glyph glyph-name="scaron" unicode="&#x161;" horiz-adv-x="320" 
d="M285 122c0 -18 -3.33301 -35.166 -10 -51.499s-15.667 -30.166 -27 -41.499s-24.666 -20.333 -39.999 -27s-32.333 -10 -51 -10c-18 0 -34 3 -48 9s-26.333 14.333 -37 25c-14.667 14.667 -24.5 31 -29.5 49s-7.5 37.333 -7.5 58h38c0 -18 2 -33.833 6 -47.5
s11.667 -26.167 23 -37.5c7.33301 -7.33301 15.833 -12.833 25.5 -16.5s19.5 -5.5 29.5 -5.5c26 0 47.333 8.33301 64 25c8 8.66699 14.333 18.834 19 30.501s7 25.167 7 40.5c0 24 -5 44.333 -15 61c-5.33301 9.33301 -12.666 17.833 -21.999 25.5s-20.333 15.167 -33 22.5
l-61 37c-15.333 9.33301 -28.333 19.333 -39 30s-18.334 20.334 -23.001 29.001c-5.33301 9.33301 -8.83301 19 -10.5 29s-2.5 21 -2.5 33c0 17.333 3.33301 33.666 10 48.999s15.667 28.666 27 39.999c10.667 10 23 17.833 37 23.5s29.333 8.5 46 8.5
c34.667 0 62.667 -10.667 84 -32c12.667 -12.667 21.5 -27.667 26.5 -45s7.5 -38 7.5 -62h-38c0 21.333 -1.83301 38.166 -5.5 50.499s-10.167 23.166 -19.5 32.499c-7.33301 8 -15.833 13.667 -25.5 17s-19.5 5 -29.5 5c-24 0 -43 -7 -57 -21
c-9.33301 -8.66699 -15.833 -19 -19.5 -31s-5.5 -23.667 -5.5 -35c0 -20 3.66699 -36.333 11 -49c7.33301 -12 23.666 -26 48.999 -42l61 -37c15.333 -9.33301 28.5 -19 39.5 -29s19.833 -20.667 26.5 -32c7.33301 -11.333 12.333 -23.833 15 -37.5s4 -27.167 4 -40.5z
M185 578.001h-38l-82 126h41l60 -95l60 95h41z" />
    <glyph glyph-name="Tcommaaccent" unicode="&#x162;" horiz-adv-x="322" 
d="M181 676v-676h-40v676h-119v36h278v-36h-119zM138 -162h-45l50 126h38z" />
    <glyph glyph-name="tcommaaccent" unicode="&#x163;" horiz-adv-x="235" 
d="M215 0c-19.333 0 -37.667 1.83301 -55 5.5s-33 12.5 -47 26.5c-22 22 -33 53.667 -33 95v344h-65v31h65v154h38v-154h92v-31h-92v-346c0 -32.667 8.33301 -56 25 -70s40.667 -21 72 -21v-34zM128.999 -162h-45l50 126h38z" />
    <glyph glyph-name="Tcaron" unicode="&#x164;" horiz-adv-x="322" 
d="M181 676v-676h-40v676h-119v36h278v-36h-119zM178 758h-38l-82 126h41l60 -95l60 95h41z" />
    <glyph glyph-name="tcaron" unicode="&#x165;" horiz-adv-x="235" 
d="M203 586h-35l20 126h43zM215 0c-19.333 0 -37.667 1.83301 -55 5.5s-33 12.5 -47 26.5c-22 22 -33 53.667 -33 95v344h-65v31h65v154h38v-154h92v-31h-92v-346c0 -32.667 8.33301 -56 25 -70s40.667 -21 72 -21v-34z" />
    <glyph glyph-name="Tbar" unicode="&#x166;" horiz-adv-x="322" 
d="M181 676v-302h76v-36h-76v-338h-40v338h-76v36h76v302h-119v36h278v-36h-119z" />
    <glyph glyph-name="tbar" unicode="&#x167;" horiz-adv-x="235" 
d="M215 0c-19.333 0 -37.667 1.83301 -55 5.5s-33 12.5 -47 26.5c-22 22 -33 53.667 -33 95v166h-65v31h65v147h-65v31h65v154h38v-154h92v-31h-92v-147h92v-31h-92v-168c0 -32.667 8.33301 -56 25 -70s40.667 -21 72 -21v-34z" />
    <glyph glyph-name="Utilde" unicode="&#x168;" horiz-adv-x="398" 
d="M334 138c0 -24.667 -3.49805 -46 -10.498 -64s-16.833 -33 -29.5 -45c-12.667 -12.667 -27.334 -22 -44.001 -28s-33.667 -9 -51 -9s-34.333 3 -51 9s-31.334 15.333 -44.001 28c-12.667 12 -22.5 27 -29.5 45s-10.5 39.333 -10.5 64v574h40v-578
c0 -32.667 9.16699 -58.5 27.5 -77.5s40.833 -28.5 67.5 -28.5s49.167 9.5 67.5 28.5s27.5 44.833 27.5 77.5v578h40v-574zM309.002 813c-16.667 -16.667 -29.833 -26.667 -39.5 -30s-17.834 -5 -24.501 -5c-10 0 -19 1.66699 -27 5s-16 7.33301 -24 12l-20.5 11
c-6.33301 3.33301 -13.166 5 -20.499 5c-6 0 -11.667 -1.16699 -17 -3.5s-13.666 -9.16602 -24.999 -20.499l-22 22c16.667 16.667 29.667 26.667 39 30s17.666 5 24.999 5c10.667 0 19.667 -1.5 27 -4.5s15.333 -7.16699 24 -12.5c9.33301 -6 17 -10.167 23 -12.5
s12 -3.5 18 -3.5c5.33301 0 10.833 1.16699 16.5 3.5s14.167 9.16602 25.5 20.499l22 -22v0z" />
    <glyph glyph-name="utilde" unicode="&#x169;" horiz-adv-x="357" 
d="M253 0v41c-2.66699 -5.33301 -6.66699 -10.833 -12 -16.5s-10 -10.167 -14 -13.5c-16.667 -12.667 -36.667 -19 -60 -19c-30 0 -55 10.667 -75 32c-10 10 -17.667 22.5 -23 37.5s-8 34.167 -8 57.5v383h38v-384c0 -30.667 7.5 -53.5 22.5 -68.5s33.167 -22.5 54.5 -22.5
s39.5 7.5 54.5 22.5s22.5 37.833 22.5 68.5v384h38v-502h-38zM286 633c-16.667 -16.667 -29.833 -26.667 -39.5 -30s-17.834 -5 -24.501 -5c-10 0 -19 1.66699 -27 5s-16 7.33301 -24 12l-20.5 11c-6.33301 3.33301 -13.166 5 -20.499 5c-6 0 -11.667 -1.16699 -17 -3.5
s-13.666 -9.16602 -24.999 -20.499l-22 22c16.667 16.667 29.667 26.667 39 30s17.666 5 24.999 5c10.667 0 19.667 -1.5 27 -4.5s15.333 -7.16699 24 -12.5c9.33301 -6 17 -10.167 23 -12.5s12 -3.5 18 -3.5c5.33301 0 10.833 1.16699 16.5 3.5s14.167 9.16602 25.5 20.499
l22 -22v0z" />
    <glyph glyph-name="Umacron" unicode="&#x16a;" horiz-adv-x="398" 
d="M334 138c0 -24.667 -3.49805 -46 -10.498 -64s-16.833 -33 -29.5 -45c-12.667 -12.667 -27.334 -22 -44.001 -28s-33.667 -9 -51 -9s-34.333 3 -51 9s-31.334 15.333 -44.001 28c-12.667 12 -22.5 27 -29.5 45s-10.5 39.333 -10.5 64v574h40v-578
c0 -32.667 9.16699 -58.5 27.5 -77.5s40.833 -28.5 67.5 -28.5s49.167 9.5 67.5 28.5s27.5 44.833 27.5 77.5v578h40v-574zM100.002 789v35h200v-35h-200z" />
    <glyph glyph-name="umacron" unicode="&#x16b;" horiz-adv-x="357" 
d="M253 0v41c-2.66699 -5.33301 -6.66699 -10.833 -12 -16.5s-10 -10.167 -14 -13.5c-16.667 -12.667 -36.667 -19 -60 -19c-30 0 -55 10.667 -75 32c-10 10 -17.667 22.5 -23 37.5s-8 34.167 -8 57.5v383h38v-384c0 -30.667 7.5 -53.5 22.5 -68.5s33.167 -22.5 54.5 -22.5
s39.5 7.5 54.5 22.5s22.5 37.833 22.5 68.5v384h38v-502h-38zM76 614v35h200v-35h-200z" />
    <glyph glyph-name="Ubreve" unicode="&#x16c;" horiz-adv-x="398" 
d="M334 138c0 -24.667 -3.49805 -46 -10.498 -64s-16.833 -33 -29.5 -45c-12.667 -12.667 -27.334 -22 -44.001 -28s-33.667 -9 -51 -9s-34.333 3 -51 9s-31.334 15.333 -44.001 28c-12.667 12 -22.5 27 -29.5 45s-10.5 39.333 -10.5 64v574h40v-578
c0 -32.667 9.16699 -58.5 27.5 -77.5s40.833 -28.5 67.5 -28.5s49.167 9.5 67.5 28.5s27.5 44.833 27.5 77.5v578h40v-574zM305.002 852c-3.33301 -32 -13 -56.5 -29 -73.5s-41.333 -25.5 -76 -25.5s-60 8.5 -76 25.5s-25.667 41.5 -29 73.5h36
c3.33301 -21.333 10.333 -37.5 21 -48.5s26.667 -16.5 48 -16.5s37.333 5.5 48 16.5s17.667 27.167 21 48.5h36v0z" />
    <glyph glyph-name="ubreve" unicode="&#x16d;" horiz-adv-x="357" 
d="M253 0v41c-2.66699 -5.33301 -6.66699 -10.833 -12 -16.5s-10 -10.167 -14 -13.5c-16.667 -12.667 -36.667 -19 -60 -19c-30 0 -55 10.667 -75 32c-10 10 -17.667 22.5 -23 37.5s-8 34.167 -8 57.5v383h38v-384c0 -30.667 7.5 -53.5 22.5 -68.5s33.167 -22.5 54.5 -22.5
s39.5 7.5 54.5 22.5s22.5 37.833 22.5 68.5v384h38v-502h-38zM281 677c-3.33301 -32 -13 -56.5 -29 -73.5s-41.333 -25.5 -76 -25.5s-60 8.5 -76 25.5s-25.667 41.5 -29 73.5h36c3.33301 -21.333 10.333 -37.5 21 -48.5s26.667 -16.5 48 -16.5s37.333 5.5 48 16.5
s17.667 27.167 21 48.5h36v0z" />
    <glyph glyph-name="Uring" unicode="&#x16e;" horiz-adv-x="398" 
d="M334 138c0 -24.667 -3.49805 -46 -10.498 -64s-16.833 -33 -29.5 -45c-12.667 -12.667 -27.334 -22 -44.001 -28s-33.667 -9 -51 -9s-34.333 3 -51 9s-31.334 15.333 -44.001 28c-12.667 12 -22.5 27 -29.5 45s-10.5 39.333 -10.5 64v574h40v-578
c0 -32.667 9.16699 -58.5 27.5 -77.5s40.833 -28.5 67.5 -28.5s49.167 9.5 67.5 28.5s27.5 44.833 27.5 77.5v578h40v-574zM286.002 836c0 -12 -2.33301 -23.167 -7 -33.5s-10.834 -19.333 -18.501 -27s-16.667 -13.834 -27 -18.501s-21.5 -7 -33.5 -7
s-23.167 2.33301 -33.5 7s-19.333 10.834 -27 18.501s-13.834 16.667 -18.501 27s-7 21.5 -7 33.5s2.33301 23.167 7 33.5s10.834 19.333 18.501 27s16.667 13.834 27 18.501s21.5 7 33.5 7s23.167 -2.33301 33.5 -7s19.333 -10.834 27 -18.501s13.834 -16.667 18.501 -27
s7 -21.5 7 -33.5zM255.002 836c0 15.333 -5.33301 28.333 -16 39s-23.667 16 -39 16s-28.333 -5.33301 -39 -16s-16 -23.667 -16 -39s5.33301 -28.333 16 -39s23.667 -16 39 -16s28.333 5.33301 39 16s16 23.667 16 39z" />
    <glyph glyph-name="uring" unicode="&#x16f;" horiz-adv-x="357" 
d="M253 0v41c-2.66699 -5.33301 -6.66699 -10.833 -12 -16.5s-10 -10.167 -14 -13.5c-16.667 -12.667 -36.667 -19 -60 -19c-30 0 -55 10.667 -75 32c-10 10 -17.667 22.5 -23 37.5s-8 34.167 -8 57.5v383h38v-384c0 -30.667 7.5 -53.5 22.5 -68.5s33.167 -22.5 54.5 -22.5
s39.5 7.5 54.5 22.5s22.5 37.833 22.5 68.5v384h38v-502h-38zM262 666c0 -12 -2.33301 -23.167 -7 -33.5s-10.834 -19.333 -18.501 -27s-16.667 -13.834 -27 -18.501s-21.5 -7 -33.5 -7s-23.167 2.33301 -33.5 7s-19.333 10.834 -27 18.501s-13.834 16.667 -18.501 27
s-7 21.5 -7 33.5s2.33301 23.167 7 33.5s10.834 19.333 18.501 27s16.667 13.834 27 18.501s21.5 7 33.5 7s23.167 -2.33301 33.5 -7s19.333 -10.834 27 -18.501s13.834 -16.667 18.501 -27s7 -21.5 7 -33.5zM231 666c0 15.333 -5.33301 28.333 -16 39s-23.667 16 -39 16
s-28.333 -5.33301 -39 -16s-16 -23.667 -16 -39s5.33301 -28.333 16 -39s23.667 -16 39 -16s28.333 5.33301 39 16s16 23.667 16 39z" />
    <glyph glyph-name="Uhungarumlaut" unicode="&#x170;" horiz-adv-x="398" 
d="M334 138c0 -24.667 -3.49805 -46 -10.498 -64s-16.833 -33 -29.5 -45c-12.667 -12.667 -27.334 -22 -44.001 -28s-33.667 -9 -51 -9s-34.333 3 -51 9s-31.334 15.333 -44.001 28c-12.667 12 -22.5 27 -29.5 45s-10.5 39.333 -10.5 64v574h40v-578
c0 -32.667 9.16699 -58.5 27.5 -77.5s40.833 -28.5 67.5 -28.5s49.167 9.5 67.5 28.5s27.5 44.833 27.5 77.5v578h40v-574zM280.002 766h-40l63 126h47zM162.002 766h-40l63 126h47z" />
    <glyph glyph-name="uhungarumlaut" unicode="&#x171;" horiz-adv-x="357" 
d="M253 0v41c-2.66699 -5.33301 -6.66699 -10.833 -12 -16.5s-10 -10.167 -14 -13.5c-16.667 -12.667 -36.667 -19 -60 -19c-30 0 -55 10.667 -75 32c-10 10 -17.667 22.5 -23 37.5s-8 34.167 -8 57.5v383h38v-384c0 -30.667 7.5 -53.5 22.5 -68.5s33.167 -22.5 54.5 -22.5
s39.5 7.5 54.5 22.5s22.5 37.833 22.5 68.5v384h38v-502h-38zM254 586h-40l63 126h47zM136 586h-40l63 126h47z" />
    <glyph glyph-name="Uogonek" unicode="&#x172;" horiz-adv-x="398" 
d="M334 138c0 -24.667 -3.49805 -46 -10.498 -64s-16.833 -33 -29.5 -45c-12.667 -12.667 -27.334 -22 -44.001 -28s-33.667 -9 -51 -9s-34.333 3 -51 9s-31.334 15.333 -44.001 28c-12.667 12 -22.5 27 -29.5 45s-10.5 39.333 -10.5 64v574h40v-578
c0 -32.667 9.16699 -58.5 27.5 -77.5s40.833 -28.5 67.5 -28.5s49.167 9.5 67.5 28.5s27.5 44.833 27.5 77.5v578h40v-574zM249.002 -162h-45l50 126h38z" />
    <glyph glyph-name="uogonek" unicode="&#x173;" horiz-adv-x="357" 
d="M253 0v41c-2.66699 -5.33301 -6.66699 -10.833 -12 -16.5s-10 -10.167 -14 -13.5c-16.667 -12.667 -36.667 -19 -60 -19c-30 0 -55 10.667 -75 32c-10 10 -17.667 22.5 -23 37.5s-8 34.167 -8 57.5v383h38v-384c0 -30.667 7.5 -53.5 22.5 -68.5s33.167 -22.5 54.5 -22.5
s39.5 7.5 54.5 22.5s22.5 37.833 22.5 68.5v384h38v-502h-38zM251 -162h-45l50 126h38z" />
    <glyph glyph-name="Wcircumflex" unicode="&#x174;" horiz-adv-x="542" 
d="M439 0h-42l-126 630l-124 -630h-42l-101 712h44l78 -630l122 630h46l124 -630l76 630h44zM331 766l-60 95l-60 -95h-41l82 126h38l82 -126h-41z" />
    <glyph glyph-name="wcircumflex" unicode="&#x175;" horiz-adv-x="437" 
d="M341 0h-44l-82 443l-77 -443h-44l-90 502h46l66 -443l77 443h44l82 -443l68 443h46zM275 586l-60 95l-60 -95h-41l82 126h38l82 -126h-41z" />
    <glyph glyph-name="Ycircumflex" unicode="&#x176;" horiz-adv-x="289" 
d="M164 305v-305h-40v305l-120 407h44l96 -341l97 341h44zM205 766l-60 95l-60 -95h-41l82 126h38l82 -126h-41z" />
    <glyph glyph-name="ycircumflex" unicode="&#x177;" horiz-adv-x="281" 
d="M131 -110c-8 -34.667 -22.833 -60.001 -44.5 -76.001s-50.167 -24 -85.5 -24v34c29.333 0 50.833 6.33301 64.5 19s23.167 29.334 28.5 50.001l27 109l-117 500h42l93 -442l93 442h42zM206 585.999l-60 95l-60 -95h-41l82 126h38l82 -126h-41z" />
    <glyph glyph-name="Ydieresis" unicode="&#x178;" horiz-adv-x="289" 
d="M164 305v-305h-40v305l-120 407h44l96 -341l97 341h44zM182 789v50h50v-50h-50zM58 789v50h50v-50h-50z" />
    <glyph glyph-name="Zacute" unicode="&#x179;" horiz-adv-x="307" 
d="M30 0v32l206 644h-191v36h232v-32l-205 -644h205v-36h-247zM177 766h-40l63 126h47z" />
    <glyph glyph-name="zacute" unicode="&#x17a;" horiz-adv-x="259" 
d="M20 0v31l179 437h-169v34h209v-31l-179 -437h179v-34h-219zM154 586h-40l63 126h47z" />
    <glyph glyph-name="Zdotaccent" unicode="&#x17b;" horiz-adv-x="307" 
d="M30 0v32l206 644h-191v36h232v-32l-205 -644h205v-36h-247zM133 789v50h50v-50h-50z" />
    <glyph glyph-name="zdotaccent" unicode="&#x17c;" horiz-adv-x="259" 
d="M20 0v31l179 437h-169v34h209v-31l-179 -437h179v-34h-219zM110 614v50h50v-50h-50z" />
    <glyph glyph-name="Zcaron" unicode="&#x17d;" horiz-adv-x="307" 
d="M30 0v32l206 644h-191v36h232v-32l-205 -644h205v-36h-247zM177 758h-38l-82 126h41l60 -95l60 95h41z" />
    <glyph glyph-name="zcaron" unicode="&#x17e;" horiz-adv-x="259" 
d="M20 0v31l179 437h-169v34h209v-31l-179 -437h179v-34h-219zM154 578h-38l-82 126h41l60 -95l60 95h41z" />
    <glyph glyph-name="longs" unicode="&#x17f;" horiz-adv-x="170" 
d="M191 678c-58 0 -87.001 -30.333 -87.001 -91v-587h-38v585c0 23.333 3 42.5 9 57.5s14 27.5 24 37.5c12.667 12.667 26.834 21.167 42.501 25.5s32.167 6.5 49.5 6.5v-34z" />
    <glyph glyph-name="uni018F" unicode="&#x18f;" horiz-adv-x="396" 
d="M58 374l240 0.00390625c0 54.667 -0.666992 98.667 -2 132s-3.33301 60 -6 80s-6.33398 35 -11.001 45s-11 19.333 -19 28c-15.333 16.667 -37.666 25 -66.999 25c-19.333 0 -35 -3.66699 -47 -11s-21.667 -16.833 -29 -28.5s-12.333 -25 -15 -40s-4 -30.5 -4 -46.5h-40
c0 26 3.16699 49.667 9.5 71s16.5 39.666 30.5 54.999c11.333 11.333 24.666 20.166 39.999 26.499s33.666 9.5 54.999 9.5c19.333 0 37.166 -3 53.499 -9s30.166 -14.667 41.499 -26c10.667 -10.667 19.167 -22.334 25.5 -35.001s11.333 -30.5 15 -53.5
s6.16699 -53.5 7.5 -91.5s2 -87.667 2 -149s-0.666992 -111 -2 -149s-3.83301 -68.5 -7.5 -91.5s-8.66699 -40.833 -15 -53.5s-14.833 -24.334 -25.5 -35.001c-11.333 -11.333 -25.166 -20 -41.499 -26s-34.166 -9 -53.499 -9c-17.333 0 -34.166 3 -50.499 9
s-30.666 15 -42.999 27s-22.333 27.167 -30 45.5s-11.5 39.833 -11.5 64.5v236zM98 140.004c0 -37.333 9.33301 -65.332 28 -83.999s41 -28 67 -28c29.333 0 51.666 8.33301 66.999 25c8 8.66699 14.333 18 19 28s8.33398 24.833 11.001 44.5s4.66699 46.167 6 79.5
s2 77.666 2 132.999h-200v-198z" />
    <glyph glyph-name="florin" unicode="&#x192;" horiz-adv-x="327" 
d="M295 678c-26 0 -48.498 -7.5 -67.498 -22.5s-31.167 -37.833 -36.5 -68.5l-38 -207h86v-31h-92l-109 -560h-38l109 560h-59v31h65l38 205c7.33301 40.667 23.666 72 48.999 94s58.666 33 99.999 33h5v-34h-12z" />
    <glyph glyph-name="uni01B5" unicode="&#x1b5;" horiz-adv-x="307" 
d="M30 0v32l98 306h-70v36h81l97 302h-191v36h232v-32l-98 -306h70v-36h-81l-96 -302h205v-36h-247z" />
    <glyph glyph-name="uni01B6" unicode="&#x1b6;" horiz-adv-x="259" 
d="M20 0v31l83 204h-68v32h82l82 201h-169v34h209v-31l-84 -204h69v-32h-82l-82 -201h179v-34h-219z" />
    <glyph glyph-name="uni01C4" unicode="&#x1c4;" horiz-adv-x="714" 
d="M349 356c0 -60.667 -0.666992 -109.5 -2 -146.5s-3.66602 -66.833 -6.99902 -89.5s-8.16602 -40 -14.499 -52s-14.833 -23.333 -25.5 -34c-22.667 -22.667 -54 -34 -94 -34h-134v712h134c40 0 71.333 -11.333 94 -34c10.667 -10.667 19.167 -22 25.5 -34
s11.166 -29.333 14.499 -52s5.66602 -52.5 6.99902 -89.5s2 -85.833 2 -146.5zM309 356c0 58 -0.5 104.501 -1.5 139.501s-2.83301 62.667 -5.5 83s-6.5 35.666 -11.5 45.999s-11.833 19.833 -20.5 28.5c-15.333 15.333 -37.666 23 -66.999 23h-91v-640h91
c29.333 0 51.666 7.66699 66.999 23c8.66699 8.66699 15.5 18 20.5 28s8.83301 25.333 11.5 46s4.5 48.5 5.5 83.5s1.5 81.5 1.5 139.5zM437 0.000976562v32l206 644h-191v36h232v-32l-205 -644h205v-36h-247zM583 758.001h-38l-82 126h41l60 -95l60 95h41z" />
    <glyph glyph-name="uni01C5" unicode="&#x1c5;" horiz-adv-x="666" 
d="M349 356c0 -60.667 -0.666992 -109.5 -2 -146.5s-3.66602 -66.833 -6.99902 -89.5s-8.16602 -40 -14.499 -52s-14.833 -23.333 -25.5 -34c-22.667 -22.667 -54 -34 -94 -34h-134v712h134c40 0 71.333 -11.333 94 -34c10.667 -10.667 19.167 -22 25.5 -34
s11.166 -29.333 14.499 -52s5.66602 -52.5 6.99902 -89.5s2 -85.833 2 -146.5zM309 356c0 58 -0.5 104.501 -1.5 139.501s-2.83301 62.667 -5.5 83s-6.5 35.666 -11.5 45.999s-11.833 19.833 -20.5 28.5c-15.333 15.333 -37.666 23 -66.999 23h-91v-640h91
c29.333 0 51.666 7.66699 66.999 23c8.66699 8.66699 15.5 18 20.5 28s8.83301 25.333 11.5 46s4.5 48.5 5.5 83.5s1.5 81.5 1.5 139.5zM427 0.000976562v31l179 437h-169v34h209v-31l-179 -437h179v-34h-219zM560 578.001h-38l-82 126h41l60 -95l60 95h41z" />
    <glyph glyph-name="uni01C6" unicode="&#x1c6;" horiz-adv-x="609" 
d="M246 0v41c-2.66699 -5.33301 -6.66699 -10.833 -12 -16.5s-10 -10.167 -14 -13.5c-16.667 -12.667 -36.667 -19 -60 -19c-28.667 0 -53.334 11.333 -74.001 34c-7.33301 8 -13.5 18.167 -18.5 30.5s-9 27.5 -12 45.5s-5 39.167 -6 63.5s-1.5 52.833 -1.5 85.5
s0.5 61.167 1.5 85.5s3 45.5 6 63.5s7 33.167 12 45.5s11.167 22.5 18.5 30.5c8.66699 9.33301 19 17.333 31 24s26.333 10 43 10c24 0 44 -5.66699 60 -17c4.66699 -3.33301 9.33398 -7.83301 14.001 -13.5s8.66699 -11.167 12 -16.5v249h38v-712h-38zM246 378
c0 18.667 -2.16699 34.167 -6.5 46.5s-10.833 22.833 -19.5 31.5c-14.667 13.333 -32.334 20 -53.001 20c-11.333 0 -21.333 -2.16699 -30 -6.5s-16 -9.83301 -22 -16.5c-6.66699 -7.33301 -11.834 -16.333 -15.501 -27s-6.5 -24 -8.5 -40s-3.33301 -35 -4 -57
s-1 -48 -1 -78s0.333008 -56 1 -78s2 -41 4 -57s4.83301 -29.333 8.5 -40s8.83398 -19.667 15.501 -27c6 -6.66699 13.333 -12.167 22 -16.5s18.667 -6.5 30 -6.5c20.667 0 38.334 6.66699 53.001 20c8.66699 8.66699 15.167 19.167 19.5 31.5s6.5 27.833 6.5 46.5v254z
M370 0v31l179 437h-169v34h209v-31l-179 -437h179v-34h-219zM503 578h-38l-82 126h41l60 -95l60 95h41z" />
    <glyph glyph-name="uni01C7" unicode="&#x1c7;" horiz-adv-x="636" 
d="M72 0v712h40v-676h190v-36h-230zM572 141c0 -48.667 -13.332 -86.3311 -39.999 -112.998c-12.667 -12.667 -27.334 -21.834 -44.001 -27.501s-33.667 -8.5 -51 -8.5c-22 0 -41.333 4.16699 -58 12.5s-31.667 20.166 -45 35.499l30 25c9.33301 -11.333 20 -20.333 32 -27
s25.667 -10 41 -10c26.667 0 49.167 9.33301 67.5 28s27.5 47 27.5 85v571h40v-571z" />
    <glyph glyph-name="uni01C8" unicode="&#x1c8;" horiz-adv-x="494" 
d="M72 0v712h40v-676h190v-36h-230zM428 -83c0 -23.333 -3 -42.5 -9 -57.5s-14 -27.5 -24 -37.5c-12.667 -12.667 -26.834 -21.167 -42.501 -25.5s-32.167 -6.5 -49.5 -6.5v34c26.667 0 47.834 6.66699 63.501 20s23.5 37 23.5 71v587h38v-585zM381 637v56h56v-56h-56z" />
    <glyph glyph-name="uni01C9" unicode="&#x1c9;" horiz-adv-x="370" 
d="M185 0c-17.333 0 -33.832 2.16699 -49.499 6.5s-29.834 12.833 -42.501 25.5c-10 10 -18 22.5 -24 37.5s-9 34.167 -9 57.5v585h38v-587c0 -60.667 29 -91 87 -91v-34zM304.001 -83c0 -23.333 -3 -42.5 -9 -57.5s-14 -27.5 -24 -37.5
c-12.667 -12.667 -26.834 -21.167 -42.501 -25.5s-32.167 -6.5 -49.5 -6.5v34c26.667 0 47.834 6.66699 63.501 20s23.5 37 23.5 71v587h38v-585zM257.001 637v56h56v-56h-56z" />
    <glyph glyph-name="uni01CA" unicode="&#x1ca;" horiz-adv-x="750" 
d="M322 0l-210 602v-602h-40v712h44l210 -602v602h40v-712h-44zM686 141c0 -48.667 -13.332 -86.3311 -39.999 -112.998c-12.667 -12.667 -27.334 -21.834 -44.001 -27.501s-33.667 -8.5 -51 -8.5c-22 0 -41.333 4.16699 -58 12.5s-31.667 20.166 -45 35.499l30 25
c9.33301 -11.333 20 -20.333 32 -27s25.667 -10 41 -10c26.667 0 49.167 9.33301 67.5 28s27.5 47 27.5 85v571h40v-571z" />
    <glyph glyph-name="uni01CB" unicode="&#x1cb;" horiz-adv-x="608" 
d="M322 0l-210 602v-602h-40v712h44l210 -602v602h40v-712h-44zM542 -83c0 -23.333 -3 -42.5 -9 -57.5s-14 -27.5 -24 -37.5c-12.667 -12.667 -26.834 -21.167 -42.501 -25.5s-32.167 -6.5 -49.5 -6.5v34c26.667 0 47.834 6.66699 63.501 20s23.5 37 23.5 71v587h38v-585z
M495 637v56h56v-56h-56z" />
    <glyph glyph-name="uni01CC" unicode="&#x1cc;" horiz-adv-x="527" 
d="M258 0v384c0 30.667 -7.5 53.5 -22.5 68.5s-33.167 22.5 -54.5 22.5s-39.5 -7.5 -54.5 -22.5s-22.5 -37.833 -22.5 -68.5v-384h-38v502h38v-41c2.66699 5.33301 6.66699 10.833 12 16.5s10 10.167 14 13.5c16.667 12.667 36.667 19 60 19c30 0 55 -10.667 75 -32
c10 -10 17.667 -22.5 23 -37.5s8 -34.167 8 -57.5v-383h-38zM461 -83c0 -23.333 -3 -42.5 -9 -57.5s-14 -27.5 -24 -37.5c-12.667 -12.667 -26.834 -21.167 -42.501 -25.5s-32.167 -6.5 -49.5 -6.5v34c26.667 0 47.834 6.66699 63.501 20s23.5 37 23.5 71v587h38v-585z
M414 637v56h56v-56h-56z" />
    </font>
</defs>
</svg>
