<?xml version="1.0" encoding="utf-8"?>
<!-- Generator: Adobe Illustrator 16.0.0, SVG Export Plug-In . SVG Version: 6.00 Build 0)  -->
<!DOCTYPE svg PUBLIC "-//W3C//DTD SVG 1.1//EN" "http://www.w3.org/Graphics/SVG/1.1/DTD/svg11.dtd">
<svg version="1.1" id="Layer_1" xmlns="http://www.w3.org/2000/svg" xmlns:xlink="http://www.w3.org/1999/xlink" x="0px" y="0px"
	 width="60px" height="490.424px" viewBox="0 0 60 490.424" enable-background="new 0 0 60 490.424" xml:space="preserve">
<g id="Layer_2_1_" display="none">
</g>
<g id="Layer_1_1_">
	<g id="Layer_2_3_">
	</g>
	<g id="slice_13_" transform="translate(215.000000, 119.000000)">
	</g>
	<g>
		<g>
			<title></title>
			<desc></desc>
			<g id="Artboard-1_6_" transform="translate(-287.000000, -659.000000)">
				<g id="slice_7_" transform="translate(215.000000, 119.000000)">
				</g>
				<g>
					<path fill="#FFFFFF" d="M299.729,789.396v1.732h-1.758v2.869h1.758v8.656h2.85v-8.656h2.854l0.453-2.869h-3.311v-1.438
						c0-0.75,0.245-1.463,1.318-1.463h2.147v-2.865h-3.052C300.432,785.365,299.729,787.053,299.729,789.396z"/>
					<path fill="#FFFFFF" d="M302,779c-8.271,0-15,6.73-15,15c0,8.285,6.729,15,15,15c8.285,0,15-6.715,15-15
						C317,785.73,310.285,779,302,779z M302,807.637c-7.531,0-13.637-6.104-13.637-13.637c0-7.531,6.105-13.637,13.637-13.637
						s13.638,6.105,13.638,13.637S309.531,807.637,302,807.637z"/>
				</g>
			</g>
		</g>
		<g id="Layer_1_3_" xmlns:sketch="http://www.bohemiancoding.com/sketch/ns">
			<title></title>
			<desc></desc>
			<g id="miu_4_">
				<g id="Artboard-1_7_" transform="translate(-215.000000, -659.000000)">
					<g id="slice_8_" transform="translate(215.000000, 119.000000)">
					</g>
					<g>
						<path fill="#FFFFFF" d="M237.63,817.408c-0.641,0.387-1.351,0.668-2.104,0.811c-0.604-0.688-1.467-1.125-2.419-1.141
							c-1.83-0.029-3.315,1.518-3.315,3.455c0,0.273,0.029,0.543,0.086,0.801c-2.754-0.178-5.196-1.613-6.831-3.775
							c-0.284,0.519-0.448,1.123-0.448,1.773c0,1.225,0.586,2.316,1.474,2.961c-0.543-0.023-1.055-0.189-1.501-0.459
							c0,0.016,0,0.029,0,0.045c0,1.713,1.144,3.152,2.657,3.49c-0.277,0.074-0.57,0.117-0.872,0.115
							c-0.214-0.002-0.421-0.025-0.624-0.07c0.422,1.408,1.646,2.434,3.098,2.467c-1.136,0.943-2.565,1.504-4.115,1.5
							c-0.27,0-0.532-0.018-0.791-0.051c1.466,1.004,3.208,1.592,5.079,1.592c6.096,0.002,9.429-5.303,9.429-9.904
							c0-0.152-0.003-0.301-0.01-0.449c0.646-0.483,1.21-1.088,1.652-1.778c-0.594,0.269-1.23,0.444-1.902,0.521
							C236.859,818.891,237.383,818.217,237.63,817.408z"/>
						<path fill="#FFFFFF" d="M230,809c-8.284,0-15,6.715-15,15s6.716,15,15,15s15-6.715,15-15S238.285,809,230,809z M230,837.635
							c-7.531,0-13.637-6.104-13.637-13.635s6.105-13.635,13.637-13.635c7.53,0,13.637,6.104,13.637,13.635
							S237.531,837.635,230,837.635z"/>
					</g>
				</g>
			</g>
		</g>
		<g id="Layer_1_5_" xmlns:sketch="http://www.bohemiancoding.com/sketch/ns">
			<g>
				<title></title>
				<desc></desc>
				<g id="Artboard-1_9_" transform="translate(-287.000000, -659.000000)">
					<g id="slice_10_" transform="translate(215.000000, 119.000000)">
					</g>
					<g>
						<path fill="#FFFFFF" d="M302,869c-8.271,0-15,6.73-15,15c0,8.285,6.729,15,15,15c8.284,0,15-6.715,15-15
							C317,875.73,310.284,869,302,869z M302,897.639c-7.531,0-13.637-6.105-13.637-13.639c0-7.531,6.104-13.639,13.637-13.639
							s13.637,6.105,13.637,13.639S309.531,897.639,302,897.639z"/>
					</g>
				</g>
			</g>
			<g>
				<path fill="#FFFFFF" d="M21.372,224.292l-2.833,2.832c-1.563,1.563-4.098,1.563-5.662,0c-0.247-0.246-0.439-0.521-0.607-0.808
					L13.585,225c0.063-0.062,0.14-0.1,0.214-0.143c0.09,0.312,0.25,0.604,0.494,0.85c0.781,0.781,2.05,0.781,2.831,0l2.831-2.831
					c0.781-0.78,0.781-2.052,0-2.832c-0.78-0.782-2.048-0.782-2.831,0l-1.005,1.007c-0.816-0.318-1.696-0.404-2.554-0.277
					l2.144-2.146c1.565-1.563,4.1-1.563,5.665,0C22.935,220.191,22.935,222.729,21.372,224.292z M13.885,228.949l-1.007,1.005
					c-0.781,0.782-2.051,0.782-2.832,0s-0.781-2.05,0-2.833l2.832-2.83c0.781-0.781,2.051-0.781,2.831,0
					c0.245,0.244,0.404,0.537,0.494,0.85c0.075-0.045,0.153-0.08,0.214-0.142l1.316-1.315c-0.167-0.287-0.362-0.562-0.607-0.811
					c-1.563-1.561-4.099-1.561-5.662,0l-2.833,2.834c-1.563,1.566-1.563,4.1,0,5.663c1.562,1.563,4.1,1.563,5.663,0l2.146-2.146
					C15.582,229.352,14.702,229.266,13.885,228.949z"/>
			</g>
		</g>
		<g id="Layer_1_8_" xmlns:sketch="http://www.bohemiancoding.com/sketch/ns">
			<title></title>
			<desc></desc>
			<g id="miu_10_">
				<g id="Artboard-1_16_" transform="translate(-215.000000, -659.000000)">
					<g id="slice_17_" transform="translate(215.000000, 119.000000)">
					</g>
					<g>
						<path fill="#4099FF" d="M230,689c-8.283,0-15,6.717-15,15c0,8.284,6.717,15,15,15c8.284,0,15-6.716,15-15
							C245,695.717,238.284,689,230,689z"/>
						<path fill="#FFFFFF" d="M237.63,697.408c-0.641,0.388-1.352,0.668-2.104,0.812c-0.604-0.688-1.467-1.125-2.419-1.142
							c-1.83-0.029-3.315,1.517-3.315,3.454c0,0.275,0.029,0.544,0.086,0.803c-2.754-0.179-5.197-1.613-6.83-3.776
							c-0.286,0.519-0.449,1.124-0.449,1.772c0,1.228,0.586,2.318,1.476,2.961c-0.543-0.022-1.055-0.188-1.502-0.458
							c0,0.016,0,0.03,0,0.045c0,1.714,1.144,3.153,2.657,3.489c-0.277,0.075-0.569,0.118-0.872,0.115
							c-0.214-0.001-0.421-0.025-0.624-0.067c0.422,1.407,1.646,2.434,3.097,2.467c-1.135,0.941-2.564,1.502-4.115,1.498
							c-0.269-0.001-0.531-0.018-0.791-0.051c1.465,1.005,3.208,1.592,5.08,1.593c6.094,0.002,9.428-5.304,9.428-9.905
							c0-0.151-0.003-0.301-0.01-0.449c0.646-0.482,1.21-1.088,1.652-1.778c-0.595,0.27-1.23,0.446-1.902,0.521
							C236.859,698.89,237.383,698.216,237.63,697.408z"/>
					</g>
				</g>
			</g>
		</g>
		<g id="Layer_1_7_" xmlns:sketch="http://www.bohemiancoding.com/sketch/ns">
			<title></title>
			<desc></desc>
			<g id="miu_9_">
				<g id="Artboard-1_15_" transform="translate(-215.000000, -659.000000)">
					<g id="slice_16_" transform="translate(215.000000, 119.000000)">
					</g>
					<g>
						<path fill="#6B757E" d="M260.121,689c-8.283,0-15,6.716-15,15s6.716,15,15,15c8.285,0,15-6.716,15-15S268.406,689,260.121,689
							z"/>
						<path fill="#FFFFFF" d="M267.75,697.407c-0.639,0.388-1.35,0.668-2.102,0.812c-0.604-0.688-1.467-1.125-2.42-1.143
							c-1.828-0.029-3.314,1.519-3.314,3.454c0,0.274,0.027,0.544,0.086,0.803c-2.754-0.179-5.197-1.613-6.83-3.775
							c-0.287,0.519-0.451,1.124-0.451,1.771c0,1.229,0.586,2.318,1.477,2.962c-0.543-0.023-1.055-0.188-1.502-0.459
							c0,0.017,0,0.03,0,0.045c0,1.715,1.144,3.153,2.658,3.489c-0.277,0.076-0.57,0.118-0.873,0.115
							c-0.215-0.001-0.42-0.024-0.623-0.066c0.422,1.406,1.646,2.433,3.099,2.466c-1.138,0.941-2.565,1.503-4.117,1.498
							c-0.269-0.001-0.53-0.018-0.791-0.051c1.468,1.005,3.209,1.593,5.082,1.594c6.095,0.002,9.429-5.304,9.429-9.906
							c0-0.15-0.004-0.301-0.011-0.449c0.646-0.482,1.209-1.088,1.653-1.778c-0.596,0.27-1.23,0.446-1.903,0.521
							C266.98,698.889,267.504,698.215,267.75,697.407z"/>
					</g>
				</g>
			</g>
		</g>
		<g>
			<title></title>
			<desc></desc>
			<g id="Artboard-1_14_" transform="translate(-287.000000, -659.000000)">
				<g id="slice_15_" transform="translate(215.000000, 119.000000)">
				</g>
				<g>
					<path fill="#3A5897" d="M302,659c-8.271,0-15,6.73-15,15c0,8.285,6.729,15,15,15c8.285,0,15-6.715,15-15
						C317,665.73,310.285,659,302,659z"/>
					<path fill="#FFFFFF" d="M299.729,669.396v1.734h-1.758v2.869h1.758v8.658h2.849v-8.658h2.855l0.453-2.869h-3.311v-1.437
						c0-0.749,0.245-1.462,1.318-1.462h2.147v-2.864h-3.052C300.432,665.365,299.729,667.053,299.729,669.396z"/>
				</g>
			</g>
		</g>
		<g>
			<title></title>
			<desc></desc>
			<g id="Artboard-1_13_" transform="translate(-287.000000, -659.000000)">
				<g id="slice_14_" transform="translate(215.000000, 119.000000)">
				</g>
				<g>
					<path fill="#6B757E" d="M332.121,659c-8.27,0-15,6.729-15,15c0,8.285,6.73,15,15,15c8.285,0,15-6.715,15-15
						C347.121,665.729,340.406,659,332.121,659z"/>
					<path fill="#FFFFFF" d="M329.854,669.396v1.733h-1.76v2.869h1.76v8.658h2.848v-8.658h2.855l0.455-2.869h-3.312v-1.437
						c0-0.749,0.244-1.462,1.318-1.462h2.146v-2.864h-3.053C330.553,665.366,329.854,667.053,329.854,669.396z"/>
				</g>
			</g>
		</g>
		<g>
			<path fill="#C62325" d="M15,90c-8.283,0-15,6.716-15,15c0,8.283,6.717,15,15,15s15-6.717,15-15C30,96.716,23.284,90,15,90z"/>
			<path fill="#6B757E" d="M45,90c-8.283,0-15,6.716-15,15c0,8.283,6.717,15,15,15s15-6.717,15-15C60,96.716,53.283,90,45,90z"/>
			<g id="miu_8_">
				<g id="Artboard-1_12_" transform="translate(-431.000000, -659.000000)">
					<g id="slice_12_" transform="translate(215.000000, 119.000000)">
					</g>
					<path id="circle-social-pinterest-outline-stroke_3_" fill="#FFFFFF" d="M447.077,767.663c2.854,0,4.788-2.654,4.788-6.208
						c0-2.686-2.229-5.188-5.617-5.188c-4.215,0-6.342,3.085-6.342,5.659c0,1.557,0.577,2.942,1.816,3.459
						c0.204,0.085,0.385,0.004,0.444-0.228c0.04-0.158,0.139-0.561,0.18-0.727c0.061-0.227,0.037-0.308-0.126-0.505
						c-0.356-0.431-0.585-0.987-0.585-1.776c0-2.29,1.677-4.338,4.369-4.338c2.382,0,3.692,1.486,3.692,3.471
						c0,2.611-1.132,4.816-2.812,4.816c-0.928,0-1.623-0.785-1.4-1.746c0.266-1.147,0.782-2.386,0.782-3.215
						c0-0.74-0.389-1.358-1.196-1.358c-0.949,0-1.711,1.002-1.711,2.345c0,0.854,0.283,1.434,0.283,1.434s-0.971,4.2-1.141,4.936
						c-0.154,0.67-0.178,1.405-0.156,2.026c0.064,0.56,0.604,1.012,1.074,0.399c0.33-0.538,0.685-1.217,0.867-1.898
						c0.11-0.401,0.625-2.488,0.625-2.488C445.218,767.135,446.119,767.663,447.077,767.663z"/>
				</g>
			</g>
			<g id="miu_7_">
				<g id="Artboard-1_11_" transform="translate(-431.000000, -659.000000)">
					<g id="slice_11_" transform="translate(215.000000, 119.000000)">
					</g>
					<path id="circle-social-pinterest-outline-stroke_2_" fill="#FFFFFF" d="M476.869,767.663c2.852,0,4.787-2.654,4.787-6.208
						c0-2.686-2.229-5.188-5.617-5.188c-4.215,0-6.342,3.085-6.342,5.659c0,1.557,0.578,2.942,1.816,3.459
						c0.203,0.085,0.387,0.004,0.442-0.228c0.041-0.158,0.142-0.561,0.183-0.727c0.061-0.227,0.037-0.308-0.127-0.505
						c-0.355-0.431-0.586-0.987-0.586-1.776c0-2.29,1.68-4.338,4.368-4.338c2.382,0,3.69,1.486,3.69,3.471
						c0,2.611-1.131,4.816-2.812,4.816c-0.93,0-1.623-0.785-1.398-1.746c0.267-1.147,0.779-2.386,0.779-3.215
						c0-0.74-0.389-1.358-1.193-1.358c-0.949,0-1.711,1.002-1.711,2.345c0,0.854,0.281,1.434,0.281,1.434s-0.971,4.2-1.143,4.936
						c-0.152,0.67-0.178,1.405-0.156,2.026c0.066,0.56,0.605,1.012,1.074,0.399c0.33-0.538,0.688-1.217,0.867-1.898
						c0.111-0.401,0.627-2.488,0.627-2.488C475.01,767.135,475.91,767.663,476.869,767.663z"/>
				</g>
			</g>
		</g>
		<g>
			<path fill="#D24736" d="M15,59.92c-8.283,0-15,6.716-15,15c0,8.283,6.717,15,15,15s15-6.717,15-15
				C30,66.636,23.284,59.92,15,59.92z"/>
			<path id="circle-social-google-plus-outline-stroke_3_" fill="#FFFFFF" d="M22.745,74.165V72.36h-1.287v1.805h-1.853v1.289h1.854
				v1.855h1.287v-1.855h1.8v-1.289H22.745z M13.379,74.063v2.061c0,0,1.996-0.002,2.81-0.002c-0.44,1.337-1.125,2.065-2.81,2.065
				c-1.706,0-3.036-1.385-3.036-3.094s1.33-3.094,3.036-3.094c0.901,0,1.483,0.318,2.018,0.761c0.427-0.428,0.392-0.489,1.479-1.52
				c-0.923-0.843-2.151-1.354-3.497-1.354c-2.871,0-5.198,2.332-5.198,5.207s2.327,5.207,5.198,5.207
				c4.289,0,5.339-3.743,4.991-6.237H13.379z"/>
			<path fill="#6B757E" d="M45,59.92c-8.283,0-15,6.716-15,15c0,8.283,6.717,15,15,15s15-6.717,15-15
				C60,66.636,53.283,59.92,45,59.92z"/>
			<path id="circle-social-google-plus-outline-stroke_2_" fill="#FFFFFF" d="M52.744,74.165V72.36h-1.285v1.805h-1.854v1.289h1.854
				v1.855h1.285v-1.855h1.801v-1.289H52.744z M43.379,74.063v2.061c0,0,1.996-0.002,2.811-0.002
				c-0.44,1.337-1.125,2.065-2.811,2.065c-1.705,0-3.035-1.385-3.035-3.094s1.33-3.094,3.035-3.094c0.902,0,1.484,0.318,2.018,0.761
				c0.428-0.428,0.394-0.489,1.48-1.52c-0.924-0.843-2.15-1.354-3.498-1.354c-2.871,0-5.197,2.332-5.197,5.207
				s2.326,5.207,5.197,5.207c4.289,0,5.34-3.743,4.992-6.237H43.379z"/>
		</g>
		<g>
			<g id="Layer_1_6_" xmlns:sketch="http://www.bohemiancoding.com/sketch/ns">
				<title></title>
				<desc></desc>
				<g id="miu_6_">
					<g id="Artboard-1_10_" transform="translate(-215.000000, -659.000000)">
						<g id="slice_4_" transform="translate(215.000000, 119.000000)">
						</g>
						<g>
							<path fill="#FFFFFF" d="M230,839c-8.284,0-15,6.715-15,15s6.716,15,15,15s15-6.715,15-15S238.285,839,230,839z M230,867.635
								c-7.531,0-13.637-6.104-13.637-13.635s6.105-13.635,13.637-13.635c7.53,0,13.637,6.104,13.637,13.635
								S237.531,867.635,230,867.635z"/>
						</g>
					</g>
				</g>
			</g>
			<g>
				<path fill="#FFFFFF" d="M23.86,194.521c0,4.469-3.651,8.092-8.155,8.092c-1.431,0-2.775-0.364-3.943-1.006l-4.516,1.436
					l1.472-4.344c-0.742-1.219-1.17-2.648-1.17-4.178c0-4.469,3.65-8.094,8.157-8.094C20.209,186.428,23.86,190.053,23.86,194.521
					L23.86,194.521z M15.705,187.717c-3.783,0-6.858,3.053-6.858,6.805c0,1.488,0.485,2.867,1.306,3.988l-0.854,2.525l2.634-0.838
					c1.083,0.711,2.379,1.127,3.773,1.127c3.78,0,6.855-3.053,6.855-6.805S19.485,187.717,15.705,187.717L15.705,187.717z
					 M19.822,196.385c-0.05-0.082-0.184-0.133-0.382-0.23c-0.2-0.1-1.184-0.58-1.368-0.646c-0.182-0.064-0.315-0.1-0.449,0.1
					s-0.516,0.646-0.633,0.777c-0.117,0.133-0.231,0.148-0.434,0.051c-0.199-0.101-0.844-0.311-1.607-0.984
					c-0.594-0.525-0.995-1.176-1.112-1.373c-0.116-0.199-0.012-0.307,0.087-0.404c0.091-0.09,0.2-0.232,0.301-0.348
					c0.1-0.117,0.133-0.2,0.199-0.332c0.066-0.133,0.034-0.248-0.018-0.348c-0.05-0.1-0.449-1.076-0.617-1.473
					c-0.166-0.396-0.333-0.33-0.45-0.33c-0.116,0-0.25-0.018-0.383-0.018c-0.134,0-0.35,0.05-0.533,0.248
					c-0.184,0.197-0.7,0.679-0.7,1.652c0,0.978,0.716,1.92,0.816,2.053s1.382,2.201,3.415,2.994
					c2.033,0.795,2.033,0.529,2.398,0.496c0.367-0.033,1.184-0.479,1.35-0.943C19.873,196.863,19.873,196.467,19.822,196.385
					L19.822,196.385z"/>
			</g>
		</g>
	</g>
</g>
<path fill="#348500" d="M15,270c8.285,0,15-6.715,15-15c0-8.27-6.715-15-15-15c-8.271,0-15,6.73-15,15C0,263.285,6.729,270,15,270"
	/>
<path fill="#6B757E" d="M45.121,270c8.285,0,15-6.715,15-15c0-8.271-6.715-15-15-15c-8.27,0-15,6.729-15,15
	C30.121,263.285,36.852,270,45.121,270"/>
<g>
	<path fill="#FFFFFF" d="M23.307,254.078c0,4.469-3.65,8.092-8.154,8.092c-1.432,0-2.775-0.364-3.943-1.006L6.693,262.6l1.472-4.344
		c-0.742-1.219-1.17-2.648-1.17-4.178c0-4.469,3.65-8.094,8.157-8.094C19.656,245.984,23.307,249.609,23.307,254.078L23.307,254.078
		z M15.152,247.273c-3.783,0-6.858,3.053-6.858,6.805c0,1.488,0.485,2.867,1.306,3.988l-0.854,2.525l2.633-0.838
		c1.084,0.711,2.379,1.127,3.773,1.127c3.779,0,6.855-3.053,6.855-6.805S18.932,247.273,15.152,247.273L15.152,247.273z
		 M19.27,255.941c-0.051-0.082-0.184-0.133-0.383-0.23c-0.199-0.1-1.184-0.58-1.367-0.646c-0.182-0.064-0.316-0.1-0.449,0.1
		s-0.516,0.646-0.633,0.777c-0.117,0.133-0.232,0.148-0.434,0.051c-0.199-0.101-0.845-0.311-1.607-0.984
		c-0.594-0.525-0.995-1.176-1.112-1.373c-0.116-0.199-0.013-0.307,0.087-0.404c0.092-0.09,0.2-0.232,0.301-0.348
		c0.1-0.117,0.133-0.2,0.199-0.332c0.066-0.133,0.034-0.248-0.018-0.348c-0.049-0.1-0.448-1.076-0.616-1.473
		c-0.166-0.396-0.333-0.33-0.45-0.33c-0.115,0-0.25-0.018-0.383-0.018c-0.135,0-0.35,0.05-0.533,0.248
		c-0.184,0.197-0.699,0.679-0.699,1.652c0,0.978,0.715,1.92,0.815,2.053s1.382,2.201,3.415,2.994
		c2.033,0.795,2.033,0.529,2.398,0.496c0.367-0.033,1.184-0.479,1.35-0.943C19.32,256.42,19.32,256.023,19.27,255.941L19.27,255.941
		z"/>
</g>
<g>
	<path fill="#FFFFFF" d="M53.428,254.078c0,4.469-3.65,8.092-8.154,8.092c-1.432,0-2.775-0.364-3.943-1.006l-4.516,1.436
		l1.473-4.344c-0.742-1.219-1.17-2.648-1.17-4.178c0-4.469,3.65-8.094,8.156-8.094C49.777,245.984,53.428,249.609,53.428,254.078
		L53.428,254.078z M45.273,247.273c-3.783,0-6.857,3.053-6.857,6.805c0,1.488,0.484,2.867,1.305,3.988l-0.854,2.525l2.633-0.838
		c1.084,0.711,2.379,1.127,3.773,1.127c3.779,0,6.855-3.053,6.855-6.805S49.053,247.273,45.273,247.273L45.273,247.273z
		 M49.391,255.941c-0.051-0.082-0.184-0.133-0.383-0.23c-0.199-0.1-1.184-0.58-1.367-0.646c-0.182-0.064-0.316-0.1-0.449,0.1
		s-0.516,0.646-0.633,0.777c-0.117,0.133-0.232,0.148-0.434,0.051c-0.199-0.101-0.845-0.311-1.607-0.984
		c-0.594-0.525-0.995-1.176-1.112-1.373c-0.116-0.199-0.013-0.307,0.087-0.404c0.092-0.09,0.2-0.232,0.301-0.348
		c0.1-0.117,0.133-0.2,0.199-0.332c0.066-0.133,0.034-0.248-0.018-0.348c-0.049-0.1-0.448-1.076-0.616-1.473
		c-0.166-0.396-0.333-0.33-0.45-0.33c-0.115,0-0.25-0.018-0.383-0.018c-0.135,0-0.35,0.05-0.533,0.248
		c-0.184,0.197-0.699,0.679-0.699,1.652c0,0.978,0.715,1.92,0.815,2.053s1.382,2.201,3.415,2.994
		c2.033,0.795,2.033,0.529,2.398,0.496c0.367-0.033,1.184-0.479,1.35-0.943C49.441,256.42,49.441,256.023,49.391,255.941
		L49.391,255.941z"/>
</g>
<path fill="#3A3A3A" d="M15.061,300c8.285,0,15-6.715,15-15c0-8.27-6.715-15-15-15c-8.271,0-15,6.73-15,15
	C0.061,293.285,6.79,300,15.061,300"/>
<path fill="#6B757E" d="M45.182,300c8.285,0,15-6.715,15-15c0-8.271-6.715-15-15-15c-8.27,0-15,6.729-15,15
	C30.182,293.285,36.912,300,45.182,300"/>
<g id="x1vXKb.tif">
	<g>
		<path fill="#D62418" d="M14.216,278.266c0.521,0,1.042,0,1.564,0c0.023,0.006,0.048,0.015,0.071,0.015
			c0.518,0.007,1.036,0.012,1.553,0.021c0.44,0.006,0.879,0.011,1.318,0.027c0.861,0.033,1.723,0.066,2.585,0.113
			c0.349,0.019,0.704,0.043,1.045,0.115c0.782,0.164,1.372,0.596,1.705,1.34c0.155,0.344,0.279,0.703,0.326,1.076
			c0.081,0.65,0.146,1.303,0.19,1.957c0.079,1.162,0.054,2.327,0.031,3.491c-0.013,0.671-0.079,1.34-0.127,2.009
			c-0.035,0.494-0.139,0.973-0.295,1.443c-0.256,0.771-0.759,1.299-1.528,1.569c-0.354,0.124-0.723,0.157-1.093,0.177
			c-0.955,0.05-1.911,0.098-2.866,0.129c-0.825,0.028-1.65,0.033-2.476,0.048c-0.179,0.003-0.356,0.012-0.535,0.018
			c-0.357,0-0.716,0-1.073,0c-0.024-0.004-0.049-0.012-0.073-0.012c-0.443-0.008-0.885-0.012-1.328-0.021
			c-0.602-0.011-1.205-0.019-1.807-0.038c-0.878-0.028-1.757-0.052-2.633-0.107c-0.434-0.027-0.87-0.089-1.293-0.188
			c-0.671-0.16-1.195-0.539-1.5-1.18c-0.226-0.475-0.364-0.977-0.423-1.496c-0.098-0.857-0.165-1.718-0.173-2.581
			c-0.007-0.839-0.015-1.678,0.008-2.516c0.017-0.652,0.079-1.302,0.123-1.953c0.034-0.516,0.134-1.017,0.297-1.509
			c0.307-0.924,0.937-1.486,1.886-1.668c0.408-0.077,0.829-0.099,1.245-0.119c0.977-0.047,1.956-0.085,2.934-0.113
			c0.75-0.021,1.5-0.021,2.25-0.032C14.156,278.28,14.187,278.271,14.216,278.266z M18.209,284.843
			c-1.742-0.909-3.463-1.808-5.193-2.71c0,1.809,0,3.596,0,5.401C14.747,286.637,16.467,285.745,18.209,284.843z"/>
		<path fill-rule="evenodd" clip-rule="evenodd" fill="#FFFFFF" d="M18.209,284.843c-1.742,0.902-3.462,1.794-5.193,2.691
			c0-1.806,0-3.593,0-5.401C14.746,283.035,16.467,283.934,18.209,284.843z"/>
	</g>
</g>
<g id="x1vXKb.tif_1_">
	<g>
		<path fill="#FFFFFF" d="M44.506,278.266c0.521,0,1.042,0,1.563,0c0.023,0.006,0.048,0.015,0.071,0.015
			c0.518,0.007,1.035,0.012,1.553,0.021c0.44,0.006,0.88,0.011,1.318,0.027c0.861,0.033,1.724,0.066,2.586,0.113
			c0.349,0.019,0.703,0.043,1.045,0.115c0.782,0.164,1.371,0.596,1.705,1.34c0.155,0.344,0.279,0.703,0.326,1.076
			c0.08,0.65,0.145,1.303,0.189,1.957c0.079,1.162,0.054,2.327,0.031,3.491c-0.013,0.671-0.079,1.34-0.127,2.009
			c-0.035,0.494-0.139,0.973-0.295,1.443c-0.256,0.771-0.76,1.299-1.528,1.569c-0.354,0.124-0.724,0.157-1.093,0.177
			c-0.955,0.05-1.911,0.098-2.866,0.129c-0.825,0.028-1.65,0.033-2.476,0.048c-0.179,0.003-0.356,0.012-0.535,0.018
			c-0.357,0-0.716,0-1.073,0c-0.024-0.004-0.049-0.012-0.073-0.012c-0.442-0.008-0.885-0.012-1.327-0.021
			c-0.602-0.011-1.205-0.019-1.807-0.038c-0.878-0.028-1.757-0.052-2.633-0.107c-0.434-0.027-0.87-0.089-1.293-0.188
			c-0.671-0.16-1.195-0.539-1.501-1.18c-0.226-0.475-0.363-0.977-0.423-1.496c-0.098-0.857-0.165-1.718-0.173-2.581
			c-0.007-0.839-0.015-1.678,0.008-2.516c0.018-0.652,0.078-1.302,0.123-1.953c0.034-0.516,0.134-1.017,0.297-1.509
			c0.308-0.924,0.938-1.486,1.887-1.668c0.407-0.077,0.828-0.099,1.244-0.119c0.978-0.047,1.956-0.085,2.935-0.113
			c0.749-0.021,1.5-0.021,2.25-0.032C44.445,278.28,44.476,278.271,44.506,278.266z M48.498,284.843
			c-1.742-0.909-3.463-1.808-5.193-2.71c0,1.809,0,3.596,0,5.401C45.036,286.637,46.756,285.745,48.498,284.843z"/>
		<path fill-rule="evenodd" clip-rule="evenodd" fill="#6B757E" d="M48.498,284.843c-1.742,0.902-3.462,1.794-5.193,2.691
			c0-1.806,0-3.593,0-5.401C45.035,283.035,46.756,283.934,48.498,284.843z"/>
	</g>
</g>
<path fill="#262626" d="M15.121,330c8.285,0,15-6.715,15-15c0-8.27-6.715-15-15-15c-8.271,0-15,6.73-15,15
	C0.121,323.285,6.849,330,15.121,330"/>
<path fill="#6B757E" d="M45.242,330c8.285,0,15-6.715,15-15c0-8.271-6.715-15-15-15c-8.27,0-15,6.729-15,15
	C30.242,323.285,36.973,330,45.242,330"/>
<g>
	<g>
		<g>
			<g>
				<path fill="#FFFFFF" d="M14.782,319.76c-2.546,0-4.616-2.071-4.616-4.62s2.07-4.622,4.616-4.622s4.616,2.073,4.616,4.622
					S17.328,319.76,14.782,319.76z M14.782,312.021c-1.718,0-3.121,1.396-3.121,3.118c0,1.722,1.403,3.116,3.121,3.116
					s3.119-1.395,3.119-3.116C17.901,313.417,16.5,312.021,14.782,312.021z"/>
			</g>
		</g>
		<g>
			<circle fill="#FFFFFF" cx="19.598" cy="310.244" r="1.063"/>
		</g>
		<g>
			<path fill="#FFFFFF" d="M19.82,324.84h-9.68c-2.757,0-5-2.243-5-5v-9.68c0-2.757,2.243-5,5-5h9.68c2.757,0,5,2.243,5,5v9.68
				C24.82,322.597,22.577,324.84,19.82,324.84z M10.14,307.16c-1.654,0-3,1.346-3,3v9.68c0,1.654,1.346,3,3,3h9.68
				c1.654,0,3-1.346,3-3v-9.68c0-1.654-1.346-3-3-3H10.14z"/>
		</g>
	</g>
</g>
<g>
	<g>
		<g>
			<g>
				<path fill="#FFFFFF" d="M44.782,319.76c-2.546,0-4.616-2.071-4.616-4.62s2.07-4.622,4.616-4.622s4.616,2.073,4.616,4.622
					S47.328,319.76,44.782,319.76z M44.782,312.021c-1.718,0-3.121,1.396-3.121,3.118c0,1.722,1.403,3.116,3.121,3.116
					s3.119-1.395,3.119-3.116C47.901,313.417,46.5,312.021,44.782,312.021z"/>
			</g>
		</g>
		<g>
			<circle fill="#FFFFFF" cx="49.598" cy="310.244" r="1.063"/>
		</g>
		<g>
			<path fill="#FFFFFF" d="M49.82,324.84h-9.68c-2.758,0-5-2.243-5-5v-9.68c0-2.757,2.242-5,5-5h9.68c2.756,0,5,2.243,5,5v9.68
				C54.82,322.597,52.576,324.84,49.82,324.84z M40.141,307.16c-1.654,0-3,1.346-3,3v9.68c0,1.654,1.346,3,3,3h9.68
				c1.654,0,3-1.346,3-3v-9.68c0-1.654-1.346-3-3-3H40.141z"/>
		</g>
	</g>
</g>
<g>
	<polygon fill="#E1E1E1" points="4,341.5 25.5,341.5 25.5,352.5 15.5,352.5 15.5,363.5 25.5,363.5 25.5,372.5 15.5,372.5 
		15.5,386.5 24.5,386.5 24.5,386.5 24.5,397.5 6.014,397.5 	"/>
	<rect x="5.5" y="401.5" fill="#E1E1E1" width="19" height="17"/>
</g>
<g>
	<polygon fill="#E1E1E1" points="37.492,334.5 51.5,334.5 51.5,340.5 45.5,340.5 45.5,347.5 51.5,347.5 51.5,352.5 45.5,352.5 
		45.5,361.5 50.5,361.5 50.5,361.5 50.5,367.5 38.521,367.5 	"/>
	<rect x="38.5" y="369.5" fill="#E1E1E1" width="12" height="10"/>
</g>
<path fill="#3A5267" d="M28.204,456.762l-6.977-6.977c1.663-1.981,2.669-4.533,2.669-7.316c0-6.286-5.114-11.399-11.399-11.399
	c-6.286,0-11.399,5.113-11.399,11.399s5.114,11.399,11.399,11.399c2.783,0,5.334-1.006,7.316-2.669l6.977,6.977L28.204,456.762z
	 M12.497,451.868c-5.183,0-9.399-4.217-9.399-9.399s4.217-9.399,9.399-9.399s9.399,4.217,9.399,9.399
	c0,2.232-0.785,4.281-2.09,5.896l-0.103-0.103l-1.414,1.414l0.103,0.103C16.778,451.083,14.729,451.868,12.497,451.868z"/>
<path fill="#6B757E" d="M15.022,490.13c8.285,0,15-6.715,15-15c0-8.271-6.715-15-15-15c-8.27,0-15,6.729-15,15
	C0.022,483.415,6.753,490.13,15.022,490.13"/>
<g>
	<path fill="#FFFFFF" d="M3.337,469.93c-0.145-0.016-0.29,0-0.314,0.057c-0.024,0.058,0.133,0.101,0.229,0.101
		c0.096,0,0.29-0.072,0.253-0.087C3.469,469.986,3.337,469.93,3.337,469.93z"/>
	<path fill="#FFFFFF" d="M22.5,479.67c0-0.059,0.522-0.17,0.488-0.17h0.032c-0.049,0-0.122-0.025-0.175-0.053
		c-0.057-0.028-0.158,0.053-0.24,0.053h-0.05c-0.028,0-0.053-0.446-0.071-0.475c-0.027-0.043-0.072-0.525-0.123-0.525h0.042
		c-0.089,0-0.198,0.282-0.248,0.301c-0.072,0.029-0.193,0.001-0.29-0.071c-0.076-0.056-0.188-0.229-0.264-0.229h-0.042
		c-0.012,0-0.023,0.238-0.031,0.229c-0.061-0.057-0.218,0.028-0.29,0.028c-0.073,0-0.061,0.006-0.17,0.178
		c-0.063,0.101-0.053,0.192-0.072,0.222c-0.019,0.004-0.048,0.019-0.098,0.011c-0.087-0.012-0.091-0.015-0.058-0.038
		c0.011-0.006,0.023-0.266,0.037-0.274c0.036-0.023,0.083-0.354,0.124-0.354h-0.01c0.006,0,0.012,0.076,0.018,0.067
		c0.042-0.065,0.049-0.067,0.036-0.067h0.025c-0.014,0-0.092,0.051-0.171,0.079c-0.02,0.007-0.034,0.098-0.045,0.107
		c-0.085,0.045-0.028,0-0.207,0.04c-0.161,0.035-0.187-0.227-0.121-0.227h0.005c0.003,0,0.009,0.153,0.014,0.148
		c0.009-0.004,0.019,0.072,0.03,0.07c0.065-0.016,0.159-0.021,0.232-0.068c0.071-0.044,0.128-0.591,0.128-0.62
		c0-0.008,0-0.53-0.001-0.53h-0.024c-0.009,0-0.04,0-0.117,0c-0.02,0-0.035,0-0.047,0h0.045c-0.062,0-0.064,0-0.164,0h-0.032
		c-0.007,0-0.012,0.076-0.019,0.068c-0.043-0.055-0.091-0.068-0.141-0.068h0.037c-0.124,0-0.264-0.052-0.371-0.03
		c-0.146,0.028-0.228,0.214-0.301,0.058c-0.013-0.029-0.026-0.027-0.041-0.027h-0.032c-0.059,0-0.118-0.023-0.156-0.09
		c-0.001-0.002-0.003,0.09-0.004,0.09H19.6c-0.002,0-0.004-0.052-0.006-0.056c-0.049-0.086-0.17-0.022-0.206-0.065
		c-0.037-0.043-0.037-0.055-0.037-0.055s-0.157-0.276-0.072-0.403c0.019-0.03,0.035-0.421,0.05-0.421h-0.018c0.025,0,0.04,0,0.042,0
		h0.022c0.004,0,0.001,0.146-0.011,0.151c-0.006,0.002-0.012,0.118-0.018,0.127c-0.001-0.001-0.003,0.05-0.005,0.052
		c-0.036,0.014-0.097,0.242-0.157,0.227c-0.06-0.013-0.012-0.248-0.133-0.332c-0.012-0.009-0.024-0.225-0.037-0.225h0.05
		c-0.083,0-0.192,0-0.255,0h0.008c-0.047,0-0.081-0.047-0.081-0.018c0,0.049-0.028,0.018-0.046,0.018h-0.026
		c-0.013,0-0.036,0.257-0.061,0.201c-0.036-0.086-0.205-0.162-0.29-0.077c-0.039,0.041-0.071-0.124-0.099-0.124h0.03
		c-0.036,0-0.067,0.052-0.101,0.052c-0.029,0-0.069,0.126-0.111,0.156c-0.056,0.032-0.116,0.142-0.153,0.222
		c-0.048,0.104-0.043-0.047-0.063,0c-0.023-0.01-0.039-0.43-0.046-0.43h-0.023c-0.006,0-0.246-0.17-0.246-0.21
		c0-0.002,0,0.21,0,0.21l0,0c0,0,0,0.22,0,0.217c0-0.086,0.279-0.123,0.183-0.151c-0.042-0.013-0.023,0.064-0.072,0.097
		c-0.051,0.031-0.068,0.102-0.107,0.129c-0.009,0.004,0,0.021-0.006,0.022c-0.019,0.005-0.035,0.024-0.062,0.044
		c-0.063,0.037-0.144,0.119-0.202,0.209c-0.066,0.106-0.103,0.176-0.165,0.219c-0.073,0.036-0.171-0.316-0.147-0.357
		c0.013-0.022-0.046-0.428-0.11-0.428h-0.048c-0.047,0-0.091,0.278-0.105,0.301c-0.008,0.013-0.021,0.18-0.035,0.191
		c-0.05,0.034-0.471,0.146-0.545,0.186c-0.109,0.057-0.578-0.252-0.578-0.309c0-0.001,0-0.369,0-0.369h0.666
		c-0.022,0-0.056,0-0.071,0h0.024c-0.003,0-0.006,0.102-0.007,0.074c-0.004-0.07,0-0.074,0.007-0.074h-0.021
		c0.007,0,0.018,0,0.031-1h0.019c0.008,0,0.017,0.074,0.025,0.045c0.016-0.05-0.019-0.045-0.069-0.045H16.07
		c-0.062,0-0.142,0.207-0.187,0.215c-0.085,0.014-0.169,0.285-0.253,0.271c-0.085-0.014-0.049-0.204-0.182-0.204
		c-0.119,0-0.045-0.281-0.011-0.281h0.017c0.006,0,0.013-0.392,0.017-0.411c0.013-0.069-0.001-0.589,0.003-0.589h-0.021
		c0.005,0,0.024-0.026,0.08-0.075c0.007-0.005,0.011,0.075,0.017,0.075h0.01c0.077,0,0.09,0,0.07,0h-0.025
		c-0.014,0-0.04,0.277-0.071,0.272c-0.084-0.014-0.242,0.228-0.35,0.214c-0.109-0.016-0.193,0.192-0.158,0.321
		c0.037,0.128-0.06,0.26-0.097,0.245c-0.036-0.014-0.084-0.062-0.218,0.053c-0.133,0.113-0.182-0.429-0.314-0.558
		c-0.016-0.016-0.032-0.548-0.049-0.548h0.038c-0.088,0-0.176,0-0.228,0h-0.029c-0.017,0-0.029,0.014-0.035-0.032
		c-0.002-0.021-0.004,0.032-0.006,0.032h0.023c-0.011,0-0.018,0-0.015,0h-0.02c0.003,0,0.01-0.03,0.029-0.075
		c0.003-0.005,0.005,0.075,0.007,0.075h0.018c0.034,0,0.043,0,0.018,0H14.12c-0.01,0-0.021,0.061-0.037,0.054
		c-0.05-0.02,0.01-0.054,0.08-0.054h0.003c0.014,0,0.029-0.218,0.045-0.228c0.014-0.01,0.027-0.114,0.041-0.118
		c0.022-0.008,0.04-0.072,0.067-0.09c0.078-0.049,0.181,0.229,0.181,0.183c0-0.001,0,0.253,0,0.253h0.005
		c0.04,0,0.148-0.364,0.267-0.364c0.133,0,0.157-0.167,0.291-0.083c0.062,0.041,0.1,0.286,0.124,0.264
		c0.028-0.011,0.044,0.184,0.051,0.184h-0.02c0.001,0,0.002-0.357,0.002-0.364c0-0.042,0.075-0.241,0.22-0.226
		c0.146,0.012,0.325-0.198,0.36-0.155c0.037,0.043,0.109,0.172,0.182,0.115c0.073-0.058,0.098-0.179,0.121-0.009
		c0.024,0.174,0.085,0.419,0.193,0.462s0.049,0.211,0.157,0.225c0.018,0.002,0.033,0.093,0.048,0.081
		c0.058-0.018,0.094-0.129,0.104-0.129h-0.021c0.004,0,0.001-0.002-0.009-0.031c-0.006-0.017-0.013,0.031-0.02,0.031h0.027
		c-0.023,0-0.055,0-0.088,0h-0.028c-0.021,0-0.041-0.01-0.061-0.032c-0.013-0.017-0.018,0.032-0.016,0.032h0.023
		c-0.006,0,0.054-0.603,0.133-0.663c0.007-0.004,0.015-0.224,0.022-0.229c0.006,0,0.013-0.114,0.02-0.118
		c0.001,0,0.002,0.517,0.004,0.515c0.01-0.004,0.023,0.496,0.035,0.496H16.62c0.055,0,0.114,0,0.171,0h0.011
		c0.072-1,0.139-0.849,0.181-0.892c0.008-0.008,0.019-0.347,0.03-0.354c0.111-0.059,0.297,0.145,0.236,0.048
		c-0.008-0.013-0.015,0.198-0.023,0.198h0.032c-0.064,0-0.122,0-0.128,0h-0.025c0.001-1,0.072-0.6,0.109-0.543
		c0.036,0.059,0.181-0.22,0.145-0.291c-0.005-0.01-0.009-0.166-0.012-0.166h0.027c-0.017,0-0.016-0.231,0.008-0.258
		c0.011-0.005,0.022-0.075,0.037-0.073c0.032,0.005,0.055-0.037,0.069-0.054c0.045-0.018,0.055,0.182,0.026,0.137
		c-0.003-0.004-0.003,0.248-0.004,0.248h-0.023c0.01,0,0.104-0.374,0.173-0.35c0.086,0.029,0.364,0.284,0.401,0.227
		c0.017-0.025-0.01,0.123-0.043,0.123h0.033c-0.042-1-0.102-0.486-0.102-0.557c0-0.029,0.011-0.443,0.027-0.443h-0.012
		c0.048,0,0.134-0.133,0.191-0.143c0.085-0.014,0.194,0.102,0.206,0.059c0.001-0.005,0.005,0.084,0.009,0.084h0.015
		c0.007,0,0.032-0.156,0.058-0.178c0.03-0.016,0.058-0.07,0.063-0.025c0.011,0.1,0,0.244,0.096,0.244
		c0.098,0,0.218-0.142,0.254-0.155c0.036-0.016,0.266-0.077,0.314-0.093c0.037-0.012,0.216-0.035,0.281-0.089
		c0.033-0.018,0.055,0.208,0.043,0.177c-0.016-0.045-0.033,0.119-0.049,0.119h-0.029c-0.018,0-0.036-0.328-0.054-0.35
		c-0.036-0.043-0.073-0.111-0.121-0.04c-0.007,0.011-0.017,0.204-0.025,0.212c-0.037,0.02-0.075,0.178-0.096,0.178h-0.036
		c-0.023,0,0.012-0.479-0.072-0.422c-0.085,0.057-0.097,0.334-0.146,0.306c-0.032-0.02-0.065,0.116-0.082,0.116h0.031
		c-0.013,0-0.022-0.384-0.022-0.384s0.121,0.241,0.036,0.112c-0.012-0.016-0.023,0.271-0.036,0.271h-0.042c-0.063,0-0.138,0-0.215,0
		h-0.007c-0.009,0-0.018-0.478-0.027-0.472c-0.12,0.072-0.108-0.185-0.253-0.144c-0.145,0.043-0.218,0.45-0.218,0.45
		s0.021,0.165,0.061,0.165h-0.017c0.017,0,0.036-0.556,0.059-0.58c0.079-0.079,0.311-0.297,0.4-0.363
		c0.017-0.008,0.032-0.138,0.042-0.149c0.003-0.004,0.008-0.067,0.012-0.069c0.085-0.029,0.231,0.036,0.231,0.036
		s0.007-0.023,0.017-0.033c0.002,0.002,0.005-0.003,0.005-0.003s0.024-0.034,0.048-0.053c0.015-0.008,0.026-0.007,0.026,0.017
		c0,0.072-0.024,0.257,0.049,0.257c0.072,0,0.277,0.466,0.193,0.436c-0.05-0.017-0.022,0.506,0.025,0.506h0.002
		c0.031,0,0.08-0.633,0.121-0.665c0.088-0.057,0.241-0.274,0.287-0.302c0.005-0.004,0.01-0.153,0.016-0.157
		c0.002-0.001,0.006-0.073,0.007-0.073c0.036-0.023,0.064-0.133,0.11-0.17c0.012-0.006,0.023-0.028,0.037-0.028
		c0.084,0,0.121,0.12,0,0.206c-0.122,0.084-0.133,0.294-0.194,0.352c-0.061,0.057-0.024,0.126,0.072,0.112
		c0.097-0.016,0.181,0.011,0.266-0.017s0.133,0.371,0.157,0.414c0.015,0.028,0.048,0.328,0.072,0.328h0.004
		c0.013,0,0.024-0.365,0.032-0.374c0.036-0.006,0.153,0.144,0.194,0.206c0.023,0.035,0.045,0.168,0.055,0.168h0.015
		c0.018,0,0.022,0.059,0,0.016c-0.025-0.05-0.056-0.016-0.085-0.016h-0.029c-0.01,0-0.021-0.522-0.029-0.543
		c-0.036-0.086-0.084,0.223-0.181,0.252c-0.079,0.023-0.11,0.291-0.151,0.291h0.041c-0.015,0-0.03-0.606-0.049-0.62
		c-0.061-0.043-0.109-0.012-0.061-0.112c0.046-0.093,0.07-0.268,0.102-0.268h-0.016c0.021,0,0.085,0,0.101,0H20.1
		c0.017,0,0.011-0.408-0.06-0.428c-0.157-0.041-0.205,0.228-0.229,0.143c-0.002-0.004-0.005,0.285-0.007,0.285h-0.029
		c-0.035-1-0.122-1-0.185-1h0.042c-0.033,0-0.061-0.092-0.076-0.092c-0.048,0-0.28,0.218-0.292,0.146
		c-0.007-0.044-0.032-0.055-0.064-0.055h-0.029c-0.019,0-0.039,0.006-0.061-0.02c-0.013-0.015-0.034,0.02-0.058,0.02h0.033
		c-0.061,0-0.154-1-0.217-1h-0.034c-0.023,0-0.042,0.02-0.05,0.014c-0.037-0.027-0.084,0.022-0.193,0.194
		c-0.04,0.062-0.078,0.124-0.114,0.151c-0.055,0.033-0.106,0.042-0.153,0.018c-0.085-0.043-0.178-0.066-0.262-0.18
		c-0.042-0.058-0.001-0.197,0.045-0.197h-0.002c0.042,0,0.08,0.039,0.064,0.009c-0.029-0.057-0.155-0.009-0.266-0.009h0.104
		c-0.058,0-0.118-0.043-0.166-0.049c-0.121-0.014-0.206-0.183-0.387-0.196c-0.182-0.016-0.399,0.022-0.46,0.022
		c-0.014,0-0.024,0.003-0.032,0.015c-0.05,0.01-0.053,0.104-0.075,0.253c-0.019,0.125,0.043,0.175,0.017,0.207
		c-0.006,0.001-0.012,0.004-0.019,0.006c-0.056,0.016-0.095,0.025-0.106,0.04c-0.039,0.018-0.037,0.036,0.036,0.075
		c0.108,0.057,0.253,0.284,0.253,0.284s0,0.13-0.084,0.2c-0.084,0.072-0.168,0.193-0.217,0.108
		c-0.004-0.007-0.009,0.034-0.014,0.034h0.035c-0.036,0-0.11-0.119-0.137-0.088c-0.028,0.008-0.044,0.005-0.029,0.043
		c0.037,0.085,0.109,0.115,0.109,0.201s0.108,0.294,0.036,0.364c-0.072,0.072-0.157,0.011-0.218,0.026
		c-0.061,0.014-0.121,0.199-0.073,0.171c0.008-0.005,0.013,0.282,0.016,0.282h0.019c0.022,0-0.024-0.541-0.024-0.541
		s-0.007-0.146-0.019-0.129c-0.002-0.009-0.004-0.094-0.004-0.094s-0.058,0.059-0.098,0.097c-0.01,0.001-0.016,0.429-0.013,0.401
		c0.009-0.09-0.024,0.266-0.045,0.266H16.28c-0.005-1-0.01-0.439-0.01-0.463c0-0.043-0.02-0.537-0.05-0.537h0.035
		c-0.041,0-0.108-0.163-0.176-0.144c-0.109,0.028-0.209,0.026-0.415-0.018c-0.205-0.043-0.29,0.11-0.458,0.009
		c-0.02-0.012-0.038,0.152-0.055,0.152h-0.065c-0.05,0-0.089,0-0.122,0h-0.021c-0.017,0-0.034,0.01-0.051,0.014
		c-0.015,0.002-0.025-0.014-0.034-0.014h-0.034c-0.026,0-0.031,0-0.091,0h0.042c-0.01,0-0.022-0.309-0.04-0.312
		c-0.108-0.028-0.039-0.275-0.063-0.461c0-0.004-0.001-0.227-0.002-0.227h-0.026c-0.017,0-0.043,0,0.02,0h0.008
		c0.027,0,0.078,0.071,0.171,0.001c0.076-0.058,0.125-0.001,0.165-0.001h-0.009c0.088,0,0.117-0.303,0.258-0.32
		c0.205-0.029,0.28,0.304,0.28,0.232c0-0.016,0.004,0.088,0.01,0.088h0.021c0.009,0,0.026-0.422,0.04-0.479
		c0.006,0.139,0.24,0.026,0.133,0.124c-0.108,0.1-0.049,0.051,0.036,0.051c0.084,0,0.242-0.134,0.242-0.134s0.193-0.116,0.242-0.03
		c0.048,0.086,0.048,0.422,0.133,0.422c0.081,0,0.249,0.047,0.122,0.047h0.04c-0.008,0-0.017-0.276-0.03-0.284
		c-0.157-0.101-0.254,0.183-0.351,0.069c-0.023-0.027-0.039,0.215-0.052,0.215h-0.042c-0.011,0-0.021,0-0.033,0h-0.013
		c-0.012,0-0.025,0.009-0.042,0.014c-0.059,0.014-0.085-0.014-0.104-0.014h-0.037c-0.009,0-0.016-0.414-0.027-0.414
		c-0.036,0-0.096-0.172-0.12-0.229c-0.024-0.057,0.012-0.17,0.133-0.17c0.12,0,0.266-0.008,0.266-0.008s0.145-0.082,0.182-0.097
		c0.022-0.008,0.107-0.036,0.157-0.077c0.043-0.025,0.075,0.066,0.059,0.008c-0.026-0.095-0.097-0.014-0.147-0.014h-0.051
		c-0.007,0-0.014-0.145-0.018-0.15c-0.037-0.043,0.072-0.166,0.133-0.195c0.06-0.028-0.398-0.034-0.398-0.034
		s-0.518-0.019-0.518-0.076c0-0.001,0,0.456,0,0.456h1.273c0.002,0,0.003-0.236,0.003-0.242c0-0.029-0.006-0.177-0.002-0.196
		c0.008,0.001,0.016-0.053,0.028-0.047c0.073,0.043,0,0.144,0.108,0.114c0.109-0.027,0.133-0.014,0.193,0.029
		c0.056,0.04-0.001,0.18-0.059,0.227c-0.018,0.008-0.037,0.016-0.053,0.026c-0.051,0.03-0.091,0.067,0.016,0.078
		c0.133,0.013,0.229,0.521,0.229,0.521s0.004,0.49,0.012,0.49c0.006,0,0.011,0,0.011,0s0.085-0.606,0.12-0.692
		c0.006-0.013,0.012-0.274,0.018-0.282c0.033-0.008,0.072-0.104,0.105-0.084c0.039,0.023,0.166-0.008,0.122,0.034
		c-0.011,0.006-0.023-0.021-0.039-0.015c-0.057,0.019-0.099,0.025-0.13,0.047c-0.081,0.047-0.107,0.092-0.134,0.144
		c-0.015,0.026-0.024,0.443-0.039,0.459c-0.026,0.014-0.067,0.39-0.142,0.39h-0.093c-0.057,0-0.102,0-0.136,0h-0.015
		c-0.003,0-0.004-0.394-0.007-0.392c-0.022,0.012-0.04-0.173-0.052-0.151c-0.036,0.072-0.012,0.201,0.048,0.172
		c0.061-0.028,0.122-0.078,0.194-0.106s0.362,0.003,0.435-0.01c0.073-0.016,0.193,0.13,0.23,0.101
		c0.036-0.027,0.108,0.051,0.181,0.109c0.024,0.018,0.038,0.17,0.05,0.154c0.017-0.002,0.027,0.123,0.041,0.123H18.01
		c0.019,0,0.047-0.18,0.099-0.137c0.133,0.115,0.061,0.034,0.133,0.034s0.23-0.028,0.23-0.028s0-0.026,0.002-0.036
		c0.012,0.001,0.02-0.009,0.02-0.009s0.006-0.066,0.043-0.101c0.018-0.008,0.039-0.013,0.066-0.005
		c0.11,0.025,0.209,0.153,0.217,0.092c0.018,0.007,0.027,0.163,0.023,0.126c-0.003-0.036-0.004,0.063-0.005,0.063h-0.023
		c-0.004,0-0.017-0.023-0.079-0.076c-0.006-0.006-0.014,0.076-0.021,0.076h0.041c-0.097,0-0.251,0-0.275-0.043
		c-0.018-0.03-0.034,0.043-0.029,0.043h-0.015c0.002,0,0.004-0.411,0.009-0.414c0.036-0.028,0.206-0.186,0.302-0.113
		c0.097,0.07,0.181,0.043,0.254-0.015c0.005-0.004,0.01-0.058,0.016-0.06c0.002-0.002,0.004-0.028,0.007-0.03
		c0.014-0.01,0.027-0.032,0.041-0.04c0.036-0.021,0.071-0.046,0.099-0.065c0.021-0.013,0.041,0.369,0.054,0.354
		c0.003-0.005,0.007,0.383,0.011,0.383h-0.012c0.041,0,0.1-0.049,0.1-0.049s-0.112,0.049-0.22,0.049h0.083
		c-0.104,0-0.226-0.552-0.252-0.593c-0.049-0.07-0.218-0.281-0.266-0.281c-0.044,0-0.158,0.874-0.215-0.126h-0.03
		c-0.002,0-0.005,0.086-0.007,0.08c-0.02-0.059-0.032-0.08-0.042-0.08h0.025c-0.017,0-0.027-0.02-0.059-0.029
		c-0.039-0.011-0.373,0.029-0.541,0.029h-0.072c-0.017,0-0.03-0.416-0.038-0.422c-0.06-0.035-0.266,0.422-0.398-0.578h0.054
		c-0.042,0-0.079-0.003-0.104-0.021c-0.109-0.071-0.266-0.153-0.362-0.153c-0.098,0-0.497,0.066-0.568,0.051
		c-0.073-0.014-0.291,0.034-0.375,0.048c-0.011,0.002-0.017,0.011-0.021,0.017c0,0-0.002,0.002-0.002,0.002
		c-0.084,0.015,0.109,0.165-0.072,0.209c-0.173,0.041-0.159,0.848-0.126-0.152h0.021c0.002,0,0.004,0.01,0.007-0.006
		c0.036-0.215-0.121-0.254-0.278-0.168c-0.095,0.053-0.225,0.104-0.298,0.15c-0.063,0.034-0.103,0.075-0.075,0.12
		c0.061,0.1-0.012,0.175,0.109,0.274c0.122,0.1,0.169,0.129,0.327,0.114c0.157-0.014,0.314,0.03,0.314,0.03s0,0.307-0.061,0.334
		c-0.012,0.006-0.026,0.15-0.041,0.15h-0.021c-0.023,0-0.046-0.115-0.064-0.1c-0.024,0.014-0.045-0.036-0.055-0.004
		c-0.008,0.031-0.029,0.021-0.052,0.04c-0.036,0.019-0.07,0.139-0.07,0.116c0-0.028,0.026-0.053,0.018-0.053h-0.025
		c-0.005,0-0.017-0.188-0.04-0.207c-0.085-0.07-0.108-0.153-0.206-0.081c-0.096,0.071-0.108,0.296-0.157,0.181
		c-0.013-0.031-0.034,0.107-0.056,0.107h0.034c-0.062,0-0.149,0-0.149,0s-0.05,0-0.104,0h-0.035c-0.018,0-0.035-0.412-0.052-0.428
		c-0.072-0.072-0.205-0.242-0.218-0.171c-0.012,0.071,0.024,0.05,0.072,0.178c0.041,0.107,0.062,0.19,0.019,0.239
		c-0.003,0.002-0.006-0.019-0.01-0.017c-0.02,0.002-0.035-0.001-0.046,0.011c-0.047,0.02-0.055,0.068-0.094,0.102
		c-0.005,0.002-0.008,0.002-0.014,0.003c-0.084,0.029-0.122,0.091-0.122-0.022c0-0.01-0.001,0.105-0.001,0.105h-0.023
		c-0.005,0-0.02,0-0.014,0h0.02c0,0,0.002-0.26,0.008-0.27c0.024-0.043-0.097-0.086-0.218-0.115
		c-0.059-0.014-0.11-0.058-0.135-0.036c-0.05,0.021-0.062,0.038,0.015,0.065c0.105,0.037,0.138,0.155,0.072,0.22
		c-0.004,0.002-0.008-0.001-0.013,0.001c-0.108,0.041-0.519-0.004-0.652-0.004c-0.133,0-0.326,0.176-0.362,0.09
		c-0.014-0.033,0,0.049,0.025,0.049h-0.002c0.043,0,0.06-0.178,0.104-0.178c0.084,0,0.392,0.006,0.392-0.15c0-0.002,0,0.328,0,0.328
		h0.099c0.003,0,0.008-0.236,0.011-0.242c0.096-0.156-0.121,0.07-0.218,0.07c-0.07,0-0.128,0.172-0.196,0.172h-0.038
		c-0.021,0-0.043-0.449-0.067-0.479c-0.037-0.043-0.039-0.521-0.028-0.521h0.019c0.013,0,0.097-0.095,0.08-0.135
		c-0.023-0.058-0.145,0.004-0.253,0.004c-0.06,0-0.136-0.02-0.193-0.029c0.049,0.002,0.086,0.001,0.099-0.017
		c0.012-0.003,0.022,0.101,0.026,0.091c0.003-0.008,0.01,0.086,0.016,0.086h-0.011c0.031,0,0.071,0.051,0.077,0.008
		c0.003-0.021,0.011-0.008,0.019-0.008h0.02c0.015,0,0.032-0.352,0.032-0.352s-0.048-0.204-0.129-0.157
		c-0.08,0.048-0.104-0.132-0.177-0.151c-0.053-0.014-0.068-0.34-0.122-0.34h-0.115c-0.021,0-0.038,0.176-0.054,0.186
		c-0.073,0.039-0.095,0.178-0.127,0.209c-0.005,0.004-0.013,0.047-0.019,0.052c-0.043,0.021-0.096,0.052-0.12,0.04
		c-0.032-0.02-0.218-0.292-0.218-0.292s-0.249-0.194-0.355-0.194h-0.056c-0.007,0-0.013,0.148-0.014,0.143
		c-0.016-0.057-0.081-0.073-0.258-0.054c-0.177,0.019-0.483,0.183-0.532,0.183c-0.038,0,0.017,0.088,0.012,0.119
		c-0.047,0-0.103,0.005-0.138,0.037c-0.023,0.011-0.042,0.034-0.052,0.068c-0.016,0.058,0.072,0.061,0.178,0.061
		c0.104,0,0.274,0.001,0.322-0.028c0.048-0.027,0.29-0.095,0.282-0.009c-0.008,0.086,0.096,0.221,0.152,0.201
		c0.057-0.021,0.17-0.143,0.226-0.096c0.057,0.049,0.064,0.162,0.121,0.19c0.057,0.028,0.21,0.028,0.282,0s0.274-0.028,0.363-0.009
		c0.05,0.01,0.153,0.033,0.238,0.041c-0.02,0-0.034,0.005-0.043,0.017c-0.021,0.006-0.034,0.02-0.034,0.052
		c0,0.086,0.075,0.293,0.076,0.359c-0.001,0-0.003,0.369-0.005,0.367c-0.005-0.004-0.009,0.357-0.013,0.357h-0.037
		c-0.045,0-0.053,0-0.083-1h0.029c-0.008,0-0.017-0.003-0.03-0.021c-0.061-0.086-0.157-0.054-0.278-0.039s-0.327,0.065-0.387,0.052
		c-0.061-0.014-0.012,0.097-0.145,0.024c-0.133-0.07-0.193-0.017-0.289-0.017h-0.04c-0.069,0-0.008-0.193-0.166-0.207
		c-0.169-0.014-0.157,0.047-0.326,0.019c-0.169-0.028-0.218-0.013-0.387-0.027c-0.17-0.014-0.254-0.041-0.278,0.059
		c-0.024,0.102-0.072,0.267-0.145,0.267s-0.157,0.096,0.073,0.109c0.229,0.016,0.096,0.143,0.302,0.127
		c0.17-0.012,0.323,0.355,0.398,0.289c0.003,0,0.008,0.365,0.011,0.365h-0.004c0.013,0,0.023-0.396,0.031-0.414
		c0.048-0.113,0.084-0.299,0.108-0.256c0.024,0.043,0.206,0.207,0.206,0.207s0.121,0.066,0.169,0.096s-0.048,0.134-0.145,0.062
		c-0.097-0.07-0.278,0.162-0.351,0.09c0,0-0.002,0.216-0.003,0.216h0.042c-0.005,0-0.012-0.236-0.017-0.242
		c-0.073-0.07-0.268-0.215-0.353-0.201c-0.084,0.014-0.361-0.069-0.409-0.069c-0.015,0-0.041-0.015-0.068,0.003
		c-0.065,0.039-0.16,0.341-0.16,0.341s-0.01,0.169-0.024,0.169h0.03c-0.021,0-0.056-0.33-0.08-0.371
		c-0.016-0.025-0.037-0.129-0.061-0.111c-0.024,0.011-0.052-0.013-0.078,0.009C9.722,467.028,9.72,467,9.718,467
		c-0.049,0.014-0.193-0.128-0.339-0.07c-0.041,0.015-0.065,0.025-0.085,0.039c-0.02,0.012-0.035,0.02-0.049,0.029
		c-0.031,0.018-0.071,0.025-0.168,0.019c-0.206-0.016-0.343-0.058-0.415-0.044c-0.073,0.014-0.162,0.014-0.162,0.014
		s0,0.004,0,0.011c0,0.003,0.066,0.004,0.066,0.004s0.057,0.058-0.027,0.114c-0.085,0.058-0.123,0.129-0.184,0.043
		c-0.061-0.086-0.085,0.143-0.122,0.129c-0.008-0.002-0.007,0.213-0.02,0.213h0.05c-0.037,0-0.11-0.311-0.262-0.27
		c-0.157,0.043-0.327-0.326-0.374-0.326c-0.049,0-0.557,0.438-0.654,0.41c-0.072-0.021-0.247,0.186-0.372,0.186H6.418
		c-0.097,0-0.212,0.031-0.212,0.031S6.13,467.5,6.062,467.5H5.953c-0.002,0-0.004,0-0.006,0c0,0-0.002,0-0.003,0H5.91
		c-0.048,0-0.108,0-0.151,0H5.5v-0.58c0-0.07-0.06-0.195-0.06-0.195s0.021,0.068-0.041,0.121c-0.005,0.004,0.017-0.014,0.011-0.011
		c-0.084,0.028-0.252,0.076-0.288,0.048c-0.037-0.029-0.345,0.108-0.345,0.108s-0.174,0.272-0.222,0.259
		c-0.018-0.006-0.051,0.25-0.09,0.25H4.48c-0.079,0-0.195-0.127-0.176-0.084c0.023,0.057,0,0.057,0.193,0.057
		s0.206,0.028,0.277,0.044c0.073,0.013,0.097,0.37,0.182,0.456c0.073,0.074,0.083,0.527,0.014,0.527H4.943
		c-0.004,0-0.006-0.399-0.011-0.4c-0.109-0.014-0.229-0.242-0.302-0.312c-0.072-0.072-0.072-0.172-0.072-0.172l-0.133,0.021
		c-0.17,0.014-0.388,0.089-0.388,0.089s0.061,0.116,0.169,0.202c0.109,0.086,0.375,0.078,0.375,0.078s0.16,0.011,0.239-0.049
		c0.014-0.006,0.027-0.017,0.038-0.025c0.007-0.007,0.013-0.014,0.021-0.02c0.06-0.033,0.123-0.023,0.162-0.011
		c0.048,0.013-0.036,0.2-0.169,0.186c-0.133-0.016-0.29,0.015-0.399,0.114c-0.108,0.1-0.205,0.113-0.157,0.228
		s0.229,0.258,0.242,0.329c0.008,0.046,0.097-0.059,0.165-0.105c0.039-0.023,0.074-0.152,0.091-0.152H4.799
		c0.024,0,0.145,0,0.109,0.158c-0.037,0.156,0.12,0.222,0.12,0.222s0.004,0.009,0.01-0.001c0.008,0.002,0.013,0.013,0.013,0.013
		s0.037-0.067,0.071-0.101c0.005,0,0.011,0.004,0.016,0.007c0.036,0.029,0.157,0.36,0.157,0.36s0.02,0.169,0.045,0.169l0,0.001
		c0.002,0,0.005-0.203,0.008-0.206c0.05-0.029,0.123,0.032,0.152,0.086c0.049,0.086-0.072,0.292-0.145,0.292H5.351
		c-0.096,0-0.317-0.046-0.372-0.008c-0.005,0.004-0.012-0.088-0.019-0.084c0,0.001-0.003-0.047-0.004-0.045
		c-0.002,0.002-0.007,0.031-0.009,0.033c-0.035,0.022-0.084,0.104-0.135,0.104h0.005c-0.083,0-0.176,0.037-0.211,0.037
		c-0.061,0-0.084,0.146,0.024,0.132c0.108-0.015,0.411-0.155,0.496-0.198c0.084-0.043,0.115,0.186,0.333,0.057
		c0.038-0.021,0.07-0.027,0.1-0.027h0.005c0.114,0,0.174-0.246,0.219-0.287c0.007-0.004,0.013-0.031,0.02-0.03
		c0.06,0.015,0.072,0.103,0.169,0.13c0.044,0.014,0.087-0.009,0.125-0.036c0.054-0.03,0.102,0.103,0.14,0.077
		c0.013-0.01,0.024,0.146,0.036,0.146H6.258c0.034,0,0.048-0.346,0.004-0.336c-0.061,0.015-0.218,0.19-0.218,0.19
		s0.027,0.146,0.061,0.146h0.005c0.05,0,0.127-0.465,0.127-0.514c0-0.037,0.007-0.486,0.025-0.486H6.249
		c0.019,0,0.044,0.004,0.085-0.014c0.097-0.043,0.097,0.021,0.037,0.192c-0.054,0.152,0.083,0.132,0.165,0.071
		c0.016-0.01,0.031-0.013,0.044-0.024c0.069-0.035,0.153,0.13,0.277,0.036c0.002-0.002,0.004-0.002,0.006-0.005
		c0.006-0.004,0.01-0.073,0.017-0.078c0.04-0.03,0.063-0.179,0.08-0.179H6.942c0.032,0,0.033-0.1,0.081-0.1
		c0.072,0,0.205,0.192,0.278,0.136s0.258,0.136,0.378,0.136c0.121,0,0.528,0.147,0.601,0.147c0.072,0,0.29,0.104,0.303,0.29
		c0.012,0.186,0.084,0.175,0.156,0.175c0.073,0,0.243,0.071,0.243,0.144s-0.049,0.358,0.072,0.431
		c0.121,0.07,0.229,0.501,0.278,0.472c0.024-0.015,0.024,0.17,0.01,0.17h0.025c-0.013,0-0.041,0.003-0.073-0.013
		c-0.043-0.021-0.038,0.013-0.039,0.013H9.232c-0.001-1-0.003-0.488-0.008-0.5c-0.024-0.057,0.072-0.285,0.108-0.185
		c0.037,0.1,0.133,0.171,0.193,0.171s0.193,0.113,0.157,0.213c-0.036,0.102,0.013,0.275,0.121,0.275c0.109,0,0.266,0.126,0.314,0.14
		c0.048,0.015,0.076,0.132,0.076,0.175s0.094,0.229,0.094,0.329s-0.036,0.499-0.048,0.653c-0.013,0.16,0.097,0.428,0.217,0.571
		c0.121,0.143,0.099,0.462,0.171,0.521c0.073,0.057,0.252,0.164,0.361,0.15c0.108-0.014,0.182,0.086,0.278,0.285
		c0.096,0.2,0.193,0.529,0.266,0.558c0.073,0.028,0.193,0.128,0.133,0.2c-0.06,0.072-0.157,0.229-0.048,0.229
		c0.108,0,0.145-0.072,0.229,0.057c0.084,0.129,0.193,0.2,0.182,0.286c-0.013,0.086,0.096,0.114,0.145,0.129
		c0.047,0.013,0.149,0.252,0.255,0.166c0.011-0.005,0.022-0.146,0.034-0.158c0.037-0.039,0.032-0.265,0.006-0.265h-0.031
		c-0.045,0-0.134,0-0.189,0h0.04c-0.017,0-0.033,0.113-0.043,0.104c-0.051-0.049-0.032-0.104-0.072-0.104h-0.028
		c-0.018,0-0.046,0.012-0.092-0.031c-0.022-0.022-0.042,0.031-0.058,0.031h0.036c-0.098,0-0.112,0-0.172,0h-0.033
		c-0.011,0-0.023,0.066-0.038,0.054c-0.054-0.052-0.102-0.054-0.129-0.054h0.031c-0.041,0-0.047-0.552,0.022-0.61
		c0.101-0.059,0.115-0.095,0.161,0.024c0.048,0.129,0.302,0.278,0.411,0.394c0.109,0.114,0.303,0.46,0.363,0.46
		c0.061,0,0.23,0.202,0.23,0.202s0.097,0.171,0.06,0.229c-0.036,0.055,0.048,0.264,0.133,0.321c0.085,0.056,0.454,0.056,0.472,0.269
		c0.005,0.055,0.065,0.326,0.198,0.326s0.31-0.072,0.346-0.031c0.034,0.041,0.22,0.191,0.292,0.127
		c0.014-0.004,0.125-0.293,0.125-0.307c0-0.002,0-0.404,0-0.404h-0.188c0.062,0,0.08,0.215,0.183,0.215
		c0.108,0,0.157,0.271,0.217,0.342c0.061,0.071,0.23,0.344,0.314,0.328c0.085-0.014,0.193,0.156,0.254,0.114
		c0.06-0.043,0.157,0.05,0.206,0.078c0.048,0.028,0.149,0.146,0.138,0.317c-0.012,0.17,0.164,0.213,0.236,0.256
		s0.169,0.145,0.23,0.217c0.06,0.072,0.194,0.088,0.23,0.131c0.036,0.043,0.06,0.175,0.169,0.103
		c0.064-0.041,0.082-0.101,0.086-0.101h0.021c0.004,0,0.003-0.091,0.002-0.103c0.038-0.004,0.113-0.032,0.157,0.011
		c0.062,0.057,0.098,0.23,0.133,0.259c0.037,0.028,0.109,0.236,0.061,0.395c-0.048,0.157-0.037,0.312-0.085,0.312
		c-0.047,0-0.181,0.147-0.253,0.19c-0.073,0.043-0.193,0.279-0.181,0.351c0.011,0.071,0.053,0.297,0.029,0.398
		c-0.024,0.098-0.114,0.2-0.078,0.358c0.037,0.156,0.291,0.198,0.302,0.341c0.013,0.143,0.194,0.458,0.218,0.6
		c0.024,0.144,0.154,0.309,0.154,0.509s0.365,0.32,0.426,0.334c0.061,0.015,0.169,0.144,0.254,0.187
		c0.084,0.043,0.157,0.128,0.218,0.242c0.061,0.115,0.048,0.286,0.048,0.329s-0.036,0.485-0.072,0.743
		c-0.036,0.256,0.088,0.499,0.016,0.571c-0.073,0.071-0.209,0.099-0.136,0.185s-0.084,0.144-0.084,0.187s0.096,0.271,0.048,0.371
		c-0.048,0.101-0.084,0.242-0.121,0.328c-0.036,0.086-0.121,0.172-0.097,0.3c0.024,0.129-0.096,0.086-0.096,0.215
		s0.109,0.072,0.084,0.229c-0.024,0.157-0.084,0.2-0.084,0.313c0,0.115,0.06,0.272,0.06,0.315c0,0.042-0.06,0.186-0.145,0.3
		c-0.085,0.114-0.146,0.185-0.133,0.257c0.012,0.071,0.097,0.156,0.085,0.199c-0.013,0.043-0.122,0.187-0.109,0.286
		c0.012,0.101,0.121,0.058,0.145,0.128c0.024,0.071-0.145,0.129-0.072,0.201c0.072,0.07,0.169,0.057,0.145,0.228
		c-0.024,0.172,0.133,0.214,0.169,0.257c0.037,0.043,0.109,0.006,0.169,0.006c0.06,0,0.107-0.33,0.132-0.33h0.021
		c0.001,0,0.002,0.123,0.004,0.115c0.004-0.027,0.013,0.025,0.022,0.015c0.051-0.015,0.113,0.108,0.027,0.188
		c-0.121,0.115-0.181,0.189-0.145,0.189s0.218,0.123,0.314,0.123s0.29-0.053,0.327-0.067c0.036-0.015,0.291,0.215,0.323,0.173
		c0.005-0.003,0.011,0.264,0.015,0.264h-0.012c0.001-1-0.209-0.432-0.314-0.473c-0.045-0.018-0.105-0.527-0.162-0.527h0.037
		c-0.083,0-0.163-0.04-0.178-0.095c-0.004-0.014-0.006,0.095-0.009,0.095h-0.024c-0.006,0-0.002,0,0.022,0h0.017
		c0.011,0,0.029,0.08,0.054,0.062c0.054-0.035,0.156-0.062,0.236-0.062h-0.007c0.039,0,0.071,0.027,0.086,0.014
		c0.02-0.018,0.043-0.014,0.062-0.014h0.017c0.03,0,0.051-0.495,0.028-0.513c-0.036-0.028-0.218,0.31-0.242,0.267
		c-0.01-0.018-0.015,0.246-0.01,0.246h-0.019c0.012-1,0.042-0.479,0.104-0.529c0.024-0.021,0.046-0.471,0.065-0.471h0.01
		c0.087,0,0.136-0.058,0.177-0.094c0.014-0.013,0.032,0.094,0.051,0.094H18.79c0.045,0,0.093-0.008,0.116-0.071
		c0.003-0.01,0.004,0.071,0.006,0.071h0.019c0.029-1-0.041-0.34-0.111-0.34c-0.072,0-0.109-0.311-0.109-0.383
		c0-0.005,0.002-0.083,0.004-0.086c0.055-0.005,0.186,0.021,0.288,0.043c0.046,0.01,0.067-0.068,0.078-0.084
		c0.034-0.008,0.032-0.15,0.023-0.15h-0.026c-0.006,0-0.012,0.05-0.015,0.027c-0.005-0.037-0.001-0.027,0.011-0.027h0.018
		c0.007,0,0.018-0.094,0.032-0.109c0.01-0.004,0.023-0.023,0.037-0.017c0.072,0.044,0.447-0.024,0.495-0.038
		c0.006-0.002,0.012-0.012,0.02-0.02c0.001,0,0.003,0.18,0.004,0.18c0.026-0.008,0.079,0.004,0.13,0.004h-0.015
		c0.037-1,0.071-0.529,0.091-0.559c0.008-0.012,0.013-0.441,0.019-0.441h0.015c0.037,0,0.043,0.016-0.011-0.022
		c-0.029-0.021-0.082,0.022-0.132,0.022h-0.037c-0.05,0-0.095-0.005-0.106-0.024c-0.007-0.012-0.005,0.024,0,0.024h0.021
		c0.009-1,0.049-0.213,0.073-0.285c0.011,0.094,0.024,0.4,0.158,0.445c0.169,0.058,0.266,0.096,0.423-0.076
		c0.03-0.033,0.059-0.084,0.086-0.084h0.008c0.104-1,0.183-1,0.209-1h-0.02c0.002,0,0.005,0.077,0.005,0.069
		c0.006-0.058,0.019-0.069,0.037-0.069h0.018c0.018,0,0.043,0.156,0.074,0.133c0.024-0.012,0.048-0.004,0.073-0.023
		c0.03-0.018,0.06-0.109,0.096-0.109H20.88c0.003,0,0.007,0.08,0.01,0.07c0.065-0.166,0.12-0.07,0.184-0.07h0.012
		c0.011,0,0.021,0.115,0.031,0.091c0.033-0.071,0.011-0.091-0.01-0.091h-0.026c-0.018,0-0.028,0,0.006,0H21.1
		c0.008,0,0.021-0.254,0.041-0.27c0.04-0.031,0.088-0.175,0.138-0.207c0.005-0.003,0.009-0.061,0.014-0.064
		c0.006-0.002,0.012-0.034,0.017-0.038c0.109-0.068,0.207-0.14,0.207-0.14s0.073-0.094,0.218-0.136
		c0.14-0.042,0.29-0.146,0.344-0.146h0.01c0.007,0,0.014,0.127,0.019,0.118c0.033-0.059,0.067-0.118,0.109-0.118H22.2
		c0.017-1,0.035-0.475,0.054-0.502c0.021-0.027,0.041-0.498,0.06-0.498h0.015c0.054,0,0.097-0.056,0.07-0.109
		c-0.004-0.007-0.005,0.109-0.005,0.109H22.37c0.002,0,0.02,0,0.04,0h0.018c0.028-1,0.06-0.564,0.055-0.609
		c-0.001-0.01-0.004-0.391-0.007-0.391h-0.026c-0.014,0-0.033,0-0.031,0h0.022c-0.001,0,0.021-0.018,0.103-0.096
		c0.015-0.014,0.03,0.096,0.046,0.096h-0.008c0.059,0,0.115,0,0.166,0h0.011c0.094,0,0.165-0.082,0.172-0.125
		c0.001-0.004,0.003,0.125,0.005,0.125h-0.019c0.014,0,0.042,0,0.069,0h0.017c0.036,0,0.07-1,0.072-1H22.5
		C22.5,479.5,22.5,479.673,22.5,479.67z M15.574,471.827h-0.022c0.002,0,0.004,0.063,0.006,0.052c0.005-0.033,0-0.052-0.004-0.052
		h0.024c-0.007,0-0.342-0.691-0.342-0.765v0.765h0.343c0.055-0.759,0.19-0.556,0.281-0.571c0.097-0.014,0.303-0.135,0.339-0.149
		c0.037-0.014,0.205-0.117,0.29-0.104c0.076,0.013,0.178,0.165,0.158,0.22c-0.061,0.006-0.147,0.326-0.147,0.23
		c0-0.006-0.001,0.374-0.001,0.374h-0.01c-0.004,0-0.495-0.81-0.495-0.798c0,0,0,0,0-0.001c0-0.1,0.157,0.364,0.206,0.45
		c0.037,0.066,0.2,0.349,0.142,0.349H16.32c0,0-0.001,0-0.002,0h-0.001h-0.048c-0.028,0-0.049,0-0.049,0h0.023
		c-0.001,0,0,0.097,0.002,0.073c0.009-0.095-0.035-0.073-0.111-0.073h-0.148c-0.013,0-0.022-0.4-0.034-0.395
		c-0.089,0.041-0.137-0.075-0.176-0.04c-0.048,0.043-0.048,0.183-0.036,0.24c0.009,0.041,0.011,0.529-0.039,0.582
		c-0.003,0.002-0.007,0.371-0.011,0.371h0.001c-0.016,0-0.035,0.021-0.061,0.018c-0.016-0.002-0.027-0.018-0.038-0.018h0.052
		C15.564,472.586,15.564,471.827,15.574,471.827z M16.307,472.342c-0.003-0.008-0.004-0.018-0.006-0.018h0.027
		c-0.012,0-0.013-0.328-0.009-0.335c0.002-0.001,0.004-0.146,0.006-0.149c0.009-0.005,0.022-0.078,0.028-0.098
		c0.003-0.011,0.019-0.06,0.04-0.074c0.068-0.043,0.167-0.106,0.167-0.106s0.002-0.012,0.005-0.016
		c0.01-0.005,0.018,0.264,0.018,0.264s0.017,0.214,0.043,0.214h-0.011c0.045-0.149,0.108-0.149,0.159-0.149h0.009
		c0.02-0.149,0.039-0.336,0.054-0.347c0.005-0.004,0.011-0.152,0.014-0.15c0.036,0.028,0.29-0.117,0.338-0.045
		c0.048,0.071-0.048,0.047-0.17,0.105c-0.121,0.057-0.157,0.023-0.205,0.096c-0.01,0.014-0.025,0.018-0.042,0.028
		c-0.049,0.028-0.11,0.049-0.161,0.084c-0.029,0.017-0.056,0.034-0.076,0.056c-0.017,0.021-0.036,0.321-0.056,0.336
		c-0.002,0.001-0.002,0.287-0.003,0.287h0C16.409,472.324,16.328,472.392,16.307,472.342z M10.19,470.881
		c-0.019-0.012-0.044-0.055-0.067-0.055h0.033c-0.038,0-0.074-0.354-0.074-0.385c0.004,0.002,0.006-0.121,0.012-0.119
		c0.036,0.014,0.109,0.039,0.146,0.039c0.036,0,0.217,0.141,0.266,0.197c0.041,0.049,0.047,0.381,0.01,0.424
		c-0.057,0.01-0.092,0.144-0.105-0.006h-0.025C10.371,470.977,10.251,470.924,10.19,470.881z M15.902,470.715
		c-0.041,0.01-0.169-0.029-0.273-0.029c-0.109,0-0.085-0.086-0.133-0.07c-0.049,0.013-0.157,0.041-0.23,0.084
		c-0.072,0.043-0.193,0.035-0.193-0.043c0-0.043,0.007-0.065,0.025-0.08c0.032-0.017,0.082-0.027,0.158-0.062
		c0.157-0.071,0.326-0.271,0.399-0.186c0.072,0.085,0.205,0.186,0.29,0.2C16.018,470.541,15.946,470.671,15.902,470.715z
		 M19.712,484.193c0.001-0.004,0.003-0.009,0.004-0.011c0.004-0.013,0.008-0.007,0.01,0.011H19.712z"/>
	<path fill="#FFFFFF" d="M11.883,465.754c0.064,0,0.226-0.066,0.273-0.02c0.049,0.048,0.17,0.138,0.161,0.091
		c-0.002-0.014,0.001,0.06,0.004,0.06h0.021c0.008-0.15,0.023-0.314-0.05-0.322c-0.097-0.01-0.234,0.041-0.379,0.098
		c-0.013,0.006-0.023-0.02-0.031-0.012C11.8,465.688,11.82,465.754,11.883,465.754z"/>
	<path fill="#FFFFFF" d="M13.14,465.611c0.097,0,0.306-0.058,0.322-0.01c0.017,0.048-0.008,0.086,0.105,0.105
		c0.113,0.019,0.161,0.165,0.226,0.165c0.043,0,0.046,0.013,0.026,0.013h0.027c-0.009-0.15-0.026-0.203-0.048-0.236
		c-0.056-0.086-0.04-0.14-0.185-0.188c-0.146-0.048-0.291-0.08-0.387-0.07c-0.068,0.006-0.139-0.021-0.184,0.018
		c-0.031,0.014-0.055,0.033-0.065,0.087C12.967,465.562,13.043,465.611,13.14,465.611z"/>
	<path fill="#FFFFFF" d="M14.526,466.573c0.104-0.019,0.258-0.039,0.33-0.048c0.014-0.002,0.024-0.01,0.034-0.019
		c0.062-0.023,0.072-0.052-0.004-0.06c-0.051-0.007-0.095,0.035-0.139,0.035h-0.091c-0.044,0-0.127-0.038-0.192,0.005
		c-0.07,0.043-0.129,0.043-0.117,0.077C14.358,466.59,14.421,466.592,14.526,466.573z"/>
	<path fill="#FFFFFF" d="M14.155,465.715c0.089,0.049,0.234,0.134,0.339,0.182s0.306,0.058,0.37,0.152s0.282,0.172,0.282,0.172
		l0.258,0.028c0,0,0.178-0.048,0.363-0.028c0.185,0.02,0.459,0.047,0.612,0.037c0.153-0.009,0.177,0.135,0.194,0.097
		c0.006-0.015-0.036,0.146-0.093,0.146h0.062c-0.086,0-0.249-0.272-0.301-0.265c-0.073,0.009-0.484-0.091-0.604-0.101
		c-0.121-0.01-0.274-0.06-0.371-0.051c-0.096,0.01-0.168-0.258-0.241-0.307c-0.03-0.02-0.074-0.277-0.123-0.277H14.86
		c-0.066,0-0.137,0.059-0.189,0.047c-0.097-0.018-0.08-0.002-0.281-0.06c-0.003-0.002-0.006,0.013-0.008,0.013h0.075
		c-0.015,0-0.027,0.057-0.044,0.051c-0.102-0.029-0.274-0.034-0.274-0.062c0-0.01-0.006,0.021-0.01,0.045
		c-0.007-0.006-0.013-0.002-0.013-0.006C14.115,465.498,14.066,465.668,14.155,465.715z"/>
	<path fill="#FFFFFF" d="M17.266,475.382c0.017-0.005,0.028-0.125,0.031-0.137c0.006-0.026-0.022-0.226-0.062-0.226h-0.037
		c-0.045,0-0.1,0.018-0.141,0.023c-0.062,0.012-0.175-0.023-0.27-0.023h0.043c-0.042,0-0.083-0.047-0.113-0.08
		c-0.098-0.1-0.278-0.092-0.351-0.092c-0.073,0-0.363,0.104-0.363,0.104c0,0.003,0,0.011,0,0.014
		c-0.013,0.005-0.022,0.007-0.022,0.007c-0.012,0.143,0.109,0.098,0.254,0.098c0.145,0,0.399-0.027,0.447,0.043
		c0.049,0.072,0.266,0.186,0.327,0.242C17.063,475.408,17.229,475.424,17.266,475.382z"/>
	<path fill="#FFFFFF" d="M18.608,475.805c0.037-0.021,0.053-0.056,0.053-0.093h-0.024c-0.007-0.065-0.056-0.129-0.119-0.115
		c-0.111,0.023-0.084,0.278,0.049,0.231C18.584,475.823,18.598,475.814,18.608,475.805z"/>
	<path fill="#FFFFFF" d="M16.886,474.556c-0.021,0.003-0.035,0.013-0.046,0.023c-0.081,0.032-0.05,0.161,0.071,0.135
		c0.104-0.022,0.083-0.104,0.018-0.134h0.046C16.953,474.562,16.922,474.551,16.886,474.556z"/>
	<path fill="#FFFFFF" d="M17.998,475.146c-0.096-0.028-0.205,0.126-0.277,0.141c-0.014,0.002-0.033,0.076-0.053,0.09
		c-0.088,0.049-0.248,0.248-0.248,0.248s0.133,0.044,0.218,0.044s0.133,0.065,0.205,0.108c0.073,0.043,0.206-0.054,0.254-0.054
		c0.039,0,0.086-0.155,0.11-0.214c0.015,0.006,0.027-0.34,0.032-0.34h-0.021c0.005-0.15-0.023-0.15-0.064-0.15h0.036
		C18.136,475.02,18.057,475.164,17.998,475.146z"/>
	<path fill="#FFFFFF" d="M16.908,475.762c-0.091,0.045-0.062,0.268,0.063,0.224c0.018-0.006,0.031-0.015,0.042-0.026
		c0.103-0.061,0.035-0.242-0.067-0.22C16.931,475.742,16.919,475.751,16.908,475.762z"/>
	<path fill="#FFFFFF" d="M18.42,476.5h0.129C18.51,476.5,18.463,476.5,18.42,476.5z"/>
	<path fill="#FFFFFF" d="M4.229,468.644c-0.014,0.006-0.035,0.016-0.071,0.028c-0.007,0.002-0.01,0.006-0.011,0.01
		c-0.004,0.002-0.008,0.004-0.012,0.005c-0.049,0.018,0.084,0.114,0.133,0.114c0.009,0,0.02-0.007,0.031-0.018
		c0.04-0.012,0.092-0.104,0.062-0.14H4.229z"/>
	<path fill="#FFFFFF" d="M4.558,467.512h0.035c-0.011-0.01-0.012-0.012-0.012-0.012L4.558,467.512z"/>
	<path fill="#FFFFFF" d="M4.227,469.61c-0.056,0.016-0.045,0.139-0.1,0.193c-0.006,0.004-0.012,0.263-0.019,0.265
		c-0.052,0.013-0.108,0.158-0.148,0.309h0.008c-0.072,0-0.116-0.184-0.051-0.164c0.097,0.027,0.314,0.111,0.338,0.068
		c0.004-0.006,0.007,0.096,0.011,0.096h0.019c0.021-0.15,0.039-0.51,0.005-0.522C4.259,469.843,4.239,469.596,4.227,469.61z"/>
	<path fill="#FFFFFF" d="M19.082,471.5c-0.007,0-0.02,0-0.038,0H19.082z"/>
	<path fill="#FFFFFF" d="M25.782,467.981h-0.6l0.002-0.024c-0.07,0-0.128,0.024-0.178,0.024h-0.12c-0.011,0-0.022-0.153-0.033-0.165
		c-0.064-0.076-0.33-0.184-0.354-0.137c-0.032,0.064-0.096,0.032-0.032,0.166c0.065,0.133,0.113,0.191,0.169,0.183
		c0.056-0.011,0.25-0.028,0.274,0.048c0.024,0.077,0.088,0.287,0.225,0.239l0.018-0.035h0.332L25.782,467.981z"/>
	<path fill="#FFFFFF" d="M13.162,465.91c0,0.001,0,0.002,0,0.002c-0.009,0.004-0.017,0.008-0.022,0.014
		c-0.061,0.062,0,0.256-0.024,0.275s0.008,0.222,0.073,0.203c0.055-0.016,0.086-0.071,0.124-0.071h0.011
		c0.003,0,0.007-0.125,0.01-0.129l0,0c0.049,0,0.299-0.125,0.339-0.021s0.04,0.145,0.153,0.154c0.066,0.006,0.125-0.005,0.163-0.005
		h0.01c0.034,0,0.055-0.196,0.059-0.22c0.008-0.049-0.057-0.201-0.209-0.183C13.694,465.95,13.228,465.844,13.162,465.91z"/>
	<path fill="#FFFFFF" d="M24.206,467.5h-0.029c-0.02,0-0.037-0.516-0.059-0.564c-0.004-0.008-0.008-0.436-0.013-0.436h0.028
		c-0.025,0-0.062-0.16,0.002-0.218c0.012-0.004,0.022,0.009,0.038,0.007c0.138-0.018,0.382,0.162,0.43,0.093
		c0.021-0.005,0.033,0.091,0.031,0.06c0-0.018,0,0.059-0.001,0.059H24.61c-0.001,0,0.001,0,0.009,0h0.021
		c0.006,0,0.019-0.48,0.039-0.52c0.026-0.049,0.07-0.48,0.092-0.48h-0.015c0.005,0,0.004,0.133-0.011,0.123
		c-0.052-0.027-0.118,0.056-0.17-0.089c-0.006-0.018-0.01-0.034-0.012-0.034h0.026c-0.025,0,0.058-0.075,0.111-0.128
		c0.003-0.002,0.009,0.128,0.013,0.128h-0.009c0.038,0,0.102,0,0.176-1h0.009c0.083,0,0.18,0.147,0.263,0.091
		c0.022-0.014,0.044,0.14,0.064,0.132l0.003-0.11c0.006-0.003,0.012-0.112,0.017-0.112h-0.013h0.099h0.118l-0.032-0.043
		c-0.107-0.044-0.31-0.07-0.462,0.029c-0.023,0.014-0.047,0.052-0.068,0.072c-0.154,0.153-0.243,0.215-0.42,0.167
		c-0.074-0.02-0.121-0.226-0.16-0.226h0.031c-0.054,0-0.087,0-0.142,0h-0.032c0,0-0.001,0.093-0.002,0.092
		c-0.04-0.053-0.062-0.092-0.077-0.092h0.026c-0.024,0-0.028,0-0.048,0h-0.027c-0.016,0-0.04-0.355-0.084-0.346
		c-0.155,0.027-0.155-0.116-0.155-0.116s-0.182,0.176-0.294,0.204c-0.042,0.011-0.08,0.258-0.115,0.258h-0.006
		c-0.072,0-0.13-0.209-0.184-0.223c-0.165-0.045-0.313-0.085-0.354-0.074c-0.269,0.069-0.498-0.055-0.62-0.09
		c0.099,0.006,0.246-0.022,0.373-0.045c0.176-0.032,0.471-0.121,0.615-0.148c0.145-0.027,0.028-0.227-0.022-0.234
		c-0.079-0.01-0.176-0.186-0.278-0.186h0.088c-0.156,0-0.332,0.043-0.48,0.033c-0.176-0.01-0.289-0.007-0.465-0.001
		c-0.143,0.004-0.304-0.032-0.447-0.032h0.069c-0.115,0-0.225,0.445-0.312,0.51c-0.054,0.039-0.112,0.49-0.166,0.49h-0.022
		c-0.083,0-0.15-0.248-0.159-0.238c-0.001,0.002-0.002-0.138-0.004-0.136c-0.009,0.002-0.017-0.065-0.019-0.063
		c-0.088,0.115-0.169,0.507-0.25,0.432c-0.027-0.026-0.047,0.006-0.065,0.006h0.031c-0.04,0-0.068-0.299-0.141-0.246
		c-0.002,0.002-0.003-0.067-0.005-0.065c-0.006,0.003-0.011-0.032-0.018-0.026c-0.103,0.076-0.008,0.248-0.096,0.382
		c-0.01,0.016-0.023,0.019-0.038,0.03c-0.111,0.07-0.291,0.047-0.352,0.008c-0.074-0.048-0.147-0.089-0.442-0.069
		c-0.19,0.013-0.39,0.063-0.492,0.129c-0.074,0.04-0.11,0.085-0.083,0.132c0.024,0.043,0.012,0.077-0.016,0.104
		c-0.048,0.029-0.118-0.15-0.146-0.181c-0.004-0.005-0.011-0.196-0.017-0.196h-0.062c-0.032,0-0.069,0.212-0.103,0.234
		c-0.064,0.038-0.122,0.191-0.114,0.25c0.015,0.113-0.037,0.293-0.162,0.266c-0.125-0.029-0.214,0.09-0.221,0.186
		c-0.002,0.021-0.02,0.055-0.045,0.073c-0.086,0.054-0.227,0.026-0.242,0.026c-0.014,0-0.162-0.035-0.237-0.035h0.048
		c-0.084,0-0.155,0.1-0.083,0.16c0.088,0.076,0.14,0.062,0.25,0.09c0.11,0.028,0.198,0.255,0.258,0.282
		c0.046,0.023,0.105,0.017,0.146-0.017c0.021-0.012,0.04-0.182,0.053-0.201c0.02-0.029,0.043-0.314,0.062-0.314h-0.019
		c0.014,0,0.023,0.076,0.023,0.076s0,0.271,0.088,0.308c0.088,0.038,0.31,0.012,0.368,0.021c0.06,0.009,0.405,0.087,0.501,0.142
		c0.096,0.059,0.332,0.106,0.398,0.229c0.066,0.124,0.073,0.56,0.11,0.605c0.01,0.013,0.027,0.38,0.046,0.364
		c0.03-0.012,0.074,0.254,0.111,0.254h-0.012c0.02,0,0.038-0.428,0.046-0.441c0.029-0.049,0.185-0.205,0.236-0.139
		c0.051,0.066,0.168,0.137,0.162,0.202c-0.007,0.068-0.029,0.124-0.074,0.087c-0.043-0.039-0.118,0.178-0.088,0.103
		c0.001-0.006,0.003,0.188,0.005,0.188h0.018c0.029,0,0.043,0-0.016,0c-0.059,0-0.111,0-0.111,0s-0.062-0.369-0.125-0.318
		c-0.028,0.016-0.057-0.131-0.081-0.082c-0.074,0.143-0.015,0.198,0.036,0.198c0.052,0,0.17-0.044,0.17-0.007
		c0,0.039-0.125,0.131-0.118,0.198c0.008,0.066,0.104,0.575,0.133,0.622s0.184,0.389,0.228,0.389c0.003,0,0.003,0,0.004,0
		c-0.012,0-0.026-0.28-0.037-0.271c-0.026,0.012-0.052-0.113-0.034-0.084c0.037,0.068,0.095,0.156,0.177,0.195
		c0.081,0.039,0.309,0.173,0.339,0.25c0.029,0.076,0.207-0.075,0.243-0.085c0.037-0.009,0.03,0.19,0.133,0.2
		c0.072,0.006,0.112-0.084,0.161-0.121c0.004-0.003,0.008-0.084,0.012-0.084h-0.001c0.017,0,0.036,0.063,0.057,0.042
		c0.042-0.041,0.059-0.042,0.066-0.042h0.02c0.011,0,0.006-0.137,0.01-0.186c0.005-0.051,0.005-0.104,0.022-0.126
		c0.012-0.004,0.028-0.009,0.051-0.001c0.096,0.027,0.147,0.235,0.14,0.141c-0.001-0.027-0.009,0.172-0.017,0.172h0.026
		c-0.014,0-0.027-0.365,0.011-0.399c0.013-0.006,0.028-0.14,0.045-0.142c0.078-0.016,0.138-0.117,0.189-0.152
		c0.015-0.01,0.029-0.051,0.043-0.061c0.034-0.021,0.066-0.053,0.099-0.053c0.096,0,0.361,0.533,0.391,0.486
		c0.014-0.023,0.047,0.32,0.087,0.32h0.015c0.036,0,0.078-0.626,0.116-0.662c0.006-0.003,0.013-0.254,0.019-0.254
		c0.081-0.012,0.293-0.088,0.485-0.127c0.191-0.037,0.398-0.242,0.464-0.232s0.228,0.207,0.177,0.15
		c-0.018-0.02-0.037,0.125-0.059,0.125h0.034c-0.047,0-0.108,0.011-0.188,0.011c-0.057,0-0.089-0.011-0.104-0.011h-0.024
		c-0.011,0-0.008-0.498,0.005-0.498c0.029,0,0.298-0.072,0.292,0.023c-0.007,0.094,0.044,0.126,0.191,0.087
		c0.026-0.006,0.046-0.063,0.062-0.077c0.102-0.051,0.083,0.179,0.056,0.145C24.216,467.174,24.211,467.5,24.206,467.5z"/>
	<path fill="#FFFFFF" d="M14.105,466.492c-0.065-0.047-0.274-0.071-0.331-0.043c-0.056,0.028-0.226-0.074-0.315-0.008
		c-0.001,0.002-0.001-0.01-0.003-0.009c-0.006,0.003-0.013-0.001-0.02,0.004c-0.055,0.042-0.024,0.178,0.065,0.187
		c0.089,0.01,0.243-0.067,0.258-0.011s0.072,0.313,0.217,0.228c0.009-0.005,0.015-0.01,0.021-0.015c0,0,0.001,0.162,0.002,0.161
		c0.04-0.022,0.067,0.096,0.087,0.096h-0.009c0.044-0.149,0.05-0.139,0.076-0.146c0.018-0.005,0.018-0.004,0.008-0.153h0.025
		C14.177,466.783,14.145,466.521,14.105,466.492z"/>
	<path fill="#FFFFFF" d="M16.556,468.311c-0.02,0.006-0.032,0.015-0.041,0.023c-0.093,0.047,0.015,0.14,0.091,0.105
		c0.008-0.004,0.014-0.01,0.02-0.016c0.001,0,0.002,0,0.003,0C16.708,468.386,16.668,468.271,16.556,468.311z"/>
	<path fill="#FFFFFF" d="M16.11,468.203c-0.016,0.007-0.031,0.018-0.045,0.036c-0.032,0.041,0.134,0.1,0.173,0.05
		c0.012-0.002,0.021-0.008,0.026-0.018C16.295,468.221,16.19,468.138,16.11,468.203z"/>
	<path fill="#FFFFFF" d="M14.382,466.057c-0.026,0.011-0.047,0.029-0.057,0.059c-0.036,0.102,0.322,0.152,0.282,0.039
		c-0.008-0.021-0.022-0.039-0.039-0.055h0.038C14.553,466.034,14.441,466.012,14.382,466.057z"/>
</g>
</svg>
