<?xml version="1.0" encoding="utf-8"?>
<!-- Generator: Adobe Illustrator 16.0.0, SVG Export Plug-In . SVG Version: 6.00 Build 0)  -->
<!DOCTYPE svg PUBLIC "-//W3C//DTD SVG 1.1//EN" "http://www.w3.org/Graphics/SVG/1.1/DTD/svg11.dtd">
<svg version="1.1" id="Layer_1" xmlns:sketch="http://www.bohemiancoding.com/sketch/ns"
	 xmlns="http://www.w3.org/2000/svg" xmlns:xlink="http://www.w3.org/1999/xlink" x="0px" y="0px" width="30px" height="30px"
	 viewBox="2 2 30 30" enable-background="new 2 2 30 30" xml:space="preserve">
<g>
	<title></title>
	<desc></desc>
	<g id="Artboard-1" transform="translate(-287.000000, -659.000000)">
		<g id="slice" transform="translate(215.000000, 119.000000)">
		</g>
		<g>
			<path fill="#FFFFFF" d="M301.881,671.703v1.618h-1.641v2.678h1.641v8.081h2.659v-8.081h2.665l0.423-2.678h-3.089v-1.341
				c0-0.699,0.229-1.365,1.23-1.365h2.004v-2.673h-2.848C302.536,667.941,301.881,669.516,301.881,671.703z"/>
			<path fill="#FFFFFF" d="M304,662c-7.72,0-14,6.281-14,14c0,7.732,6.28,14,14,14c7.732,0,14-6.268,14-14
				C318,668.281,311.732,662,304,662z M304,688.728c-7.029,0-12.728-5.697-12.728-12.728c0-7.029,5.698-12.728,12.728-12.728
				s12.728,5.698,12.728,12.728C316.728,683.03,311.029,688.728,304,688.728z"/>
		</g>
	</g>
</g>
</svg>
