<?xml version="1.0" encoding="utf-8"?>
<!-- Generator: Adobe Illustrator 16.0.0, SVG Export Plug-In . SVG Version: 6.00 Build 0)  -->
<!DOCTYPE svg PUBLIC "-//W3C//DTD SVG 1.1//EN" "http://www.w3.org/Graphics/SVG/1.1/DTD/svg11.dtd">
<svg version="1.1" xmlns="http://www.w3.org/2000/svg" xmlns:xlink="http://www.w3.org/1999/xlink" x="0px" y="0px" width="30px"
	 height="30px" viewBox="-3 -3 30 30" enable-background="new -3 -3 30 30" xml:space="preserve">
<g id="Layer_2">
</g>
<g id="Layer_1" xmlns:sketch="http://www.bohemiancoding.com/sketch/ns">
	<title></title>
	<desc></desc>
	<g id="miu">
		<g id="Artboard-1" transform="translate(-215.000000, -659.000000)">
			<g id="slice" transform="translate(215.000000, 119.000000)">
			</g>
			<g>
				<path fill="#FFFFFF" d="M234.106,664.831c-0.598,0.362-1.261,0.623-1.964,0.757c-0.563-0.642-1.368-1.05-2.257-1.065
					c-1.708-0.028-3.095,1.416-3.095,3.224c0,0.257,0.027,0.508,0.08,0.749c-2.57-0.167-4.85-1.506-6.375-3.524
					c-0.266,0.483-0.419,1.049-0.419,1.654c0,1.146,0.547,2.163,1.376,2.764c-0.507-0.022-0.984-0.176-1.401-0.428
					c0,0.015,0,0.028,0,0.042c0,1.6,1.066,2.943,2.48,3.257c-0.259,0.07-0.532,0.11-0.814,0.107c-0.2-0.001-0.393-0.023-0.582-0.063
					c0.393,1.313,1.536,2.271,2.89,2.303c-1.059,0.878-2.393,1.402-3.841,1.398c-0.25-0.001-0.496-0.017-0.738-0.048
					c1.368,0.938,2.994,1.486,4.741,1.487c5.689,0.002,8.8-4.95,8.8-9.245c0-0.141-0.003-0.281-0.009-0.42
					c0.604-0.45,1.13-1.015,1.543-1.659c-0.554,0.25-1.149,0.416-1.776,0.485C233.387,666.214,233.875,665.585,234.106,664.831z"/>
				<path fill="#FFFFFF" d="M226.984,656.984c-7.731,0-14,6.268-14,14s6.269,14,14,14c7.732,0,14-6.268,14-14
					S234.717,656.984,226.984,656.984z M226.984,683.711c-7.029,0-12.727-5.697-12.727-12.727s5.698-12.727,12.727-12.727
					c7.029,0,12.728,5.698,12.728,12.727S234.014,683.711,226.984,683.711z"/>
			</g>
		</g>
	</g>
</g>
</svg>
