<?xml version="1.0" ?><svg height="24px" version="1.1" viewBox="0 0 24 24" width="24px" xmlns="http://www.w3.org/2000/svg" xmlns:sketch="http://www.bohemiancoding.com/sketch/ns" xmlns:xlink="http://www.w3.org/1999/xlink"><title/><desc/><defs/><g fill="none" fill-rule="evenodd" id="miu" stroke="none" stroke-width="1"><g id="Artboard-1" transform="translate(-431.000000, -659.000000)"><g id="slice" transform="translate(215.000000, 119.000000)"/><path d="M443,682 C449.075133,682 454,677.075133 454,671 C454,664.924867 449.075133,660 443,660 C436.924867,660 432,664.924867 432,671 C432,677.075133 436.924867,682 443,682 Z M443,681 C448.522848,681 453,676.522848 453,671 C453,665.477152 448.522848,661 443,661 C437.477152,661 433,665.477152 433,671 C433,676.522848 437.477152,681 443,681 Z M444.0118,674.330947 C446.433856,674.330947 448.076923,672.076918 448.076923,669.059714 C448.076923,666.778897 446.183875,664.653846 443.307535,664.653846 C439.728011,664.653846 437.923077,667.273754 437.923077,669.458443 C437.923077,670.781295 438.413319,671.958192 439.465936,672.396828 C439.638385,672.468703 439.792908,672.399143 439.843121,672.204353 C439.877459,672.069312 439.960498,671.728677 439.996564,671.587022 C440.0471,671.394106 440.027663,671.32653 439.888365,671.158308 C439.585149,670.792539 439.391644,670.319951 439.391644,669.649816 C439.391644,667.706326 440.815398,665.966446 443.100748,665.966446 C445.123375,665.966446 446.235491,667.228116 446.235491,668.913869 C446.235491,671.13141 445.274227,673.003024 443.846802,673.003024 C443.058311,673.003024 442.468832,672.33763 442.657586,671.521651 C442.883594,670.547371 443.322869,669.495483 443.322869,668.792167 C443.322869,668.162931 442.991901,667.637428 442.306642,667.637428 C441.500766,667.637428 440.853624,668.488683 440.853624,669.62843 C440.853624,670.354345 441.094318,670.845453 441.094318,670.845453 C441.094318,670.845453 440.269653,674.411972 440.124848,675.036358 C439.993541,675.604963 439.973888,676.229901 439.992353,676.758049 C440.047532,677.231851 440.506459,677.617682 440.904592,677.097912 C441.184484,676.641197 441.485432,676.064434 441.641143,675.486348 C441.734009,675.14428 442.171339,673.372321 442.171339,673.372321 C442.433414,673.882059 443.198473,674.330947 444.0118,674.330947 Z" fill="#000000" id="circle-social-pinterest-outline-stroke"/></g></g></svg>