<?xml version="1.0" encoding="utf-8"?>
<!-- Generator: Adobe Illustrator 16.0.0, SVG Export Plug-In . SVG Version: 6.00 Build 0)  -->
<!DOCTYPE svg PUBLIC "-//W3C//DTD SVG 1.1//EN" "http://www.w3.org/Graphics/SVG/1.1/DTD/svg11.dtd">
<svg version="1.1" xmlns="http://www.w3.org/2000/svg" xmlns:xlink="http://www.w3.org/1999/xlink" x="0px" y="0px" width="60px"
	 height="240px" viewBox="0 -60 60 240" enable-background="new 0 -60 60 240" xml:space="preserve">
<g id="Layer_2_1_" display="none">
</g>
<g id="Layer_1">
	<g id="Layer_2_3_">
	</g>
	<g id="slice_13_" transform="translate(215.000000, 119.000000)">
	</g>
	<g>
		<g>
			<title></title>
			<desc></desc>
			<g id="Artboard-1_6_" transform="translate(-287.000000, -659.000000)">
				<g id="slice_7_" transform="translate(215.000000, 119.000000)">
				</g>
				<g>
					<path fill="#FFFFFF" d="M299.729,729.396v1.733h-1.758v2.869h1.758v8.657h2.85v-8.657h2.854l0.453-2.869h-3.31v-1.437
						c0-0.75,0.245-1.463,1.318-1.463h2.147v-2.865h-3.052C300.432,725.365,299.729,727.053,299.729,729.396z"/>
					<path fill="#FFFFFF" d="M302,719c-8.271,0-15,6.73-15,15c0,8.285,6.729,15,15,15c8.285,0,15-6.715,15-15
						C317,725.73,310.285,719,302,719z M302,747.637c-7.531,0-13.637-6.104-13.637-13.637c0-7.531,6.105-13.636,13.637-13.636
						s13.638,6.104,13.638,13.636S309.531,747.637,302,747.637z"/>
				</g>
			</g>
		</g>
		<g id="Layer_1_3_" xmlns:sketch="http://www.bohemiancoding.com/sketch/ns">
			<title></title>
			<desc></desc>
			<g id="miu_4_">
				<g id="Artboard-1_7_" transform="translate(-215.000000, -659.000000)">
					<g id="slice_8_" transform="translate(215.000000, 119.000000)">
					</g>
					<g>
						<path fill="#FFFFFF" d="M237.63,757.408c-0.641,0.387-1.351,0.668-2.104,0.811c-0.604-0.688-1.467-1.125-2.419-1.141
							c-1.83-0.029-3.315,1.518-3.315,3.455c0,0.273,0.029,0.543,0.086,0.801c-2.754-0.178-5.196-1.613-6.831-3.775
							c-0.284,0.518-0.448,1.123-0.448,1.773c0,1.225,0.586,2.316,1.474,2.961c-0.543-0.023-1.055-0.189-1.501-0.459
							c0,0.016,0,0.029,0,0.045c0,1.713,1.143,3.152,2.657,3.49c-0.277,0.074-0.57,0.117-0.872,0.115
							c-0.214-0.002-0.421-0.025-0.624-0.07c0.422,1.408,1.646,2.434,3.098,2.467c-1.136,0.943-2.565,1.504-4.115,1.5
							c-0.269,0-0.532-0.018-0.791-0.051c1.466,1.004,3.208,1.592,5.079,1.592c6.096,0.002,9.429-5.303,9.429-9.904
							c0-0.152-0.003-0.301-0.01-0.449c0.647-0.484,1.21-1.088,1.653-1.779c-0.594,0.268-1.231,0.445-1.903,0.52
							C236.859,758.891,237.383,758.217,237.63,757.408z"/>
						<path fill="#FFFFFF" d="M230,749c-8.284,0-15,6.715-15,15s6.716,15,15,15s15-6.715,15-15S238.285,749,230,749z M230,777.635
							c-7.531,0-13.637-6.104-13.637-13.635s6.105-13.635,13.637-13.635c7.53,0,13.637,6.104,13.637,13.635
							S237.531,777.635,230,777.635z"/>
					</g>
				</g>
			</g>
		</g>
		<g id="Layer_1_5_" xmlns:sketch="http://www.bohemiancoding.com/sketch/ns">
			<g>
				<title></title>
				<desc></desc>
				<g id="Artboard-1_9_" transform="translate(-287.000000, -659.000000)">
					<g id="slice_10_" transform="translate(215.000000, 119.000000)">
					</g>
					<g>
						<path fill="#FFFFFF" d="M302,809c-8.271,0-15,6.73-15,15c0,8.285,6.729,15,15,15c8.284,0,15-6.715,15-15
							C317,815.73,310.284,809,302,809z M302,837.638c-7.531,0-13.637-6.104-13.637-13.638c0-7.531,6.104-13.638,13.637-13.638
							c7.533,0,13.637,6.105,13.637,13.638S309.531,837.638,302,837.638z"/>
					</g>
				</g>
			</g>
			<g>
				<path fill="#FFFFFF" d="M21.372,164.292l-2.833,2.832c-1.563,1.563-4.098,1.563-5.662,0c-0.247-0.246-0.439-0.521-0.607-0.808
					L13.585,165c0.063-0.063,0.14-0.099,0.214-0.143c0.09,0.313,0.25,0.605,0.494,0.85c0.781,0.781,2.05,0.781,2.831,0l2.831-2.831
					c0.781-0.781,0.781-2.051,0-2.832c-0.78-0.782-2.048-0.782-2.831,0l-1.005,1.007c-0.817-0.318-1.697-0.404-2.554-0.277
					l2.144-2.146c1.565-1.564,4.1-1.564,5.665,0C22.935,160.192,22.935,162.728,21.372,164.292z M13.885,168.949l-1.007,1.005
					c-0.781,0.782-2.051,0.782-2.832,0c-0.781-0.782-0.781-2.05,0-2.833l2.832-2.83c0.781-0.781,2.051-0.781,2.831,0
					c0.245,0.244,0.404,0.537,0.494,0.849c0.075-0.044,0.153-0.079,0.214-0.141l1.316-1.315c-0.167-0.288-0.362-0.563-0.607-0.811
					c-1.563-1.561-4.099-1.561-5.662,0l-2.833,2.834c-1.563,1.566-1.563,4.1,0,5.663c1.563,1.563,4.1,1.563,5.663,0l2.146-2.146
					C15.582,169.351,14.702,169.266,13.885,168.949z"/>
			</g>
		</g>
		<g id="Layer_1_8_" xmlns:sketch="http://www.bohemiancoding.com/sketch/ns">
			<title></title>
			<desc></desc>
			<g id="miu_10_">
				<g id="Artboard-1_16_" transform="translate(-215.000000, -659.000000)">
					<g id="slice_17_" transform="translate(215.000000, 119.000000)">
					</g>
					<g>
						<path fill="#4099FF" d="M230,629c-8.283,0-15,6.717-15,15c0,8.284,6.717,15,15,15c8.284,0,15-6.716,15-15
							C245,635.717,238.284,629,230,629z"/>
						<path fill="#FFFFFF" d="M237.63,637.408c-0.641,0.388-1.352,0.668-2.104,0.812c-0.604-0.688-1.467-1.125-2.419-1.142
							c-1.83-0.029-3.315,1.517-3.315,3.454c0,0.275,0.029,0.544,0.086,0.803c-2.754-0.179-5.197-1.613-6.83-3.776
							c-0.286,0.519-0.449,1.124-0.449,1.772c0,1.228,0.586,2.318,1.476,2.961c-0.543-0.022-1.055-0.188-1.502-0.458
							c0,0.016,0,0.03,0,0.045c0,1.714,1.143,3.153,2.657,3.489c-0.277,0.075-0.569,0.118-0.872,0.115
							c-0.214-0.001-0.421-0.025-0.624-0.067c0.422,1.407,1.646,2.434,3.097,2.467c-1.135,0.941-2.564,1.502-4.115,1.498
							c-0.268-0.001-0.531-0.018-0.791-0.051c1.465,1.005,3.208,1.592,5.08,1.593c6.094,0.002,9.428-5.304,9.428-9.905
							c0-0.151-0.003-0.301-0.01-0.449c0.646-0.482,1.21-1.088,1.653-1.778c-0.595,0.269-1.231,0.446-1.903,0.52
							C236.859,638.89,237.383,638.216,237.63,637.408z"/>
					</g>
				</g>
			</g>
		</g>
		<g id="Layer_1_7_" xmlns:sketch="http://www.bohemiancoding.com/sketch/ns">
			<title></title>
			<desc></desc>
			<g id="miu_9_">
				<g id="Artboard-1_15_" transform="translate(-215.000000, -659.000000)">
					<g id="slice_16_" transform="translate(215.000000, 119.000000)">
					</g>
					<g>
						<path fill="#6B757E" d="M260.121,629c-8.283,0-15,6.716-15,15s6.716,15,15,15c8.285,0,15-6.716,15-15S268.406,629,260.121,629
							z"/>
						<path fill="#FFFFFF" d="M267.75,637.407c-0.639,0.388-1.35,0.668-2.102,0.812c-0.604-0.688-1.467-1.125-2.42-1.142
							c-1.828-0.029-3.314,1.518-3.314,3.454c0,0.274,0.027,0.544,0.086,0.803c-2.754-0.179-5.197-1.613-6.83-3.775
							c-0.287,0.519-0.451,1.124-0.451,1.771c0,1.229,0.586,2.318,1.477,2.962c-0.543-0.023-1.055-0.188-1.502-0.459
							c0,0.017,0,0.03,0,0.045c0,1.715,1.143,3.153,2.658,3.489c-0.277,0.076-0.57,0.118-0.873,0.115
							c-0.215-0.001-0.42-0.024-0.623-0.066c0.422,1.406,1.645,2.433,3.098,2.466c-1.137,0.941-2.566,1.503-4.117,1.498
							c-0.268-0.001-0.531-0.018-0.791-0.051c1.467,1.005,3.209,1.593,5.082,1.594c6.094,0.002,9.428-5.304,9.428-9.906
							c0-0.15-0.004-0.301-0.01-0.449c0.646-0.482,1.209-1.088,1.654-1.778c-0.596,0.269-1.232,0.446-1.904,0.521
							C266.98,638.889,267.504,638.215,267.75,637.407z"/>
					</g>
				</g>
			</g>
		</g>
		<g>
			<title></title>
			<desc></desc>
			<g id="Artboard-1_14_" transform="translate(-287.000000, -659.000000)">
				<g id="slice_15_" transform="translate(215.000000, 119.000000)">
				</g>
				<g>
					<path fill="#3A5897" d="M302,599c-8.271,0-15,6.73-15,15c0,8.285,6.729,15,15,15c8.285,0,15-6.715,15-15
						C317,605.73,310.285,599,302,599z"/>
					<path fill="#FFFFFF" d="M299.729,609.396v1.734h-1.758v2.869h1.758v8.658h2.849v-8.658h2.855l0.453-2.869h-3.31v-1.437
						c0-0.749,0.245-1.462,1.318-1.462h2.147v-2.864h-3.052C300.432,605.365,299.729,607.053,299.729,609.396z"/>
				</g>
			</g>
		</g>
		<g>
			<title></title>
			<desc></desc>
			<g id="Artboard-1_13_" transform="translate(-287.000000, -659.000000)">
				<g id="slice_14_" transform="translate(215.000000, 119.000000)">
				</g>
				<g>
					<path fill="#6B757E" d="M332.121,599c-8.27,0-15,6.729-15,15c0,8.285,6.73,15,15,15c8.285,0,15-6.715,15-15
						C347.121,605.729,340.406,599,332.121,599z"/>
					<path fill="#FFFFFF" d="M329.854,609.396v1.733h-1.76v2.869h1.76v8.658h2.848v-8.658h2.854l0.455-2.869h-3.311v-1.437
						c0-0.749,0.244-1.462,1.318-1.462h2.146v-2.864h-3.053C330.553,605.366,329.854,607.053,329.854,609.396z"/>
				</g>
			</g>
		</g>
		<g>
			<path fill="#C62325" d="M15,30C6.717,30,0,36.716,0,45c0,8.283,6.717,15,15,15s15-6.717,15-15C30,36.716,23.284,30,15,30z"/>
			<path fill="#6B757E" d="M45,30c-8.283,0-15,6.716-15,15c0,8.283,6.716,15,15,15s15-6.717,15-15C60,36.716,53.283,30,45,30z"/>
			<g id="miu_8_">
				<g id="Artboard-1_12_" transform="translate(-431.000000, -659.000000)">
					<g id="slice_12_" transform="translate(215.000000, 119.000000)">
					</g>
					<path id="circle-social-pinterest-outline-stroke_3_" fill="#FFFFFF" d="M447.077,707.663c2.853,0,4.788-2.654,4.788-6.208
						c0-2.686-2.23-5.188-5.617-5.188c-4.215,0-6.342,3.085-6.342,5.659c0,1.557,0.577,2.942,1.816,3.459
						c0.204,0.085,0.385,0.004,0.444-0.227c0.04-0.158,0.139-0.561,0.18-0.727c0.061-0.227,0.037-0.308-0.126-0.505
						c-0.356-0.431-0.585-0.987-0.585-1.776c0-2.29,1.677-4.338,4.369-4.338c2.382,0,3.692,1.486,3.692,3.471
						c0,2.611-1.132,4.816-2.813,4.816c-0.928,0-1.623-0.785-1.4-1.746c0.266-1.147,0.782-2.386,0.782-3.215
						c0-0.74-0.389-1.358-1.196-1.358c-0.949,0-1.711,1.002-1.711,2.345c0,0.854,0.283,1.434,0.283,1.434s-0.971,4.2-1.141,4.936
						c-0.154,0.67-0.178,1.405-0.156,2.026c0.065,0.56,0.605,1.013,1.074,0.4c0.33-0.539,0.685-1.217,0.867-1.898
						c0.11-0.401,0.625-2.488,0.625-2.488C445.218,707.135,446.119,707.663,447.077,707.663z"/>
				</g>
			</g>
			<g id="miu_7_">
				<g id="Artboard-1_11_" transform="translate(-431.000000, -659.000000)">
					<g id="slice_11_" transform="translate(215.000000, 119.000000)">
					</g>
					<path id="circle-social-pinterest-outline-stroke_2_" fill="#FFFFFF" d="M476.869,707.663c2.852,0,4.787-2.654,4.787-6.208
						c0-2.686-2.229-5.188-5.617-5.188c-4.215,0-6.342,3.085-6.342,5.659c0,1.557,0.578,2.942,1.816,3.459
						c0.203,0.085,0.387,0.004,0.443-0.227c0.041-0.158,0.141-0.561,0.182-0.727c0.061-0.227,0.037-0.308-0.127-0.505
						c-0.355-0.431-0.586-0.987-0.586-1.776c0-2.29,1.68-4.338,4.369-4.338c2.381,0,3.691,1.486,3.691,3.471
						c0,2.611-1.131,4.816-2.813,4.816c-0.93,0-1.623-0.785-1.398-1.746c0.266-1.147,0.779-2.386,0.779-3.215
						c0-0.74-0.389-1.358-1.193-1.358c-0.949,0-1.711,1.002-1.711,2.345c0,0.854,0.281,1.434,0.281,1.434s-0.971,4.2-1.143,4.936
						c-0.152,0.67-0.178,1.405-0.156,2.026c0.066,0.56,0.605,1.013,1.074,0.4c0.33-0.539,0.688-1.217,0.867-1.898
						c0.111-0.401,0.627-2.488,0.627-2.488C475.01,707.135,475.91,707.663,476.869,707.663z"/>
				</g>
			</g>
		</g>
		<g>
			<path fill="#D24736" d="M15-0.08c-8.283,0-15,6.716-15,15c0,8.283,6.717,15,15,15s15-6.717,15-15C30,6.636,23.284-0.08,15-0.08z"
				/>
			<path id="circle-social-google-plus-outline-stroke_3_" fill="#FFFFFF" d="M22.745,14.165V12.36h-1.287v1.805h-1.853v1.289h1.854
				v1.855h1.287v-1.855h1.8v-1.289H22.745z M13.379,14.063v2.061c0,0,1.996-0.002,2.81-0.002c-0.44,1.337-1.125,2.065-2.81,2.065
				c-1.706,0-3.036-1.385-3.036-3.094s1.33-3.094,3.036-3.094c0.901,0,1.483,0.318,2.018,0.761c0.427-0.428,0.392-0.489,1.479-1.519
				c-0.923-0.843-2.151-1.355-3.497-1.355c-2.871,0-5.198,2.332-5.198,5.207s2.327,5.207,5.198,5.207
				c4.289,0,5.339-3.743,4.991-6.237H13.379z"/>
			<path fill="#6B757E" d="M45-0.08c-8.283,0-15,6.716-15,15c0,8.283,6.716,15,15,15s15-6.717,15-15C60,6.636,53.283-0.08,45-0.08z"
				/>
			<path id="circle-social-google-plus-outline-stroke_2_" fill="#FFFFFF" d="M52.744,14.165V12.36h-1.285v1.805h-1.854v1.289h1.854
				v1.855h1.285v-1.855h1.801v-1.289H52.744z M43.379,14.063v2.061c0,0,1.996-0.002,2.811-0.002
				c-0.441,1.337-1.125,2.065-2.811,2.065c-1.705,0-3.035-1.385-3.035-3.094s1.33-3.094,3.035-3.094
				c0.902,0,1.484,0.318,2.018,0.761c0.428-0.428,0.393-0.489,1.48-1.519c-0.924-0.843-2.15-1.355-3.498-1.355
				c-2.871,0-5.197,2.332-5.197,5.207s2.326,5.207,5.197,5.207c4.289,0,5.34-3.743,4.992-6.237H43.379z"/>
		</g>
		<g>
			<g id="Layer_1_6_" xmlns:sketch="http://www.bohemiancoding.com/sketch/ns">
				<title></title>
				<desc></desc>
				<g id="miu_6_">
					<g id="Artboard-1_10_" transform="translate(-215.000000, -659.000000)">
						<g id="slice_4_" transform="translate(215.000000, 119.000000)">
						</g>
						<g>
							<path fill="#FFFFFF" d="M230,779c-8.284,0-15,6.715-15,15s6.716,15,15,15s15-6.715,15-15S238.285,779,230,779z M230,807.635
								c-7.531,0-13.637-6.104-13.637-13.635s6.105-13.635,13.637-13.635c7.53,0,13.637,6.104,13.637,13.635
								S237.531,807.635,230,807.635z"/>
						</g>
					</g>
				</g>
			</g>
			<g>
				<path fill-rule="evenodd" clip-rule="evenodd" fill="#FFFFFF" d="M23.86,134.521c0,4.469-3.651,8.092-8.155,8.092
					c-1.431,0-2.775-0.364-3.943-1.006l-4.516,1.436l1.472-4.343c-0.742-1.22-1.17-2.649-1.17-4.179
					c0-4.469,3.651-8.094,8.157-8.094C20.209,126.427,23.86,130.052,23.86,134.521L23.86,134.521z M15.705,127.717
					c-3.783,0-6.858,3.052-6.858,6.804c0,1.488,0.485,2.867,1.306,3.989l-0.855,2.526l2.634-0.838
					c1.083,0.711,2.379,1.126,3.773,1.126c3.78,0,6.855-3.052,6.855-6.804S19.485,127.717,15.705,127.717L15.705,127.717z
					 M19.822,136.385c-0.05-0.083-0.184-0.133-0.382-0.231c-0.2-0.1-1.184-0.58-1.368-0.646c-0.182-0.065-0.316-0.099-0.449,0.1
					s-0.516,0.645-0.633,0.777s-0.232,0.148-0.434,0.05c-0.199-0.1-0.844-0.31-1.607-0.984c-0.594-0.526-0.995-1.176-1.112-1.373
					c-0.116-0.199-0.012-0.307,0.087-0.405c0.091-0.089,0.2-0.231,0.301-0.347c0.1-0.117,0.133-0.2,0.199-0.332
					c0.067-0.133,0.034-0.248-0.017-0.348c-0.05-0.099-0.449-1.075-0.617-1.473c-0.166-0.396-0.333-0.33-0.45-0.33
					c-0.116,0-0.25-0.017-0.383-0.017c-0.134,0-0.35,0.05-0.533,0.248s-0.7,0.679-0.7,1.653c0,0.977,0.716,1.92,0.816,2.052
					c0.1,0.133,1.382,2.201,3.415,2.995c2.033,0.795,2.033,0.529,2.398,0.496c0.367-0.033,1.184-0.48,1.35-0.943
					C19.873,136.864,19.873,136.467,19.822,136.385L19.822,136.385z M19.822,136.385"/>
			</g>
		</g>
	</g>
</g>
</svg>
