<?xml version="1.0" encoding="utf-8"?>
<!-- Generator: Adobe Illustrator 16.0.0, SVG Export Plug-In . SVG Version: 6.00 Build 0)  -->
<!DOCTYPE svg PUBLIC "-//W3C//DTD SVG 1.1//EN" "http://www.w3.org/Graphics/SVG/1.1/DTD/svg11.dtd">
<svg version="1.1" xmlns="http://www.w3.org/2000/svg" xmlns:xlink="http://www.w3.org/1999/xlink" x="0px" y="0px" width="30px"
	 height="30px" viewBox="0 0 30 30" enable-background="new 0 0 30 30" xml:space="preserve">
<g id="Layer_2" display="none">
	<rect x="-0.39" y="-1.466" display="inline" width="30.919" height="31.996"/>
</g>
<g id="Layer_1" xmlns:sketch="http://www.bohemiancoding.com/sketch/ns">
	<g>
		<title></title>
		<desc></desc>
		<g id="Artboard-1" transform="translate(-287.000000, -659.000000)">
			<g id="slice" transform="translate(215.000000, 119.000000)">
			</g>
			<g>
				<path fill="#FFFFFF" d="M302,660c-7.72,0-14,6.281-14,14c0,7.732,6.28,14,14,14c7.732,0,14-6.268,14-14
					C316,666.281,309.732,660,302,660z M302,686.729c-7.029,0-12.728-5.697-12.728-12.729c0-7.029,5.698-12.728,12.728-12.728
					s12.729,5.698,12.729,12.728S309.029,686.729,302,686.729z"/>
			</g>
		</g>
	</g>
	<g>
		<path fill="#FFFFFF" d="M20.947,14.339l-2.645,2.643c-1.458,1.46-3.825,1.46-5.284,0c-0.23-0.229-0.41-0.487-0.567-0.754L13.68,15
			c0.058-0.059,0.13-0.093,0.199-0.133c0.084,0.291,0.233,0.565,0.461,0.793c0.729,0.729,1.914,0.729,2.643,0l2.642-2.643
			c0.729-0.729,0.729-1.914,0-2.643c-0.728-0.729-1.913-0.729-2.642,0l-0.939,0.94c-0.763-0.297-1.584-0.376-2.384-0.259
			l2.002-2.002c1.46-1.46,3.826-1.46,5.286,0C22.405,10.513,22.405,12.88,20.947,14.339z M13.959,18.685l-0.94,0.939
			c-0.729,0.729-1.914,0.729-2.643,0c-0.729-0.729-0.729-1.913,0-2.643l2.643-2.643c0.729-0.729,1.915-0.729,2.643,0
			c0.228,0.228,0.377,0.502,0.461,0.792c0.07-0.04,0.142-0.073,0.199-0.131l1.229-1.228c-0.157-0.268-0.338-0.525-0.567-0.755
			c-1.458-1.458-3.826-1.458-5.285,0L9.055,15.66c-1.459,1.461-1.459,3.826,0,5.285s3.826,1.459,5.285,0l2.003-2.002
			C15.543,19.061,14.722,18.98,13.959,18.685z"/>
	</g>
</g>
</svg>
